<svg width="164" height="130" viewBox="0 0 164 130" fill="none" xmlns="http://www.w3.org/2000/svg">
<g clip-path="url(#clip0_1_2329)">
<path d="M150.386 24.3394H147V41.3394H150.386V24.3394Z" fill="#9BA3FF"/>
<path d="M155.693 30.0536H152.307V41.3391H155.693V30.0536Z" fill="#9BA3FF"/>
<path d="M161.007 35.4393H157.621V41.3394H161.007V35.4393Z" fill="#9BA3FF"/>
</g>
<g clip-path="url(#clip1_1_2329)">
<path d="M85.5 129.339C104.554 129.339 120 126.653 120 123.339C120 120.026 104.554 117.339 85.5 117.339C66.4462 117.339 51 120.026 51 123.339C51 126.653 66.4462 129.339 85.5 129.339Z" fill="#808AFF"/>
</g>
<path d="M79.6816 45.4954C79.6816 45.4954 78.3301 60.436 83.9284 60.2109C89.9338 59.9662 88.3185 45.4954 88.3185 45.4954C87.5336 43.163 87.221 41.7798 87.5727 39.3333H80.2809C80.6326 41.7798 80.4632 43.163 79.6816 45.4954Z" fill="#FDBCA0"/>
<path d="M80.4274 42.2233C81.2546 42.4713 82.0883 42.6996 82.9513 42.7714C83.7688 42.8399 84.609 42.7877 85.4232 42.6996C86.1006 42.6246 86.8236 42.5039 87.501 42.2788C87.3935 41.3915 87.4098 40.4781 87.5759 39.3298H80.2841C80.4436 40.4553 80.4925 41.3556 80.4274 42.2233Z" fill="#F0A38B"/>
<path d="M83.9282 41.3721C86.0093 41.3721 88.0122 40.55 89.4777 39.069C91.2233 37.3075 92.5911 35.3437 92.9917 33.0373C93.5063 30.0753 92.5065 27.1166 90.3245 24.7352H77.5288C75.3468 27.1133 74.3469 30.0753 74.8615 33.0373C75.2621 35.3437 76.6332 37.3075 78.3755 39.069C79.8443 40.5468 81.8472 41.3721 83.9282 41.3721Z" fill="#FDBCA0"/>
<path d="M84.5635 47.2375C84.2997 47.5278 84.0522 47.8443 83.8177 48.1607C83.5343 47.965 83.3096 47.7268 83.0621 47.4822C83.0393 47.4593 82.9937 47.4822 83.0035 47.5148C83.1435 47.8997 83.4366 48.2129 83.7362 48.4804C83.8014 48.5358 83.8926 48.5424 83.9577 48.4804C84.2736 48.1705 84.583 47.8084 84.8273 47.4365C84.9315 47.2832 84.6905 47.0972 84.5635 47.2375Z" fill="#DF8370"/>
<path d="M91.6045 46.6666C89.6603 46.833 87.7421 47.1494 85.8499 47.6322C85.7359 47.6616 85.7848 47.8345 85.8988 47.8084C87.7811 47.3908 89.6831 47.107 91.6045 46.9765C91.8065 46.9635 91.8032 46.6503 91.6045 46.6666Z" fill="#DF8370"/>
<path d="M76.249 46.6666C78.1933 46.833 80.1115 47.1494 82.0037 47.6322C82.1177 47.6616 82.0688 47.8345 81.9548 47.8084C80.0724 47.3908 78.1705 47.107 76.249 46.9765C76.0504 46.9635 76.0504 46.6503 76.249 46.6666Z" fill="#DF8370"/>
<path d="M76.5844 19.8094C73.865 21.3687 71.95 23.8251 71.9175 27.1264C71.8849 30.8485 76.4118 36.7758 76.3499 36.629C74.8453 33.008 74.4512 28.0235 78.2062 25.528C78.5807 25.28 79.0497 25.1365 79.3852 24.8462C79.3754 22.8791 78.2909 20.974 76.5844 19.8094Z" fill="#3F4553"/>
<path d="M91.0048 19.8094C93.7242 21.3687 95.6392 23.8251 95.6717 27.1264C95.7043 30.8485 93.48 34.1595 91.2654 36.9715C91.8288 35.7449 93.1347 28.0202 89.3797 25.528C89.0052 25.28 88.5362 25.1365 88.2008 24.8462C88.2138 22.8791 89.3016 20.974 91.0048 19.8094Z" fill="#424495"/>
<path d="M130.05 17.8392C127.973 16.8051 125.546 16.5833 123.286 17.0433C122.192 17.2651 121.156 17.6533 120.169 18.1785C119.515 18.5243 118.85 19.0201 118.088 19.0788C117.163 19.1473 116.353 18.5438 115.665 18.0089C113.529 16.3452 111.357 14.887 108.608 14.4858C107.279 14.29 105.794 14.4336 104.765 15.2491C103.71 13.8529 102.137 12.858 100.404 12.4926C98.1116 12.0098 95.9328 12.6981 94.1319 14.0813C93.1158 13.5822 91.3376 12.8645 91.1129 12.8025C84.3389 10.9366 75.0898 15.6699 76.2882 23.6523C77.3174 30.5126 85.99 33.6834 91.9987 32.2741C93.2949 34.7305 96.4018 35.3014 98.7955 34.0226C98.9779 34.1629 99.1603 34.3032 99.3459 34.4402C103.166 37.2456 107.611 39.0692 112.412 38.2406C114.236 37.9241 115.942 37.2652 117.512 36.3192C119.004 37.4414 120.967 37.7969 122.775 36.9292C124.12 36.2866 125.022 35.0991 125.344 33.7551C125.367 33.7551 125.39 33.7551 125.413 33.7551C129.405 33.7062 133.639 31.7196 134.659 27.5277C135.587 23.7176 133.522 19.5649 130.05 17.8392Z" fill="#4E5567"/>
<path d="M111.897 16.5964C113.21 17.6697 113.988 19.1409 113.171 20.7622C112.506 22.0833 111.311 23.0457 110.441 24.2168C109.422 25.5869 109.246 27.3451 110.917 28.3466C112.562 29.3318 114.623 28.1052 115.994 27.1755C117.688 26.024 119.505 22.6933 120.964 21.2645C127.445 14.9197 133.88 21.7017 133.906 21.7245C133.066 20.0739 131.724 18.6744 130.05 17.8393C127.972 16.8052 125.546 16.5834 123.286 17.0433C122.192 17.2652 121.156 17.6534 120.169 18.1786C119.515 18.5243 118.85 19.0202 118.088 19.0789C117.163 19.1474 116.352 18.5439 115.665 18.0089C113.529 16.3452 111.357 14.8871 108.608 14.4858C107.308 14.2966 105.859 14.4336 104.833 15.2035C107.071 14.3325 110.103 15.1252 111.897 16.5964Z" fill="#3F4553"/>
<path d="M129.158 32.6787C127.572 32.8647 126.087 32.7766 124.628 32.1274C123.999 33.7618 122.713 35.4124 120.895 35.6701C119.674 35.843 118.231 35.4613 117.981 34.1663C109.396 41.1668 99.7722 33.3572 98.844 31.8926C96.167 33.6411 92.793 31.5076 91.7932 28.7772C89.7545 29.5699 87.4031 29.3253 85.423 28.4738C81.7332 26.8917 79.6879 22.5302 80.9776 18.6809C82.0523 15.4808 84.915 13.2919 88.087 12.4013C81.9025 12.3655 75.262 16.815 76.2879 23.6524C77.317 30.5127 85.9864 33.6835 91.9984 32.2742C93.2945 34.7306 96.4015 35.3015 98.7952 34.0227C98.9775 34.163 99.1599 34.3033 99.3455 34.4403C103.166 37.2457 107.611 39.0692 112.412 38.2407C114.235 37.9242 115.942 37.2653 117.512 36.3193C119.003 37.4414 120.967 37.797 122.774 36.9293C124.119 36.2866 125.022 35.0992 125.344 33.7552C125.367 33.7552 125.39 33.7552 125.412 33.7552C127.318 33.7324 129.275 33.2659 130.916 32.3329C130.34 32.5058 129.741 32.6102 129.158 32.6787Z" fill="#3F4553"/>
<path d="M81.642 34.786C80.5021 34.9752 78.6491 35.0372 77.5971 33.9085C77.3887 33.6834 77.1054 33.9379 77.3659 34.163C77.4082 34.1989 77.4506 34.2315 77.4929 34.2641C77.3692 34.3 77.2389 34.3163 77.1021 34.3065C77.0989 34.3065 77.0989 34.3098 77.1021 34.313C77.2682 34.3685 77.4376 34.3848 77.6037 34.3522C77.6069 34.3554 77.6102 34.3587 77.6134 34.3587C77.4701 34.4533 77.2975 34.4925 77.1282 34.5479C77.1249 34.5479 77.1249 34.5512 77.1282 34.5544C77.3366 34.574 77.5548 34.5479 77.7274 34.437C77.7469 34.45 77.7665 34.4566 77.786 34.4696C77.6558 34.5707 77.5092 34.6458 77.3431 34.6849C77.3268 34.6882 77.3301 34.7143 77.3464 34.7143C77.5581 34.7241 77.76 34.6719 77.9293 34.5544C77.9651 34.574 78.0042 34.5903 78.0401 34.6099C77.9196 34.698 77.7958 34.7763 77.6558 34.8415C77.6427 34.848 77.6492 34.8709 77.6623 34.8709C77.8479 34.8774 78.0107 34.7828 78.1573 34.6719C78.2029 34.6947 78.2485 34.711 78.2973 34.7306C78.2355 34.7926 78.1638 34.8513 78.0954 34.91C78.0856 34.9198 78.0954 34.9328 78.1084 34.9328C78.2257 34.9035 78.3332 34.8545 78.4243 34.786C79.4698 35.2166 80.6943 35.2297 81.7429 34.8513C81.8537 34.8056 81.769 34.7665 81.642 34.786Z" fill="#3F4553"/>
<path d="M86.3219 34.786C87.4617 34.9752 89.3148 35.0372 90.3667 33.9085C90.5752 33.6834 90.8585 33.9379 90.598 34.163C90.5556 34.1989 90.5133 34.2315 90.471 34.2641C90.598 34.3 90.725 34.3163 90.8618 34.3065C90.865 34.3065 90.865 34.3098 90.8618 34.313C90.6957 34.3685 90.5263 34.3848 90.3602 34.3522C90.357 34.3554 90.3537 34.3587 90.3505 34.3587C90.4938 34.4533 90.6664 34.4925 90.8357 34.5479C90.839 34.5479 90.839 34.5512 90.8357 34.5544C90.6273 34.574 90.4091 34.5479 90.2365 34.437C90.2169 34.45 90.1974 34.4566 90.1779 34.4696C90.3081 34.5707 90.4547 34.6458 90.6208 34.6849C90.6371 34.6882 90.6338 34.7143 90.6175 34.7143C90.4058 34.7241 90.2039 34.6719 90.0346 34.5544C89.9987 34.574 89.9597 34.5903 89.9238 34.6099C90.0443 34.698 90.1681 34.7763 90.3081 34.8415C90.3212 34.848 90.3146 34.8709 90.3016 34.8709C90.116 34.8774 89.9531 34.7828 89.8066 34.6719C89.761 34.6947 89.7154 34.711 89.6698 34.7306C89.7317 34.7926 89.8033 34.8513 89.8717 34.91C89.8815 34.9198 89.8717 34.9328 89.8587 34.9328C89.7415 34.9035 89.634 34.8545 89.5428 34.786C88.4974 35.2166 87.2729 35.2297 86.2209 34.8513C86.1135 34.8056 86.1949 34.7665 86.3219 34.786Z" fill="#3F4553"/>
<path d="M84.7001 37.1641C84.166 37.4414 83.6352 37.5523 83.0848 37.2196C83.0457 37.1968 83.0001 37.2522 83.0359 37.2848C83.5082 37.7057 84.3484 37.8133 84.8206 37.3207C84.8988 37.2359 84.8011 37.112 84.7001 37.1641Z" fill="#3F4553"/>
<path d="M85.9213 39.0887C85.2536 39.2877 84.5958 39.3627 83.9444 39.3334C83.2931 39.3627 82.6352 39.2877 81.9676 39.0887C81.9513 39.0822 81.9383 39.1115 81.9546 39.1181C82.5961 39.3921 83.2703 39.5389 83.9444 39.5552C84.6186 39.5389 85.2927 39.3921 85.9343 39.1181C85.9506 39.1115 85.9375 39.0854 85.9213 39.0887Z" fill="#3F4553"/>
<path d="M80.883 36.3845C80.8277 36.3584 80.7691 36.3356 80.7104 36.3193C79.9647 36.1268 79.0821 35.7615 78.3037 35.8952C77.7533 35.9898 77.6263 36.6586 77.939 37.0533C78.2744 37.4774 78.9323 37.5981 79.4403 37.6372C79.9516 37.6763 80.7528 37.7318 81.1338 37.3306C81.479 36.9685 81.2445 36.5607 80.883 36.3845Z" fill="#FBAD8B"/>
<path d="M86.9794 36.3845C87.0348 36.3584 87.0934 36.3356 87.1521 36.3193C87.8978 36.1268 88.7804 35.7615 89.5588 35.8952C90.1092 35.9898 90.2362 36.6586 89.9235 37.0533C89.5881 37.4774 88.9302 37.5981 88.4222 37.6372C87.9109 37.6763 87.1097 37.7318 86.7287 37.3306C86.3835 36.9685 86.6212 36.5607 86.9794 36.3845Z" fill="#FBAD8B"/>
<path d="M74.0931 31.5009C73.3213 31.3868 72.494 31.7064 72.6341 32.6231C72.7448 33.3538 73.5297 34.0813 74.7282 33.8627C74.4025 33.1059 74.1778 32.3099 74.0931 31.5009Z" fill="#F9CDB9"/>
<path d="M73.3473 32.2187C73.559 32.0425 73.8879 31.9642 74.1712 32.0099C74.1549 31.9218 74.1452 31.8305 74.1321 31.7424C73.7446 31.7065 73.2886 31.8664 73.0672 32.1469C72.722 32.5873 72.9825 33.0766 73.3636 33.3767C73.4189 33.4224 73.4971 33.3507 73.445 33.2952C73.1681 33.0016 72.976 32.5286 73.3473 32.2187Z" fill="#F8C4AB"/>
<path d="M74.3244 32.7079C74.1225 32.5252 73.8587 32.4241 73.5559 32.4372C73.4875 32.4404 73.4614 32.5546 73.5396 32.5644C73.8164 32.6035 74.0541 32.7471 74.2007 32.9689C74.0313 33.0602 73.9076 33.2592 74.0802 33.4223C74.217 33.5528 74.4189 33.5822 74.611 33.5626C74.5036 33.2821 74.4026 32.9982 74.3244 32.7079Z" fill="#F8C4AB"/>
<path d="M74.0248 33.6506C74.0216 33.6474 74.0151 33.6506 74.0183 33.6539C74.1421 33.9605 74.318 34.6782 73.8946 34.825C73.6112 34.9229 73.5852 34.5575 73.6275 34.365C73.6666 34.1889 73.7643 34.0062 73.8457 33.8496C73.8457 33.8496 73.6503 33.8072 73.4712 33.7159C73.2269 33.9247 73.139 34.2346 73.1814 34.5608C73.2204 34.8576 73.4093 35.1838 73.7448 35.1936C74.0444 35.2034 74.2593 34.9457 74.3049 34.6717C74.357 34.3161 74.2137 33.941 74.0248 33.6506Z" fill="#FDCA27"/>
<path d="M136.345 89.8311C134.515 87.6487 130.555 87.4726 127.956 87.2018C120.143 86.3863 112.132 86.5885 104.315 87.2214C100.424 87.5378 96.5515 88.0108 92.6955 88.6339C89.9045 89.0873 86.7878 89.4037 84 90.2975C81.2123 89.4037 78.0956 89.084 75.3046 88.6339C71.4518 88.0075 67.5763 87.5345 63.6846 87.2214C55.8684 86.5885 47.8536 86.3863 40.044 87.2018C37.4483 87.4726 33.4849 87.6487 31.6546 89.8311C29.8862 91.9384 32.0682 94.4926 33.7487 95.8334C36.0708 97.6863 39.0181 98.5997 41.8319 99.3989C45.3655 100.397 48.9804 101.076 52.6149 101.591C68.8823 103.888 77.7145 102.195 86.2179 102.09C86.5435 102.504 86.8497 102.935 87.1297 103.382C95.7503 103.437 106.823 102.749 115.382 101.591C119.02 101.098 122.631 100.4 126.165 99.3989C128.982 98.6029 131.926 97.6895 134.248 95.8334C135.929 94.4926 138.111 91.9384 136.345 89.8311Z" fill="#93BFA8"/>
<path d="M124.803 91.3416C125.074 90.9958 126.712 90.5684 127.357 90.2814C124.318 90.526 121.267 90.8914 118.235 91.2046C112.467 91.7983 106.693 93.3282 101.228 95.2431C98.6129 96.1597 96.0042 97.122 93.4054 98.0876C91.3471 98.851 89.3117 99.6861 87.3804 100.727C87.6768 100.635 87.9732 100.544 88.2695 100.456C91.3504 99.5491 103.905 92.7475 127.152 91.9092C126.614 91.7917 124.699 91.4753 124.803 91.3416Z" fill="#66A986"/>
<path d="M43.5384 90.8618C43.2681 90.516 41.6299 90.0887 40.9851 89.8016C44.0236 90.0463 47.0752 90.4116 50.1072 90.7248C55.8749 91.3185 61.649 92.8485 67.1138 94.7633C69.729 95.68 72.3376 96.6423 74.9365 97.6079C76.9948 98.3712 79.0302 99.2063 80.9614 100.247C80.6651 100.156 80.3687 100.064 80.0724 99.9762C76.9915 99.0693 64.4368 92.2678 41.1903 91.4294C41.7244 91.312 43.6393 90.9956 43.5384 90.8618Z" fill="#66A986"/>
<path d="M91.8586 98.0746C90.5494 97.5494 89.1652 97.5364 87.8919 98.0811C85.7164 99.0174 83.0491 97.582 80.7889 97.8397C78.7079 98.0779 77.441 100.449 79.0336 101.963C79.4179 102.328 83.2803 103.731 89.3997 100.874C90.0706 100.56 90.7252 100.381 91.484 100.391C91.6599 100.394 91.826 100.56 92.0116 100.541C92.4089 100.492 92.7346 100.42 92.9561 100.035C93.4772 99.1283 92.6076 98.3747 91.8586 98.0746Z" fill="#FDB597"/>
<path d="M76.5844 102.886C77.6884 102.009 79.0139 101.598 80.385 101.758C82.7364 102.032 84.8826 99.8916 87.1232 99.4904C89.1847 99.1218 91.0769 101.03 89.9826 102.942C89.7188 103.402 86.4165 105.852 79.7369 104.866C79.0042 104.759 78.3268 104.775 77.6038 105C77.4377 105.052 77.3237 105.261 77.1381 105.294C76.744 105.362 76.4118 105.385 76.0894 105.082C75.3338 104.361 75.9526 103.389 76.5844 102.886Z" fill="#FDBCA0"/>
<path d="M120.967 49.2958C120.214 49.684 119.423 50.1211 118.684 50.5289C119.075 50.2092 121.244 47.9975 122.087 47.4527C122.178 47.394 121.963 46.4969 119.745 48.2715C119.084 48.8 118.303 49.335 117.681 49.9124C118.472 48.4085 119.133 46.8851 120.169 45.5085C120.211 45.453 120.198 45.3911 120.162 45.3487C119.951 45.1823 119.42 45.3715 119.182 45.6259C118.759 46.0761 117.15 47.8181 116.368 49.6547C116.381 49.0251 116.326 48.004 115.88 47.7952C115.6 47.6615 115.134 47.8377 114.834 47.8605C114.245 47.9029 113.473 47.9877 112.923 47.7528C112.841 47.7202 112.636 47.6941 112.711 47.9649C112.962 48.8522 114.199 48.9631 114.968 49.1588C115.228 49.7917 114.496 50.829 114.033 51.1422C113.281 51.6543 112.183 51.152 112.372 50.1472C112.538 49.2632 113.066 48.862 112.6 47.9942C112.447 47.7072 111.789 47.4462 111.936 47.9094C112.314 49.0936 111.229 50.0885 111.089 51.2335C110.978 52.1404 111.457 52.9461 111.939 53.6736C111.91 53.7486 111.887 53.8237 111.861 53.8954C111.206 55.0306 110.698 56.2278 110.33 57.4805C111.17 57.7578 113.639 57.5816 113.629 57.5621C113.639 57.5816 113.926 55.8266 114.584 55.0861C115.303 54.2738 116.209 53.6475 117.075 53.0081C118.895 51.6609 120.745 50.3528 122.621 49.0805C122.729 49.012 122.641 48.4314 120.967 49.2958Z" fill="#FDBCA0"/>
<path d="M47.2314 49.2958C47.9837 49.684 48.7751 50.1211 49.5144 50.5289C49.1236 50.2092 46.9546 47.9975 46.1111 47.4527C46.0199 47.394 46.2349 46.4969 48.4527 48.2715C49.1138 48.8 49.8954 49.335 50.5175 49.9124C49.7261 48.4085 49.065 46.8851 48.0293 45.5085C47.987 45.453 48 45.3911 48.0358 45.3487C48.2475 45.1823 48.7784 45.3715 49.0161 45.6259C49.4395 46.0761 51.0483 47.8181 51.8299 49.6547C51.8169 49.0251 51.8723 48.004 52.3184 47.7952C52.5985 47.6615 53.0642 47.8377 53.3638 47.8605C53.9533 47.9029 54.7251 47.9877 55.2755 47.7528C55.357 47.7202 55.5621 47.6941 55.4872 47.9649C55.2365 48.8522 53.9989 48.9631 53.2303 49.1588C52.9698 49.7917 53.7025 50.829 54.165 51.1422C54.9173 51.6543 56.0148 51.152 55.8259 50.1472C55.6598 49.2632 55.1322 48.862 55.598 47.9942C55.751 47.7072 56.4089 47.4462 56.2623 47.9094C55.8845 49.0936 56.969 50.0885 57.1091 51.2335C57.2198 52.1404 56.7411 52.9461 56.2591 53.6736C56.2884 53.7486 56.3112 53.8237 56.3372 53.8954C56.9918 55.0306 57.4999 56.2278 57.8679 57.4805C57.0277 57.7578 54.5591 57.5816 54.5688 57.5621C54.5591 57.5816 54.2725 55.8266 53.6146 55.0861C52.8949 54.2738 51.9895 53.6475 51.1232 53.0081C49.3027 51.6609 47.4529 50.3528 45.577 49.0805C45.4695 49.012 45.5575 48.4314 47.2314 49.2958Z" fill="#FDBCA0"/>
<path d="M109.451 56.3258C108.23 59.4802 104.088 71.126 102.358 76.0649C101.329 73.4226 98.5479 61.9497 96.2063 48.6304C95.4768 44.4908 90.8164 45.0812 88.3218 45.4955C88.1427 48.2748 85.4494 55.98 84.0034 55.9963C82.5574 55.98 79.6915 48.8196 79.685 45.4955C77.1936 45.0812 72.5299 44.4908 71.8004 48.6304C69.4556 61.9497 66.6776 73.4258 65.6485 76.0649C63.9159 71.126 59.7766 59.4802 58.5553 56.3258C56.9888 57.0663 55.2562 57.474 53.5269 57.5751C54.8654 61.1407 59.2848 86.3895 65.7983 86.3895C68.6219 86.3895 70.4098 83.3851 73.2887 72.2547C73.432 74.1141 73.4809 77.6862 73.4092 81.4409C73.3571 84.1452 71.491 87.2703 68.9931 86.6668C68.4883 86.5461 67.8305 86.9278 68.4558 87.6063C68.6251 87.7922 68.8433 87.9292 69.068 88.0336C73.0575 89.9257 73.2138 92.7539 75.5685 94.4013C76.9916 95.3963 78.7438 95.7094 80.4145 96.0487C82.2252 96.414 84.0913 96.6881 85.9346 96.4108C88.9992 95.9508 91.3799 93.8989 93.9169 92.294C95.3335 91.3969 96.773 90.6792 98.4372 90.4346C102.72 89.805 102.436 86.7777 101.541 86.8397C98.5414 87.0452 94.591 83.2155 94.5682 79.0008C94.5519 76.1954 94.6073 73.7064 94.718 72.2547C97.597 83.3851 99.3849 86.3895 102.208 86.3895C108.722 86.3895 113.141 61.1407 114.48 57.5751C112.751 57.474 111.018 57.063 109.451 56.3258Z" fill="#F2EDE4"/>
<path d="M92.2203 67.3517C92.1877 67.3745 92.1617 67.3973 92.1356 67.4202C91.6048 67.9388 91.1912 68.5619 90.6701 69.0904C90.149 69.6156 89.4749 70.056 88.7356 70.0527C86.9607 70.0429 86.0716 67.9095 85.0034 66.8232C83.362 65.1595 81.7694 68.9501 80.5482 69.6939C79.2943 70.4572 78.4443 69.9972 77.5194 69.0936C76.9527 68.5391 76.4707 67.916 75.9464 67.3223C75.8096 67.1657 75.497 67.3321 75.5816 67.5343C76.1939 69.0088 77.578 71.4554 79.405 71.4946C80.5254 71.5174 81.4438 70.8748 82.1798 70.0853C82.5413 69.6971 83.5378 67.6126 84.1859 67.8867C84.3064 67.9388 84.3911 68.0465 84.4725 68.1509C84.7949 68.575 85.0946 69.0219 85.4398 69.4264C85.6189 69.6352 86.1367 69.9809 86.1367 70.268C86.8695 71.015 87.8758 71.6022 88.9147 71.475C89.9764 71.3445 90.8166 70.5127 91.4322 69.6352C91.8686 69.0121 92.2366 68.3401 92.5264 67.6355C92.5688 67.5343 92.6046 67.4071 92.5297 67.3256C92.4483 67.2407 92.3245 67.2799 92.2203 67.3517Z" fill="#D9C9AC"/>
<g clip-path="url(#clip2_1_2329)">
<path d="M151.99 84.2946L163.135 80.5589L157.548 64.1592L146.403 67.8949C145.966 68.0406 145.729 68.5101 145.88 68.9431L150.933 83.7725C151.08 84.2056 151.553 84.4403 151.99 84.2946Z" fill="#3F4553"/>
<path d="M151.998 83.9708L163.421 80.142L158.038 64.3453L146.615 68.1741C146.333 68.2672 146.182 68.5707 146.276 68.8541L151.312 83.6349C151.41 83.9141 151.716 84.0639 151.998 83.9708Z" fill="#DDDDE3"/>
<path d="M152.239 83.89L163.662 80.0612L158.279 64.2645L146.856 68.0933C146.574 68.1864 146.423 68.4899 146.517 68.7732L151.553 83.5541C151.651 83.8333 151.957 83.9871 152.239 83.89Z" fill="#E2E5FF"/>
<path d="M152.855 84.0032L164 80.2675L158.413 63.8718L147.268 67.6075C146.831 67.7532 146.594 68.2227 146.745 68.6558L151.798 83.4852C151.945 83.9182 152.418 84.1489 152.855 84.0032Z" fill="#4E5567"/>
<path d="M157.789 64.0813L157.549 64.1616L163.136 80.5615L163.376 80.4812L157.789 64.0813Z" fill="#3F4553"/>
<path d="M159.381 76.892L159.63 76.3659L160.152 76.633L156.071 64.657C155.997 64.4465 155.814 64.4627 155.602 64.5356C155.389 64.6084 155.23 64.7055 155.304 64.916L159.381 76.892Z" fill="#93BFA8"/>
<path d="M134.338 68.4295L141.84 59.6091L140.323 58.341L132.822 67.1614L134.338 68.4295Z" fill="#3F4553"/>
<path d="M132.821 67.1584L134.335 68.4253L132.147 69.6192C132.074 69.6597 131.976 69.5747 132 69.4978L132.821 67.1584Z" fill="#F2EDE4"/>
<path d="M132.151 69.6231L132.743 69.2993L132.229 68.8662L132.009 69.4976C131.98 69.5745 132.078 69.6595 132.151 69.6231Z" fill="#3F4553"/>
<path d="M133.836 68.0094L141.337 59.1891L140.822 58.7586L133.321 67.5789L133.836 68.0094Z" fill="#4E5567"/>
</g>
<g clip-path="url(#clip3_1_2329)">
<path d="M51.5028 -16.6606C41.8335 -16.6606 34 -8.82713 34 0.842112C34 10.5058 41.8335 18.3449 51.5028 18.3449C61.1665 18.3449 69.0055 10.5114 69.0055 0.842112C69 -8.82713 61.1665 -16.6606 51.5028 -16.6606ZM51.5028 15.3846C43.4708 15.3846 36.9603 8.87409 36.9603 0.842112C36.9603 -7.18986 43.4708 -13.7003 51.5028 -13.7003C59.5347 -13.7003 66.0452 -7.18986 66.0452 0.842112C66.0452 8.87409 59.5347 15.3846 51.5028 15.3846Z" fill="#808AFF"/>
<path d="M64.9209 6.44911C68.0195 -0.960817 64.5244 -9.47965 57.1145 -12.5782C49.7046 -15.6768 41.1857 -12.1818 38.0872 -4.77184C34.9886 2.63809 38.4836 11.1569 45.8936 14.2555C53.3035 17.3541 61.8223 13.859 64.9209 6.44911Z" fill="#AEB4FC"/>
<path d="M64.7382 0.869005C64.7382 -0.150842 63.1506 -0.156355 63.1506 0.869005C63.1506 1.89437 64.7382 1.89437 64.7382 0.869005Z" fill="#808AFF"/>
<path d="M51.469 14.0776C52.4888 14.0776 52.4943 12.49 51.469 12.49C50.4491 12.49 50.4436 14.0776 51.469 14.0776Z" fill="#808AFF"/>
<path d="M38.2618 0.809189C38.2618 1.82903 39.8495 1.83455 39.8495 0.809189C39.8495 -0.210656 38.2618 -0.216169 38.2618 0.809189Z" fill="#808AFF"/>
<path d="M57.7544 5.09238C57.6607 5.09238 57.5669 5.07033 57.4843 5.0152L51.2274 1.29414C51.0675 1.20043 50.9683 1.02402 50.9683 0.836588V-9.16341C50.9683 -9.45558 51.2053 -9.69263 51.4975 -9.69263C51.7897 -9.69263 52.0267 -9.45558 52.0267 -9.16341V0.538905L58.0245 4.10561C58.2781 4.25445 58.3608 4.5797 58.2064 4.83328C58.1127 4.99866 57.9363 5.09238 57.7544 5.09238Z" fill="#808AFF"/>
</g>
<path d="M16.6207 36.7459L16.2715 34.7649L14.2463 35.11C13.925 34.1851 13.4013 33.3706 12.7239 32.7079L13.9111 31.0444L12.249 29.8917L11.0688 31.5483C10.2168 31.1342 9.26706 30.9064 8.27541 30.9133L7.91925 28.9047L5.915 29.2498L6.26417 31.2515C5.32839 31.569 4.50434 32.0867 3.83392 32.7563L2.15091 31.5828L0.984669 33.2256L2.6607 34.3922C2.24169 35.2343 2.01124 36.173 2.01822 37.1532L0 37.4983L0.349173 39.4793L2.37438 39.1342C2.69562 40.0591 3.21938 40.8736 3.89677 41.5363L2.70959 43.1998L4.37165 44.3525L5.55186 42.6959C6.40384 43.11 7.35359 43.3378 8.34524 43.3309L8.7014 45.3395L10.7057 44.9944L10.3565 42.9927C11.2923 42.6752 12.1163 42.1575 12.7867 41.4879L14.4697 42.6614L15.636 41.0186L13.96 39.852C14.379 39.0099 14.6094 38.0712 14.6024 37.091L16.6207 36.7459ZM8.63157 38.9616C7.605 39.1411 6.62731 38.4577 6.44574 37.4431C6.26417 36.4284 6.95553 35.462 7.9821 35.2826C9.00867 35.1031 9.98636 35.7865 10.1679 36.8011C10.3495 37.8158 9.66512 38.7822 8.63157 38.9616Z" fill="#9BA3FF"/>
<path d="M35.7278 32.7492V30.2574H33.1788C32.9903 29.0564 32.5224 27.952 31.838 26.9994L33.6467 25.2117L31.8659 23.4515L30.0642 25.2324C29.1074 24.549 27.9971 24.0727 26.782 23.8726V21.3394H24.2609V23.8588C23.0458 24.0451 21.9215 24.5076 20.9647 25.1841L19.156 23.3963L17.3752 25.1564L19.177 26.9373C18.4856 27.8829 18.0037 28.9804 17.8012 30.1815H15.2383V32.6733H17.7872C17.9758 33.8743 18.4437 34.9787 19.1281 35.9313L17.3194 37.719L19.1001 39.4792L20.9019 37.6983C21.8586 38.3817 22.969 38.8579 24.1841 39.0581V41.5913H26.7051V39.0719C27.9203 38.8855 29.0376 38.4231 30.0013 37.7466L31.81 39.5344L33.5908 37.7742L31.7891 35.9934C32.4805 35.0477 32.9623 33.9502 33.1648 32.7492H35.7278ZM25.483 33.7846C24.1911 33.7846 23.1366 32.7492 23.1366 31.4653C23.1366 30.1884 24.1841 29.1461 25.483 29.1461C26.775 29.1461 27.8295 30.1815 27.8295 31.4653C27.8225 32.7423 26.775 33.7846 25.483 33.7846Z" fill="#AEB4FC"/>
<g opacity="0.3">
<path d="M153.995 14.2365L135.266 10.0271C135.082 9.98703 134.966 9.80358 135.009 9.62013L137.367 -0.880106C137.407 -1.06356 137.591 -1.1803 137.774 -1.13694L156.503 3.07583C156.687 3.11585 156.803 3.29931 156.76 3.48276L154.398 13.983C154.358 14.1631 154.178 14.2799 153.995 14.2365Z" fill="#ECECEC"/>
<path d="M135.319 9.78024C135.269 9.77024 135.239 9.7202 135.253 9.67351L137.614 -0.826726C137.624 -0.876759 137.674 -0.906779 137.721 -0.893437L156.45 3.31933C156.5 3.32934 156.53 3.37937 156.517 3.42607L154.155 13.9263C154.145 13.9763 154.095 14.0064 154.048 13.993L135.319 9.78024Z" fill="#F5F4F5"/>
<path d="M153.867 2.47991L140.414 -0.54541L140.359 -0.30135L153.812 2.72397L153.867 2.47991Z" fill="#706F6E"/>
<path d="M139.105 0.964361L138.485 0.824269C138.408 0.807592 138.358 0.730874 138.375 0.650822L138.471 0.213868C138.488 0.137151 138.565 0.0871183 138.645 0.103796L139.265 0.243887C139.342 0.260565 139.392 0.337282 139.375 0.417335L139.279 0.854289C139.259 0.931006 139.182 0.981038 139.105 0.964361Z" fill="#585857"/>
<path d="M138.511 0.700831C138.501 0.697496 138.494 0.687489 138.498 0.677483L138.594 0.240528C138.598 0.230522 138.608 0.22385 138.618 0.227186L139.238 0.367279C139.248 0.370614 139.255 0.380621 139.252 0.390627L139.155 0.82758C139.152 0.837587 139.142 0.844258 139.132 0.840923L138.511 0.700831Z" fill="#5E5E5D"/>
<path d="M140.242 1.2179L139.622 1.07781C139.545 1.06113 139.495 0.984414 139.512 0.904362L139.609 0.467409C139.625 0.390692 139.702 0.340658 139.782 0.357336L140.402 0.497429C140.479 0.514106 140.529 0.590824 140.512 0.670876L140.416 1.10783C140.396 1.18788 140.319 1.23458 140.242 1.2179Z" fill="#585857"/>
<path d="M139.649 0.957545C139.639 0.95421 139.632 0.944202 139.635 0.934195L139.732 0.497242C139.735 0.487236 139.745 0.480564 139.755 0.4839L140.376 0.623993C140.386 0.627328 140.392 0.637335 140.389 0.647341L140.292 1.08429C140.289 1.0943 140.279 1.10097 140.269 1.09764L139.649 0.957545Z" fill="#5E5E5D"/>
<path d="M141.38 1.47462L140.759 1.33452C140.683 1.31785 140.633 1.24113 140.649 1.16108L140.746 0.724123C140.763 0.647406 140.839 0.597372 140.92 0.61405L141.54 0.754143C141.617 0.77082 141.667 0.847537 141.65 0.92759L141.553 1.36454C141.533 1.44126 141.457 1.49129 141.38 1.47462Z" fill="#585857"/>
<path d="M140.786 1.21121C140.776 1.20787 140.769 1.19787 140.773 1.18786L140.87 0.750904C140.873 0.740898 140.883 0.734226 140.893 0.737562L141.513 0.877655C141.523 0.88099 141.53 0.890997 141.527 0.901003L141.43 1.33796C141.427 1.34796 141.417 1.35463 141.407 1.3513L140.786 1.21121Z" fill="#5E5E5D"/>
<path d="M142.517 1.72803L141.897 1.58794C141.82 1.57126 141.77 1.49455 141.787 1.41449L141.884 0.977539C141.9 0.900822 141.977 0.85079 142.057 0.867468L142.677 1.00756C142.754 1.02424 142.804 1.10095 142.787 1.18101L142.691 1.61796C142.671 1.69801 142.594 1.74805 142.517 1.72803Z" fill="#585857"/>
<path d="M141.924 1.46792C141.914 1.46459 141.907 1.45458 141.91 1.44457L142.007 1.00762C142.01 0.997612 142.02 0.99094 142.03 0.994276L142.651 1.13437C142.661 1.1377 142.667 1.14771 142.664 1.15772L142.567 1.59467C142.564 1.60468 142.554 1.61135 142.544 1.60801L141.924 1.46792Z" fill="#5E5E5D"/>
<path d="M143.651 1.98499L143.031 1.8449C142.954 1.82822 142.904 1.7515 142.921 1.67145L143.018 1.2345C143.034 1.15778 143.111 1.10775 143.191 1.12443L143.811 1.26452C143.888 1.28119 143.938 1.35791 143.921 1.43796L143.825 1.87492C143.808 1.95497 143.731 2.00167 143.651 1.98499Z" fill="#585857"/>
<path d="M143.061 1.72488C143.051 1.72154 143.044 1.71154 143.048 1.70153L143.145 1.26458C143.148 1.25457 143.158 1.2479 143.168 1.25123L143.788 1.39133C143.798 1.39466 143.805 1.40467 143.802 1.41468L143.705 1.85163C143.702 1.86163 143.692 1.86831 143.682 1.86497L143.061 1.72488Z" fill="#5E5E5D"/>
<path d="M144.789 2.24171L144.168 2.10161C144.092 2.08494 144.042 2.00822 144.058 1.92817L144.155 1.49121C144.172 1.4145 144.248 1.36446 144.329 1.38114L144.949 1.52123C145.026 1.53791 145.076 1.61463 145.059 1.69468L144.962 2.13163C144.946 2.20835 144.869 2.25838 144.789 2.24171Z" fill="#585857"/>
<path d="M144.198 1.9783C144.188 1.97496 144.182 1.96495 144.185 1.95495L144.282 1.51799C144.285 1.50799 144.295 1.50132 144.305 1.50465L144.925 1.64474C144.935 1.64808 144.942 1.65809 144.939 1.66809L144.842 2.10505C144.839 2.11505 144.829 2.12172 144.819 2.11839L144.198 1.9783Z" fill="#5E5E5D"/>
<path d="M145.926 2.49537L145.306 2.35528C145.229 2.3386 145.179 2.26188 145.196 2.18183L145.293 1.74487C145.309 1.66816 145.386 1.61812 145.466 1.6348L146.086 1.77489C146.163 1.79157 146.213 1.86829 146.196 1.94834L146.1 2.38529C146.083 2.46535 146.003 2.51538 145.926 2.49537Z" fill="#585857"/>
<path d="M145.336 2.23513C145.326 2.2318 145.319 2.22179 145.322 2.21178L145.419 1.77483C145.422 1.76482 145.432 1.75815 145.442 1.76149L146.063 1.90158C146.073 1.90491 146.08 1.91492 146.076 1.92493L145.979 2.36188C145.976 2.37189 145.966 2.37856 145.956 2.37522L145.336 2.23513Z" fill="#5E5E5D"/>
<path d="M147.064 2.7522L146.443 2.61211C146.367 2.59543 146.317 2.51872 146.333 2.43866L146.43 2.00171C146.447 1.92499 146.523 1.87496 146.604 1.89164L147.224 2.03173C147.301 2.04841 147.351 2.12512 147.334 2.20518L147.237 2.64213C147.217 2.72218 147.141 2.76888 147.064 2.7522Z" fill="#585857"/>
<path d="M146.473 2.49197C146.463 2.48863 146.457 2.47863 146.46 2.46862L146.557 2.03167C146.56 2.02166 146.57 2.01499 146.58 2.01832L147.2 2.15842C147.21 2.16175 147.217 2.17176 147.214 2.18176L147.117 2.61872C147.114 2.62873 147.104 2.6354 147.094 2.63206L146.473 2.49197Z" fill="#5E5E5D"/>
<path d="M148.201 3.00904L147.581 2.86895C147.504 2.85227 147.454 2.77555 147.471 2.6955L147.568 2.25855C147.584 2.18183 147.661 2.1318 147.741 2.14847L148.362 2.28857C148.438 2.30524 148.488 2.38196 148.472 2.46201L148.375 2.89897C148.355 2.97568 148.278 3.02572 148.201 3.00904Z" fill="#585857"/>
<path d="M147.607 2.74551C147.597 2.74217 147.591 2.73217 147.594 2.72216L147.691 2.28521C147.694 2.2752 147.704 2.26853 147.714 2.27186L148.334 2.41196C148.344 2.41529 148.351 2.4253 148.348 2.4353L148.251 2.87226C148.248 2.88226 148.238 2.88894 148.228 2.8856L147.607 2.74551Z" fill="#5E5E5D"/>
<path d="M149.338 3.26258L148.718 3.12249C148.641 3.10581 148.591 3.02909 148.608 2.94904L148.705 2.51209C148.721 2.43537 148.798 2.38534 148.878 2.40201L149.499 2.54211C149.575 2.55878 149.625 2.6355 149.609 2.71555L149.512 3.15251C149.492 3.23256 149.415 3.28259 149.338 3.26258Z" fill="#585857"/>
<path d="M148.745 3.00247C148.735 2.99913 148.728 2.98912 148.731 2.97912L148.828 2.54216C148.831 2.53216 148.841 2.52549 148.851 2.52882L149.472 2.66891C149.482 2.67225 149.489 2.68226 149.485 2.69226L149.388 3.12922C149.385 3.13922 149.375 3.14589 149.365 3.14256L148.745 3.00247Z" fill="#5E5E5D"/>
<path d="M150.476 3.51929L149.856 3.3792C149.779 3.36252 149.729 3.28581 149.746 3.20575L149.842 2.7688C149.859 2.69208 149.936 2.64205 150.016 2.65873L150.636 2.79882C150.713 2.8155 150.763 2.89221 150.746 2.97227L150.649 3.40922C150.629 3.48927 150.553 3.53597 150.476 3.51929Z" fill="#585857"/>
<path d="M149.882 3.25918C149.872 3.25584 149.865 3.24584 149.868 3.23583L149.965 2.79888C149.969 2.78887 149.979 2.7822 149.989 2.78554L150.609 2.92563C150.619 2.92896 150.626 2.93897 150.622 2.94898L150.526 3.38593C150.522 3.39594 150.512 3.40261 150.502 3.39927L149.882 3.25918Z" fill="#5E5E5D"/>
<path d="M151.613 3.77625L150.993 3.63616C150.916 3.61948 150.866 3.54276 150.883 3.46271L150.979 3.02576C150.996 2.94904 151.073 2.89901 151.153 2.91569L151.773 3.05578C151.85 3.07245 151.9 3.14917 151.883 3.22922L151.786 3.66618C151.766 3.7429 151.69 3.79293 151.613 3.77625Z" fill="#585857"/>
<path d="M151.019 3.5126C151.009 3.50926 151.003 3.49926 151.006 3.48925L151.103 3.0523C151.106 3.04229 151.116 3.03562 151.126 3.03895L151.746 3.17905C151.756 3.18238 151.763 3.19239 151.76 3.20239L151.663 3.63935C151.66 3.64935 151.65 3.65603 151.64 3.65269L151.019 3.5126Z" fill="#5E5E5D"/>
<path d="M152.751 4.02967L152.13 3.88958C152.053 3.8729 152.003 3.79618 152.02 3.71613L152.117 3.27918C152.134 3.20246 152.21 3.15243 152.29 3.1691L152.911 3.3092C152.987 3.32587 153.037 3.40259 153.021 3.48264L152.924 3.9196C152.904 3.99965 152.827 4.04968 152.751 4.02967Z" fill="#585857"/>
<path d="M152.157 3.76956C152.147 3.76622 152.14 3.75621 152.144 3.74621L152.24 3.30925C152.244 3.29925 152.254 3.29258 152.264 3.29591L152.884 3.436C152.894 3.43934 152.901 3.44935 152.897 3.45935L152.801 3.89631C152.797 3.90631 152.787 3.91298 152.777 3.90965L152.157 3.76956Z" fill="#5E5E5D"/>
<path d="M153.888 4.28638L153.268 4.14629C153.191 4.12961 153.141 4.0529 153.158 3.97284L153.254 3.53589C153.271 3.45917 153.348 3.40914 153.428 3.42582L154.048 3.56591C154.125 3.58259 154.175 3.6593 154.158 3.73936L154.062 4.17631C154.042 4.25636 153.965 4.30306 153.888 4.28638Z" fill="#585857"/>
<path d="M153.294 4.02639C153.284 4.02306 153.278 4.01305 153.281 4.00304L153.378 3.56609C153.381 3.55608 153.391 3.54941 153.401 3.55275L154.022 3.69284C154.032 3.69617 154.038 3.70618 154.035 3.71619L153.938 4.15314C153.935 4.16315 153.925 4.16982 153.915 4.16648L153.294 4.02639Z" fill="#5E5E5D"/>
<path d="M155.022 4.54334L154.402 4.40325C154.325 4.38657 154.275 4.30985 154.292 4.2298L154.388 3.79285C154.405 3.71613 154.482 3.6661 154.562 3.68278L155.182 3.82287C155.259 3.83954 155.309 3.91626 155.292 3.99631L155.195 4.43327C155.179 4.50999 155.102 4.56002 155.022 4.54334Z" fill="#585857"/>
<path d="M154.432 4.27981C154.422 4.27648 154.415 4.26647 154.419 4.25646L154.515 3.81951C154.519 3.8095 154.529 3.80283 154.539 3.80617L155.159 3.94626C155.169 3.94959 155.176 3.9596 155.172 3.96961L155.076 4.40656C155.072 4.41657 155.062 4.42324 155.052 4.4199L154.432 4.27981Z" fill="#5E5E5D"/>
<path d="M138.471 0.974485L139.238 1.14793C139.325 1.16795 139.382 1.25467 139.362 1.34473L139.192 2.09856C139.172 2.18528 139.085 2.24198 138.995 2.22197L138.228 2.04852C138.141 2.02851 138.084 1.94179 138.104 1.85173L138.274 1.0979C138.294 1.01118 138.381 0.954472 138.471 0.974485Z" fill="#585857"/>
<path d="M138.258 1.92481C138.238 1.92147 138.225 1.89812 138.228 1.87811L138.398 1.12428C138.401 1.10427 138.425 1.09093 138.445 1.09426L139.212 1.26771C139.232 1.27104 139.245 1.29439 139.242 1.31441L139.072 2.06823C139.068 2.08825 139.045 2.10159 139.025 2.09825L138.258 1.92481Z" fill="#5E5E5D"/>
<path d="M139.782 1.27104L140.549 1.44448C140.636 1.4645 140.692 1.55122 140.672 1.64128L140.502 2.39511C140.482 2.48183 140.396 2.53854 140.305 2.51852L139.538 2.34508C139.452 2.32506 139.395 2.23834 139.415 2.14828L139.585 1.39445C139.605 1.30439 139.692 1.25102 139.782 1.27104Z" fill="#585857"/>
<path d="M139.569 2.22168C139.549 2.21835 139.535 2.195 139.539 2.17498L139.709 1.42116C139.712 1.40114 139.735 1.3878 139.755 1.39114L140.523 1.56458C140.543 1.56792 140.556 1.59127 140.553 1.61128L140.382 2.36511C140.379 2.38512 140.356 2.39846 140.336 2.39513L139.569 2.22168Z" fill="#5E5E5D"/>
<path d="M141.093 1.56482L141.861 1.73826C141.947 1.75828 142.004 1.845 141.984 1.93506L141.814 2.68889C141.794 2.77561 141.707 2.83232 141.617 2.8123L140.85 2.63886C140.763 2.61884 140.706 2.53212 140.726 2.44206L140.897 1.68823C140.917 1.60151 141.007 1.5448 141.093 1.56482Z" fill="#585857"/>
<path d="M140.88 2.51526C140.86 2.51193 140.846 2.48858 140.85 2.46856L141.02 1.71473C141.023 1.69472 141.046 1.68138 141.066 1.68471L141.834 1.85816C141.854 1.8615 141.867 1.88485 141.864 1.90486L141.694 2.65869C141.69 2.6787 141.667 2.69204 141.647 2.68871L140.88 2.51526Z" fill="#5E5E5D"/>
<path d="M142.404 1.8584L143.171 2.03184C143.258 2.05186 143.315 2.13858 143.295 2.22864L143.124 2.98247C143.104 3.06919 143.018 3.1259 142.928 3.10588L142.16 2.93244C142.074 2.91242 142.017 2.8257 142.037 2.73564L142.207 1.98181C142.227 1.89509 142.317 1.83838 142.404 1.8584Z" fill="#585857"/>
<path d="M142.191 2.81213C142.171 2.8088 142.157 2.78545 142.161 2.76544L142.331 2.01161C142.334 1.9916 142.357 1.97825 142.377 1.98159L143.145 2.15504C143.165 2.15837 143.178 2.18172 143.175 2.20173L143.005 2.95556C143.001 2.97558 142.978 2.98892 142.958 2.98558L142.191 2.81213Z" fill="#5E5E5D"/>
<path d="M143.715 2.15519L144.482 2.32864C144.568 2.34865 144.625 2.43538 144.605 2.52544L144.435 3.27927C144.415 3.36599 144.328 3.42269 144.238 3.40268L143.471 3.22923C143.384 3.20922 143.328 3.1225 143.348 3.03244L143.518 2.27861C143.541 2.18855 143.628 2.13518 143.715 2.15519Z" fill="#585857"/>
<path d="M143.501 3.10559C143.481 3.10226 143.468 3.07891 143.471 3.0589L143.641 2.30507C143.645 2.28505 143.668 2.27171 143.688 2.27505L144.455 2.44849C144.475 2.45183 144.489 2.47518 144.485 2.49519L144.315 3.24902C144.312 3.26903 144.288 3.28238 144.268 3.27904L143.501 3.10559Z" fill="#5E5E5D"/>
<path d="M145.026 2.44873L145.793 2.62218C145.879 2.64219 145.936 2.72891 145.916 2.81897L145.746 3.5728C145.726 3.65952 145.639 3.71623 145.549 3.69622L144.782 3.52277C144.695 3.50275 144.639 3.41603 144.659 3.32597L144.829 2.57214C144.852 2.48542 144.939 2.42871 145.026 2.44873Z" fill="#585857"/>
<path d="M144.812 3.39942C144.792 3.39608 144.779 3.37273 144.782 3.35272L144.952 2.59889C144.955 2.57888 144.979 2.56553 144.999 2.56887L145.766 2.74232C145.786 2.74565 145.799 2.769 145.796 2.78901L145.626 3.54284C145.622 3.56286 145.599 3.5762 145.579 3.57286L144.812 3.39942Z" fill="#5E5E5D"/>
<path d="M146.337 2.7454L147.104 2.91885C147.191 2.93886 147.247 3.02559 147.227 3.11565L147.057 3.86948C147.037 3.9562 146.95 4.0129 146.86 3.99289L146.093 3.81944C146.006 3.79943 145.95 3.71271 145.97 3.62265L146.14 2.86882C146.163 2.77876 146.25 2.72539 146.337 2.7454Z" fill="#585857"/>
<path d="M146.123 3.69605C146.103 3.69271 146.09 3.66936 146.093 3.64935L146.263 2.89552C146.266 2.87551 146.29 2.86217 146.31 2.8655L147.077 3.03895C147.097 3.04228 147.11 3.06563 147.107 3.08565L146.937 3.83947C146.933 3.85949 146.91 3.87283 146.89 3.86949L146.123 3.69605Z" fill="#5E5E5D"/>
<path d="M147.651 3.03918L148.418 3.21263C148.505 3.23264 148.561 3.31937 148.541 3.40943L148.371 4.16325C148.351 4.24998 148.265 4.30668 148.175 4.28667L147.407 4.11322C147.321 4.09321 147.264 4.00648 147.284 3.91643L147.454 3.1626C147.474 3.07587 147.561 3.01917 147.651 3.03918Z" fill="#585857"/>
<path d="M147.434 3.98975C147.414 3.98641 147.401 3.96306 147.404 3.94305L147.574 3.18922C147.577 3.16921 147.601 3.15587 147.621 3.1592L148.388 3.33265C148.408 3.33599 148.421 3.35933 148.418 3.37935L148.248 4.13317C148.245 4.15319 148.221 4.16653 148.201 4.16319L147.434 3.98975Z" fill="#5E5E5D"/>
<path d="M148.961 3.33252L149.729 3.50596C149.815 3.52598 149.872 3.6127 149.852 3.70276L149.682 4.45659C149.662 4.54331 149.575 4.60002 149.485 4.58L148.718 4.40656C148.631 4.38654 148.574 4.29982 148.594 4.20976L148.765 3.45593C148.785 3.36921 148.871 3.3125 148.961 3.33252Z" fill="#585857"/>
<path d="M148.748 4.28638C148.728 4.28304 148.715 4.25969 148.718 4.23968L148.888 3.48585C148.892 3.46584 148.915 3.4525 148.935 3.45583L149.702 3.62928C149.722 3.63262 149.735 3.65596 149.732 3.67598L149.562 4.42981C149.559 4.44982 149.535 4.46316 149.515 4.45983L148.748 4.28638Z" fill="#5E5E5D"/>
<path d="M150.272 3.62956L151.04 3.80301C151.126 3.82302 151.183 3.90974 151.163 3.9998L150.993 4.75363C150.973 4.84035 150.886 4.89706 150.796 4.87704L150.029 4.7036C149.942 4.68358 149.886 4.59686 149.906 4.5068L150.076 3.75297C150.096 3.66291 150.182 3.60954 150.272 3.62956Z" fill="#585857"/>
<path d="M150.059 4.5802C150.039 4.57687 150.025 4.55352 150.029 4.5335L150.199 3.77968C150.202 3.75966 150.226 3.74632 150.246 3.74966L151.013 3.9231C151.033 3.92644 151.046 3.94979 151.043 3.9698L150.873 4.72363C150.869 4.74364 150.846 4.75698 150.826 4.75365L150.059 4.5802Z" fill="#5E5E5D"/>
<path d="M151.583 3.92285L152.35 4.0963C152.437 4.11631 152.494 4.20303 152.474 4.29309L152.304 5.04692C152.284 5.13364 152.197 5.19035 152.107 5.17033L151.343 4.99689C151.256 4.97687 151.2 4.89015 151.22 4.80009L151.39 4.04626C151.407 3.95954 151.493 3.90284 151.583 3.92285Z" fill="#585857"/>
<path d="M151.37 4.87366C151.35 4.87032 151.336 4.84697 151.34 4.82696L151.51 4.07313C151.513 4.05312 151.537 4.03978 151.557 4.04311L152.324 4.21656C152.344 4.2199 152.357 4.24324 152.354 4.26326L152.18 5.01709C152.177 5.0371 152.154 5.05044 152.134 5.04711L151.37 4.87366Z" fill="#5E5E5D"/>
<path d="M152.894 4.21989L153.661 4.39334C153.748 4.41335 153.805 4.50007 153.785 4.59013L153.615 5.34396C153.595 5.43069 153.508 5.48739 153.418 5.46738L152.651 5.29393C152.564 5.27392 152.507 5.18719 152.527 5.09713L152.697 4.3433C152.717 4.25324 152.807 4.19988 152.894 4.21989Z" fill="#585857"/>
<path d="M152.681 5.17053C152.661 5.1672 152.648 5.14385 152.651 5.12384L152.821 4.37001C152.824 4.34999 152.848 4.33665 152.868 4.33999L153.635 4.51344C153.655 4.51677 153.668 4.54012 153.665 4.56013L153.495 5.31396C153.491 5.33397 153.468 5.34732 153.448 5.34398L152.681 5.17053Z" fill="#5E5E5D"/>
<path d="M154.205 4.5133L154.972 4.68675C155.059 4.70676 155.115 4.79349 155.095 4.88355L154.925 5.63737C154.905 5.7241 154.818 5.7808 154.728 5.76079L153.961 5.58734C153.875 5.56733 153.818 5.4806 153.838 5.39055L154.011 4.63672C154.028 4.54999 154.118 4.49329 154.205 4.5133Z" fill="#585857"/>
<path d="M153.991 5.46411C153.971 5.46078 153.958 5.43743 153.961 5.41742L154.132 4.66359C154.135 4.64357 154.158 4.63023 154.178 4.63357L154.945 4.80701C154.965 4.81035 154.979 4.8337 154.975 4.85371L154.805 5.60754C154.802 5.62755 154.779 5.6409 154.759 5.63756L153.991 5.46411Z" fill="#5E5E5D"/>
<path d="M138.194 2.19519L138.961 2.36864C139.048 2.38865 139.105 2.47537 139.085 2.56543L138.915 3.31926C138.895 3.40598 138.808 3.46269 138.718 3.44267L137.951 3.26923C137.864 3.24921 137.807 3.16249 137.827 3.07243L138.001 2.3186C138.021 2.23188 138.108 2.17517 138.194 2.19519Z" fill="#585857"/>
<path d="M137.981 3.14575C137.961 3.14242 137.948 3.11907 137.951 3.09906L138.121 2.34523C138.124 2.32521 138.148 2.31187 138.168 2.31521L138.935 2.48865C138.955 2.49199 138.968 2.51534 138.965 2.53535L138.795 3.28918C138.792 3.30919 138.768 3.32254 138.748 3.3192L137.981 3.14575Z" fill="#5E5E5D"/>
<path d="M139.509 2.49198L140.276 2.66543C140.363 2.68545 140.419 2.77217 140.399 2.86223L140.229 3.61606C140.209 3.70278 140.123 3.75948 140.032 3.73947L139.265 3.56602C139.179 3.54601 139.122 3.45929 139.142 3.36923L139.312 2.6154C139.332 2.52534 139.419 2.47197 139.509 2.49198Z" fill="#585857"/>
<path d="M139.292 3.44263C139.272 3.43929 139.259 3.41594 139.262 3.39593L139.432 2.6421C139.435 2.62209 139.459 2.60875 139.479 2.61208L140.246 2.78553C140.266 2.78887 140.279 2.81221 140.276 2.83223L140.106 3.58606C140.103 3.60607 140.079 3.61941 140.059 3.61608L139.292 3.44263Z" fill="#5E5E5D"/>
<path d="M140.819 2.78552L141.587 2.95897C141.673 2.97898 141.73 3.0657 141.71 3.15576L141.54 3.90959C141.52 3.99632 141.433 4.05302 141.343 4.03301L140.576 3.85956C140.489 3.83955 140.432 3.75282 140.453 3.66276L140.623 2.90893C140.643 2.82221 140.729 2.76551 140.819 2.78552Z" fill="#585857"/>
<path d="M140.606 3.73621C140.586 3.73287 140.573 3.70952 140.576 3.68951L140.746 2.93568C140.75 2.91567 140.773 2.90233 140.793 2.90566L141.56 3.07911C141.58 3.08245 141.593 3.10579 141.59 3.12581L141.42 3.87964C141.417 3.89965 141.393 3.91299 141.373 3.90966L140.606 3.73621Z" fill="#5E5E5D"/>
<path d="M142.13 3.0791L142.897 3.25255C142.984 3.27256 143.041 3.35928 143.021 3.44934L142.851 4.20317C142.83 4.2899 142.744 4.3466 142.654 4.32659L141.887 4.15314C141.8 4.13313 141.743 4.0464 141.763 3.95634L141.933 3.20251C141.953 3.11579 142.04 3.05909 142.13 3.0791Z" fill="#585857"/>
<path d="M141.917 4.02967C141.897 4.02633 141.883 4.00298 141.887 3.98297L142.057 3.22914C142.06 3.20913 142.084 3.19578 142.104 3.19912L142.871 3.37257C142.891 3.3759 142.904 3.39925 142.901 3.41926L142.731 4.17309C142.727 4.19311 142.704 4.20645 142.684 4.20311L141.917 4.02967Z" fill="#5E5E5D"/>
<path d="M143.442 3.3759L144.209 3.54934C144.295 3.56936 144.352 3.65608 144.332 3.74614L144.162 4.49997C144.142 4.58669 144.055 4.64339 143.965 4.62338L143.198 4.44993C143.111 4.42992 143.055 4.3432 143.075 4.25314L143.245 3.49931C143.265 3.40925 143.355 3.35588 143.442 3.3759Z" fill="#585857"/>
<path d="M143.228 4.32654C143.208 4.3232 143.194 4.29986 143.198 4.27984L143.368 3.52601C143.371 3.506 143.395 3.49266 143.415 3.49599L144.182 3.66944C144.202 3.67278 144.215 3.69613 144.212 3.71614L144.042 4.46997C144.038 4.48998 144.015 4.50332 143.995 4.49999L143.228 4.32654Z" fill="#5E5E5D"/>
<path d="M144.752 3.66931L145.519 3.84276C145.606 3.86277 145.663 3.94949 145.643 4.03955L145.473 4.79338C145.453 4.88011 145.366 4.93681 145.276 4.9168L144.509 4.74335C144.422 4.72334 144.365 4.63661 144.385 4.54655L144.555 3.79272C144.575 3.706 144.665 3.6493 144.752 3.66931Z" fill="#585857"/>
<path d="M144.539 4.62012C144.519 4.61678 144.506 4.59343 144.509 4.57342L144.679 3.81959C144.682 3.79958 144.706 3.78624 144.726 3.78957L145.493 3.96302C145.513 3.96636 145.526 3.9897 145.523 4.00972L145.353 4.76355C145.349 4.78356 145.326 4.7969 145.306 4.79357L144.539 4.62012Z" fill="#5E5E5D"/>
<path d="M146.063 3.96635L146.83 4.1398C146.917 4.15981 146.973 4.24653 146.953 4.33659L146.783 5.09042C146.763 5.17715 146.677 5.23385 146.586 5.21384L145.819 5.04039C145.733 5.02038 145.676 4.93365 145.696 4.84359L145.866 4.08977C145.889 3.99971 145.976 3.94634 146.063 3.96635Z" fill="#585857"/>
<path d="M145.85 4.91699C145.829 4.91366 145.816 4.89031 145.819 4.8703L145.99 4.11647C145.993 4.09645 146.016 4.08311 146.036 4.08645L146.803 4.2599C146.823 4.26323 146.837 4.28658 146.833 4.30659L146.663 5.06042C146.66 5.08044 146.637 5.09378 146.617 5.09044L145.85 4.91699Z" fill="#5E5E5D"/>
<path d="M147.374 4.25964L148.141 4.43309C148.228 4.4531 148.284 4.53983 148.264 4.62988L148.094 5.38371C148.074 5.47044 147.988 5.52714 147.897 5.50713L147.13 5.33368C147.044 5.31367 146.987 5.22694 147.007 5.13688L147.177 4.38306C147.2 4.29633 147.287 4.23963 147.374 4.25964Z" fill="#585857"/>
<path d="M147.16 5.21045C147.14 5.20712 147.127 5.18377 147.13 5.16375L147.3 4.40993C147.304 4.38991 147.327 4.37657 147.347 4.37991L148.114 4.55335C148.134 4.55669 148.147 4.58004 148.144 4.60005L147.974 5.35388C147.971 5.37389 147.947 5.38723 147.927 5.3839L147.16 5.21045Z" fill="#5E5E5D"/>
<path d="M148.685 4.55346L149.452 4.72691C149.539 4.74693 149.595 4.83365 149.575 4.92371L149.405 5.67754C149.385 5.76426 149.299 5.82096 149.209 5.80095L148.441 5.6275C148.355 5.60749 148.298 5.52077 148.318 5.43071L148.488 4.67688C148.511 4.59015 148.598 4.53345 148.685 4.55346Z" fill="#585857"/>
<path d="M148.471 5.50403C148.451 5.50069 148.438 5.47735 148.441 5.45733L148.611 4.7035C148.615 4.68349 148.638 4.67015 148.658 4.67348L149.425 4.84693C149.445 4.85027 149.458 4.87362 149.455 4.89363L149.285 5.64746C149.282 5.66747 149.258 5.68081 149.238 5.67748L148.471 5.50403Z" fill="#5E5E5D"/>
<path d="M149.995 4.85026L150.763 5.02371C150.849 5.04372 150.906 5.13045 150.886 5.2205L150.716 5.97433C150.696 6.06106 150.609 6.11776 150.519 6.09775L149.752 5.9243C149.665 5.90429 149.609 5.81756 149.629 5.7275L149.799 4.97368C149.822 4.88362 149.909 4.83025 149.995 4.85026Z" fill="#585857"/>
<path d="M149.782 5.8009C149.762 5.79757 149.749 5.77422 149.752 5.75421L149.922 5.00038C149.926 4.98037 149.949 4.96702 149.969 4.97036L150.736 5.14381C150.756 5.14714 150.769 5.17049 150.766 5.1905L150.596 5.94433C150.593 5.96435 150.569 5.97769 150.549 5.97435L149.782 5.8009Z" fill="#5E5E5D"/>
<path d="M151.31 5.1438L152.077 5.31724C152.163 5.33726 152.22 5.42398 152.2 5.51404L152.03 6.26787C152.01 6.35459 151.923 6.4113 151.833 6.39128L151.066 6.21783C150.979 6.19782 150.923 6.1111 150.943 6.02104L151.113 5.26721C151.133 5.18049 151.22 5.12378 151.31 5.1438Z" fill="#585857"/>
<path d="M151.093 6.09436C151.073 6.09103 151.059 6.06768 151.063 6.04766L151.233 5.29384C151.236 5.27382 151.26 5.26048 151.28 5.26382L152.047 5.43726C152.067 5.4406 152.08 5.46395 152.077 5.48396L151.907 6.23779C151.903 6.2578 151.88 6.27114 151.86 6.26781L151.093 6.09436Z" fill="#5E5E5D"/>
<path d="M152.621 5.44059L153.388 5.61404C153.475 5.63405 153.531 5.72078 153.511 5.81084L153.341 6.56466C153.321 6.65139 153.234 6.70809 153.144 6.68808L152.377 6.51463C152.29 6.49462 152.234 6.4079 152.254 6.31784L152.424 5.56401C152.444 5.47395 152.531 5.42058 152.621 5.44059Z" fill="#585857"/>
<path d="M152.407 6.39124C152.387 6.3879 152.374 6.36455 152.377 6.34454L152.548 5.59071C152.551 5.5707 152.574 5.55736 152.594 5.56069L153.361 5.73414C153.381 5.73747 153.395 5.76082 153.391 5.78084L153.221 6.53466C153.218 6.55468 153.195 6.56802 153.175 6.56468L152.407 6.39124Z" fill="#5E5E5D"/>
<path d="M153.932 5.73425L154.699 5.9077C154.786 5.92771 154.842 6.01443 154.822 6.10449L154.652 6.85832C154.632 6.94505 154.545 7.00175 154.455 6.98174L153.688 6.80829C153.602 6.78828 153.545 6.70155 153.565 6.61149L153.735 5.85766C153.755 5.77094 153.842 5.71424 153.932 5.73425Z" fill="#585857"/>
<path d="M153.718 6.68482C153.698 6.68148 153.685 6.65813 153.688 6.63812L153.858 5.88429C153.861 5.86428 153.885 5.85094 153.905 5.85427L154.672 6.02772C154.692 6.03105 154.705 6.0544 154.702 6.07442L154.532 6.82824C154.529 6.84826 154.505 6.8616 154.485 6.85826L153.718 6.68482Z" fill="#5E5E5D"/>
<path d="M137.921 3.41589L138.688 3.58934C138.775 3.60935 138.832 3.69608 138.812 3.78613L138.642 4.53996C138.622 4.62669 138.535 4.68339 138.445 4.66338L137.678 4.48993C137.591 4.46992 137.534 4.38319 137.554 4.29313L137.724 3.53931C137.748 3.45258 137.835 3.39588 137.921 3.41589Z" fill="#585857"/>
<path d="M137.707 4.36646C137.687 4.36312 137.674 4.33977 137.677 4.31976L137.848 3.56593C137.851 3.54592 137.874 3.53258 137.894 3.53591L138.661 3.70936C138.681 3.71269 138.695 3.73604 138.691 3.75606L138.521 4.50988C138.518 4.5299 138.495 4.54324 138.475 4.5399L137.707 4.36646Z" fill="#5E5E5D"/>
<path d="M139.232 3.70934L139.999 3.88279C140.086 3.9028 140.142 3.98952 140.122 4.07958L139.952 4.83341C139.932 4.92014 139.846 4.97684 139.756 4.95683L138.988 4.78338C138.902 4.76337 138.845 4.67664 138.865 4.58658L139.035 3.83276C139.058 3.74603 139.145 3.69266 139.232 3.70934Z" fill="#585857"/>
<path d="M139.019 4.66358C138.999 4.66024 138.985 4.63689 138.989 4.61688L139.159 3.86305C139.162 3.84304 139.185 3.82969 139.205 3.83303L139.973 4.00648C139.993 4.00981 140.006 4.03316 140.003 4.05317L139.832 4.807C139.829 4.82702 139.806 4.84036 139.786 4.83702L139.019 4.66358Z" fill="#5E5E5D"/>
<path d="M140.542 4.00635L141.31 4.17979C141.396 4.19981 141.453 4.28653 141.433 4.37659L141.263 5.13042C141.243 5.21714 141.156 5.27384 141.066 5.25383L140.299 5.08038C140.212 5.06037 140.156 4.97365 140.176 4.88359L140.346 4.12976C140.369 4.04304 140.456 3.98633 140.542 4.00635Z" fill="#585857"/>
<path d="M140.329 4.95691C140.309 4.95357 140.296 4.93023 140.299 4.91021L140.469 4.15638C140.473 4.13637 140.496 4.12303 140.516 4.12637L141.283 4.29981C141.303 4.30315 141.316 4.3265 141.313 4.34651L141.143 5.10034C141.14 5.12035 141.116 5.13369 141.096 5.13036L140.329 4.95691Z" fill="#5E5E5D"/>
<path d="M141.857 4.2998L142.624 4.47325C142.711 4.49326 142.768 4.57999 142.748 4.67005L142.577 5.42388C142.557 5.5106 142.471 5.5673 142.381 5.54729L141.614 5.37384C141.527 5.35383 141.47 5.2671 141.49 5.17705L141.66 4.42322C141.68 4.33649 141.767 4.27979 141.857 4.2998Z" fill="#585857"/>
<path d="M141.64 5.25037C141.62 5.24703 141.607 5.22368 141.61 5.20367L141.78 4.44984C141.784 4.42983 141.807 4.41649 141.827 4.41982L142.594 4.59327C142.614 4.59661 142.628 4.61995 142.624 4.63997L142.454 5.3938C142.451 5.41381 142.427 5.42715 142.407 5.42382L141.64 5.25037Z" fill="#5E5E5D"/>
<path d="M143.168 4.59684L143.935 4.77029C144.022 4.7903 144.078 4.87703 144.058 4.96709L143.888 5.72091C143.868 5.80764 143.781 5.86434 143.691 5.84433L142.924 5.67088C142.837 5.65087 142.781 5.56414 142.801 5.47409L142.971 4.72026C142.991 4.6302 143.078 4.57683 143.168 4.59684Z" fill="#585857"/>
<path d="M142.954 5.54724C142.934 5.54391 142.921 5.52056 142.924 5.50055L143.094 4.74672C143.098 4.7267 143.121 4.71336 143.141 4.7167L143.908 4.89014C143.928 4.89348 143.942 4.91683 143.938 4.93684L143.768 5.69067C143.765 5.71068 143.742 5.72403 143.722 5.72069L142.954 5.54724Z" fill="#5E5E5D"/>
<path d="M144.479 4.89026L145.246 5.0637C145.333 5.08372 145.389 5.17044 145.369 5.2605L145.199 6.01433C145.179 6.10105 145.092 6.15776 145.002 6.13774L144.235 5.9643C144.148 5.94428 144.092 5.85756 144.112 5.7675L144.282 5.01367C144.302 4.92695 144.389 4.87024 144.479 4.89026Z" fill="#585857"/>
<path d="M144.265 5.84082C144.245 5.83749 144.232 5.81414 144.235 5.79413L144.405 5.0403C144.408 5.02028 144.432 5.00694 144.452 5.01028L145.219 5.18372C145.239 5.18706 145.252 5.21041 145.249 5.23042L145.079 5.98425C145.075 6.00426 145.052 6.01761 145.032 6.01427L144.265 5.84082Z" fill="#5E5E5D"/>
<path d="M145.79 5.18359L146.557 5.35703C146.644 5.37705 146.7 5.46377 146.68 5.55383L146.51 6.30766C146.49 6.39438 146.403 6.45109 146.313 6.43107L145.546 6.25762C145.46 6.23761 145.403 6.15089 145.423 6.06083L145.593 5.307C145.613 5.22028 145.7 5.16691 145.79 5.18359Z" fill="#585857"/>
<path d="M145.576 6.1377C145.556 6.13436 145.543 6.11101 145.546 6.091L145.716 5.33717C145.719 5.31716 145.743 5.30382 145.763 5.30715L146.53 5.4806C146.55 5.48393 146.563 5.50728 146.56 5.5273L146.39 6.28113C146.387 6.30114 146.363 6.31448 146.343 6.31115L145.576 6.1377Z" fill="#5E5E5D"/>
<path d="M147.1 5.48051L147.868 5.65396C147.954 5.67397 148.011 5.76069 147.991 5.85075L147.821 6.60458C147.801 6.69131 147.714 6.74801 147.624 6.728L146.857 6.55455C146.77 6.53454 146.713 6.44781 146.733 6.35775L146.904 5.60392C146.924 5.51387 147.014 5.4605 147.1 5.48051Z" fill="#585857"/>
<path d="M146.887 6.43115C146.867 6.42782 146.854 6.40447 146.857 6.38446L147.027 5.63063C147.031 5.61062 147.054 5.59727 147.074 5.60061L147.841 5.77406C147.861 5.77739 147.874 5.80074 147.871 5.82075L147.701 6.57458C147.698 6.59459 147.674 6.60794 147.654 6.6046L146.887 6.43115Z" fill="#5E5E5D"/>
<path d="M148.411 5.77417L149.178 5.94762C149.265 5.96763 149.322 6.05435 149.302 6.14441L149.131 6.89824C149.111 6.98496 149.025 7.04167 148.935 7.02165L148.167 6.84821C148.081 6.82819 148.024 6.74147 148.044 6.65141L148.214 5.89758C148.234 5.81086 148.324 5.75415 148.411 5.77417Z" fill="#585857"/>
<path d="M148.198 6.72473C148.178 6.7214 148.164 6.69805 148.168 6.67804L148.338 5.92421C148.341 5.90419 148.364 5.89085 148.384 5.89419L149.152 6.06764C149.172 6.07097 149.185 6.09432 149.182 6.11433L149.008 6.86816C149.005 6.88817 148.982 6.90152 148.962 6.89818L148.198 6.72473Z" fill="#5E5E5D"/>
<path d="M149.722 6.07096L150.489 6.24441C150.576 6.26442 150.633 6.35115 150.613 6.44121L150.442 7.19504C150.422 7.28176 150.336 7.33846 150.246 7.31845L149.479 7.145C149.392 7.12499 149.335 7.03827 149.355 6.94821L149.525 6.19438C149.549 6.10432 149.635 6.05095 149.722 6.07096Z" fill="#585857"/>
<path d="M149.508 7.02161C149.488 7.01827 149.475 6.99826 149.478 6.97491L149.648 6.22108C149.652 6.20107 149.675 6.18773 149.695 6.19106L150.462 6.36451C150.482 6.36785 150.496 6.39119 150.492 6.41121L150.322 7.16504C150.319 7.18505 150.295 7.19839 150.275 7.19506L149.508 7.02161Z" fill="#5E5E5D"/>
<path d="M151.033 6.3645L151.8 6.53795C151.887 6.55796 151.944 6.64468 151.924 6.73474L151.754 7.48857C151.734 7.57529 151.647 7.632 151.557 7.61199L150.79 7.43854C150.703 7.41852 150.646 7.3318 150.666 7.24174L150.836 6.48791C150.86 6.40119 150.946 6.34449 151.033 6.3645Z" fill="#585857"/>
<path d="M150.819 7.31506C150.799 7.31173 150.786 7.28838 150.789 7.26837L150.959 6.51454C150.963 6.49453 150.986 6.48118 151.006 6.48452L151.773 6.65797C151.793 6.6613 151.807 6.68465 151.803 6.70466L151.633 7.45849C151.63 7.47851 151.607 7.49185 151.587 7.48851L150.819 7.31506Z" fill="#5E5E5D"/>
<path d="M152.344 6.65808L153.111 6.83153C153.198 6.85154 153.254 6.93826 153.234 7.02832L153.064 7.78215C153.044 7.86888 152.957 7.92558 152.867 7.90557L152.1 7.73212C152.013 7.7121 151.957 7.62538 151.977 7.53532L152.147 6.78149C152.17 6.69477 152.257 6.63807 152.344 6.65808Z" fill="#585857"/>
<path d="M152.13 7.61194C152.11 7.6086 152.097 7.58526 152.1 7.56524L152.27 6.81141C152.274 6.7914 152.297 6.77806 152.317 6.78139L153.084 6.95484C153.104 6.95818 153.118 6.98153 153.114 7.00154L152.944 7.75203C152.941 7.77205 152.918 7.78539 152.898 7.78205L152.13 7.61194Z" fill="#5E5E5D"/>
<path d="M153.658 6.95488L154.425 7.12832C154.512 7.14834 154.568 7.23506 154.548 7.32512L154.378 8.07895C154.358 8.16567 154.272 8.22237 154.181 8.20236L153.414 8.02891C153.328 8.0089 153.271 7.92218 153.291 7.83212L153.461 7.07829C153.481 6.98823 153.568 6.93486 153.658 6.95488Z" fill="#585857"/>
<path d="M153.441 7.90552C153.421 7.90218 153.408 7.87884 153.411 7.85882L153.581 7.10499C153.584 7.08498 153.608 7.07164 153.628 7.07497L154.395 7.24842C154.415 7.25176 154.428 7.27511 154.425 7.29512L154.255 8.04895C154.252 8.06896 154.228 8.0823 154.208 8.07897L153.441 7.90552Z" fill="#5E5E5D"/>
<path d="M137.647 4.63684L138.414 4.81029C138.501 4.8303 138.558 4.91702 138.538 5.00708L138.368 5.76091C138.348 5.84763 138.261 5.90434 138.171 5.88432L137.404 5.71088C137.317 5.69086 137.26 5.60414 137.28 5.51408L137.451 4.76025C137.471 4.67353 137.561 4.61683 137.647 4.63684Z" fill="#585857"/>
<path d="M137.434 5.5874C137.414 5.58407 137.401 5.56072 137.404 5.54071L137.574 4.78688C137.577 4.76687 137.601 4.75352 137.621 4.75686L138.388 4.93031C138.408 4.93364 138.421 4.95699 138.418 4.977L138.248 5.73083C138.245 5.75084 138.221 5.76419 138.201 5.76085L137.434 5.5874Z" fill="#5E5E5D"/>
<path d="M138.958 4.9303L139.726 5.10374C139.812 5.12375 139.869 5.21048 139.849 5.30054L139.679 6.05437C139.659 6.14109 139.572 6.19779 139.482 6.17778L138.715 6.00433C138.628 5.98432 138.571 5.8976 138.591 5.80754L138.762 5.05371C138.782 4.96699 138.872 4.91028 138.958 4.9303Z" fill="#585857"/>
<path d="M138.745 5.88098C138.725 5.87765 138.712 5.8543 138.715 5.83429L138.885 5.08046C138.888 5.06044 138.912 5.0471 138.932 5.05044L139.699 5.22389C139.719 5.22722 139.732 5.25057 139.729 5.27058L139.559 6.02441C139.556 6.04442 139.532 6.05777 139.512 6.05443L138.745 5.88098Z" fill="#5E5E5D"/>
<path d="M140.269 5.22721L141.037 5.40066C141.123 5.42067 141.18 5.5074 141.16 5.59746L140.99 6.35129C140.97 6.43801 140.883 6.49471 140.793 6.4747L140.026 6.30125C139.939 6.28124 139.883 6.19452 139.903 6.10446L140.076 5.35063C140.096 5.26057 140.183 5.2072 140.269 5.22721Z" fill="#585857"/>
<path d="M140.056 6.17761C140.036 6.17428 140.022 6.15093 140.026 6.13092L140.196 5.37709C140.199 5.35708 140.222 5.34373 140.242 5.34707L141.01 5.52051C141.03 5.52385 141.043 5.5472 141.04 5.56721L140.87 6.32104C140.866 6.34105 140.843 6.3544 140.823 6.35106L140.056 6.17761Z" fill="#5E5E5D"/>
<path d="M141.58 5.52075L142.347 5.6942C142.434 5.71421 142.491 5.80093 142.471 5.89099L142.301 6.64482C142.281 6.73155 142.194 6.78825 142.104 6.76824L141.337 6.59479C141.25 6.57478 141.193 6.48805 141.213 6.39799L141.383 5.64416C141.407 5.55744 141.493 5.50074 141.58 5.52075Z" fill="#585857"/>
<path d="M141.367 6.47132C141.347 6.46798 141.333 6.44463 141.337 6.42462L141.507 5.67079C141.51 5.65078 141.534 5.63743 141.554 5.64077L142.321 5.81422C142.341 5.81755 142.354 5.8409 142.351 5.86091L142.181 6.61474C142.177 6.63476 142.154 6.6481 142.134 6.64476L141.367 6.47132Z" fill="#5E5E5D"/>
<path d="M147.59 6.87162L142.884 5.81426C142.797 5.79425 142.714 5.84762 142.694 5.93434L142.51 6.74487C142.497 6.80491 142.534 6.86495 142.594 6.87829L147.344 7.94566C147.43 7.96567 147.52 7.90897 147.54 7.82225L147.71 7.06842C147.734 6.98169 147.68 6.89163 147.59 6.87162Z" fill="#585857"/>
<path d="M142.641 6.75809L142.821 5.9609C142.824 5.94422 142.844 5.93087 142.861 5.93755L147.567 6.99491C147.587 6.99824 147.6 7.02159 147.597 7.0416L147.427 7.79543C147.424 7.81545 147.4 7.82879 147.38 7.82545L142.641 6.75809Z" fill="#5E5E5D"/>
<path d="M148.138 6.99511L148.905 7.16856C148.992 7.18858 149.049 7.2753 149.029 7.36536L148.858 8.11919C148.838 8.20591 148.752 8.26261 148.662 8.2426L147.894 8.06915C147.808 8.04914 147.751 7.96242 147.771 7.87236L147.941 7.11853C147.961 7.03181 148.048 6.9751 148.138 6.99511Z" fill="#585857"/>
<path d="M147.924 7.94568C147.904 7.94234 147.891 7.919 147.894 7.89898L148.064 7.14515C148.068 7.12514 148.091 7.1118 148.111 7.11513L148.878 7.28858C148.898 7.29192 148.912 7.31527 148.908 7.33528L148.738 8.08911C148.735 8.10912 148.711 8.12246 148.691 8.11913L147.924 7.94568Z" fill="#5E5E5D"/>
<path d="M149.449 7.29191L150.216 7.46536C150.302 7.48537 150.359 7.5721 150.339 7.66215L150.169 8.41598C150.149 8.50271 150.062 8.55941 149.972 8.5394L149.205 8.36595C149.118 8.34594 149.062 8.25921 149.082 8.16915L149.252 7.41533C149.272 7.32527 149.362 7.2719 149.449 7.29191Z" fill="#585857"/>
<path d="M149.235 8.24255C149.215 8.23922 149.202 8.21587 149.205 8.19586L149.375 7.44203C149.379 7.42202 149.402 7.40867 149.422 7.41201L150.189 7.58546C150.209 7.58879 150.223 7.61214 150.219 7.63215L150.049 8.38598C150.046 8.406 150.022 8.41934 150.002 8.416L149.235 8.24255Z" fill="#5E5E5D"/>
<path d="M150.759 7.58545L151.526 7.75889C151.613 7.77891 151.67 7.86563 151.65 7.95569L151.48 8.70952C151.46 8.79624 151.373 8.85295 151.283 8.83293L150.516 8.65949C150.429 8.63947 150.372 8.55275 150.392 8.46269L150.562 7.70886C150.582 7.62214 150.672 7.56543 150.759 7.58545Z" fill="#585857"/>
<path d="M150.546 8.53601C150.526 8.53268 150.512 8.50933 150.516 8.48931L150.686 7.73549C150.689 7.71547 150.713 7.70213 150.733 7.70547L151.5 7.87891C151.52 7.88225 151.533 7.9056 151.53 7.92561L151.36 8.67944C151.356 8.69945 151.336 8.71279 151.313 8.70946L150.546 8.53601Z" fill="#5E5E5D"/>
<path d="M152.07 7.87878L152.837 8.05223C152.924 8.07224 152.981 8.15896 152.961 8.24902L152.791 9.00285C152.771 9.08958 152.684 9.14628 152.594 9.12627L151.827 8.95282C151.74 8.93281 151.683 8.84608 151.703 8.75602L151.873 8.0022C151.897 7.91547 151.983 7.85877 152.07 7.87878Z" fill="#585857"/>
<path d="M151.856 8.82959C151.836 8.82626 151.823 8.80291 151.826 8.7829L151.997 8.02907C152 8.00905 152.023 7.99571 152.043 7.99905L152.81 8.17249C152.83 8.17583 152.844 8.19918 152.84 8.21919L152.67 8.97302C152.667 8.99303 152.644 9.00637 152.624 9.00304L151.856 8.82959Z" fill="#5E5E5D"/>
<path d="M153.381 8.17582L154.148 8.34927C154.235 8.36928 154.292 8.45601 154.272 8.54607L154.102 9.29989C154.082 9.38662 153.995 9.44332 153.905 9.42331L153.138 9.24986C153.051 9.22985 152.994 9.14312 153.014 9.05306L153.184 8.29924C153.208 8.20918 153.295 8.15581 153.381 8.17582Z" fill="#585857"/>
<path d="M153.168 9.12647C153.148 9.12313 153.135 9.09978 153.138 9.07977L153.308 8.32594C153.311 8.30593 153.335 8.29259 153.355 8.29592L154.122 8.46937C154.142 8.4727 154.155 8.49605 154.152 8.51607L153.982 9.26989C153.979 9.28991 153.955 9.30325 153.935 9.29991L153.168 9.12647Z" fill="#5E5E5D"/>
<path d="M147.354 8.99957L143.504 8.13567C143.331 8.09564 143.158 8.20571 143.121 8.37916L142.657 10.4372C142.617 10.6106 142.727 10.7841 142.901 10.8208L146.75 11.6847C146.923 11.7247 147.097 11.6146 147.134 11.4412L147.597 9.38315C147.637 9.2097 147.527 9.03959 147.354 8.99957Z" fill="#EDEDED"/>
<path d="M147.384 8.87614L143.534 8.01223C143.294 7.95887 143.054 8.10897 143.001 8.34912L142.537 10.4071C142.484 10.6473 142.634 10.8875 142.874 10.9408L146.723 11.8047C146.963 11.8581 147.204 11.708 147.257 11.4678L147.721 9.40982C147.774 9.16966 147.624 8.93284 147.384 8.87614ZM147.137 11.4412C147.097 11.6146 146.927 11.7247 146.753 11.6846L142.904 10.8207C142.731 10.7807 142.621 10.6106 142.661 10.4372L143.124 8.37914C143.164 8.2057 143.334 8.09562 143.508 8.13565L147.357 8.99955C147.53 9.03958 147.64 9.20969 147.6 9.38313L147.137 11.4412Z" fill="#9D9B9B"/>
<path d="M142.888 9.4231L142.661 10.4371C142.621 10.6105 142.731 10.784 142.904 10.8207L146.754 11.6846C146.927 11.7246 147.1 11.6145 147.137 11.4411L147.364 10.4271L142.888 9.4231Z" fill="#DFDFDE"/>
<path d="M145.109 9.92037L142.888 9.42004L142.661 10.434C142.621 10.6075 142.731 10.7809 142.904 10.8176L144.812 11.2479L145.109 9.92037Z" fill="#D9D9DA"/>
<path d="M156.59 3.0924L137.691 -1.15705C137.581 -1.18374 137.504 -1.28714 137.514 -1.40055L139.492 -12.2143C139.519 -12.5112 139.799 -12.7146 140.089 -12.6479L159.338 -8.31843C159.629 -8.25171 159.795 -7.94818 159.692 -7.668L156.853 2.94898C156.813 3.05571 156.703 3.11909 156.59 3.0924Z" fill="#E3E1E1"/>
<path d="M138.338 -2.19454L140.163 -11.3239C140.189 -11.6041 140.453 -11.7975 140.726 -11.7341L158.368 -7.76821C158.641 -7.70817 158.798 -7.41798 158.701 -7.15447L156.447 1.8748C156.367 2.09494 156.136 2.21835 155.906 2.16832L138.702 -1.70089C138.471 -1.75092 138.318 -1.96439 138.338 -2.19454Z" fill="#C7C7C6"/>
<path d="M138.465 -2.18117L140.289 -11.3172C140.309 -11.5206 140.499 -11.6607 140.699 -11.614L158.348 -7.64476C158.544 -7.6014 158.661 -7.39126 158.591 -7.20113L156.33 1.8348C156.273 1.99491 156.106 2.08497 155.939 2.04827L138.725 -1.82427C138.561 -1.86096 138.448 -2.01439 138.465 -2.18117Z" fill="#C6E6F2"/>
<path d="M153.851 2.47858L140.403 -0.546744L140.409 -0.77356L153.968 2.27511L153.851 2.47858Z" fill="#585857"/>
</g>
<path d="M29.8076 64.9767C28.9107 61.1852 25.1193 58.8468 21.3482 59.7473C17.5721 60.6479 15.2432 64.4548 16.1401 68.2412C16.772 70.902 18.8308 72.8463 21.3075 73.4552C21.4502 73.8339 21.7152 76.1313 22.1891 76.8681C22.4031 77.2007 22.6732 77.257 23.086 77.17C23.4172 78.352 24.8033 79.4368 25.9449 79.3293C26.7449 79.2526 27.3259 78.7 27.5858 77.958C27.7896 77.3798 27.9527 76.7146 28.0546 76.0699C28.605 76.0546 28.87 75.9983 28.8445 75.4815C28.7986 74.5861 27.8304 72.1198 27.7947 71.7411C29.5528 70.0679 30.409 67.5198 29.8076 64.9767Z" fill="#FDFFFC"/>
<path d="M26.1538 64.7209C26.0468 64.3372 25.6697 64.0813 25.2722 64.1785C24.9002 64.2655 24.6199 64.68 24.732 65.0638C24.7983 65.2991 24.9716 65.4884 25.1805 65.5754C25.0276 66.5681 24.834 67.5454 24.7524 68.5483C24.676 69.4795 24.5996 70.3903 24.3957 71.296C23.2899 69.6331 22.1891 67.9752 20.9712 66.3941C21.3075 66.0718 21.0527 65.3503 20.4871 65.4833C19.8195 65.6419 20.0641 66.6858 20.7368 66.5272C20.7419 66.5272 20.747 66.522 20.7521 66.5169C22.0159 68.3129 23.2542 70.1345 24.2836 72.0789C24.3957 72.2887 24.7015 72.2426 24.7728 72.0277C25.1092 71.0248 25.206 70.0015 25.2773 68.9525C25.3589 67.8217 25.578 66.7114 25.6697 65.5857C26.0111 65.4731 26.2558 65.0842 26.1538 64.7209Z" fill="#AEB4FC"/>
<path d="M17.6685 58.5399C16.2467 57.8337 14.8198 57.1225 13.398 56.4113C13.1024 56.268 12.8323 56.6927 13.1279 56.8513C14.514 57.6188 15.9052 58.3812 17.2914 59.1488C17.699 59.3739 18.0761 58.7445 17.6685 58.5399Z" fill="#808AFF"/>
<path d="M20.3441 53.116C20.2269 52.8551 19.8906 53.0444 19.916 53.2798C20.0893 54.7534 20.6346 56.2577 21.0626 57.6802C21.1697 58.0282 21.7047 57.9105 21.6181 57.5472C21.2665 56.0838 20.9607 54.4924 20.3441 53.116Z" fill="#808AFF"/>
<path d="M26.9692 52.6863C26.6023 53.0087 26.378 53.5204 26.1487 53.9502C25.9092 54.4004 25.6952 54.861 25.4913 55.3266C25.3282 55.7052 25.9551 55.9048 26.113 55.5159C26.3016 55.04 26.5054 54.5795 26.7398 54.1241C26.9386 53.7301 27.2291 53.3464 27.3463 52.9217C27.4125 52.6914 27.1373 52.5328 26.9692 52.6863Z" fill="#808AFF"/>
<defs>
<clipPath id="clip0_1_2329">
<rect width="14" height="17" fill="white" transform="translate(147 24.3394)"/>
</clipPath>
<clipPath id="clip1_1_2329">
<rect width="69" height="12" fill="white" transform="translate(51 117.339)"/>
</clipPath>
<clipPath id="clip2_1_2329">
<rect width="32" height="26" fill="white" transform="translate(132 58.3394)"/>
</clipPath>
<clipPath id="clip3_1_2329">
<rect width="35" height="35" fill="white" transform="translate(34 -16.6606)"/>
</clipPath>
</defs>
</svg>
