<svg width="177" height="167" viewBox="0 0 177 167" fill="none" xmlns="http://www.w3.org/2000/svg">
<path d="M179.445 -45.4552H0.364258V207.82H179.445V-45.4552Z" fill="#F2EFE4"/>
<path d="M0.364319 -8.77919V207.82H179.445V4.42727L0.364319 -8.77919Z" fill="#F2EBD6"/>
<path d="M0.364319 79.1361V207.82H179.445V39.8122L0.364319 79.1361Z" fill="#F2E8C8"/>
<path d="M15.0147 75.1753L20.6934 75.1972C21.9845 73.0198 24.3698 71.5536 27.0942 71.5646C31.1426 71.5865 34.4469 74.8252 34.5892 78.8407L25.2451 78.797L19.6649 78.7751L11.3055 78.7423C11.3712 76.7618 13.0015 75.1753 15.0147 75.1753Z" fill="#F7F9ED"/>
<path d="M71.7905 22.589C71.134 17.2715 66.6042 13.1465 61.1115 13.1465C58.4418 13.1465 56.0018 14.1312 54.1199 15.7396C51.1766 10.1266 45.301 6.29707 38.5172 6.29707C31.2739 6.29707 25.0481 10.6737 22.3456 16.9323C21.9517 16.8666 21.5468 16.8229 21.142 16.8229C17.6735 16.8229 14.7959 19.3066 14.1722 22.589H71.7905Z" fill="#F7F9ED"/>
<path d="M98.0061 52.6578C94.8987 56.2685 88.3229 55.6886 88.3229 55.6886C88.3229 55.6886 86.7692 49.2659 89.8766 45.6552C92.984 42.0445 99.5598 42.6244 99.5598 42.6244C99.5598 42.6244 101.103 49.047 98.0061 52.6578Z" fill="#CC691E"/>
<path d="M73.6939 149.709C69.3829 151.723 63.6167 148.506 63.6167 148.506C63.6167 148.506 64.8312 142.006 69.1422 139.993C73.4532 137.98 79.2193 141.197 79.2193 141.197C79.2193 141.197 78.0048 147.696 73.6939 149.709Z" fill="#FE9A4F"/>
<path d="M18.4088 156.271L204.633 154.381L161.456 71.7188C160.699 70.2732 159.253 69.2369 157.624 69.2107C156.701 69.1933 155.761 69.4633 154.942 70.0468L145.711 76.5956C144.501 77.4491 142.924 77.5623 141.609 76.883L134.808 73.3734C133.275 72.581 131.429 72.6855 130.001 73.6521L18.4175 149.539V156.271H18.4088Z" fill="#F2D88A"/>
<path d="M163.659 83.0923C156.431 83.0923 149.925 86.21 145.423 91.1739C141.321 95.1972 138.778 100.797 138.778 106.997C138.778 108.33 138.9 109.636 139.127 110.899C134.372 112.954 130.906 117.413 130.227 122.743C129.26 122.542 128.258 122.438 127.231 122.438C123.469 122.438 120.038 123.84 117.408 126.139C115.605 122.081 111.547 119.25 106.827 119.25C103.927 119.25 101.288 120.322 99.2501 122.081C97.6913 117.526 93.3805 114.243 88.2947 114.243C84.7416 114.243 81.563 115.845 79.438 118.362C77.0867 115.035 73.2288 112.858 68.8484 112.858C68.3781 112.858 67.9079 112.884 67.4463 112.937C63.6755 105.247 55.7768 99.9521 46.6415 99.9521C42.0085 99.9521 37.689 101.319 34.0663 103.671C33.3783 102.835 32.6468 102.051 31.863 101.311C29.4768 98.9245 26.5594 97.0696 23.2937 95.9549C20.5157 94.9186 17.5112 94.3438 14.3761 94.3438C0.320454 94.3438 -11.0791 105.743 -11.0791 119.799C-11.0791 133.855 0.320454 145.254 14.3761 145.254C20.4373 145.254 26.0021 143.129 30.3738 139.594C34.5539 143.722 40.2929 146.282 46.6415 146.282C53.7651 146.282 60.1398 143.06 64.3896 138C65.783 138.514 67.2808 138.801 68.8484 138.801C73.2288 138.801 77.0954 136.624 79.438 133.297C81.563 135.814 84.7416 137.417 88.2947 137.417C91.1947 137.417 93.8334 136.345 95.8712 134.586C97.43 139.141 101.741 142.424 106.827 142.424C108.96 142.424 110.963 141.832 112.679 140.822C114.22 147.44 120.151 152.378 127.24 152.378C134.86 152.378 141.138 146.674 142.07 139.306C143.037 139.507 144.038 139.611 145.066 139.611C150.761 139.611 155.708 136.424 158.233 131.73C159.984 132.122 161.795 132.339 163.668 132.339C177.262 132.339 188.287 121.314 188.287 107.72C188.278 94.1174 177.253 83.0923 163.659 83.0923Z" fill="#FE9A4F"/>
<path d="M163.659 83.0923C156.431 83.0923 149.925 86.21 145.423 91.1739C141.321 95.1972 138.778 100.797 138.778 106.997C138.778 108.33 138.9 109.636 139.127 110.899C134.372 112.954 130.906 117.413 130.227 122.743C129.26 122.542 128.258 122.438 127.231 122.438C123.469 122.438 120.038 123.84 117.408 126.139C115.605 122.081 111.547 119.25 106.827 119.25C103.927 119.25 101.288 120.322 99.2501 122.081C97.6913 117.526 93.3805 114.243 88.2947 114.243C84.7416 114.243 81.563 115.845 79.438 118.362C77.0867 115.035 73.2288 112.858 68.8484 112.858C68.3781 112.858 67.9079 112.884 67.4463 112.937C63.6755 105.247 55.7768 99.9521 46.6415 99.9521C42.0085 99.9521 37.689 101.319 34.0663 103.671C33.3783 102.835 32.6468 102.051 31.863 101.311C29.4768 98.9245 26.5594 97.0696 23.2937 95.9549C20.5157 94.9186 17.5112 94.3438 14.3761 94.3438C0.320454 94.3438 -11.0791 105.743 -11.0791 119.799C-11.0791 133.855 0.320454 145.254 14.3761 145.254C20.4373 145.254 26.0021 143.129 30.3738 139.594C34.5539 143.722 40.2929 146.282 46.6415 146.282C53.7651 146.282 60.1398 143.06 64.3896 138C65.783 138.514 67.2808 138.801 68.8484 138.801C73.2288 138.801 77.0954 136.624 79.438 133.297C81.563 135.814 84.7416 137.417 88.2947 137.417C91.1947 137.417 93.8334 136.345 95.8712 134.586C97.43 139.141 101.741 142.424 106.827 142.424C108.96 142.424 110.963 141.832 112.679 140.822C114.22 147.44 120.151 152.378 127.24 152.378C134.86 152.378 141.138 146.674 142.07 139.306C143.037 139.507 144.038 139.611 145.066 139.611C150.761 139.611 155.708 136.424 158.233 131.73C159.984 132.122 161.795 132.339 163.668 132.339C177.262 132.339 188.287 121.314 188.287 107.72C188.278 94.1174 177.253 83.0923 163.659 83.0923Z" fill="url(#paint0_linear_1_1337)"/>
<path d="M163.92 145.08L162.161 31.7554H152.129L151.72 57.9247L147.862 55.8608L132.099 38.3478L125.28 44.4873L142.123 63.2021L151.563 68.2357L150.37 145.08H163.92Z" fill="#9E4927"/>
<path opacity="0.61" d="M163.92 145.08L162.161 31.7554H152.129L151.72 57.9247L147.862 55.8608L132.099 38.3478L125.28 44.4873L142.123 63.2021L151.563 68.2357L150.37 145.08H163.92Z" fill="url(#paint1_linear_1_1337)"/>
<path d="M181.46 5.52492C178.882 4.86306 176.252 4.8979 173.874 5.49008C175.311 4.77598 176.443 3.65257 176.957 2.22436C178.072 -0.867191 175.895 -4.16775 172.089 -5.14311C171.427 -5.30857 170.765 -5.39566 170.104 -5.41308C171.314 -6.62357 172.263 -8.05178 172.847 -9.65417C175.215 -16.2117 170.6 -23.2047 162.536 -25.2687C157.363 -26.6011 152.033 -25.5648 148.245 -22.9261C147.383 -26.7143 144.039 -30.0149 139.232 -31.2515C132.735 -32.9235 125.942 -30.1977 123.582 -25.138C120.081 -29.2833 114.351 -31.9917 107.855 -31.9917C97.1865 -31.9917 88.5301 -24.6939 88.5301 -15.6979C88.5301 -14.5745 88.6608 -13.4772 88.922 -12.4235C88.6434 -12.4409 88.3734 -12.4583 88.0947 -12.4583C80.1002 -12.4583 73.621 -6.98933 73.621 -0.24888C73.621 4.50601 76.8519 8.60776 81.5459 10.6282C76.7823 13.1885 73.621 17.6734 73.621 22.7941C73.621 30.7624 81.2846 37.2242 90.7334 37.2242C93.0412 37.2242 95.2445 36.8323 97.2562 36.1356C97.0559 36.7365 96.9339 37.3635 96.9339 38.0167C96.9339 41.7788 100.548 44.8268 105.007 44.8268C107.062 44.8268 108.934 44.1737 110.363 43.1025C108.778 45.0619 107.846 47.4307 107.846 49.9823C107.846 56.7227 114.325 62.1917 122.319 62.1917C130.314 62.1917 136.793 56.7227 136.793 49.9823C136.793 48.9721 136.628 47.9967 136.358 47.0562C140.059 46.5772 143.299 44.9313 145.519 42.5539C147.888 43.9734 150.779 44.8268 153.906 44.8268C161.9 44.8268 168.379 39.3578 168.379 32.6174C168.379 31.1369 168.048 29.7261 167.474 28.4111C169.102 27.427 170.443 26.1207 171.349 24.5532C172.228 24.9886 173.178 25.3544 174.197 25.6156C181.015 27.3661 188.165 24.2919 190.168 18.7446C192.189 13.1885 188.287 7.27534 181.46 5.52492Z" fill="#CC691E"/>
<path d="M181.46 5.52492C178.882 4.86306 176.252 4.8979 173.874 5.49008C175.311 4.77598 176.443 3.65257 176.957 2.22436C178.072 -0.867191 175.895 -4.16775 172.089 -5.14311C171.427 -5.30857 170.765 -5.39566 170.104 -5.41308C171.314 -6.62357 172.263 -8.05178 172.847 -9.65417C175.215 -16.2117 170.6 -23.2047 162.536 -25.2687C157.363 -26.6011 152.033 -25.5648 148.245 -22.9261C147.383 -26.7143 144.039 -30.0149 139.232 -31.2515C132.735 -32.9235 125.942 -30.1977 123.582 -25.138C120.081 -29.2833 114.351 -31.9917 107.855 -31.9917C97.1865 -31.9917 88.5301 -24.6939 88.5301 -15.6979C88.5301 -14.5745 88.6608 -13.4772 88.922 -12.4235C88.6434 -12.4409 88.3734 -12.4583 88.0947 -12.4583C80.1002 -12.4583 73.621 -6.98933 73.621 -0.24888C73.621 4.50601 76.8519 8.60776 81.5459 10.6282C76.7823 13.1885 73.621 17.6734 73.621 22.7941C73.621 30.7624 81.2846 37.2242 90.7334 37.2242C93.0412 37.2242 95.2445 36.8323 97.2562 36.1356C97.0559 36.7365 96.9339 37.3635 96.9339 38.0167C96.9339 41.7788 100.548 44.8268 105.007 44.8268C107.062 44.8268 108.934 44.1737 110.363 43.1025C108.778 45.0619 107.846 47.4307 107.846 49.9823C107.846 56.7227 114.325 62.1917 122.319 62.1917C130.314 62.1917 136.793 56.7227 136.793 49.9823C136.793 48.9721 136.628 47.9967 136.358 47.0562C140.059 46.5772 143.299 44.9313 145.519 42.5539C147.888 43.9734 150.779 44.8268 153.906 44.8268C161.9 44.8268 168.379 39.3578 168.379 32.6174C168.379 31.1369 168.048 29.7261 167.474 28.4111C169.102 27.427 170.443 26.1207 171.349 24.5532C172.228 24.9886 173.178 25.3544 174.197 25.6156C181.015 27.3661 188.165 24.2919 190.168 18.7446C192.189 13.1885 188.287 7.27534 181.46 5.52492Z" fill="url(#paint2_linear_1_1337)"/>
<path d="M40.1101 94.3352L32.0024 118.859L26.6466 102.643L19.2879 136.729L52.3283 131.286L40.1101 94.3352Z" fill="#CC691E"/>
<path d="M134.886 122.856L130.418 136.363L122.276 111.726L110.754 146.587H144.77L134.886 122.856Z" fill="#CC691E"/>
<path d="M58.9905 118.223C58.2068 118.223 57.423 118.232 56.6392 118.249C40.5806 118.632 24.9138 123.291 10.9713 131.251L-78.6837 182.449H160.942V179.488L128.442 146.987C110.023 128.569 85.0379 118.223 58.9905 118.223Z" fill="#FEC956"/>
<path d="M58.9905 118.223C58.2068 118.223 57.423 118.232 56.6392 118.249C40.5806 118.632 24.9138 123.291 10.9713 131.251L-78.6837 182.449H160.942V179.488L128.442 146.987C110.023 128.569 85.0379 118.223 58.9905 118.223Z" fill="url(#paint3_linear_1_1337)"/>
<path d="M151.902 121.82C120.09 152.178 65.7743 159.493 31.2447 160.869C22.0571 161.235 12.9305 162.471 4.0042 164.64L-69.3918 182.449H256.249L190.568 121.341C186.536 117.587 181.485 115.105 176.042 114.208C167.238 112.763 158.355 115.663 151.902 121.82Z" fill="#CE4C52"/>
<path d="M151.902 121.82C120.09 152.178 65.7743 159.493 31.2447 160.869C22.0571 161.235 12.9305 162.471 4.0042 164.64L-69.3918 182.449H256.249L190.568 121.341C186.536 117.587 181.485 115.105 176.042 114.208C167.238 112.763 158.355 115.663 151.902 121.82Z" fill="url(#paint4_linear_1_1337)"/>
<path d="M37.4543 196.321C42.2614 193.5 45.9103 189.781 40.8593 186.333C40.1017 185.819 40.1278 184.704 40.9203 184.234C44.3341 182.222 50.9003 177.459 48.6361 171.667C48.6361 171.667 47.4256 168.802 41.9566 168.585C41.0858 168.55 40.4674 167.722 40.6677 166.878C41.6431 162.715 43.4545 152.23 37.9855 149.312C35.4513 147.963 32.3075 148.877 30.679 151.237C29.5207 152.927 28.3015 155.487 27.9445 159.057C27.9445 159.057 28.2232 161.496 24.9487 158.744C21.6743 155.992 18.1299 156.645 16.9368 162.044C15.7437 167.444 15.4738 172.991 13.4273 173.801C11.3807 174.611 7.85376 172.547 5.6679 176.414C3.96102 179.435 6.16429 188.266 16.4056 195.442C22.641 199.822 30.8619 200.188 37.4543 196.321Z" fill="#EB7D41"/>
<defs>
<linearGradient id="paint0_linear_1_1337" x1="87.1107" y1="71.5035" x2="89.046" y2="126.464" gradientUnits="userSpaceOnUse">
<stop offset="0.4372" stop-color="#FFF459" stop-opacity="0.53"/>
<stop offset="0.9596" stop-color="#FFF459" stop-opacity="0"/>
</linearGradient>
<linearGradient id="paint1_linear_1_1337" x1="140.3" y1="13.6165" x2="152.635" y2="101.955" gradientUnits="userSpaceOnUse">
<stop stop-color="#040006"/>
<stop offset="1" stop-color="#040006" stop-opacity="0"/>
</linearGradient>
<linearGradient id="paint2_linear_1_1337" x1="51.7457" y1="54.5011" x2="126.953" y2="8.34223" gradientUnits="userSpaceOnUse">
<stop offset="0.4372" stop-color="#FFF459" stop-opacity="0.53"/>
<stop offset="0.9596" stop-color="#FFF459" stop-opacity="0"/>
</linearGradient>
<linearGradient id="paint3_linear_1_1337" x1="38.1395" y1="103.981" x2="39.6878" y2="143.848" gradientUnits="userSpaceOnUse">
<stop offset="0.4372" stop-color="#FFE9B1" stop-opacity="0.53"/>
<stop offset="0.9596" stop-color="#FFE9B1" stop-opacity="0"/>
</linearGradient>
<linearGradient id="paint4_linear_1_1337" x1="80.677" y1="121.446" x2="91.5142" y2="173.31" gradientUnits="userSpaceOnUse">
<stop offset="0.4372" stop-color="#FFF459" stop-opacity="0.53"/>
<stop offset="0.9596" stop-color="#FFF459" stop-opacity="0"/>
</linearGradient>
</defs>
</svg>
