<svg width="21" height="17" viewBox="0 0 21 17" fill="none" xmlns="http://www.w3.org/2000/svg">
<g clip-path="url(#clip0_1_1557)">
<path d="M20.9412 11.3326V14.3326C20.9412 15.7126 19.8212 16.8326 18.4412 16.8326H16.4412C16.1612 16.8326 15.9412 16.6026 15.9412 16.3326V9.33263C15.9412 9.05263 16.1612 8.83263 16.4412 8.83263H16.9412V8.82263H17.9412V8.83263H18.4412C19.8212 8.83263 20.9412 9.95263 20.9412 11.3326Z" fill="#7FD2F2"/>
<path d="M5.94116 9.33263V16.3326C5.94116 16.6026 5.72116 16.8326 5.44116 16.8326H3.44116C2.06116 16.8326 0.941162 15.7126 0.941162 14.3326V11.3326C0.941162 9.95263 2.06116 8.83263 3.44116 8.83263H3.94116V8.82263H4.94116V8.83263H5.44116C5.72116 8.83263 5.94116 9.04263 5.94116 9.33263Z" fill="#7FD2F2"/>
<path d="M17.9412 7.81262V8.82262H16.9412V7.81262C16.9412 4.50262 14.2512 1.81262 10.9412 1.81262C7.63116 1.81262 4.94116 4.50262 4.94116 7.81262V8.82262H3.94116V7.81262C3.94116 3.95262 7.07116 0.812622 10.9412 0.812622C14.8112 0.812622 17.9412 3.95262 17.9412 7.81262Z" fill="#7FD2F2" stroke="#7FD2F2" stroke-width="0.25" stroke-miterlimit="10"/>
</g>
<defs>
<clipPath id="clip0_1_1557">
<rect width="20" height="16.15" fill="white" transform="translate(0.941162 0.682617)"/>
</clipPath>
</defs>
</svg>
