<svg width="177" height="210" viewBox="0 0 177 210" fill="none" xmlns="http://www.w3.org/2000/svg">
<path d="M182.988 -26.1045H-2.52284V236.266H182.988V-26.1045Z" fill="#4FA4C0"/>
<path d="M182.988 -26.1045H-2.52284V236.266H182.988V-26.1045Z" fill="url(#paint0_linear_1_1294)"/>
<path d="M182.988 -26.1045H-2.52284V236.266H182.988V-26.1045Z" fill="#4FA4C0"/>
<path d="M182.988 -26.1045H-2.52284V236.266H182.988V-26.1045Z" fill="url(#paint1_linear_1_1294)"/>
<path opacity="0.61" d="M57.9467 29.0717C66.1909 29.0717 72.8742 22.3885 72.8742 14.1443C72.8742 5.90004 66.1909 -0.783215 57.9467 -0.783215C49.7025 -0.783215 43.0192 5.90004 43.0192 14.1443C43.0192 22.3885 49.7025 29.0717 57.9467 29.0717Z" fill="white"/>
<path opacity="0.22" d="M171.733 -18.6918C171.563 -18.6918 171.405 -18.6805 171.246 -18.6805C171.031 -18.6805 170.804 -18.6918 170.588 -18.6918C156.092 -18.6238 143.51 -9.48821 138.24 3.24038C136.29 7.71749 135.191 12.648 135.191 17.8392C135.191 30.2051 141.346 41.1428 150.753 47.7508C143.771 50.1764 138.75 56.7844 138.75 64.5938C138.75 70.091 141.232 74.9988 145.143 78.2745C136.302 78.9772 129.331 86.3559 129.331 95.3782C129.331 96.9763 129.569 98.5178 129.977 99.9913C128.617 99.7079 127.2 99.5606 125.761 99.5606C115.333 99.5606 106.73 107.257 105.257 117.276C103.659 116.846 101.981 116.596 100.247 116.596C95.509 116.596 91.1793 118.319 87.8356 121.153C83.0525 113.638 74.665 108.628 65.0874 108.628C62.1404 108.628 59.3068 109.116 56.6545 109.988C57.5953 107.2 57.8787 104.128 57.2099 100.887C56.0198 95.1175 51.826 90.3797 46.3628 88.1808C42.9852 86.8207 39.7549 86.7073 36.7852 87.2854C37.6353 85.4719 38.134 83.4543 38.134 81.3234C38.134 74.1034 32.6822 68.1642 25.6661 67.3821C26.7429 64.5031 27.3549 61.3975 27.3549 58.1445C27.3549 43.9764 16.2018 32.4493 2.20378 31.7692C5.28675 28.5162 7.19095 24.1298 7.19095 19.3013C7.19095 9.27031 -0.935858 1.14351 -10.9669 1.14351C-20.9978 1.14351 -29.1246 9.27031 -29.1246 19.3013V236.254H208.276V17.8505C208.264 -2.32484 191.909 -18.6918 171.733 -18.6918Z" fill="url(#paint2_linear_1_1294)"/>
<path opacity="0.74" d="M209.624 65.478C208.06 51.6613 196.907 40.7688 182.988 39.5901V39.4767C182.795 39.4994 182.603 39.5221 182.399 39.5447C181.764 39.4994 181.129 39.4767 180.483 39.4767C164.286 39.4767 151.15 52.6134 151.15 68.8103C151.15 75.1916 153.19 81.0968 156.658 85.914C156.919 86.4694 157.191 87.0134 157.486 87.5348C148.237 90.6745 141.583 99.402 141.583 109.705C141.583 109.75 141.595 109.796 141.595 109.852C137.265 106.497 131.824 104.491 125.919 104.491C121.997 104.491 118.291 105.375 114.97 106.939C109.938 96.1377 98.9998 88.6456 86.3052 88.6456C79.8332 88.6456 73.826 90.5951 68.8161 93.9275C65.8012 89.3257 60.61 86.2767 54.6934 86.2767C51.6898 86.2767 48.8675 87.0701 46.4193 88.4529C44.413 79 36.0255 71.9046 25.9719 71.9046C24.5664 71.9046 23.1949 72.052 21.8688 72.3126C22.4582 70.2838 22.7982 68.1529 22.7982 65.9313C22.7982 63.3698 22.3562 60.9102 21.5741 58.6206C18.9332 49.7117 10.7044 43.2171 0.934065 43.2171C0.786716 43.2171 0.650698 43.2398 0.503351 43.2398C0.356003 43.2398 0.220001 43.2171 0.0726528 43.2171C-0.811436 43.2171 -1.67286 43.2738 -2.53428 43.3758V43.5231C-12.7806 45.178 -20.6127 54.0415 -20.6127 64.7526V236.549H209.805V65.2966L209.624 65.478Z" fill="url(#paint3_linear_1_1294)"/>
<path d="M150.186 115.089L119.413 129.45L40.7976 94.0068C28.137 88.2942 13.3455 90.1418 2.47578 98.7899L-2.52272 102.768L-149.599 236.266H330.994L187.159 118.761C184.405 116.506 181.277 114.772 177.911 113.615C168.82 110.498 158.891 111.031 150.186 115.089Z" fill="#A5C0EA"/>
<path d="M177.899 113.615C168.82 110.499 158.891 111.031 150.186 115.089L119.413 129.45L40.7973 94.0069C34.518 91.1733 27.7173 90.2098 21.132 91.0032L46.3738 125.449L38.315 133.813L106.696 197.626L171.982 154.374L156.533 143.051L180.801 114.613L177.899 113.615Z" fill="#92B3EA"/>
<path d="M150.186 115.089L119.413 129.45L40.7976 94.0068C28.137 88.2942 13.3455 90.1418 2.47578 98.7899L-2.52272 102.768L-149.599 236.266H330.994L187.159 118.761C184.405 116.506 181.277 114.772 177.911 113.615C168.82 110.498 158.891 111.031 150.186 115.089Z" fill="url(#paint4_linear_1_1294)"/>
<path d="M125.33 172.566L59.046 147.778C43.0304 141.782 25.4393 141.476 9.20837 146.893C1.44427 149.489 -5.85513 153.343 -12.3724 158.307L-114.836 236.266H280.612L212.696 196.164C193.189 184.648 171.132 178.143 148.498 177.236C140.586 176.918 132.765 175.343 125.33 172.566Z" fill="white"/>
<path d="M148.509 177.236C140.586 176.918 132.765 175.343 125.33 172.566L59.0458 147.778C52.6418 145.386 45.9885 143.913 39.2785 143.335L31.7638 161.107C29.1908 167.182 30.3129 174.187 34.6314 179.163L84.197 236.254H280.623L212.707 196.153C193.2 184.649 171.144 178.143 148.509 177.236Z" fill="#CEE0FF"/>
<path d="M125.33 172.566L59.046 147.778C43.0304 141.782 25.4393 141.476 9.20837 146.893C1.44426 149.489 -5.85513 153.343 -12.3724 158.307L-114.836 236.266H280.612L212.696 196.164C193.189 184.648 171.132 178.143 148.498 177.236C140.586 176.918 132.765 175.343 125.33 172.566Z" fill="url(#paint5_linear_1_1294)"/>
<path d="M-15.1039 236.537L7.96167 178.607L36.3772 236.537H-15.1039Z" fill="#2F497C"/>
<path d="M18.5026 236.537L42.7357 168.236L69.9951 236.537H18.5026Z" fill="#2F497C"/>
<path d="M25.9266 171.693L13.4134 196.606H19.67L-0.00663757 236.537H49.6383L36.2183 204.121L44.7191 206.705L25.9266 171.693Z" fill="#627BB3"/>
<path d="M-5.19777 171.693L-17.7223 196.606H-11.4544L-31.131 236.537H18.5026L5.09391 204.121L13.5834 206.705L-5.19777 171.693Z" fill="#496AAA"/>
<path d="M79.856 182.925L69.4963 203.531H74.6761L58.4112 236.537H99.4533L88.3568 209.731L95.3842 211.874L79.856 182.925Z" fill="#2F79AA"/>
<path d="M57.8219 182.925L47.4735 203.531H52.642L36.3771 236.537H77.4191L66.3227 209.731L73.3501 211.874L57.8219 182.925Z" fill="#496AAA"/>
<path d="M147.546 236.538L164.151 194.861L184.587 236.538H147.546Z" fill="#2F497C"/>
<path d="M171.733 236.538L189.166 187.403L208.774 236.538H171.733Z" fill="#2F497C"/>
<path d="M177.072 189.885L168.061 207.816H172.572L158.415 236.537H194.13L184.473 213.211L190.582 215.081L177.072 189.885Z" fill="#627BB3"/>
<path d="M154.675 189.885L145.664 207.816H150.175L136.018 236.537H171.733L162.076 213.211L168.197 215.081L154.675 189.885Z" fill="#496AAA"/>
<defs>
<linearGradient id="paint0_linear_1_1294" x1="90.875" y1="-87.1862" x2="90.2032" y2="114.315" gradientUnits="userSpaceOnUse">
<stop offset="0.4372" stop-color="#9477FF" stop-opacity="0.53"/>
<stop offset="0.9596" stop-color="#9477FF" stop-opacity="0"/>
</linearGradient>
<linearGradient id="paint1_linear_1_1294" x1="90.2327" y1="-1.38576" x2="90.2327" y2="110.619" gradientUnits="userSpaceOnUse">
<stop stop-color="#7F88ED"/>
<stop offset="0.9596" stop-color="#96B0ED"/>
</linearGradient>
<linearGradient id="paint2_linear_1_1294" x1="86.8273" y1="-71.5405" x2="90.4619" y2="191.609" gradientUnits="userSpaceOnUse">
<stop stop-color="white"/>
<stop offset="1" stop-color="white" stop-opacity="0"/>
</linearGradient>
<linearGradient id="paint3_linear_1_1294" x1="92.8099" y1="44.538" x2="95.5072" y2="203.68" gradientUnits="userSpaceOnUse">
<stop stop-color="white"/>
<stop offset="1" stop-color="white" stop-opacity="0"/>
</linearGradient>
<linearGradient id="paint4_linear_1_1294" x1="90.6975" y1="65.2121" x2="91.6841" y2="164.083" gradientUnits="userSpaceOnUse">
<stop stop-color="#5B5FB3" stop-opacity="0.53"/>
<stop offset="0.9596" stop-color="#7E5AFF" stop-opacity="0"/>
</linearGradient>
<linearGradient id="paint5_linear_1_1294" x1="77.9412" y1="236.266" x2="82.888" y2="137.864" gradientUnits="userSpaceOnUse">
<stop offset="0.4372" stop-color="#4198F4" stop-opacity="0.53"/>
<stop offset="0.9596" stop-color="#4AA2FF" stop-opacity="0"/>
</linearGradient>
</defs>
</svg>
