<svg width="176" height="86" viewBox="0 0 176 86" fill="none" xmlns="http://www.w3.org/2000/svg">
<path d="M119.324 33.5822C120.197 38.9182 73.6507 37.5303 65.499 35.4814C60.8607 34.5109 66.2917 11.9317 63.3772 4.56763C61.6984 -2.32684 114.022 -0.511042 117.884 4.05628C120.858 7.56961 118.096 26.0685 119.324 33.5822Z" fill="#FBF5EB"/>
<path d="M71.8717 20.6002C72.0552 19.6784 71.8198 18.6175 71.9514 18.1061C72.249 16.9582 72.3979 16.3842 72.2213 16.2207C71.5048 15.5529 71.0064 18.5931 70.3314 18.5688C70.0614 18.4192 69.8329 17.5009 69.7429 16.8399C69.6356 16.0503 69.9368 13.7127 69.466 13.7545C69.068 13.7892 68.8014 15.4903 68.8118 16.0607C68.798 15.4659 69.0368 12.857 68.4068 13.0761C67.9465 13.2362 67.9395 16.2173 67.9499 16.6138C67.9361 16.4225 68.0434 13.5631 67.5865 13.7614C67.0603 13.9875 67.1676 16.5616 67.178 16.9547C67.1573 16.7147 67.3234 14.2623 66.7661 14.5302C66.42 14.6971 66.278 17.073 66.2884 17.4695C66.33 19.2158 67.9603 23.4283 68.2545 23.9153L70.9614 23.9709C70.9614 23.9709 71.3421 22.8474 71.4529 22.2978C71.5948 21.6055 71.8025 20.9446 71.8717 20.6002Z" fill="#FDBCA0"/>
<path d="M86.3337 41.4298C86.6625 43.9552 83.1423 52.7211 83.8934 57.0728C91.1728 58.6103 108.342 55.8518 109.678 50.067C109.785 46.1502 109.646 41.7672 109.723 39.1583C109.916 32.3404 108.663 20.6559 97.3688 24.2736C96.7907 24.1519 96.8115 23.2961 91.1174 23.6857C85.6103 24.0545 85.3437 33.8814 86.3337 41.4298Z" fill="#8E97FD"/>
<path d="M67.1952 24.0962C64.9072 35.8154 71.9927 44.5952 81.882 44.1256C95.932 43.4612 104.392 32.3682 100.55 24.6702L96.7662 24.7258C85.5546 22.757 82.872 31.1855 79.4971 30.8793C77.0707 30.6602 73.0658 28.5244 72.2419 23.5814C72.0619 22.503 67.3786 23.1605 67.1952 24.0962Z" fill="#8E97FD"/>
<path d="M93.6925 24.837C91.8164 29.3452 84.4539 31.4776 85.6342 24.8196C85.9977 22.7638 83.3116 21.1359 83.0693 19.6749C82.5189 16.3494 85.8246 15.2815 86.5515 12.2517C87.6453 7.68782 89.4557 0.111557 101.726 7.26344C105.458 9.43405 93.6925 24.837 93.6925 24.837Z" fill="#3F414E"/>
<path d="M99.7188 16.5825L99.7395 25.0215C99.3068 27.4495 93.3809 27.8078 93.6924 25.0423L93.6751 21.4177L99.7188 16.5825Z" fill="#F0A38B"/>
<path d="M89.8055 16.4573C89.7674 16.9721 89.7016 17.4417 89.7293 17.9461C89.7674 18.6035 89.9093 19.2714 90.1585 19.8976C90.8231 21.5603 92.2077 23.9222 93.9419 23.964C97.0018 24.0336 100.969 20.562 100.477 16.0781C100.048 12.1648 96.756 6.16428 95.5653 8.47403C93.7169 12.0604 91.6435 10.6794 90.3212 12.8953C90.0443 13.3579 89.7882 13.9423 89.8089 15.2885C89.8158 15.7268 89.8297 16.1025 89.8055 16.4573Z" fill="#FDBCA0"/>
<path d="M96.1053 18.6662C96.0707 19.6228 96.8115 20.4263 97.7634 20.4646C98.7153 20.4994 99.5148 19.7549 99.5529 18.7983C99.5875 17.8417 98.8468 17.0382 97.8949 16.9999C96.943 16.9617 96.1434 17.7096 96.1053 18.6662Z" fill="#F4A07B"/>
<path d="M89.7293 17.9461C89.7674 18.6035 89.9162 19.2679 90.1585 19.8976C90.9443 19.7584 91.5569 19.0871 91.5881 18.2522C91.6227 17.2956 90.882 16.4921 89.9301 16.4538C89.8885 16.4538 89.847 16.4538 89.8055 16.4538C89.7674 16.9721 89.7016 17.4417 89.7293 17.9461Z" fill="#F4A07B"/>
<path d="M94.9249 16.4503C94.9249 16.4503 95.6171 17.6052 97.7459 16.2973C98.0125 16.1338 96.8321 16.499 96.1018 16.5581C95.3541 16.6138 94.7379 16.1999 94.9249 16.4503Z" fill="#002869"/>
<path d="M90.1723 15.706C90.3453 15.9912 91.8788 17.1774 92.443 16.1269C92.5918 15.852 91.9999 16.4295 91.3111 16.1756C90.605 15.9181 90.0615 15.5251 90.1723 15.706Z" fill="#002869"/>
<path d="M93.9593 19.2331C93.5059 19.254 92.8067 19.1426 92.689 18.6069C92.6371 18.3704 92.7582 18.1687 92.8655 17.9669C93.1424 17.4486 93.3882 16.9755 93.3709 16.3668C93.3674 16.2868 93.492 16.2694 93.4955 16.3494C93.5128 16.9303 93.312 17.4034 93.042 17.9078C92.8828 18.2034 92.6924 18.4643 92.9347 18.7878C93.1563 19.08 93.5993 19.1287 93.942 19.1113C94.0216 19.1079 94.0389 19.2296 93.9593 19.2331Z" fill="#F27979"/>
<path d="M95.2608 20.4645C95.3958 20.1932 93.9663 21.1498 92.4086 20.301C91.7406 19.9357 93.3432 21.9046 95.2608 20.4645Z" fill="#F27979"/>
<path fill-rule="evenodd" clip-rule="evenodd" d="M0 74.7718V53.287C0.828978 48.8905 2.16844 45.1851 3.99518 43.4875C4.16441 43.3291 4.34133 43.1809 4.52594 43.0604C12.2102 35.0496 19.9507 31 37.9064 37.4981C51.4356 34.5646 60.0379 35.911 68.9732 37.3096C76.7848 38.5322 84.8508 39.7947 96.6859 38.2721L96.7076 38.2728C96.8071 38.276 96.9003 38.279 96.9936 38.279C101.197 38.3642 104.024 37.7104 106.609 37.1124C111.237 36.0418 115.091 35.1503 124.692 39.0001C124.88 39.0086 125.285 38.8688 125.888 38.6609C128.45 37.7777 134.572 35.6668 142.648 38.5001C160.926 35.019 167.087 39.0001 171.576 42.0001C173.427 43.4434 174.891 45.9289 176 48.9843V81.7475C175.651 82.2038 175.271 82.5226 174.861 82.6824C167.068 85.729 135.384 85.5078 105.701 85.3006C90.6447 85.1956 76.103 85.0941 65.4557 85.4245C64.7249 85.4486 63.9942 85.4692 63.2634 85.4899C49.9944 85.8861 37.21 86.1031 26.7948 85.9515C25.5564 85.9343 24.3487 85.9102 23.1795 85.8792C11.7412 85.5967 3.81057 84.7837 2.33367 83.1406C1.7538 82.4948 0.739148 78.7138 0 74.7718Z" fill="#3F414E"/>
<path d="M82.6583 40.0335C84.0186 39.9848 85.379 39.9396 86.7393 39.8909C87.307 39.87 87.3104 38.9795 86.7393 39.0004C85.379 39.0491 84.0186 39.0943 82.6583 39.143C82.0906 39.1638 82.0871 40.0543 82.6583 40.0335Z" fill="#656B7B"/>
<path d="M77.4004 74.6172C76.2858 75.3999 75.1678 76.1825 74.0532 76.9652C73.5859 77.2922 74.067 78.0401 74.5343 77.7131C75.6489 76.9304 76.767 76.1478 77.8815 75.3651C78.3488 75.0381 77.8677 74.2902 77.4004 74.6172Z" fill="#656B7B"/>
<path d="M85.0086 45.3765C84.0221 47.0601 83.0321 48.7402 82.0456 50.4238C81.7583 50.9143 82.4748 51.4396 82.7621 50.9456C83.7486 49.262 84.7386 47.5819 85.7251 45.8983C86.0158 45.4113 85.2993 44.8825 85.0086 45.3765Z" fill="#656B7B"/>
<path d="M86.4693 69.9524C87.3935 71.2395 88.4215 72.4396 89.5569 73.5457C89.9653 73.9458 90.5919 73.3162 90.1834 72.9161C89.1034 71.8621 88.1169 70.7281 87.2343 69.5037C86.902 69.041 86.1335 69.4863 86.4693 69.9524Z" fill="#656B7B"/>
<path d="M89.3803 55.1895C89.3803 55.1895 89.3803 58.108 89.3803 59.6385C89.3803 60.2125 90.2664 60.2125 90.2664 59.6385C90.2664 58.1045 90.2664 56.6713 90.2664 55.1895C90.2664 54.5981 89.3803 54.5981 89.3803 55.1895C89.3803 55.1895 89.3803 54.5981 89.3803 55.1895Z" fill="#656B7B"/>
<path d="M68.2033 63.7188C67.0645 63.3953 65.9291 63.0718 64.7903 62.7483C64.2434 62.5918 63.9526 63.4336 64.503 63.5901C65.6418 63.9136 66.7772 64.2371 67.916 64.5606C68.4629 64.7137 68.7536 63.8754 68.2033 63.7188Z" fill="#656B7B"/>
<path d="M71.7306 43.4355C73.0771 44.253 74.3475 45.1783 75.5417 46.2079C75.9743 46.5801 76.4624 45.8357 76.0332 45.467C74.839 44.4374 73.5686 43.5155 72.2221 42.6946C71.7341 42.3989 71.2391 43.1399 71.7306 43.4355Z" fill="#656B7B"/>
<path d="M14.4784 63.9519C13.6615 63.9032 12.8446 63.858 12.0277 63.8128C12.0138 63.5206 12.0069 63.2249 12 62.9223C12.8169 62.971 13.6303 63.0162 14.4472 63.0614C15.0115 63.0962 15.0495 63.9867 14.4784 63.9519Z" fill="#656B7B"/>
<path d="M53.0803 73.4275C54.4406 73.4762 55.801 73.5214 57.1613 73.5701C57.729 73.591 57.7324 74.4815 57.1613 74.4606C55.801 74.4119 54.4406 74.3667 53.0803 74.318C52.5091 74.2971 52.5091 73.4066 53.0803 73.4275Z" fill="#656B7B"/>
<path d="M54.1083 51.7144C53.1218 50.0308 52.1318 48.3507 51.1453 46.6671C50.858 46.1766 51.5746 45.6513 51.8618 46.1453C52.8484 47.8289 53.8383 49.509 54.8248 51.1926C55.1156 51.6831 54.3991 52.2084 54.1083 51.7144Z" fill="#656B7B"/>
<path d="M41.848 80.2767C41.5192 80.3011 41.1904 80.3219 40.8615 80.3428C40.28 79.3514 39.6985 78.3635 39.117 77.3721C38.8297 76.8817 39.5462 76.3564 39.8335 76.8504C40.505 77.9948 41.1765 79.1357 41.848 80.2767Z" fill="#656B7B"/>
<path d="M63.7658 52.1284C63.7658 52.1284 63.7658 49.2099 63.7658 47.6794C63.7658 47.1054 64.6519 47.1054 64.6519 47.6794C64.6519 49.2134 64.6519 50.6466 64.6519 52.1284C64.6519 52.7232 63.7658 52.7232 63.7658 52.1284C63.7658 52.7232 63.7658 52.1284 63.7658 52.1284Z" fill="#656B7B"/>
<path d="M48.4109 55.8575C47.2721 56.181 46.1367 56.5045 44.9979 56.828C44.451 56.9845 44.1602 56.1427 44.7106 55.9862C45.8494 55.6627 46.9848 55.3392 48.1236 55.0156C48.667 54.8591 48.9578 55.7009 48.4109 55.8575Z" fill="#656B7B"/>
<path d="M45.0254 68.0879C46.3719 67.2704 47.6422 66.3451 48.8364 65.3155C49.2691 64.9433 49.7572 65.6877 49.3279 66.0564C48.1337 67.086 46.8634 68.0078 45.5169 68.8288C45.0288 69.1245 44.5338 68.387 45.0254 68.0879Z" fill="#656B7B"/>
<path d="M24.4507 80.809C23.8935 80.7916 23.35 80.7672 22.8239 80.7359C22.2181 80.2802 21.6331 79.8002 21.0655 79.2958C20.6397 78.9166 21.1935 78.2244 21.6193 78.6036C22.5193 79.3967 23.4608 80.1341 24.4507 80.809Z" fill="#656B7B"/>
<path d="M34.333 65.9068C33.6511 67.7365 32.9692 69.5663 32.2873 71.3925C32.09 71.9247 31.2316 71.6951 31.4324 71.1594C32.1143 69.3297 32.7962 67.5 33.4781 65.6738C33.6788 65.1415 34.5338 65.3711 34.333 65.9068Z" fill="#656B7B"/>
<path d="M20.349 43.6616C19.051 43.2581 17.7495 42.8511 16.4514 42.4476C15.908 42.2772 16.1399 41.418 16.6834 41.5884C17.9814 41.9919 19.2829 42.3989 20.5809 42.8024C21.1244 42.9729 20.8925 43.8321 20.349 43.6616Z" fill="#656B7B"/>
<path d="M29.5874 47.7558C30.0997 49.6412 30.6155 51.5231 31.1278 53.4084C31.2766 53.9546 30.4493 54.2746 30.3005 53.7215C29.7882 51.8361 29.2724 49.9542 28.7601 48.0689C28.6078 47.5227 29.4351 47.2027 29.5874 47.7558Z" fill="#656B7B"/>
<path d="M23.0939 67.7296C21.8651 68.728 20.5601 69.615 19.1755 70.3837C18.6771 70.662 18.234 69.8898 18.7359 69.6115C20.0547 68.881 21.3008 68.0462 22.4743 67.0965C22.9104 66.7382 23.5369 67.3679 23.0939 67.7296Z" fill="#656B7B"/>
<path d="M20.7192 52.9737C20.7192 52.9737 19.9577 55.7878 19.5561 57.2697C19.4073 57.8228 18.5523 57.5897 18.7012 57.0366C19.1027 55.5583 19.4765 54.1738 19.8642 52.7406C20.02 52.1667 20.8715 52.3998 20.7192 52.9737C20.8715 52.3998 20.7192 52.9737 20.7192 52.9737Z" fill="#656B7B"/>
<path d="M35.7108 61.2214C36.8911 61.2109 38.075 61.197 39.2553 61.1866C39.823 61.1796 39.8853 62.0701 39.3142 62.0736C38.1338 62.084 36.95 62.0979 35.7696 62.1084C35.202 62.1153 35.1397 61.2283 35.7108 61.2214Z" fill="#656B7B"/>
<path d="M44.6656 49.0255C43.153 49.4604 41.6853 50.0169 40.2661 50.6952C39.7504 50.9422 39.4769 50.0935 39.9858 49.85C41.405 49.1716 42.8726 48.6151 44.3853 48.1803C44.9322 48.0237 45.216 48.869 44.6656 49.0255Z" fill="#656B7B"/>
<path d="M160.658 40.0335C162.019 39.9848 163.379 39.9396 164.739 39.8909C165.307 39.87 165.31 38.9795 164.739 39.0004C163.379 39.0491 162.019 39.0943 160.658 39.143C160.091 39.1638 160.087 40.0543 160.658 40.0335Z" fill="#656B7B"/>
<path d="M155.4 74.6172C154.286 75.3999 153.168 76.1825 152.053 76.9652C151.586 77.2922 152.067 78.0401 152.534 77.7131C153.649 76.9304 154.767 76.1478 155.882 75.3651C156.349 75.0381 155.868 74.2902 155.4 74.6172Z" fill="#656B7B"/>
<path d="M163.009 45.3765C162.022 47.0601 161.032 48.7402 160.046 50.4238C159.758 50.9143 160.475 51.4396 160.762 50.9456C161.749 49.262 162.739 47.5819 163.725 45.8983C164.016 45.4113 163.299 44.8825 163.009 45.3765Z" fill="#656B7B"/>
<path d="M164.469 69.9524C165.393 71.2395 166.422 72.4396 167.557 73.5457C167.965 73.9458 168.592 73.3162 168.183 72.9161C167.103 71.8621 166.117 70.7281 165.234 69.5037C164.902 69.041 164.134 69.4863 164.469 69.9524Z" fill="#656B7B"/>
<path d="M167.38 55.1895C167.38 55.1895 167.38 58.108 167.38 59.6385C167.38 60.2125 168.266 60.2125 168.266 59.6385C168.266 58.1045 168.266 56.6713 168.266 55.1895C168.266 54.5981 167.38 54.5981 167.38 55.1895C167.38 55.1895 167.38 54.5981 167.38 55.1895Z" fill="#656B7B"/>
<path d="M146.203 63.7188C145.064 63.3953 143.929 63.0718 142.79 62.7483C142.243 62.5918 141.953 63.4336 142.503 63.5901C143.642 63.9136 144.777 64.2371 145.916 64.5606C146.463 64.7137 146.754 63.8754 146.203 63.7188Z" fill="#656B7B"/>
<path d="M149.731 43.4355C151.077 44.253 152.347 45.1783 153.542 46.2079C153.974 46.5801 154.462 45.8357 154.033 45.467C152.839 44.4374 151.569 43.5155 150.222 42.6946C149.734 42.3989 149.239 43.1399 149.731 43.4355Z" fill="#656B7B"/>
<path d="M92.4784 63.9519C91.6615 63.9032 90.8446 63.858 90.0277 63.8128C90.0138 63.5206 90.0069 63.2249 90 62.9223C90.8169 62.971 91.6303 63.0162 92.4472 63.0614C93.0115 63.0962 93.0495 63.9867 92.4784 63.9519Z" fill="#656B7B"/>
<path d="M131.08 73.4275C132.441 73.4762 133.801 73.5214 135.161 73.5701C135.729 73.591 135.732 74.4815 135.161 74.4606C133.801 74.4119 132.441 74.3667 131.08 74.318C130.509 74.2971 130.509 73.4066 131.08 73.4275Z" fill="#656B7B"/>
<path d="M132.108 51.7144C131.122 50.0308 130.132 48.3507 129.145 46.6671C128.858 46.1766 129.575 45.6513 129.862 46.1453C130.848 47.8289 131.838 49.509 132.825 51.1926C133.116 51.6831 132.399 52.2084 132.108 51.7144Z" fill="#656B7B"/>
<path d="M119.848 80.2767C119.519 80.3011 119.19 80.3219 118.862 80.3428C118.28 79.3514 117.698 78.3635 117.117 77.3721C116.83 76.8817 117.546 76.3564 117.833 76.8504C118.505 77.9948 119.177 79.1357 119.848 80.2767Z" fill="#656B7B"/>
<path d="M141.766 52.1284C141.766 52.1284 141.766 49.2099 141.766 47.6794C141.766 47.1054 142.652 47.1054 142.652 47.6794C142.652 49.2134 142.652 50.6466 142.652 52.1284C142.652 52.7232 141.766 52.7232 141.766 52.1284C141.766 52.7232 141.766 52.1284 141.766 52.1284Z" fill="#656B7B"/>
<path d="M126.411 55.8575C125.272 56.181 124.137 56.5045 122.998 56.828C122.451 56.9845 122.16 56.1427 122.711 55.9862C123.849 55.6627 124.985 55.3392 126.124 55.0156C126.667 54.8591 126.958 55.7009 126.411 55.8575Z" fill="#656B7B"/>
<path d="M123.025 68.0879C124.372 67.2704 125.642 66.3451 126.836 65.3155C127.269 64.9433 127.757 65.6877 127.328 66.0564C126.134 67.086 124.863 68.0078 123.517 68.8288C123.029 69.1245 122.534 68.387 123.025 68.0879Z" fill="#656B7B"/>
<path d="M102.451 80.809C101.893 80.7916 101.35 80.7672 100.824 80.7359C100.218 80.2802 99.6331 79.8002 99.0655 79.2958C98.6397 78.9166 99.1935 78.2244 99.6193 78.6036C100.519 79.3967 101.461 80.1341 102.451 80.809Z" fill="#656B7B"/>
<path d="M112.333 65.9068C111.651 67.7365 110.969 69.5663 110.287 71.3925C110.09 71.9247 109.232 71.6951 109.432 71.1594C110.114 69.3297 110.796 67.5 111.478 65.6738C111.679 65.1415 112.534 65.3711 112.333 65.9068Z" fill="#656B7B"/>
<path d="M98.349 43.6616C97.051 43.2581 95.7495 42.8511 94.4514 42.4476C93.908 42.2772 94.1399 41.418 94.6834 41.5884C95.9814 41.9919 97.2829 42.3989 98.5809 42.8024C99.1244 42.9729 98.8925 43.8321 98.349 43.6616Z" fill="#656B7B"/>
<path d="M107.587 47.7558C108.1 49.6412 108.615 51.5231 109.128 53.4084C109.277 53.9546 108.449 54.2746 108.3 53.7215C107.788 51.8361 107.272 49.9542 106.76 48.0689C106.608 47.5227 107.435 47.2027 107.587 47.7558Z" fill="#656B7B"/>
<path d="M101.094 67.7296C99.8651 68.728 98.5601 69.615 97.1755 70.3837C96.6771 70.662 96.234 69.8898 96.7359 69.6115C98.0547 68.881 99.3008 68.0462 100.474 67.0965C100.91 66.7382 101.537 67.3679 101.094 67.7296Z" fill="#656B7B"/>
<path d="M98.7192 52.9737C98.7192 52.9737 97.9577 55.7878 97.5561 57.2697C97.4073 57.8228 96.5523 57.5897 96.7012 57.0366C97.1027 55.5583 97.4765 54.1738 97.8642 52.7406C98.02 52.1667 98.8715 52.3998 98.7192 52.9737C98.8715 52.3998 98.7192 52.9737 98.7192 52.9737Z" fill="#656B7B"/>
<path d="M113.711 61.2214C114.891 61.2109 116.075 61.197 117.255 61.1866C117.823 61.1796 117.885 62.0701 117.314 62.0736C116.134 62.084 114.95 62.0979 113.77 62.1084C113.202 62.1153 113.14 61.2283 113.711 61.2214Z" fill="#656B7B"/>
<path d="M122.666 49.0255C121.153 49.4604 119.685 50.0169 118.266 50.6952C117.75 50.9422 117.477 50.0935 117.986 49.85C119.405 49.1716 120.873 48.6151 122.385 48.1803C122.932 48.0237 123.216 48.869 122.666 49.0255Z" fill="#656B7B"/>
<path d="M113.911 73.4392C112.807 76.0898 105.918 80.2293 104.783 79.6205C102.924 78.6187 96.043 68.7466 96.6141 66.3951C97.1575 64.1584 103.7 60.1164 103.7 60.1164C103.7 60.1164 110.408 57.4031 114.16 57.337C116.223 57.2987 124.482 69.8632 123.478 72.4652C122.987 73.7279 117.033 74.521 113.911 73.4392Z" fill="white"/>
<path d="M113.741 72.6879C113.416 75.5577 105.423 80.1181 103.855 79.4954C102.935 79.1302 95.1809 68.1936 95.7486 65.8456C96.292 63.6089 106.5 58.652 106.5 58.652C106.5 58.652 112.052 57.598 115.808 57.5284C117.871 57.4901 124.209 69.4981 123.205 72.1035C122.717 73.3662 115.493 74.7855 113.741 72.6879Z" fill="white"/>
<path d="M113.582 72.2461C112.454 75.8847 104.035 79.6693 103.059 79.0119C101.477 77.9405 95.4925 68.4789 96.0602 66.1274C96.6036 63.8907 106.704 59.0555 106.704 59.0555C109.799 58.8676 112.305 57.838 116.317 57.7267C118.386 57.6675 124.911 68.7571 124.126 71.366C123.662 72.9105 114.87 73.7697 113.582 72.2461Z" fill="white"/>
<path d="M111.924 73.1644C111.924 73.1644 112.609 74.6149 114.229 73.9853C115.984 73.3035 115.794 71.526 115.794 71.526C114.215 71.6756 112.862 72.1347 111.924 73.1644Z" fill="#E8E2E3"/>
<path d="M113.232 71.3939C112.637 71.8391 112.353 72.5313 112.395 73.4879C112.613 74.3993 104.371 78.264 102.267 78.4518C100.854 78.577 94.6964 66.4787 94.9456 65.042C95.1395 63.9324 104.887 59.6051 105.344 58.725C105.344 58.725 106.801 57.6223 107.798 57.8693C108.781 58.1128 117.13 56.0883 118.113 56.0639C119.653 56.0291 125.517 67.7066 125.496 70.0616C125.486 71.0356 115.797 73.1436 115.465 72.3435C115.109 71.4773 113.232 71.3939 113.232 71.3939Z" fill="#8E97FD"/>
<path d="M104.932 58.7842L112.395 73.4845C113.146 72.5453 114.468 71.6826 115.465 72.3436L108.276 57.6989C107.909 56.9684 104.686 58.2972 104.932 58.7842Z" fill="#4E5567"/>
<path d="M103.122 75.175C105.098 74.4028 106.967 73.4322 108.643 72.1208C108.881 71.9365 109.148 72.3191 108.913 72.5069C107.203 73.8427 105.295 74.8306 103.284 75.6168C103.004 75.7281 102.841 75.2863 103.122 75.175Z" fill="#4E5567"/>
<path d="M102.526 73.2966C103.783 72.7087 105.157 72.1661 106.268 71.3173C106.507 71.133 106.777 71.5191 106.538 71.7034C105.399 72.5731 103.977 73.1366 102.689 73.7384C102.415 73.8636 102.256 73.4218 102.526 73.2966Z" fill="#4E5567"/>
<path d="M91.1658 46.4214C90.2763 46.1396 89.1963 46.2614 88.7048 46.0735C87.604 45.6526 87.0502 45.4405 86.8667 45.6005C86.1295 46.244 89.0855 47.0684 88.9851 47.7398C88.8086 47.9937 87.874 48.1259 87.2129 48.1433C86.4202 48.1641 84.1426 47.6145 84.1322 48.0911C84.1253 48.4911 85.7764 48.9399 86.3441 48.992C85.7522 48.9399 83.2011 48.425 83.3499 49.0755C83.4607 49.5521 86.4064 49.8791 86.801 49.9104C86.6106 49.9034 83.793 49.4895 83.9384 49.966C84.1045 50.5156 86.6625 50.6861 87.0537 50.7174C86.8114 50.7104 84.4057 50.2826 84.6099 50.867C84.738 51.2287 87.0744 51.6253 87.4656 51.6601C89.1963 51.8062 93.5404 50.6304 94.0527 50.3869L94.3988 47.6876C94.3988 47.6876 93.3292 47.1867 92.7962 47.0162C92.135 46.8075 91.5016 46.5258 91.1658 46.4214Z" fill="#FDBCA0"/>
<path d="M93.9729 51.3018C96.8147 51.674 109.92 58.5093 113.869 49.2147C119.394 36.2188 109.276 22.6699 100.785 23.8318L104.039 35.9823C102.744 38.1286 103.488 41.788 103.173 42.7133C102.384 45.03 103.277 46.3205 93.8102 46.1849C92.7268 46.1744 93.0314 51.1801 93.9729 51.3018Z" fill="#8E97FD"/>
<path d="M94.0524 5.58341C93.8274 4.29635 105.181 0.901291 108.559 11.7717C109.764 15.6538 118.715 15.5425 114.575 23.0213C113.267 25.3833 122.557 27.4913 114.496 33.5822C106.953 39.28 95.4301 34.2883 96.4685 30.3193C97.6177 25.9259 101.564 28.267 98.9815 22.6735C97.6696 19.828 99.2134 18.134 99.5319 17.1809C99.5942 16.9826 99.6565 16.7843 99.7188 16.5826C99.9092 15.9042 99.9888 15.2711 99.7188 14.652C98.9088 12.8014 93.3844 13.925 94.5647 9.57678C95.6793 5.46862 94.0524 5.58341 94.0524 5.58341Z" fill="#3F414E"/>
<path d="M101.27 45.8197C104.835 44.9605 102.405 37.9477 104.254 35.6693C104.357 35.5406 104.174 35.3527 104.07 35.4849C102.197 37.7912 104.399 44.797 101.201 45.5692C101.038 45.6075 101.107 45.8614 101.27 45.8197Z" fill="#5863E3"/>
<path d="M97.9536 52.6516C101.581 53.8795 106.406 55.0379 110.062 53.4273C110.214 53.3612 110.083 53.1351 109.93 53.2012C106.351 54.7805 101.585 53.6047 98.0229 52.3976C97.8636 52.3455 97.7944 52.5994 97.9536 52.6516Z" fill="#5863E3"/>
<path d="M106.971 8.975C107.587 10.1299 108.345 11.0969 109.394 11.8796C110.487 12.697 111.491 13.2953 112.128 14.572C112.204 14.7216 112.433 14.5998 112.36 14.4502C111.886 13.5006 111.228 12.8536 110.377 12.2448C109.016 11.2778 108.006 10.3595 107.202 8.84977C107.119 8.70368 106.891 8.82542 106.971 8.975Z" fill="#002869"/>
<path d="M85.3298 22.2004C85.6725 23.4771 84.6548 24.8754 84.6271 26.1695C84.596 27.5226 85.5652 28.1001 86.7836 28.3227C86.9463 28.354 87.019 28.1001 86.8528 28.0687C83.0729 27.3765 86.1709 24.3258 85.5825 22.1274C85.5375 21.9709 85.2848 22.0404 85.3298 22.2004Z" fill="#002869"/>
</svg>
