<svg width="118" height="85" viewBox="0 0 118 85" fill="none" xmlns="http://www.w3.org/2000/svg">
<g clip-path="url(#clip0_1_2564)">
<path d="M28.5651 77.72C28.5651 78.1248 26.1935 78.4512 23.2695 78.4512C20.3456 78.4512 17.974 78.1248 17.974 77.72C17.974 77.3152 20.3456 76.9889 23.2695 76.9889C26.1935 76.9889 28.5651 77.3152 28.5651 77.72Z" fill="#FDF9E7"/>
<path d="M40.4233 84.9999C50.788 84.9999 59.1902 83.8381 59.1902 82.4049C59.1902 80.9717 50.788 79.8098 40.4233 79.8098C30.0586 79.8098 21.6564 80.9717 21.6564 82.4049C21.6564 83.8381 30.0586 84.9999 40.4233 84.9999Z" fill="#F05D48"/>
<path d="M88.9853 84.112C101.322 84.112 111.322 82.7295 111.322 81.0242C111.322 79.3189 101.322 77.9365 88.9853 77.9365C76.649 77.9365 66.6485 79.3189 66.6485 81.0242C66.6485 82.7295 76.649 84.112 88.9853 84.112Z" fill="#F05D48"/>
<path d="M60.3324 78.9091C74.0887 78.9091 85.2405 77.368 85.2405 75.4668C85.2405 73.5657 74.0887 72.0245 60.3324 72.0245C46.576 72.0245 35.4242 73.5657 35.4242 75.4668C35.4242 77.368 46.576 78.9091 60.3324 78.9091Z" fill="#F05D48"/>
<path d="M117.07 74.7076C117.07 75.5862 111.912 76.3017 105.546 76.3017C99.1829 76.3017 94.0215 75.5893 94.0215 74.7076C94.0215 73.829 99.1797 73.1135 105.546 73.1135C111.908 73.1135 117.07 73.8258 117.07 74.7076Z" fill="#F05D48"/>
<path d="M17.5779 69.8878C11.6457 68.526 6.0818 63.8724 3.14849 58.4376C0.218309 53.0027 -0.917567 46.4476 0.820573 40.5169C2.55559 34.5862 7.39867 29.484 13.4119 28.2006C20.7296 26.6379 28.1097 30.6921 33.6986 35.6908C35.9828 37.7336 38.136 39.9803 40.7791 41.5242C43.4253 43.0649 46.7362 43.8243 49.5571 42.6381C52.9429 41.2135 54.6811 37.5296 56.3287 34.2348C60.3854 26.1201 65.709 18.5201 72.724 12.7997C79.739 7.07609 88.5483 3.32941 97.5791 3.36079C103.205 3.37962 109.078 5.01448 112.998 9.07181C117.966 14.2149 118.833 22.2417 117.351 29.2549C115.869 36.2682 112.402 42.6664 109.646 49.278C106.891 55.8896 104.8 63.1664 106.276 70.1797L17.5779 69.8878Z" fill="#F05D48"/>
<path d="M55.2051 26.6315C56.9214 23.798 58.4099 20.7762 59.0684 17.5284C59.9296 13.2797 59.1932 8.79559 56.2661 5.48194C52.1408 0.815856 43.6498 -1.39638 37.8331 0.93196C35.4365 1.89216 33.3551 3.90671 32.8059 6.43901C31.8729 10.7254 35.1245 14.4344 37.1403 17.8548C38.2232 19.6936 39.0314 21.8336 39.1094 23.9894C39.1812 26.0479 37.8986 27.9495 38.2107 30.0268C38.3854 31.1941 39.0844 32.239 39.9894 32.9952C41.9678 34.6489 44.7638 35.2514 47.2446 34.6144C51.0798 33.6322 53.2829 29.8071 55.2051 26.6315Z" fill="#F05D48"/>
<path d="M46.4179 13.8069H3.83814C3.75701 13.8069 3.68835 13.8728 3.68835 13.9575V47.5678C3.68835 47.6494 3.75389 47.7184 3.83814 47.7184H46.4179C46.499 47.7184 46.5677 47.6525 46.5677 47.5678V13.9575C46.5677 13.8759 46.499 13.8069 46.4179 13.8069ZM33.5082 30.6136H29.542V26.7383H33.5082V30.6136ZM33.8078 26.7383H37.774V30.6136H33.8078V26.7383ZM24.9798 30.9148V34.7902H21.0136V30.9148H24.9798ZM21.0136 30.6136V26.7383H24.9798V30.6136H21.0136ZM25.2794 30.9148H29.2456V34.7902H25.2794V30.9148ZM25.2794 30.6136V26.7383H29.2456V30.6136H25.2794ZM29.542 26.4402V22.5648H33.5082V26.4402H29.542ZM29.2456 26.4402H25.2794V22.5648H29.2456V26.4402ZM24.9798 26.4402H21.0136V22.5648H24.9798V26.4402ZM20.714 26.4402H16.7478V22.5648H20.714V26.4402ZM20.714 26.7383V30.6136H16.7478V26.7383H20.714ZM16.4514 30.6136H12.4851V26.7383H16.4514V30.6136ZM12.1856 30.6136H8.21937V26.7383H12.1856V30.6136ZM12.1856 30.9148V34.7902H8.21937V30.9148H12.1856ZM12.4851 30.9148H16.4514V34.7902H12.4851V30.9148ZM16.7478 30.9148H20.714V34.7902H16.7478V30.9148ZM20.714 35.0883V38.9636H16.7478V35.0883H20.714ZM21.0136 35.0883H24.9798V38.9636H21.0136V35.0883ZM25.2794 35.0883H29.2456V38.9636H25.2794V35.0883ZM29.542 35.0883H33.5082V38.9636H29.542V35.0883ZM29.542 34.787V30.9148H33.5082V34.7902H29.542V34.787ZM33.8078 30.9148H37.774V34.7902H33.8078V30.9148ZM38.0704 30.9148H42.0366V34.7902H38.0704V30.9148ZM38.0704 30.6136V26.7383H42.0366V30.6136H38.0704ZM38.0704 26.4402V22.5648H42.0366V26.4402H38.0704ZM37.774 26.4402H33.8078V22.5648H37.774V26.4402ZM33.8078 22.2636V18.3914H37.774V22.2667H33.8078V22.2636ZM33.5082 22.2636H29.542V18.3914H33.5082V22.2636ZM29.2456 22.2636H25.2794V18.3914H29.2456V22.2636ZM24.9798 22.2636H21.0136V18.3914H24.9798V22.2636ZM20.714 22.2636H16.7478V18.3914H20.714V22.2636ZM16.4514 22.2636H12.4851V18.3914H16.4514V22.2636ZM16.4514 22.5648V26.4402H12.4851V22.5648H16.4514ZM12.1856 26.4402H8.21937V22.5648H12.1856V26.4402ZM7.9198 26.4402H3.98793V22.5648H7.9198V26.4402ZM7.9198 26.7383V30.6136H3.98793V26.7383H7.9198ZM7.9198 30.9148V34.7902H3.98793V30.9148H7.9198ZM7.9198 35.0883V38.9636H3.98793V35.0883H7.9198ZM8.21937 35.0883H12.1856V38.9636H8.21937V35.0883ZM12.4851 35.0883H16.4514V38.9636H12.4851V35.0883ZM16.4514 39.2617V43.137H12.4851V39.2617H16.4514ZM16.7478 39.2617H20.714V43.137H16.7478V39.2617ZM21.0136 39.2617H24.9798V43.137H21.0136V39.2617ZM25.2794 39.2617H29.2456V43.137H25.2794V39.2617ZM29.542 39.2617H33.5082V43.137H29.542V39.2617ZM33.8078 39.2617H37.774V43.137H33.8078V39.2617ZM33.8078 38.9636V35.0883H37.774V38.9636H33.8078ZM38.0704 35.0883H42.0366V38.9636H38.0704V35.0883ZM42.3362 35.0883H46.2681V38.9636H42.3362V35.0883ZM42.3362 34.787V30.9148H46.2681V34.7902H42.3362V34.787ZM42.3362 30.6136V26.7383H46.2681V30.6136H42.3362ZM42.3362 26.4402V22.5648H46.2681V26.4402H42.3362ZM42.3362 22.2636V18.3914H46.2681V22.2667H42.3362V22.2636ZM42.0366 22.2636H38.0704V18.3914H42.0366V22.2636ZM38.0704 18.0901V14.1081H42.0366V18.0901H38.0704ZM37.774 18.0901H33.8078V14.1081H37.774V18.0901ZM33.5082 18.0901H29.542V14.1081H33.5082V18.0901ZM29.2456 18.0901H25.2794V14.1081H29.2456V18.0901ZM24.9798 18.0901H21.0136V14.1081H24.9798V18.0901ZM20.714 18.0901H16.7478V14.1081H20.714V18.0901ZM16.4514 18.0901H12.4851V14.1081H16.4514V18.0901ZM12.1856 18.0901H8.21937V14.1081H12.1856V18.0901ZM12.1856 18.3914V22.2667H8.21937V18.3914H12.1856ZM7.9198 22.2636H3.98793V18.3914H7.9198V22.2636ZM3.98793 39.2617H7.9198V43.137H3.98793V39.2617ZM8.21937 39.2617H12.1856V43.137H8.21937V39.2617ZM12.1856 43.4383V47.4203H8.21937V43.4383H12.1856ZM12.4851 43.4383H16.4514V47.4203H12.4851V43.4383ZM16.7478 43.4383H20.714V47.4203H16.7478V43.4383ZM21.0136 43.4383H24.9798V47.4203H21.0136V43.4383ZM25.2794 43.4383H29.2456V47.4203H25.2794V43.4383ZM29.542 43.4383H33.5082V47.4203H29.542V43.4383ZM33.8078 43.4383H37.774V47.4203H33.8078V43.4383ZM38.0704 43.4383H42.0366V47.4203H38.0704V43.4383ZM38.0704 43.137V39.2617H42.0366V43.137H38.0704ZM42.3362 39.2617H46.2681V43.137H42.3362V39.2617ZM46.2681 18.0901H42.3362V14.1081H46.2681V18.0901ZM7.9198 14.1081V18.0901H3.98793V14.1081H7.9198ZM3.98793 43.4383H7.9198V47.4203H3.98793V43.4383ZM42.3362 47.4203V43.4383H46.2681V47.4203H42.3362Z" fill="#E7DFC2"/>
<path d="M21.2506 23.4183C21.2506 23.4183 22.2024 31.9629 26.9237 33.4503L35.6113 30.9996C35.6113 30.9996 30.425 28.599 29.8945 23.4183H21.2506Z" fill="#FEDEA6"/>
<path d="M16.748 31.3167C16.748 31.3167 16.024 41.0442 12.4291 42.7355L5.8136 39.9459C5.8136 39.9459 9.7642 37.2159 10.1667 31.3167H16.748Z" fill="#F7F4E3"/>
<path d="M39.0885 16.6177L33.3026 18.3094L35.3047 25.2334L41.0906 23.5416L39.0885 16.6177Z" fill="#F7F4E3"/>
<path d="M38.7877 17.3037L33.9246 18.7256L35.2176 23.1969L40.0806 21.775L38.7877 17.3037Z" fill="#FDFDFD"/>
<path d="M22.6469 37.6213L18.1959 36.3947L16.7452 41.7178L21.1961 42.9444L22.6469 37.6213Z" fill="#D2CDB8"/>
<path d="M22.1789 37.9474L18.4381 36.9165L17.5004 40.3573L21.2411 41.3882L22.1789 37.9474Z" fill="#E7DFC2"/>
<path d="M92.5114 34.9344C91.8779 34.9344 91.2413 34.9313 90.6078 34.9313C90.2958 34.9313 89.9962 35.2074 90.0118 35.5306C90.0274 35.857 90.2739 36.13 90.6078 36.13C91.2413 36.13 91.8779 36.1331 92.5114 36.1331C92.8234 36.1331 93.123 35.857 93.1074 35.5338C93.0918 35.2105 92.8453 34.9376 92.5114 34.9344Z" fill="#CCC6AD"/>
<path d="M111.144 50.8595C105.302 45.638 99.4606 40.4196 93.619 35.1981C92.7608 34.4325 91.4907 35.7002 92.3551 36.469L109.88 52.1304C110.735 52.8991 112.005 51.6314 111.144 50.8595Z" fill="#CCC6AD"/>
<path d="M113.772 73.0163H112.086C110.542 72.5707 108.077 72.2852 105.296 72.2852C102.516 72.2852 100.054 72.5738 98.5059 73.0163H96.8208C96.7428 73.4713 96.8208 74.1083 96.8208 74.1083C96.8208 75.1156 100.615 75.9314 105.293 75.9314C109.974 75.9314 113.765 75.1156 113.765 74.1083C113.924 73.4336 113.772 73.0163 113.772 73.0163Z" fill="#CCC6AD"/>
<path d="M113.772 73.0165C113.772 74.0238 109.98 74.8427 105.303 74.8427C100.622 74.8427 96.8304 74.0238 96.8304 73.0165C96.8304 72.0124 100.625 71.1934 105.303 71.1934C105.643 71.1934 105.977 71.1965 106.304 71.2059C106.607 71.2153 106.904 71.2247 107.197 71.2404C110.963 71.4224 113.772 72.1536 113.772 73.0165Z" fill="#E7DFC2"/>
<path d="M107.197 71.2372L106.32 72.7559L106.304 72.781V71.2058C106.604 71.2152 106.903 71.2215 107.197 71.2372Z" fill="#E7DFC2"/>
<path d="M109.871 51.2612L104.579 72.3009C104.295 73.4243 106.02 73.9044 106.304 72.7779C108.067 65.7647 109.834 58.7514 111.597 51.7382C111.881 50.6148 110.155 50.1378 109.871 51.2612Z" fill="#E7DFC2"/>
<path d="M111.537 50.4641C105.695 45.2426 99.8538 40.0242 94.0121 34.8027C93.154 34.0371 91.8839 35.3048 92.7483 36.0767L110.273 51.7381C111.128 52.5037 112.398 51.236 111.537 50.4641Z" fill="#E7DFC2"/>
<path d="M75.917 34.9314C75.917 34.9314 81.0285 26.5626 87.644 30.5509C94.2595 34.5392 89.3291 43.0147 89.3291 43.0147L75.917 34.9314Z" fill="#E7DFC2"/>
<path d="M89.3284 43.018C88.9601 43.6361 86.6166 42.9301 83.7364 41.4176C83.1154 41.0913 82.4694 40.7273 81.8141 40.3319C81.1588 39.9365 80.5347 39.5349 79.9574 39.1395C77.2737 37.2975 75.5512 35.5528 75.9194 34.9347C76.2627 34.3604 78.3191 34.9315 80.931 36.2369C81.7236 36.6323 82.5724 37.0967 83.4368 37.6207C84.3012 38.1416 85.1063 38.6719 85.8302 39.1928C88.1956 40.8873 89.6685 42.4406 89.3284 43.018Z" fill="#C1B894"/>
<path d="M85.8238 39.1865C85.5835 40.2565 84.7784 41.1132 83.7361 41.4144C83.4709 41.4929 83.1869 41.5337 82.8936 41.5337C81.4457 41.5337 80.238 40.5044 79.954 39.1332C79.9135 38.9323 79.8916 38.7221 79.8916 38.5087C79.8916 37.5956 80.2911 36.7829 80.9277 36.2306C81.7203 36.626 82.5691 37.0904 83.4334 37.6144C84.2947 38.1384 85.0998 38.6688 85.8238 39.1865Z" fill="#FAC978"/>
<path d="M93.023 33.9836C91.1038 33.9836 91.1007 36.9835 93.023 36.9835C94.9421 36.9835 94.9453 33.9836 93.023 33.9836Z" fill="#E7DFC2"/>
<path d="M93.023 34.8654C92.2335 34.8654 92.2303 36.1017 93.023 36.1017C93.8156 36.1017 93.8156 34.8654 93.023 34.8654Z" fill="#E7DFC2"/>
<path d="M110.57 49.4725C108.102 49.4725 108.099 53.329 110.57 53.329C113.039 53.329 113.042 49.4725 110.57 49.4725Z" fill="#E7DFC2"/>
<path d="M110.57 50.621C109.571 50.621 109.568 52.1837 110.57 52.1837C111.568 52.1837 111.571 50.621 110.57 50.621Z" fill="#E7DFC2"/>
<path d="M28.5591 68.9309H17.9805C17.9805 68.9309 17.6934 75.2883 20.867 77.5414C21.1291 77.7265 21.4568 77.8238 21.7907 77.8238H23.2698H24.7489C25.0828 77.8238 25.4105 77.7265 25.6726 77.5414C28.8462 75.2915 28.5591 68.9309 28.5591 68.9309Z" fill="#536969"/>
<path d="M28.5653 68.9338C28.5653 69.1221 26.8365 69.2853 24.5086 69.3261C24.1122 69.3355 23.6941 69.3386 23.2666 69.3386C22.9015 69.3386 22.5489 69.3355 22.2025 69.3292C19.7903 69.2947 17.9742 69.1284 17.9742 68.9338C17.9742 68.755 19.5126 68.6012 21.6377 68.5479C22.1494 68.5353 22.6986 68.5291 23.2697 68.5291C23.7191 68.5291 24.1559 68.5322 24.571 68.5416C26.8646 68.5855 28.5653 68.7456 28.5653 68.9338Z" fill="#405050"/>
<path d="M30.0757 70.7947C29.5141 70.1138 28.6029 69.9914 27.7759 70.0197C27.0114 70.0448 27.0083 71.2435 27.7759 71.2184C28.3782 71.1995 29.0241 71.2152 29.3331 71.8177C29.6202 72.37 29.5702 73.0886 29.2894 73.6346C28.6185 74.9525 27.0863 75.3165 25.7257 75.1313C25.4074 75.0874 25.1297 75.4389 25.1297 75.7307C25.1297 76.0916 25.4043 76.2861 25.7257 76.33C27.1924 76.5277 28.8057 76.1229 29.8105 74.9713C30.8028 73.8323 31.0868 72.0217 30.0757 70.7947Z" fill="#536969"/>
<path opacity="0.5" d="M26.253 65.3473C25.451 66.1569 24.5866 67.0826 24.5616 68.2279C24.5585 68.3566 24.5679 68.4852 24.5741 68.617C24.5897 68.89 24.6053 69.163 24.5148 69.4015C24.1185 69.4109 23.7004 69.414 23.2729 69.414C22.9078 69.414 22.5551 69.4109 22.2088 69.4046C21.981 69.1944 21.7875 68.9182 21.6408 68.6233C21.4879 68.3409 21.3756 68.0428 21.3069 67.776C21.1759 67.2708 21.1665 66.7311 21.2976 66.2259C21.6377 64.9048 22.8235 63.8254 22.7985 62.4635C22.7829 61.5818 22.2524 60.7973 21.6627 60.1478C21.0698 59.5013 20.3864 58.9208 19.9432 58.1615C19.185 56.8686 19.2723 55.1145 20.1929 53.9347C21.1103 52.7548 22.8235 52.2559 24.209 52.8019C25.5977 53.351 26.5213 54.9263 26.2779 56.4042C26.1188 57.3676 25.529 58.3529 25.9035 59.2566C26.1094 59.7492 26.5588 60.085 26.9364 60.4647C27.4606 60.9981 27.8663 61.6979 27.8819 62.4478C27.9069 63.5901 27.055 64.5377 26.253 65.3473Z" fill="#54C1BB"/>
<path d="M33.842 70.3208C33.842 70.3208 27.111 43.4978 30.1286 40.2564C33.1462 37.0149 58.2353 35.515 60.9845 38.0253C63.7337 40.5356 63.5121 70.2863 63.5121 70.2863L33.842 70.3208Z" fill="#54C1BB"/>
<path d="M60.9874 38.0253C60.9032 37.95 60.7971 37.8747 60.6723 37.8056C52.3467 37.2879 37.468 38.7407 35.1868 41.1915C32.5094 44.0721 37.5148 65.5417 38.6694 70.3145L63.5119 70.2863C63.5119 70.2863 63.7366 40.5356 60.9874 38.0253Z" fill="#8DD1CD"/>
<path d="M68.5861 47.9944C68.5861 47.9944 73.7631 63.6338 75.1548 64.0229C76.5466 64.412 90.8074 67.1137 90.8074 67.1137L90.1116 70.6125C90.1116 70.6125 72.7364 71.1585 68.5861 68.2026C64.4327 65.2467 68.5861 47.9944 68.5861 47.9944Z" fill="#DDBB8F"/>
<path d="M68.5861 47.9944C68.5861 47.9944 64.4327 65.2467 68.5861 68.2026C70.1776 69.3354 73.7069 69.9536 77.4578 70.2862L78.4626 65.2467L78.3191 65.1588L78.213 64.6724C76.6683 64.3618 75.5075 64.117 75.158 64.0197C73.7631 63.6338 68.5861 47.9944 68.5861 47.9944Z" fill="#405050"/>
<path d="M79.9387 65.0177C79.2678 65.73 78.8153 66.6149 78.5625 67.5406C78.3098 68.4663 78.2473 69.4296 78.2942 70.3836C78.3004 70.4871 78.1943 70.6001 78.0882 70.6252C77.9821 70.6503 77.8698 70.6283 77.7605 70.6126C77.6513 70.5969 77.5327 70.5907 77.4391 70.6472C77.3455 70.7036 77.2925 70.8135 77.1926 70.8543C77.0647 70.9045 76.9274 70.8323 76.7994 70.7852C76.5217 70.6817 76.2128 70.7036 75.9163 70.6817C75.6199 70.6628 75.2953 70.5844 75.1237 70.3522C74.9989 70.1859 74.9802 69.9694 74.9646 69.7654C74.8928 68.8177 74.8304 67.8136 75.2766 66.9632C75.5606 66.4235 76.0287 65.9811 76.2721 65.4257C76.3906 65.1558 76.4499 64.864 76.6122 64.6161C76.7713 64.3682 77.074 64.1673 77.3736 64.2332C77.6232 64.2897 77.798 64.5125 78.0414 64.5816C78.263 64.6412 78.4939 64.5659 78.7217 64.5408C79.2022 64.4874 79.6329 64.6537 79.9387 65.0177Z" fill="#536969"/>
<path d="M42.7758 70.3205H69.1007C68.3643 65.1806 67.6809 59.4916 67.7589 56.5419C67.8244 54.1257 68.5827 48.0319 68.5827 48.0319C68.2925 47.6867 61.7924 42.6252 56.5 42.7821C47.5222 43.052 42.96 49.4283 42.96 49.4283C42.96 49.4283 43.2627 54.1571 43.4842 56.6141C43.7495 59.5386 43.2595 65.1994 42.7758 70.3205Z" fill="#F7F4E3"/>
<path d="M67.7558 57.0973C67.7558 56.8902 67.7558 56.6926 67.762 56.5043C67.8244 54.1822 68.5265 48.4743 68.5827 48.0256C68.3081 47.7118 63.6304 44.0624 59.0027 43.0426L59.0432 47.5079C59.0432 47.5079 60.7658 58.1329 61.5272 70.2829H69.0976C68.4079 65.4599 67.7651 60.16 67.7558 57.0973Z" fill="#405050"/>
<path d="M59.6082 42.4025L63.7647 47.3761L60.6816 46.4441L59.0402 47.5079L57.171 42.8135L59.6082 42.4025Z" fill="#536969"/>
<path d="M42.7758 70.2862H54.8336C53.5979 59.4165 53.1953 49.1084 53.1953 49.1084L51.841 43.4852C45.9494 45.2236 42.96 49.3939 42.96 49.3939C42.96 49.3939 43.2627 54.1228 43.4842 56.5798C43.7495 59.5043 43.2595 65.162 42.7758 70.2862Z" fill="#405050"/>
<path d="M67.5469 31.1688C69.5971 29.7316 71.1043 27.3907 71.6535 24.7831C71.8283 23.9579 71.9094 23.0949 71.7471 22.2634C71.588 21.4318 71.1605 20.6348 70.4989 20.1923C69.8374 19.7499 68.9262 19.7279 68.3239 20.2488C67.912 19.524 67.032 19.1976 66.2706 19.3357C65.5092 19.4738 64.8351 19.9413 64.2017 20.4214C61.7084 19.32 58.7033 19.957 56.7592 21.9559C55.1084 22.2414 53.6231 23.5217 52.9584 25.2005C52.2937 26.8793 52.2843 28.8122 52.6588 30.6071C52.9272 31.8874 53.414 33.1708 54.3189 34.0337C55.408 35.0692 56.9339 35.3422 58.3663 35.3203C61.7052 35.2669 64.7447 33.1331 67.5469 31.1688Z" fill="#405050"/>
<path d="M54.4782 29.1072C53.8697 34.9845 52.3531 45.3867 52.3531 45.3867C53.6762 47.7402 58.6659 47.4421 58.5505 46.6545C58.4849 46.2089 58.591 45.4338 58.85 44.7372C59.0498 44.1975 59.3431 43.7017 59.7176 43.4381C59.8736 43.3283 60.1513 43.2938 60.5102 43.2906C60.5695 43.2938 60.6007 43.2906 60.6007 43.2906C62.2514 43.3032 65.45 43.937 66.8449 41.9288C68.5799 39.431 68.7702 32.4773 68.583 29.126C68.4738 27.2088 66.8355 24.5196 63.5371 23.9359C59.5054 23.2205 55.0898 23.1922 54.4782 29.1072Z" fill="#FDBCA0"/>
<path d="M55.0521 41.6526C55.0521 41.6526 56.3003 43.4632 58.8498 44.734C59.0495 44.1943 59.3428 43.6985 59.7173 43.4349C59.8733 43.3251 60.151 43.2906 60.5099 43.2874C60.0169 43.2749 57.5641 43.1243 55.0521 41.6526Z" fill="#F0A38B"/>
<path d="M64.5073 35.6844C64.732 35.6812 64.966 35.6875 65.1533 35.8287C65.2999 35.9385 65.3686 36.1205 65.3561 36.3025C65.3218 36.7167 64.9504 36.949 64.5822 37.0368C64.4636 37.0651 64.4075 36.8831 64.526 36.8548C64.8069 36.7889 65.1221 36.6352 65.1658 36.3151C65.1845 36.1864 65.1408 36.0546 65.0347 35.9762C64.888 35.8695 64.6914 35.8758 64.5167 35.8758C64.3919 35.8789 64.3856 35.6875 64.5073 35.6844Z" fill="#3F4553"/>
<path d="M62.1608 33.4C62.1484 33.7515 62.3699 34.0433 62.657 34.0527C62.9441 34.0621 63.1844 33.786 63.1969 33.4345C63.2094 33.0831 62.9878 32.7913 62.7007 32.7818C62.4136 32.7724 62.1733 33.0486 62.1608 33.4Z" fill="#3F4553"/>
<path d="M65.6183 33.7357C65.6058 34.0872 65.8274 34.379 66.1145 34.3884C66.4016 34.3978 66.6418 34.1217 66.6543 33.7702C66.6668 33.4188 66.4452 33.127 66.1582 33.1175C65.8742 33.1081 65.6308 33.3843 65.6183 33.7357Z" fill="#3F4553"/>
<path d="M61.2774 30.4252C61.8953 30.0392 62.6785 29.9639 63.3526 30.262C63.4462 30.3028 63.5024 30.4095 63.4649 30.5099C63.4306 30.6041 63.3151 30.6637 63.2184 30.6229C62.6785 30.3844 62.0232 30.4095 61.5177 30.7264C61.4303 30.7798 61.3211 30.7861 61.2493 30.6982C61.19 30.6229 61.19 30.4817 61.2774 30.4252Z" fill="#3F4553"/>
<path d="M67.8589 31.0433C67.3658 30.5036 66.6325 30.2212 65.9054 30.3247C65.8024 30.3404 65.7244 30.4252 65.7338 30.5318C65.7431 30.6323 65.8367 30.7201 65.9397 30.7044C66.5233 30.6197 67.1474 30.8237 67.5499 31.263C67.6186 31.3383 67.7247 31.3728 67.8152 31.3069C67.8901 31.2567 67.9275 31.1218 67.8589 31.0433Z" fill="#3F4553"/>
<path d="M60.5381 34.787C60.5163 35.0569 60.9095 35.3111 61.415 35.355C61.9236 35.3989 62.3543 35.2169 62.3761 34.9471C62.398 34.6772 62.0048 34.423 61.4993 34.3791C60.9906 34.3352 60.56 34.5172 60.5381 34.787Z" fill="#FBAD8B"/>
<path d="M66.1394 35.2858C66.1175 35.5557 66.5107 35.8098 67.0162 35.8538C67.5249 35.8977 67.9555 35.7157 67.9774 35.4458C67.9992 35.176 67.606 34.9218 67.1005 34.8779C66.5918 34.8339 66.1612 35.0159 66.1394 35.2858Z" fill="#FBAD8B"/>
<path d="M65.4591 38.9226C65.3998 39.2552 65.2156 39.5565 64.9629 39.7793C64.9161 39.8232 64.8724 39.8577 64.8225 39.8922C64.501 40.1244 64.1016 40.2374 63.7053 40.25C63.1249 40.2719 62.532 40.0711 62.1138 39.6663C61.9516 39.5094 61.8174 39.3243 61.7238 39.1203C61.5677 38.7971 61.5053 38.43 61.5677 38.0785C61.6021 37.8808 61.6988 37.6706 61.886 37.6204C62.0077 37.589 62.1263 37.6298 62.2387 37.6957C62.2979 37.7302 62.3541 37.771 62.4072 37.8087C62.8409 38.1319 63.309 38.4268 63.8332 38.5524C64.2015 38.6402 64.604 38.6339 64.9598 38.499C65.0783 38.4519 65.2562 38.295 65.3873 38.3766C65.3904 38.3798 65.3904 38.3798 65.3935 38.3798C65.5308 38.4865 65.4871 38.7814 65.4591 38.9226Z" fill="#4E5567"/>
<path d="M65.3839 38.3828C65.3589 38.4738 65.3121 38.5648 65.2528 38.6401C65.1218 38.8033 64.9252 38.91 64.7255 38.9759C64.0514 39.1987 63.2869 39.023 62.7034 38.6182C62.5161 38.4864 62.3383 38.3263 62.254 38.1098C62.2041 37.9812 62.1947 37.8337 62.2353 37.7019C62.2946 37.7364 62.3507 37.7772 62.4038 37.8149C62.8375 38.1381 63.3056 38.433 63.8299 38.5586C64.1981 38.6464 64.6007 38.6401 64.9564 38.5052C65.075 38.4581 65.2528 38.3012 65.3839 38.3828Z" fill="white"/>
<path d="M64.9632 39.7826C64.9164 39.8265 64.8727 39.861 64.8227 39.8955C64.5013 40.1278 64.1019 40.2407 63.7056 40.2533C63.1252 40.2752 62.5323 40.0744 62.1141 39.6696C61.9519 39.5127 61.8177 39.3276 61.7241 39.1236C62.1734 39.0765 62.6321 39.0703 63.0846 39.1048C63.6245 39.1456 64.1737 39.2491 64.6355 39.5284C64.7479 39.6037 64.8602 39.6853 64.9632 39.7826Z" fill="#3F4553"/>
<path d="M65.328 27.8268C63.9113 28.1186 62.3479 27.4942 61.5178 26.3017C61.4149 26.6626 61.1153 26.9607 60.7533 27.0643C60.3945 27.1678 59.9825 27.0705 59.7048 26.8164C59.6486 27.9774 59.346 29.1478 58.6813 30.0955C58.0166 31.0463 56.9619 31.7523 55.8104 31.8433C55.1676 31.8935 54.4842 31.7398 54.0036 31.3036C53.5574 30.8957 53.3358 30.2963 53.2016 29.7064C52.8802 28.2849 52.9769 26.7536 53.5605 25.4169C54.1409 24.0801 55.2175 22.9504 56.5562 22.3856C57.8356 21.8428 59.2711 21.8302 60.6597 21.8773C62.0889 21.9275 63.5306 22.0404 64.888 22.4954C65.9896 22.8626 67.035 23.4713 67.8057 24.3531C67.9555 24.5257 68.2176 24.7673 68.2145 25.0089C68.2114 25.2443 68.046 25.5518 67.943 25.7589C67.7027 26.2453 67.3595 26.6752 66.9476 27.0235C66.4857 27.422 65.924 27.7044 65.328 27.8268Z" fill="#405050"/>
<path d="M55.0772 31.9186C54.5935 31.3475 53.8914 30.9145 53.1238 30.9772C52.3655 31.04 51.7695 31.5578 51.576 32.2952C51.448 32.791 51.4886 33.315 51.5822 33.8202C51.679 34.3505 51.8288 34.8745 52.0815 35.3484C52.559 36.2427 53.5544 37.0585 54.6248 36.7039C56.0508 36.2301 56.1476 34.4635 55.7918 33.2303C55.6545 32.7721 55.4049 32.3077 55.0772 31.9186Z" fill="#FDBCA0"/>
<path d="M53.1924 32.2543C53.0613 32.1852 52.949 32.3829 53.0769 32.452C53.9881 32.9258 54.4968 33.9456 54.3127 34.9654C54.2877 35.1098 54.5062 35.1694 54.5311 35.0251C54.734 33.9111 54.2003 32.7783 53.1924 32.2543Z" fill="#F0A38B"/>
<path d="M54.2346 33.4374C53.8477 33.2774 53.4202 33.2429 53.0145 33.3276C52.9552 33.3401 52.9209 33.4123 52.9365 33.4688C52.9552 33.5316 53.0145 33.5598 53.0769 33.5472C53.4451 33.4719 53.8289 33.5127 54.1784 33.6571C54.2346 33.679 54.3033 33.632 54.3189 33.5786C54.3314 33.5127 54.2908 33.4625 54.2346 33.4374Z" fill="#F0A38B"/>
<path d="M52.8367 42.4025L50.2966 43.4819L48.0342 49.9335L51.8912 47.8468L53.1987 49.1082L52.8367 42.4025Z" fill="#536969"/>
<path d="M42.9633 49.3953C42.9633 49.3953 32.9526 67.1151 35.1183 70.1495C37.2839 73.1838 56.6219 76.1398 56.6219 76.1398L57.4177 72.2048C57.4177 72.2048 43.3378 68.3389 43.0476 67.2312L43.4033 62.791C43.4002 62.791 44.561 50.9799 42.9633 49.3953Z" fill="#FDBCA0"/>
<path d="M43.0445 67.2297L43.4002 62.7896C43.4002 62.7896 44.561 50.9784 42.9633 49.3906C42.9633 49.3906 32.9526 67.1105 35.1183 70.1448C35.8173 71.1239 38.3137 72.0966 41.3687 72.9658L42.3142 72.6363L44.1741 67.964C43.5094 67.6659 43.0913 67.4117 43.0445 67.2297Z" fill="#405050"/>
<path d="M46.4364 68.4816C44.8855 69.8654 43.8557 71.8298 43.5936 73.8976C43.1848 73.9039 42.8072 73.7345 42.4702 73.5023C42.0739 73.7721 41.5496 73.7125 41.0784 73.6403C40.8912 73.6121 40.6821 73.5713 40.5729 73.4175C40.5011 73.3171 40.4887 73.1885 40.4762 73.0661C40.4294 72.5829 40.3826 72.0902 40.498 71.6195C40.6104 71.1614 40.8694 70.7535 41.1253 70.3549C41.5684 69.6677 42.0115 68.9774 42.4546 68.2902C42.6075 68.0549 42.7604 67.8132 42.982 67.6438C43.2035 67.4712 43.5031 67.3771 43.7652 67.4712C43.9275 67.5308 44.0586 67.6532 44.2115 67.7348C44.4673 67.8697 44.7669 67.8791 45.054 67.8697C45.3411 67.8603 45.6344 67.8321 45.9122 67.9074C46.1899 67.9827 46.3771 68.1961 46.4364 68.4816Z" fill="#536969"/>
<path d="M43.4345 52.3247C43.394 56.1624 43.2473 60.0001 42.9914 63.8315C42.9196 64.9203 42.8354 66.0092 42.7449 67.098C42.7199 67.3899 43.1755 67.3804 43.2005 67.0886C43.5188 63.2635 43.7279 59.429 43.8308 55.5913C43.8589 54.4993 43.8776 53.4073 43.8901 52.3184C43.8932 52.0203 43.4376 52.0297 43.4345 52.3247Z" fill="#A1B8B8"/>
<path d="M56.6188 76.1354C56.6188 76.1354 64.3141 79.2859 64.6636 78.6426C65.0131 78.0025 61.3652 76.7849 61.3652 76.7849C61.3652 76.7849 66.4797 77.8267 66.6139 77.2996C66.7481 76.7755 61.827 75.4639 61.827 75.4639C61.827 75.4639 67.703 76.5433 67.7748 75.9283C67.8465 75.3133 62.5915 74.1585 62.5915 74.1585C62.5915 74.1585 67.5282 74.4409 67.5626 73.9922C67.6219 73.1857 57.4146 72.2004 57.4146 72.2004L56.6188 76.1354Z" fill="#FDBCA0"/>
<path d="M58.1477 72.2788C58.1477 72.2788 62.0733 70.8479 62.4697 71.1585C62.866 71.4692 60.7378 73.035 60.7378 73.035L58.1477 72.2788Z" fill="#FDBCA0"/>
<path d="M46.5675 68.0709H26.2466C26.0313 68.0709 25.9033 68.2466 25.9626 68.4632L29.4982 81.382C29.5575 81.5985 29.779 81.7742 29.9944 81.7742H50.3153C50.5306 81.7742 50.6586 81.5985 50.5993 81.382L47.0637 68.4632C47.0075 68.2466 46.7828 68.0709 46.5675 68.0709Z" fill="#E7DFC2"/>
<path d="M49.0731 81.6174L46.0711 70.6535C46.0212 70.4684 45.8309 70.3209 45.6499 70.3209H28.4058C28.2217 70.3209 28.1156 70.4684 28.1655 70.6535L31.1674 81.6174C31.1643 81.6112 31.1862 81.6896 31.2111 81.7712H49.1199L49.0731 81.6174Z" fill="#F7F4E3"/>
<path d="M27.7224 69.0405C27.7224 69.3073 27.5071 69.5206 27.245 69.5206C26.9797 69.5206 26.7675 69.3041 26.7675 69.0405C26.7675 68.7769 26.9828 68.5604 27.245 68.5604C27.5071 68.5604 27.7224 68.7769 27.7224 69.0405Z" fill="#405050"/>
<path d="M27.4668 69.0405C27.4668 69.1629 27.3669 69.2633 27.2452 69.2633C27.1235 69.2633 27.0237 69.1629 27.0237 69.0405C27.0237 68.9182 27.1235 68.8177 27.2452 68.8177C27.3669 68.8177 27.4668 68.9182 27.4668 69.0405Z" fill="#576E6E"/>
<path d="M45.2696 70.4716H28.0255C27.8413 70.4716 27.7353 70.619 27.7852 70.8042L30.7871 81.7681C30.784 81.7555 30.8808 82.1007 30.8808 82.1007H48.7864L48.6959 81.7681L45.6939 70.8042C45.6409 70.619 45.4537 70.4716 45.2696 70.4716Z" fill="#EBB254"/>
<path d="M48.6926 81.7681L46.761 74.7078H28.8522L30.7838 81.7681C30.7807 81.7555 30.8775 82.1007 30.8775 82.1007H48.7831L48.6926 81.7681Z" fill="#FEDEA6"/>
<path d="M45.3035 83.7983H27.4073L30.8867 82.1007H48.7829L45.3035 83.7983Z" fill="#EBB254"/>
<path d="M68.1242 49.5947L104.606 43.4977C105.202 43.3973 105.745 43.868 105.742 44.483L105.586 67.7601C105.583 68.2308 105.259 68.6324 104.806 68.7266L69.2164 76.132C68.3426 76.3391 67.3035 75.7806 67.3035 74.4909V50.5737C67.3066 50.0904 67.653 49.6762 68.1242 49.5947Z" fill="#FEDEA6"/>
<path d="M69.775 49.5287L104.606 43.7204C105.202 43.62 105.745 44.0875 105.742 44.6963L105.592 67.7977C105.589 68.2621 105.265 68.6606 104.812 68.7547L70.1307 75.9186C69.5253 76.0441 68.9574 75.5797 68.9574 74.9553V50.5015C68.9605 50.0151 69.3037 49.6071 69.775 49.5287Z" fill="#FAC978"/>
<path d="M85.5179 61.6411L83.4989 73.151L94.4707 70.8854L85.5179 61.6411Z" fill="#EBB254"/>
<path d="M85.0622 82.706L80.2472 81.0617C79.4764 80.7981 79.5232 79.6873 80.3127 79.4896L88.4761 77.4343C88.6196 77.3997 88.7663 77.4029 88.9067 77.4437L93.6468 78.8683C94.43 79.1036 94.4207 80.2207 93.6343 80.4435L85.5459 82.7185C85.3867 82.7624 85.2182 82.7593 85.0622 82.706Z" fill="#EBB254"/>
<path d="M92.2647 60.5428C92.1711 60.1098 91.756 59.8305 91.3223 59.9089L86.1859 60.844C85.802 60.9131 85.5212 61.2488 85.5149 61.6411L85.2996 82.7875L96.3463 79.6778L92.2647 60.5428ZM90.9509 76.9855C89.4031 77.1455 87.9646 75.4605 87.7368 73.22C87.509 70.9827 88.5793 69.0372 90.1271 68.8803C91.6749 68.7202 93.1134 70.4053 93.3412 72.6458C93.569 74.8831 92.4987 76.8255 90.9509 76.9855Z" fill="#FEDEA6"/>
<path d="M89.3753 22.5742C84.1484 22.5742 79.8951 18.2972 79.8951 13.0412C79.8951 7.78517 84.1484 3.50818 89.3753 3.50818C94.6022 3.50818 98.8555 7.78517 98.8555 13.0412C98.8555 18.2972 94.6022 22.5742 89.3753 22.5742ZM89.3753 6.20993C85.6275 6.20993 82.5787 9.27568 82.5787 13.0443C82.5787 16.813 85.6275 19.8787 89.3753 19.8787C93.123 19.8787 96.1718 16.813 96.1718 13.0443C96.1718 9.27568 93.123 6.20993 89.3753 6.20993Z" fill="#F5E2D5"/>
<path d="M85.8239 15.4479L85.4026 14.654L88.9944 12.7367L90.5109 7.02881L91.3753 7.26101L89.7589 13.3486L85.8239 15.4479Z" fill="#F5E2D5"/>
</g>
<defs>
<clipPath id="clip0_1_2564">
<rect width="118" height="85" fill="white"/>
</clipPath>
</defs>
</svg>
