<svg width="140" height="123" viewBox="0 0 140 123" fill="none" xmlns="http://www.w3.org/2000/svg">
<path fill-rule="evenodd" clip-rule="evenodd" d="M43.8188 30.8276C45.8525 35.5671 49.9914 37.2273 53.5609 36.415C56.3657 35.7765 60.0169 29.8895 59.8879 27.1707C59.5024 19.0155 50.5365 3.47932 45.6571 2.44739C41.7149 5.48735 40.5978 23.3184 43.8188 30.8276Z" fill="#FEDEA6"/>
<path d="M51.8094 36.8186C50.4995 36.8186 49.1961 36.5025 48.0165 35.8869C46.1155 34.8944 44.5976 33.1732 43.6261 30.9088C42.1209 27.3992 41.4366 21.2837 41.8426 14.9474C42.1618 9.95271 43.298 4.00226 45.5283 2.28109L45.6049 2.22144L45.6993 2.24174C50.691 3.2978 59.7055 18.9 60.0961 27.1593C60.2314 30.0177 56.5023 35.9568 53.6069 36.6168C53.0158 36.7526 52.412 36.8186 51.8094 36.8186ZM45.7096 2.67204C43.9733 4.11522 42.6558 8.80654 42.2613 14.974C41.8605 21.2494 42.5307 27.2925 44.0116 30.745C45.7325 34.756 48.9459 36.3959 51.849 36.3959C52.4209 36.3959 52.9801 36.3325 53.515 36.2106C56.2023 35.5988 59.8063 29.8438 59.6799 27.1783C59.5037 23.4402 57.433 17.717 54.2771 12.24C51.1825 6.86959 47.9131 3.22291 45.7096 2.67204Z" fill="#F5C371"/>
<path d="M45.7927 2.37786L45.3847 2.47168L53.2909 36.4401L53.6989 36.3463L45.7927 2.37786Z" fill="#F9CF88"/>
<path d="M48.7659 15.4818L48.4276 15.2355C48.4531 15.2013 50.9834 11.7615 52.6852 9.49072L53.021 9.73951C51.3205 12.009 48.7914 15.4475 48.7659 15.4818Z" fill="#F9CF88"/>
<path d="M53.8212 11.2816L48.8676 17.0675L49.1865 17.3374L54.1401 11.5515L53.8212 11.2816Z" fill="#F9CF88"/>
<path d="M41.9857 19.513L41.7808 19.8761L50.6576 24.8289L50.8625 24.4658L41.9857 19.513Z" fill="#F9CF88"/>
<path d="M59.033 23.1928L51.9681 30.3484L52.2669 30.64L59.3318 23.4844L59.033 23.1928Z" fill="#F9CF88"/>
<path d="M42.424 25.2343L42.2771 25.6241L51.6827 29.1261L51.8296 28.7362L42.424 25.2343Z" fill="#F9CF88"/>
<path d="M47.6539 12.061C46.9263 11.4009 45.0087 9.65184 42.9291 7.6527L43.2202 7.35315C45.296 9.34721 47.2109 11.0938 47.9374 11.7525L47.6539 12.061Z" fill="#F9CF88"/>
<path fill-rule="evenodd" clip-rule="evenodd" d="M44.3053 26.328C43.538 25.555 42.7031 24.7794 41.8158 24.0102C33.5815 16.8717 20.8801 10.298 16.2037 11.7806C13.7488 17.6701 23.764 38.4231 32.1669 44.7683C37.4714 48.7729 43.155 48.0062 46.6199 44.8406C47.2007 44.3101 47.7191 43.7109 48.1633 43.0573C50.3681 39.8079 50.7345 35.1711 47.765 30.5166C46.9071 29.1686 45.7211 27.7534 44.3053 26.328Z" fill="#FEDEA6"/>
<path d="M39.7196 47.7079C37.0973 47.7079 34.4508 46.7534 32.0405 44.9345C28.1327 41.9834 23.4896 35.5696 19.9252 28.1938C17.1242 22.3994 14.6245 15.0248 16.0097 11.7005L16.0467 11.6117L16.1399 11.5825C18.3855 10.8704 22.5155 11.8985 27.7676 14.4765C32.7006 16.8983 37.871 20.3165 41.9524 23.854C42.8537 24.6359 43.695 25.4191 44.4534 26.1819C45.9292 27.667 47.1024 29.0873 47.9425 30.4036C50.6911 34.7129 50.8379 39.4854 48.3369 43.1727C47.8863 43.8378 47.3552 44.4509 46.7616 44.9929C44.9436 46.6531 42.5754 47.6152 40.0898 47.7015C39.9672 47.7054 39.8434 47.7079 39.7196 47.7079ZM16.3608 11.9506C15.3152 14.672 16.8178 20.8052 20.3018 28.0135C23.8394 35.3323 28.4353 41.6889 32.2933 44.6019C37.6935 48.6789 43.3082 47.5822 46.4781 44.687C47.0488 44.1653 47.5569 43.5776 47.9897 42.9404C50.3949 39.3953 50.2443 34.7928 47.5888 30.627C46.7654 29.3361 45.61 27.9386 44.1559 26.4751C43.4052 25.7199 42.5716 24.9431 41.6779 24.1688C33.8227 17.3578 21.1175 10.5848 16.3608 11.9506Z" fill="#F5C371"/>
<path d="M16.3584 11.6396L16.0494 11.9207L46.4679 44.9821L46.7769 44.7011L16.3584 11.6396Z" fill="#F5C371"/>
<path d="M18.577 24.8745L18.5616 24.4582C22.218 24.3198 27.7241 24.1612 27.779 24.1599L27.7905 24.5762C27.7356 24.5788 22.232 24.7374 18.577 24.8745Z" fill="#F5C371"/>
<path d="M29.4157 25.9587L19.6465 26.9606L19.6895 27.3747L29.4587 26.3728L29.4157 25.9587Z" fill="#F5C371"/>
<path d="M37.0888 20.44L35.8985 33.3918L36.3155 33.4297L37.5059 20.4779L37.0888 20.44Z" fill="#F5C371"/>
<path d="M41.3033 38.8982L28.5371 41.1249L28.6095 41.535L41.3756 39.3083L41.3033 38.8982Z" fill="#F5C371"/>
<path d="M42.8549 25.0729L39.7366 37.5256L40.143 37.6262L43.2613 25.1735L42.8549 25.0729Z" fill="#F5C371"/>
<path d="M24.4879 21.0388C24.3156 19.7923 23.8483 16.4998 23.2381 12.8683L23.6517 12.7998C24.2632 16.4363 24.7318 19.734 24.9041 20.9829L24.4879 21.0388Z" fill="#F5C371"/>
<path fill-rule="evenodd" clip-rule="evenodd" d="M111.572 93.8867C106.488 92.8788 102.775 95.34 101.434 98.7277C100.381 101.389 103.207 107.709 105.537 109.139C112.524 113.426 130.484 114.839 134.096 111.416C133.797 106.465 119.625 95.4822 111.572 93.8867Z" fill="#FEDEA6"/>
<path d="M124.987 113.54C118.236 113.54 109.768 111.98 105.427 109.316C102.979 107.813 100.152 101.4 101.24 98.6516C101.947 96.8645 103.284 95.3806 105.002 94.4756C106.899 93.4754 109.185 93.2025 111.614 93.6836C115.378 94.4287 120.84 97.3214 125.872 101.231C129.838 104.313 134.137 108.604 134.306 111.407L134.313 111.503L134.243 111.571C132.812 112.921 129.239 113.54 124.987 113.54ZM109.344 93.8689C105.383 93.8689 102.666 96.1816 101.628 98.8039C100.62 101.355 103.362 107.561 105.646 108.962C108.849 110.927 114.769 112.459 121.098 112.962C127.305 113.454 132.178 112.83 133.879 111.332C133.66 109.092 130.51 105.362 125.613 101.557C120.63 97.6857 115.233 94.8247 111.531 94.091C110.766 93.9387 110.036 93.8689 109.344 93.8689Z" fill="#F5C371"/>
<path d="M101.571 98.495L101.418 98.8828L134.08 111.574L134.232 111.186L101.571 98.495Z" fill="#F5C371"/>
<path d="M123.884 113.342C122.961 110.665 121.534 106.649 121.52 106.609L121.914 106.47C121.928 106.511 123.355 110.528 124.28 113.208L123.884 113.342Z" fill="#F5C371"/>
<path d="M120.142 105.792L119.738 105.902L121.745 113.233L122.149 113.124L120.142 105.792Z" fill="#F5C371"/>
<path d="M121.814 98.4004L112.691 102.889L112.876 103.262L121.999 98.7735L121.814 98.4004Z" fill="#F5C371"/>
<path d="M107.37 100.845L106.96 100.925L108.912 110.763L109.322 110.682L107.37 100.845Z" fill="#F5C371"/>
<path d="M116.766 95.5538L108.549 101.297L108.79 101.637L117.007 95.8944L116.766 95.5538Z" fill="#F5C371"/>
<path d="M125.083 108.032L124.987 107.627C125.948 107.401 128.489 106.814 131.314 106.237L131.398 106.644C128.579 107.221 126.043 107.807 125.083 108.032Z" fill="#F5C371"/>
<path fill-rule="evenodd" clip-rule="evenodd" d="M110.68 87.7547C106.305 90.5179 105.329 94.8475 106.714 98.2187C107.803 100.866 114.238 103.495 116.915 102.928C124.946 101.228 138.911 89.9125 139.145 84.9572C135.489 81.5821 117.611 83.3769 110.68 87.7547Z" fill="#FEDEA6"/>
<path d="M116.066 103.215C112.958 103.215 107.539 100.771 106.522 98.2975C105.791 96.5192 105.726 94.5289 106.339 92.6935C107.016 90.6677 108.477 88.8996 110.569 87.5795C113.807 85.5334 119.767 83.8719 126.121 83.2423C131.13 82.7461 137.22 82.8958 139.289 84.8049L139.361 84.8709L139.356 84.9673C139.116 90.0356 125.093 101.41 116.959 103.131C116.691 103.188 116.391 103.215 116.066 103.215ZM130.918 83.4061C129.457 83.4061 127.858 83.4886 126.162 83.6561C119.869 84.2794 113.98 85.918 110.793 87.9311C106.362 90.7299 105.65 95.076 106.91 98.1401C107.953 100.677 114.248 103.279 116.873 102.724C120.553 101.944 125.899 98.9854 130.824 95.0011C135.653 91.0942 138.743 87.2952 138.932 85.0447C137.686 83.9785 134.781 83.4061 130.918 83.4061Z" fill="#F5C371"/>
<path d="M139.073 84.6909L106.643 97.9536L106.803 98.3386L139.233 85.076L139.073 84.6909Z" fill="#F5C371"/>
<path d="M133.101 93.3637C130.574 92.0626 126.751 90.1396 126.713 90.1193L126.902 89.7474C126.94 89.7665 130.764 91.6907 133.293 92.993L133.101 93.3637Z" fill="#F5C371"/>
<path d="M125.154 90.4811L124.938 90.8376L131.482 94.7605L131.698 94.4039L125.154 90.4811Z" fill="#F5C371"/>
<path d="M121.214 83.9751L117.736 93.486L118.129 93.6282L121.607 84.1174L121.214 83.9751Z" fill="#F5C371"/>
<path d="M112.473 95.6715L112.232 96.012L120.479 101.784L120.72 101.443L112.473 95.6715Z" fill="#F5C371"/>
<path d="M115.591 85.4004L113.64 95.1952L114.051 95.2761L116.002 85.4813L115.591 85.4004Z" fill="#F5C371"/>
<path d="M130.277 88.7004L129.926 88.4732C130.464 87.6507 131.892 85.4814 133.535 83.1218L133.88 83.3592C132.241 85.715 130.815 87.8791 130.277 88.7004Z" fill="#F5C371"/>
<path fill-rule="evenodd" clip-rule="evenodd" d="M58.9999 43C22.9999 30.0001 4.96124 38.0285 0.766715 64.4616C-3.42781 90.8947 21.8462 116.323 59.0001 121.5C88.7611 125.647 119 107 124 63.0001C129 19.0001 94.9999 56 58.9999 43Z" fill="#F5C371"/>
<path fill-rule="evenodd" clip-rule="evenodd" d="M54.4718 42.7314C54.1424 42.7885 53.8143 42.852 53.4862 42.918C52.6449 43.0855 51.8061 43.2683 50.9712 43.4638C49.8005 43.738 48.6362 44.0375 47.4809 44.3675C46.1634 44.7432 44.8561 45.1583 43.5692 45.6292C42.193 46.1331 40.8232 46.7043 39.5248 47.3846C39.498 47.3986 39.4661 47.3885 39.452 47.3618C39.438 47.3351 39.4482 47.3034 39.475 47.2894C40.7772 46.6053 42.1509 46.0328 43.5322 45.5277C44.8203 45.0568 46.1315 44.6404 47.4502 44.2635C48.6069 43.9334 49.7737 43.6326 50.9457 43.3584C51.7819 43.163 52.6219 42.9789 53.4645 42.8126C53.7926 42.7479 54.122 42.6832 54.4526 42.6261C54.482 42.621 54.5101 42.64 54.5152 42.6692C54.5216 42.6984 54.5011 42.7263 54.4718 42.7314Z" fill="white"/>
<path d="M39.5001 47.4185C39.4708 47.4185 39.4427 47.4033 39.4273 47.3753C39.4171 47.3563 39.4146 47.3347 39.421 47.3131C39.4273 47.2928 39.4414 47.2751 39.4605 47.2649C40.6351 46.648 41.9628 46.0718 43.5215 45.5018C44.7395 45.0563 46.0225 44.6425 47.4421 44.2376C48.563 43.9178 49.7401 43.6131 50.9389 43.3326C51.798 43.1321 52.6457 42.948 53.459 42.7868C53.7564 42.7272 54.1037 42.6599 54.4471 42.6002C54.4688 42.5964 54.4905 42.6015 54.5084 42.6142C54.5262 42.6269 54.5377 42.6459 54.5416 42.6662C54.5454 42.6878 54.5403 42.7094 54.5275 42.7272C54.5148 42.7449 54.4956 42.7564 54.4752 42.7602C54.1369 42.8186 53.7896 42.8871 53.4909 42.9455C52.6789 43.1067 51.8338 43.2895 50.9772 43.4913C49.7822 43.7705 48.6077 44.0752 47.4881 44.395C46.071 44.7999 44.7931 45.2124 43.579 45.6554C42.0279 46.2228 40.7065 46.7965 39.5384 47.4096C39.5269 47.4147 39.5129 47.4185 39.5001 47.4185ZM54.4624 42.6523C54.4611 42.6523 54.4599 42.6523 54.4573 42.6523C54.1139 42.7119 53.7679 42.7792 53.4705 42.8389C52.6585 43.0001 51.8121 43.1841 50.9529 43.3847C49.7554 43.6652 48.5796 43.9698 47.4587 44.2897C46.0404 44.6946 44.7586 45.1084 43.542 45.5526C41.9857 46.1225 40.6593 46.6975 39.4873 47.3131C39.481 47.3157 39.4771 47.322 39.4746 47.3284C39.472 47.3347 39.4733 47.3423 39.4759 47.3487C39.4822 47.3614 39.4988 47.3664 39.5116 47.3588C40.6823 46.7445 42.0062 46.1695 43.5598 45.6009C44.7752 45.1566 46.0544 44.7441 47.4728 44.3392C48.5937 44.0193 49.7682 43.7147 50.9644 43.4354C51.8223 43.2349 52.6687 43.0508 53.4807 42.8896C53.7794 42.83 54.1266 42.7627 54.4662 42.703C54.4726 42.7018 54.479 42.698 54.4828 42.6929C54.4867 42.6878 54.4879 42.6802 54.4867 42.6739C54.4854 42.6675 54.4816 42.6612 54.4764 42.6574C54.4726 42.6535 54.4675 42.6523 54.4624 42.6523Z" fill="white"/>
<path fill-rule="evenodd" clip-rule="evenodd" d="M86.8765 30.9709C89.6992 26.093 91.6014 20.9791 92.1874 19.315C92.3763 17.4123 89.1758 11.3426 89.1758 11.3426C86.3748 11.4898 76.6442 11.9277 72.4313 11.1864C72.4313 11.1864 69.8039 9.67218 67.7485 11.3756C65.6931 13.079 69.2333 15.4259 69.2333 15.4259L54.4625 42.6777C62.8373 52.3674 69.9942 47.0681 69.9942 47.0681L72.1262 40.709C77.0068 42.7792 81.4138 39.0716 84.862 34.1455C85.4709 33.1846 86.1706 32.0663 86.8765 30.9709Z" fill="#FDBCA0"/>
<path fill-rule="evenodd" clip-rule="evenodd" d="M76.7514 111.155L72.735 116.599L90.8558 116.675C86.8216 113.42 76.7514 111.155 76.7514 111.155Z" fill="#FDBCA0"/>
<path fill-rule="evenodd" clip-rule="evenodd" d="M86.8765 30.9709C86.2496 32.0549 85.5768 33.1262 84.8632 34.1467C82.8027 37.4037 82.1771 39.6123 82.1771 40.5211C82.1771 41.4299 82.638 44.3684 82.638 44.3684L88.0395 44.2541C88.0395 44.2541 88.0395 41.3538 88.4953 39.9157C88.9523 38.4776 91.8452 26.1387 90.9311 25.9864C90.7192 25.9509 90.3898 26.1971 89.9825 26.635C89.9966 26.6439 89.6532 27.0133 89.4502 27.2595C88.697 28.2051 87.7803 29.5696 86.8765 30.9709Z" fill="#FDBCA0"/>
<path fill-rule="evenodd" clip-rule="evenodd" d="M68.6243 2.06528C58.7264 7.66667 39.5001 47.3359 39.5001 47.3359C45.3855 44.2465 54.4624 42.6776 54.4624 42.6776L69.2332 15.4259C69.2332 15.4259 65.6931 13.0789 67.7485 11.3756C69.8039 9.67216 72.4312 11.1864 72.4312 11.1864C76.6442 11.9277 86.3748 11.4885 89.1757 11.3426C89.1757 11.3426 92.3763 17.4123 92.1874 19.315C91.6001 20.979 89.6992 26.0943 86.8765 30.9709C88.5617 28.3575 90.289 25.8798 90.9324 25.9864C91.8465 26.1375 88.9523 38.4775 88.4966 39.9156C88.0395 41.3538 88.0408 44.2541 88.0408 44.2541L89.1821 44.23C89.1821 44.23 89.7439 49.4163 90.4166 56.8328C90.732 60.3005 91.0703 64.2569 91.3882 68.3974C92.4733 67.0024 94.8517 63.706 94.9692 61.4899C95.1211 58.6136 97.8621 34.9946 96.6441 18.9469C95.4249 2.89793 88.4966 4.03395 88.4966 4.03395C88.4966 4.03395 78.5221 -3.53612 68.6243 2.06528Z" fill="#3F4553"/>
<path fill-rule="evenodd" clip-rule="evenodd" d="M84.8631 34.1467C81.4149 39.0729 77.0079 42.7805 72.1273 40.7103L69.9953 47.0694C69.9953 47.0694 78.762 50.2883 80.737 54.5265C81.42 48.4047 82.0251 44.3823 82.0251 44.3823L82.6392 44.3696C82.6392 44.3696 82.1783 41.4299 82.1783 40.5224C82.1771 39.6123 82.8013 37.4037 84.8631 34.1467Z" fill="#3F4553"/>
<path fill-rule="evenodd" clip-rule="evenodd" d="M35.8451 97.0986C34.3258 96.9641 32.7671 96.8549 31.1712 96.7724C32.1887 95.677 33.6288 92.8846 35.1582 89.4727C35.3612 91.7905 35.6765 95.2556 35.8451 97.0986ZM36.7987 49.0749C31.6206 53.3143 8.16989 89.6504 16.3928 107.516C16.3928 107.516 22.7888 113.875 72.7351 116.6L76.7514 111.156L77.7612 109.788C77.7612 109.788 74.3896 107.441 67.9132 104.728C67.9132 104.728 69.5639 101.124 71.4865 96.8029C71.4865 96.8029 78.3715 109.486 84.6143 112.967C76.3212 104.945 78.8323 71.5871 80.7371 54.5278C78.7634 50.2896 69.9954 47.0707 69.9954 47.0707C69.9954 47.0707 62.8385 52.37 54.4637 42.6802C54.4637 42.6802 45.3867 44.249 39.5014 47.3385C38.4826 47.8703 37.5609 48.4504 36.7987 49.0749Z" fill="#63A6DC"/>
<path fill-rule="evenodd" clip-rule="evenodd" d="M80.7358 54.5264C78.831 71.5858 76.3199 104.944 84.613 112.966C84.613 112.966 90.8558 118.113 92.3788 102.974C93.1307 95.4967 92.3597 81.0788 91.3868 68.3986C91.069 64.2581 90.7307 60.3017 90.4153 56.834C89.7425 49.4175 89.1808 44.2312 89.1808 44.2312L88.0395 44.2553L82.638 44.3696L82.0239 44.3822C82.0239 44.3822 81.4188 48.4046 80.7358 54.5264Z" fill="#63A6DC"/>
<path fill-rule="evenodd" clip-rule="evenodd" d="M72.9393 65.1086C73.1997 66.0149 73.4576 66.9212 73.7142 67.8287C74.2721 69.8025 74.8236 71.7788 75.3611 73.7589C75.8564 75.5777 76.3441 77.4017 76.7948 79.232C76.9582 79.8984 77.119 80.5699 77.2582 81.2426C77.3054 81.4736 77.3514 81.7059 77.3871 81.9382C77.4088 82.0803 77.4331 82.239 77.4331 82.3837C77.4331 82.5373 77.3731 82.7505 77.3322 82.899C77.2505 83.191 77.1509 83.4804 77.0501 83.766C76.7399 84.643 76.3913 85.5125 76.0415 86.3744C75.5743 87.5231 75.093 88.6654 74.6053 89.8053C74.0576 91.0873 73.501 92.3654 72.9418 93.6411C72.4758 94.7035 72.006 95.7646 71.5336 96.8245C71.5222 96.8511 71.4902 96.8638 71.4622 96.8524C71.4353 96.841 71.4226 96.8092 71.4341 96.7813C71.9052 95.7214 72.375 94.6603 72.8409 93.5979C73.4014 92.3223 73.9567 91.0441 74.5044 89.7621C74.9908 88.6223 75.4734 87.4812 75.9394 86.3325C76.2892 85.4719 76.6365 84.6037 76.9467 83.7292C77.0475 83.4461 77.1458 83.158 77.2263 82.8698C77.2646 82.734 77.3233 82.5259 77.3233 82.3837C77.3233 82.2454 77.3003 82.0918 77.2786 81.9547C77.2429 81.7237 77.1969 81.4927 77.1497 81.2642C77.0118 80.5927 76.8509 79.9238 76.6875 79.2574C76.2381 77.4284 75.7492 75.6044 75.2551 73.7868C74.7164 71.8079 74.1661 69.8317 73.6082 67.8579C73.3516 66.9504 73.095 66.0441 72.8333 65.1378C72.8256 65.1099 72.8422 65.0794 72.8703 65.0718C72.9022 65.0642 72.9316 65.0807 72.9393 65.1086Z" fill="#A7D1F3"/>
<path d="M71.4852 96.8829C71.4737 96.8829 71.4635 96.8803 71.452 96.8753C71.4112 96.8575 71.392 96.8093 71.4099 96.7674C71.9103 95.6441 72.3699 94.6032 72.8168 93.584C73.4372 92.1687 73.9823 90.9147 74.4802 89.7494C75.0534 88.4078 75.5105 87.3175 75.9152 86.3211C76.2343 85.5354 76.602 84.6215 76.9212 83.719C77.0169 83.4474 77.1178 83.1554 77.2007 82.861C77.239 82.7239 77.2965 82.5195 77.2965 82.3824C77.2965 82.2441 77.2722 82.0854 77.2518 81.9572C77.2135 81.7123 77.1663 81.4711 77.1242 81.268C76.9837 80.5902 76.819 79.9035 76.662 79.2625C76.2075 77.4132 75.7045 75.5397 75.2296 73.7918C74.7368 71.978 74.1981 70.0385 73.5827 67.863C73.3402 67.0049 73.0785 66.0809 72.8078 65.1441C72.8014 65.1238 72.804 65.101 72.8155 65.0819C72.8257 65.0629 72.8436 65.0489 72.864 65.0426C72.8844 65.0362 72.9074 65.0388 72.9266 65.0502C72.9457 65.0604 72.9597 65.0781 72.9661 65.0984C73.2419 66.0542 73.5125 67.01 73.7411 67.8185C74.3551 69.9916 74.8939 71.9311 75.3879 73.7487C75.8641 75.4978 76.3671 77.3725 76.8216 79.2232C76.9799 79.8654 77.1446 80.5547 77.285 81.2337C77.3271 81.4394 77.3756 81.6831 77.4139 81.9306C77.4331 82.0562 77.4599 82.2289 77.4599 82.3799C77.4599 82.5386 77.3986 82.7569 77.3578 82.9016C77.2735 83.2011 77.1727 83.4956 77.0756 83.7698C76.7552 84.6761 76.3863 85.5925 76.0671 86.3795C75.6624 87.3771 75.2054 88.4674 74.6309 89.8104C74.1304 90.9794 73.5866 92.2347 72.9661 93.6474C72.5193 94.6642 72.0597 95.7062 71.558 96.8308C71.5465 96.8651 71.5171 96.8829 71.4852 96.8829ZM72.8883 65.0972C72.8857 65.0972 72.8831 65.0972 72.8806 65.0984C72.8742 65.101 72.8678 65.1048 72.8653 65.1111C72.8614 65.1175 72.8614 65.1238 72.8627 65.1302C73.1334 66.0682 73.3951 66.991 73.6376 67.8503C74.253 70.0258 74.7917 71.9653 75.2845 73.7792C75.7594 75.527 76.2624 77.4005 76.7169 79.2511C76.8739 79.8921 77.0399 80.5788 77.179 81.2578C77.2212 81.4622 77.2697 81.7034 77.308 81.9496C77.3284 82.0791 77.3527 82.239 77.3527 82.3824C77.3527 82.5271 77.2939 82.7353 77.2556 82.8737C77.1714 83.1719 77.0705 83.4651 76.9748 83.738C76.6543 84.6418 76.2867 85.557 75.9675 86.3426C75.5628 87.3403 75.1058 88.4294 74.5326 89.7723C74.0334 90.9388 73.4896 92.1928 72.8691 93.6081C72.4223 94.6273 71.9614 95.6682 71.4622 96.7915C71.4559 96.8042 71.4622 96.8194 71.475 96.8258C71.4878 96.8308 71.5031 96.8258 71.5095 96.8131C72.0099 95.6885 72.4708 94.6464 72.9163 93.6297C73.5355 92.2182 74.0806 90.9629 74.5798 89.7939C75.1543 88.4509 75.6101 87.3606 76.016 86.363C76.3352 85.576 76.7041 84.6608 77.0246 83.7558C77.1216 83.4829 77.2225 83.1884 77.3067 82.8914C77.3463 82.7493 77.4063 82.536 77.4063 82.3837C77.4063 82.2365 77.3795 82.0664 77.3603 81.9433C77.322 81.697 77.2735 81.4533 77.2314 81.249C77.091 80.5699 76.9263 79.8819 76.768 79.2397C76.3135 77.389 75.8105 75.5155 75.3343 73.7665C74.8402 71.9501 74.3015 70.0106 73.6874 67.8376C73.4589 67.029 73.1883 66.0733 72.9125 65.1175C72.9112 65.1111 72.9061 65.1061 72.8997 65.1022C72.8972 65.0984 72.8921 65.0972 72.8883 65.0972Z" fill="#A7D1F3"/>
<path fill-rule="evenodd" clip-rule="evenodd" d="M31.2887 96.7243C37.0068 97.02 42.707 97.6953 48.3242 98.7945C53.7934 99.8645 59.2038 101.339 64.4279 103.275C66.3697 103.995 68.2897 104.779 70.1741 105.636C71.5835 106.277 72.975 106.96 74.3385 107.694C75.2015 108.158 76.0556 108.643 76.8892 109.158C77.1918 109.346 77.4995 109.539 77.7918 109.742C77.8046 109.751 77.8123 109.762 77.8135 109.778C77.8161 109.793 77.8123 109.806 77.8033 109.818L72.7784 116.632C72.7606 116.656 72.7274 116.661 72.7031 116.643C72.6789 116.626 72.6737 116.593 72.6916 116.568L77.6846 109.799C77.4076 109.609 77.1178 109.426 76.8318 109.25C76.0007 108.736 75.1479 108.251 74.2874 107.787C72.9265 107.055 71.5363 106.373 70.1294 105.734C68.2476 104.877 66.3301 104.094 64.3909 103.375C59.1719 101.442 53.7666 99.9699 48.3038 98.8999C42.6572 97.7943 36.9276 97.1178 31.1789 96.8258C31.1725 96.8271 31.1661 96.8258 31.1597 96.8246C29.5371 96.7421 27.9145 96.69 26.2906 96.6685C26.2612 96.6685 26.237 96.6431 26.237 96.6139C26.237 96.5847 26.2625 96.5606 26.2919 96.5606C27.9119 96.5821 29.5307 96.6342 31.1495 96.7167C31.3729 96.473 31.5746 96.1975 31.761 95.9259C32.0138 95.5553 32.2487 95.1694 32.4734 94.781C33.0543 93.7745 33.5802 92.7248 34.082 91.6776C34.6948 90.3981 35.2756 89.1022 35.8386 87.7999C36.4527 86.3808 37.0476 84.9529 37.6298 83.5198C38.9613 80.2438 40.2329 76.9398 41.4674 73.6257C42.0342 72.1013 42.5985 70.5743 43.1436 69.0423C43.1538 69.0143 43.1845 68.9991 43.2126 69.0093C43.2406 69.0194 43.256 69.0499 43.2457 69.0778C42.7006 70.6098 42.1376 72.1381 41.5695 73.6625C40.335 76.9779 39.0634 80.2819 37.7319 83.5604C37.1498 84.9935 36.5548 86.4227 35.9395 87.8418C35.3752 89.1441 34.7943 90.4413 34.1815 91.722C33.6785 92.7717 33.1513 93.824 32.5691 94.833C32.3432 95.224 32.1083 95.6124 31.8529 95.9856C31.678 96.2382 31.4917 96.4933 31.2887 96.7243Z" fill="#A7D1F3"/>
<path fill-rule="evenodd" clip-rule="evenodd" d="M72.4196 11.2397C72.4145 11.2384 72.4094 11.2371 72.4043 11.2333C72.2664 11.1534 72.1068 11.0836 71.9613 11.0226C71.6038 10.8741 71.2259 10.7612 70.8455 10.6926C69.7348 10.4921 68.6663 10.6875 67.7841 11.4187C67.4126 11.7271 67.1534 12.1168 67.1598 12.6118C67.1662 13.1094 67.4394 13.593 67.7369 13.9776C68.0215 14.3469 68.3701 14.6833 68.7301 14.979C68.8986 15.1186 69.0812 15.2608 69.2637 15.3814C69.288 15.3979 69.2956 15.4309 69.279 15.4563C69.2624 15.4804 69.2293 15.488 69.2037 15.4715C69.0173 15.3484 68.8322 15.2037 68.6611 15.0615C68.2948 14.7594 67.9411 14.418 67.6513 14.0423C66.9517 13.1373 66.7347 12.1485 67.7152 11.3349C68.6216 10.5835 69.7233 10.3804 70.8646 10.586C71.2527 10.6558 71.6383 10.7713 72.0034 10.9224C72.1515 10.9833 72.3111 11.0544 72.4515 11.1343C72.9724 11.2257 73.4996 11.2879 74.0256 11.3374C74.6537 11.3971 75.2844 11.4377 75.9138 11.4682C77.3398 11.5367 78.7709 11.5557 80.1982 11.5519C82.4221 11.5469 84.6499 11.4872 86.8725 11.3958C87.6359 11.3641 88.4007 11.3311 89.1641 11.2905C89.1718 11.2892 89.1781 11.2879 89.1858 11.2892C89.4386 11.2752 89.6901 11.2613 89.9416 11.246C89.9709 11.2448 89.9965 11.2663 89.999 11.2968C90.0003 11.326 89.9786 11.3514 89.948 11.3539C89.7207 11.3679 89.4922 11.3806 89.2649 11.3933C89.4692 11.7829 89.6658 12.1777 89.8599 12.5724C90.308 13.4851 90.7369 14.4091 91.1301 15.3459C91.4378 16.0795 91.7327 16.8347 91.9599 17.5963C92.0774 17.9911 92.2217 18.5229 92.2485 18.9849C92.2766 18.9037 92.3046 18.8212 92.3315 18.7399C92.3404 18.712 92.371 18.6968 92.3991 18.7057C92.4272 18.7146 92.4425 18.745 92.4336 18.7729C92.3723 18.9595 92.3072 19.1461 92.2408 19.3314C92.2408 19.3327 92.2408 19.3327 92.2395 19.334C92.2357 19.3441 92.228 19.353 92.2191 19.3594C92.2089 19.3657 92.1974 19.3695 92.1846 19.3682C92.1795 19.3682 92.1744 19.367 92.1706 19.3644C92.1604 19.3606 92.1514 19.353 92.1451 19.3441C92.1387 19.334 92.1348 19.3226 92.1361 19.3099C92.1591 19.0738 92.1285 18.8123 92.0889 18.5787C92.034 18.2589 91.9497 17.939 91.8565 17.628C91.6293 16.8703 91.3369 16.1176 91.0306 15.3877C90.6386 14.4523 90.2097 13.5295 89.7628 12.6194C89.5624 12.2107 89.3581 11.802 89.1475 11.3996C88.3917 11.4402 87.6334 11.4732 86.8776 11.5037C84.6537 11.5951 82.4247 11.6547 80.1995 11.6598C78.7709 11.6636 77.3372 11.6446 75.9099 11.576C75.278 11.5456 74.6461 11.505 74.0167 11.4453C73.4843 11.3945 72.9507 11.3323 72.4247 11.2397C72.4209 11.2397 72.4209 11.2397 72.4196 11.2397Z" fill="white"/>
<path d="M92.1873 19.3962C92.1847 19.3962 92.1821 19.3962 92.1783 19.3962C92.1707 19.395 92.163 19.3937 92.1566 19.3912C92.1413 19.3848 92.1273 19.3747 92.1183 19.3594C92.1081 19.3442 92.103 19.3252 92.1055 19.3074C92.1247 19.1132 92.1094 18.8822 92.0583 18.5839C92.0098 18.3046 91.937 18.0038 91.8272 17.637C91.6332 16.9871 91.3791 16.2979 91.0025 15.4005C90.6425 14.5437 90.2289 13.6387 89.7361 12.6334C89.5727 12.3009 89.3569 11.8655 89.1284 11.4301C88.4773 11.4644 87.7815 11.4961 86.8764 11.5342C84.4252 11.6345 82.2396 11.6853 80.197 11.6903C78.5361 11.6942 77.1726 11.6675 75.9062 11.6066C75.204 11.5723 74.5849 11.5304 74.0116 11.4758C73.3899 11.4175 72.8831 11.3514 72.4171 11.2702H72.4133C72.4056 11.2689 72.3967 11.2651 72.3903 11.2613C72.2409 11.175 72.0673 11.1001 71.9499 11.0519C71.586 10.9008 71.2119 10.7904 70.8392 10.7231C69.6736 10.5124 68.6229 10.7612 67.8008 11.4428C67.3871 11.7855 67.1803 12.179 67.1867 12.6144C67.1918 13.0269 67.3846 13.4801 67.7573 13.9637C68.0139 14.2962 68.3472 14.6313 68.7467 14.9613C68.9523 15.1301 69.1208 15.2583 69.2778 15.3624C69.2957 15.3738 69.3085 15.3929 69.3123 15.4145C69.3161 15.436 69.3123 15.4576 69.3008 15.4754C69.2753 15.5122 69.2242 15.5223 69.1872 15.4982C69.0251 15.3903 68.8514 15.2596 68.6421 15.087C68.2323 14.7493 67.8914 14.4054 67.6271 14.0627C66.7986 12.9901 66.8216 12.0407 67.6948 11.3172C68.5552 10.6038 69.6519 10.3436 70.8673 10.5619C71.2515 10.6318 71.6371 10.7447 72.0111 10.9008C72.1975 10.9783 72.3405 11.0455 72.458 11.1128C72.915 11.1928 73.4142 11.2575 74.0257 11.3146C74.5938 11.3679 75.2117 11.4111 75.9126 11.4441C77.1752 11.505 78.5361 11.5304 80.1944 11.5279C82.2345 11.5228 84.4176 11.472 86.8675 11.3718C87.7867 11.3337 88.4926 11.3019 89.159 11.2664C89.1642 11.2639 89.1756 11.2639 89.1859 11.2651C89.4323 11.2512 89.6838 11.2372 89.9365 11.222C89.9582 11.2207 89.9799 11.2283 89.9953 11.2423C90.0119 11.2563 90.0221 11.2766 90.0233 11.2981C90.0259 11.3426 89.9914 11.3819 89.9467 11.3844C89.7335 11.3971 89.5203 11.4098 89.3059 11.4213C89.4757 11.7462 89.6544 12.1016 89.8804 12.5636C90.3744 13.5702 90.7893 14.4777 91.1506 15.3396C91.5298 16.2433 91.7864 16.9389 91.9817 17.5926C92.0826 17.9289 92.2153 18.4113 92.26 18.853C92.2728 18.8136 92.2868 18.7743 92.2996 18.7349C92.306 18.7146 92.3213 18.6981 92.3405 18.688C92.3596 18.6778 92.3826 18.6765 92.403 18.6829C92.4234 18.6892 92.44 18.7045 92.4502 18.7235C92.4605 18.7426 92.4617 18.7654 92.4553 18.7857C92.3928 18.9748 92.3264 19.1652 92.2626 19.3442C92.2549 19.3632 92.2447 19.3759 92.2294 19.3861C92.2192 19.3912 92.2039 19.3962 92.1873 19.3962ZM89.1616 11.3705L89.1705 11.387C89.4029 11.8287 89.6212 12.2717 89.7872 12.608C90.2799 13.6133 90.6949 14.5196 91.0549 15.3777C91.4328 16.2776 91.6868 16.9693 91.8821 17.6205C91.9919 17.9899 92.066 18.2932 92.1145 18.575C92.1668 18.8796 92.1821 19.1132 92.163 19.3137C92.163 19.3201 92.1643 19.3252 92.1668 19.3302C92.1694 19.3353 92.1745 19.3378 92.1796 19.3404L92.1873 19.3417C92.1949 19.3417 92.2 19.3404 92.2039 19.3379C92.209 19.3353 92.2115 19.3302 92.2141 19.3252C92.2779 19.1449 92.3443 18.9558 92.4068 18.7654C92.4094 18.7591 92.4081 18.7514 92.4056 18.7451C92.403 18.7387 92.3966 18.7337 92.3902 18.7324C92.3839 18.7299 92.3762 18.7311 92.3698 18.7337C92.3634 18.7362 92.3583 18.7426 92.3571 18.7489C92.3302 18.8314 92.3022 18.9126 92.2741 18.9951L92.2281 19.1284L92.2204 18.9875C92.1936 18.5179 92.043 17.9734 91.9332 17.6053C91.7379 16.9528 91.4825 16.2598 91.1047 15.3573C90.7434 14.4968 90.3285 13.5905 89.8357 12.5852C89.6008 12.1054 89.4169 11.7411 89.242 11.406L89.2216 11.3679L89.265 11.3654C89.4923 11.3527 89.7208 11.34 89.948 11.3261C89.9621 11.3248 89.9736 11.3134 89.9723 11.2981C89.9723 11.2918 89.9684 11.2854 89.9633 11.2804C89.9582 11.2753 89.9518 11.2728 89.9442 11.274C89.6927 11.2893 89.4399 11.3032 89.1884 11.3172C89.1795 11.3159 89.1756 11.3159 89.1731 11.3172C88.5016 11.354 87.7956 11.3857 86.8751 11.4238C84.424 11.5241 82.2409 11.5748 80.1995 11.5799C78.5399 11.5837 77.1777 11.5571 75.9138 11.4961C75.2117 11.4619 74.5938 11.42 74.0244 11.3654C73.4091 11.307 72.9086 11.2423 72.4477 11.1623L72.4388 11.1585C72.3226 11.0925 72.1809 11.0252 71.9945 10.9478C71.623 10.7942 71.2426 10.6813 70.8621 10.6127C69.6634 10.3957 68.5821 10.6533 67.7356 11.3553C66.6671 12.2412 67.1139 13.2947 67.6756 14.0233C67.9374 14.3622 68.2757 14.7037 68.6816 15.0387C68.8897 15.2101 69.0621 15.3408 69.2217 15.4462C69.2331 15.4538 69.2497 15.4513 69.2574 15.4386C69.2612 15.4322 69.2625 15.4259 69.2612 15.4195C69.26 15.4132 69.2561 15.4068 69.2497 15.403C69.0914 15.2977 68.9204 15.1695 68.7136 14.9981C68.3101 14.6656 67.9744 14.3267 67.7152 13.9916C67.3335 13.4978 67.1382 13.0333 67.1331 12.6093C67.1267 12.1574 67.3412 11.7487 67.7676 11.3946C68.6025 10.7028 69.6685 10.4502 70.8519 10.6635C71.2285 10.7308 71.6064 10.8437 71.9741 10.996C72.0928 11.0455 72.269 11.1204 72.4209 11.2093C72.4235 11.2106 72.426 11.2118 72.4286 11.2118C72.8946 11.2943 73.3988 11.3591 74.0193 11.4175C74.5912 11.4708 75.2104 11.5139 75.9113 11.5482C77.1764 11.6091 78.5399 11.6358 80.1995 11.632C82.2422 11.6269 84.4265 11.5761 86.8764 11.4758C87.7892 11.439 88.4888 11.406 89.145 11.3718L89.1616 11.3705Z" fill="#F0A38B"/>
<path fill-rule="evenodd" clip-rule="evenodd" d="M80.6991 54.329C80.957 52.0341 81.2366 49.7418 81.5417 47.4532C81.6783 46.4264 81.8174 45.3982 81.9719 44.3739C81.9757 44.3473 81.9974 44.3282 82.0242 44.3282L82.5758 44.3168C82.4724 43.6568 82.3779 42.9929 82.2923 42.3304C82.2489 41.9876 82.2068 41.6437 82.1736 41.301C82.1481 41.0458 82.1225 40.778 82.1225 40.5216C82.1225 40.2157 82.1838 39.8844 82.254 39.5887C82.3651 39.1165 82.5221 38.6494 82.6958 38.1963C82.9371 37.5718 83.2192 36.9612 83.5243 36.3659C83.9188 35.598 84.3541 34.8491 84.8163 34.1193C84.8316 34.0939 84.8661 34.0863 84.8903 34.1028C84.9159 34.118 84.9235 34.1523 84.9069 34.1764C84.4473 34.9037 84.0133 35.6488 83.6201 36.4142C83.3162 37.0069 83.0353 37.6137 82.7953 38.2343C82.623 38.6824 82.4672 39.1457 82.3575 39.6128C82.2898 39.9009 82.2285 40.2246 82.2285 40.5216C82.2285 40.7742 82.254 41.0382 82.2783 41.2895C82.3115 41.6322 82.3536 41.975 82.397 42.3164C82.4826 42.9828 82.577 43.6504 82.6817 44.3143L89.1773 44.1772C89.2054 44.1772 89.2296 44.1975 89.2322 44.2254C89.3599 45.4046 89.4799 46.585 89.5986 47.7655C89.9037 50.7851 90.1922 53.8073 90.4667 56.8295C90.8165 60.6818 91.1421 64.5379 91.4382 68.3941C91.4408 68.4233 91.4178 68.4499 91.3885 68.4512C91.3591 68.4537 91.3323 68.4309 91.331 68.4017C91.0348 64.5456 90.7093 60.6907 90.3595 56.8384C90.085 53.8162 89.7965 50.794 89.4914 47.7744C89.3739 46.6104 89.2552 45.4465 89.1301 44.2838L82.0676 44.4336C81.9157 45.4427 81.7791 46.4556 81.6451 47.4659C81.3336 49.8103 81.0476 52.1585 80.7846 54.5092C80.7897 54.5245 80.7872 54.5397 80.7795 54.5524C80.7476 54.8342 80.717 55.1172 80.6863 55.399C80.2791 59.1181 79.9267 62.8447 79.6395 66.5752C79.3114 70.8375 79.0688 75.1099 78.9488 79.3836C78.8505 82.9123 78.8365 86.4485 78.959 89.9772C79.0177 91.6526 79.1084 93.3294 79.2424 95.001C79.3688 96.5699 79.5322 98.1362 79.7518 99.6936C79.9522 101.119 80.1999 102.541 80.5178 103.944C80.7999 105.192 81.1395 106.435 81.5698 107.642C82.2349 109.51 83.2013 111.529 84.6478 112.929C84.6695 112.949 84.6695 112.983 84.649 113.005C84.6286 113.026 84.5941 113.026 84.5724 113.006C83.1132 111.595 82.1391 109.564 81.4676 107.679C81.0361 106.468 80.6953 105.221 80.4118 103.969C80.094 102.561 79.8463 101.137 79.6446 99.7088C79.425 98.1489 79.2603 96.58 79.1352 95.0099C79.0011 93.337 78.9105 91.659 78.8518 89.9822C78.7279 86.4523 78.7433 82.9135 78.8416 79.3824C78.9603 75.1074 79.2041 70.8336 79.5322 66.5688C79.8195 62.8371 80.1706 59.1092 80.5791 55.3889C80.611 55.102 80.6429 54.8151 80.6748 54.5283C79.905 52.8947 78.1675 51.4959 76.6904 50.5122C75.2733 49.5679 73.7337 48.7555 72.1851 48.0473C71.663 47.8086 71.1344 47.5802 70.6021 47.3644C70.394 47.2806 70.1846 47.1968 69.974 47.1194C69.9459 47.1093 69.9318 47.0788 69.9421 47.0509L72.0638 40.7222C71.8762 40.4988 71.6974 40.2538 71.5289 40.0177C71.0681 39.3716 70.6455 38.6926 70.2587 37.9983C69.0024 35.7427 68.1024 33.2676 67.6556 30.7265C67.6505 30.6973 67.6696 30.6693 67.699 30.6643C67.7283 30.6592 67.7564 30.6782 67.7615 30.7074C68.2071 33.2359 69.1033 35.7008 70.3531 37.9449C70.7374 38.6342 71.1574 39.3107 71.617 39.9542C71.7894 40.1954 71.9732 40.448 72.166 40.6739C72.1724 40.6815 72.1762 40.6892 72.1775 40.698C72.1787 40.7069 72.1787 40.7158 72.1762 40.726L70.0608 47.0356C70.2561 47.108 70.4502 47.1854 70.6429 47.2641C71.1766 47.4799 71.7064 47.7096 72.2311 47.9483C73.786 48.6591 75.3308 49.474 76.7517 50.4208C78.202 51.3881 79.8871 52.7411 80.6991 54.329Z" fill="#F0A38B"/>
<path d="M84.6129 113.047C84.5912 113.047 84.5708 113.04 84.5555 113.025C83.3133 111.822 82.2958 110.077 81.4443 107.687C81.046 106.568 80.7 105.353 80.3885 103.974C80.0911 102.658 79.8396 101.263 79.6212 99.7121C79.4132 98.2347 79.2459 96.6976 79.1106 95.0107C78.9816 93.4101 78.8897 91.7651 78.8272 89.9817C78.7123 86.7082 78.7084 83.2405 78.817 79.3806C78.9293 75.3404 79.1553 71.1492 79.5076 66.5658C79.7859 62.9457 80.1383 59.1836 80.5545 55.3858C80.5851 55.1015 80.617 54.8172 80.6489 54.5329C80.0285 53.223 78.6931 51.8788 76.6786 50.5346C75.379 49.6677 73.9057 48.8629 72.1771 48.0722C71.6422 47.8272 71.1098 47.5974 70.5954 47.3905C70.4064 47.3144 70.1855 47.2255 69.9685 47.1456C69.9264 47.1303 69.9047 47.0834 69.92 47.0415L72.0367 40.7267C71.8516 40.5059 71.6741 40.2622 71.5094 40.0324C71.069 39.4156 70.6413 38.7352 70.2379 38.0105C68.9523 35.7029 68.0765 33.2531 67.6323 30.7298C67.6284 30.7082 67.6335 30.6866 67.6463 30.6689C67.6591 30.6511 67.6782 30.6397 67.6986 30.6359C67.7433 30.6282 67.7855 30.6574 67.7931 30.7019C68.2336 33.2062 69.1042 35.6394 70.3809 37.9305C70.7817 38.6502 71.2056 39.3242 71.6435 39.9372C71.8145 40.1771 71.9997 40.4297 72.1912 40.6557C72.2001 40.6658 72.2065 40.6785 72.209 40.6925C72.2116 40.7064 72.2116 40.7217 72.2065 40.7344L70.1 47.0186C70.2762 47.0846 70.4511 47.1545 70.6579 47.237C71.1737 47.4451 71.7086 47.6761 72.2461 47.9224C73.9823 48.7157 75.4632 49.5255 76.7705 50.3975C78.6944 51.6795 80.0106 52.9691 80.6834 54.2333C80.9439 51.9181 81.2247 49.6359 81.5158 47.4489C81.6396 46.5173 81.7852 45.4358 81.946 44.3696C81.9524 44.3303 81.9856 44.3011 82.0252 44.2998L82.5448 44.2884C82.4439 43.6436 82.3507 42.9861 82.2665 42.3324C82.2128 41.9199 82.1771 41.6026 82.1477 41.3017C82.1247 41.072 82.0967 40.7851 82.0967 40.5198C82.0967 40.2609 82.1388 39.9626 82.2282 39.5806C82.3277 39.1554 82.4733 38.6997 82.6712 38.1843C82.8958 37.6017 83.1678 37.0014 83.501 36.3515C83.875 35.6204 84.2989 34.8855 84.7942 34.1023C84.8057 34.0845 84.8236 34.0718 84.8453 34.0668C84.867 34.0617 84.8887 34.0655 84.9066 34.0769C84.9257 34.0883 84.9385 34.1061 84.9423 34.1277C84.9474 34.1493 84.9436 34.1708 84.9321 34.1886C84.4393 34.9667 84.0193 35.6978 83.6465 36.4251C83.3159 37.0712 83.0465 37.6652 82.8231 38.2427C82.6278 38.7505 82.4848 39.1998 82.3865 39.6174C82.2996 39.988 82.2588 40.2749 82.2588 40.5198C82.2588 40.7775 82.2856 41.0479 82.3086 41.2852C82.3379 41.5822 82.375 41.8983 82.4273 42.3108C82.5116 42.9696 82.606 43.6334 82.7082 44.2846L89.1795 44.1475C89.2216 44.1462 89.2587 44.178 89.2625 44.2198C89.3953 45.4511 89.5216 46.6924 89.6289 47.7599C89.9251 50.6971 90.2174 53.7472 90.497 56.8252C90.8583 60.8095 91.1851 64.6999 91.4685 68.391C91.4698 68.4126 91.4634 68.4342 91.4494 68.4507C91.4353 68.4672 91.4149 68.4773 91.3932 68.4786C91.3715 68.4799 91.3498 68.4735 91.3332 68.4596C91.3166 68.4456 91.3064 68.4253 91.3051 68.4037C91.0217 64.7113 90.6949 60.8209 90.3336 56.8404C90.054 53.7599 89.7617 50.711 89.4655 47.7777C89.3608 46.7343 89.2369 45.5209 89.1067 44.3138L82.0941 44.4623C81.9384 45.5031 81.7954 46.5604 81.6754 47.4718C81.3741 49.7362 81.0843 52.1034 80.8149 54.5087C80.8187 54.5265 80.8175 54.5456 80.8085 54.5621C80.7766 54.8426 80.746 55.1231 80.7153 55.4036C80.2991 59.2013 79.9468 62.961 79.6685 66.5785C79.3161 71.1594 79.0914 75.348 78.9791 79.3857C78.8719 83.2418 78.8757 86.7069 78.9893 89.9767C79.0519 91.7575 79.1438 93.4012 79.2727 94.9993C79.408 96.6823 79.574 98.2169 79.7821 99.6906C80.0004 101.237 80.2506 102.626 80.5468 103.939C80.857 105.311 81.2017 106.519 81.5975 107.633C82.4286 109.966 83.4614 111.74 84.6691 112.908C84.6844 112.923 84.6934 112.943 84.6934 112.965C84.6934 112.986 84.6857 113.007 84.6704 113.023C84.6563 113.038 84.6359 113.047 84.6129 113.047C84.6142 113.047 84.6142 113.047 84.6129 113.047ZM67.7101 30.6917C67.7089 30.6917 67.7076 30.6917 67.705 30.6917C67.6986 30.693 67.6923 30.6968 67.6884 30.7019C67.6846 30.7082 67.6833 30.7145 67.6846 30.7209C68.1276 33.2379 69.0021 35.6813 70.2851 37.9838C70.6873 38.706 71.1149 39.3851 71.5541 40.0007C71.7201 40.2343 71.9001 40.4805 72.0878 40.7039L72.098 40.7153L72.0929 40.7306L69.9711 47.0593C69.966 47.0732 69.9736 47.0872 69.9864 47.0923C70.2047 47.1722 70.4256 47.2611 70.6145 47.3372C71.129 47.5454 71.6626 47.7751 72.1988 48.0201C73.9312 48.8109 75.4058 49.6182 76.7092 50.4864C78.7365 51.8382 80.0796 53.1925 80.7026 54.5138L80.7064 54.5214L80.7051 54.5291C80.6732 54.8159 80.6413 55.1028 80.6094 55.3896C80.1932 59.1874 79.8408 62.9483 79.5625 66.5683C79.2102 71.1505 78.9842 75.3417 78.8719 79.3806C78.7646 83.2392 78.7684 86.7057 78.8821 89.9779C78.9446 91.7613 79.0378 93.405 79.1655 95.0056C79.3008 96.6899 79.4668 98.2271 79.6749 99.7033C79.8932 101.253 80.1434 102.645 80.4421 103.96C80.7536 105.336 81.0983 106.55 81.4966 107.667C82.3443 110.048 83.358 111.787 84.5938 112.983C84.5989 112.988 84.604 112.993 84.6129 112.99C84.6193 112.99 84.627 112.988 84.6308 112.983C84.6359 112.978 84.6385 112.971 84.6385 112.964C84.6385 112.957 84.6359 112.95 84.6308 112.946C83.4001 111.755 82.3916 110.023 81.5464 107.649C81.1494 106.533 80.8047 105.322 80.4932 103.949C80.1957 102.635 79.9455 101.244 79.7272 99.6956C79.5191 98.2207 79.3531 96.6849 79.2178 95.0005C79.0902 93.4012 78.997 91.7575 78.9344 89.9754C78.8195 86.7044 78.8157 83.238 78.9242 79.3806C79.0365 75.343 79.2625 71.153 79.6149 66.5709C79.8932 62.9521 80.2455 59.1924 80.6617 55.3934C80.6923 55.1117 80.7243 54.8286 80.7549 54.5468L80.7587 54.5354C80.7626 54.5291 80.7638 54.5214 80.7613 54.5151L80.76 54.51L80.7613 54.5037C81.0307 52.0958 81.3205 49.726 81.6217 47.4604C81.7443 46.5427 81.8873 45.4752 82.0443 44.4267L82.0482 44.4039H82.0711L89.1591 44.2541L89.1616 44.2795C89.2931 45.4968 89.417 46.7191 89.5229 47.7701C89.8191 50.7034 90.1115 53.7535 90.391 56.8341C90.7523 60.8146 91.0791 64.7063 91.3626 68.3986C91.3626 68.405 91.3664 68.4113 91.3715 68.4164C91.3766 68.4215 91.383 68.4228 91.3907 68.4228C91.397 68.4228 91.4034 68.4189 91.4085 68.4139C91.4136 68.4088 91.4149 68.4025 91.4149 68.3948C91.1315 64.705 90.8047 60.8133 90.4434 56.8303C90.1638 53.7522 89.8714 50.7034 89.5753 47.7663C89.468 46.6988 89.3416 45.4574 89.2089 44.2262C89.2076 44.2122 89.1961 44.2046 89.1821 44.2033L82.6609 44.3417L82.6571 44.3176C82.5537 43.6588 82.458 42.9861 82.3724 42.3184C82.3188 41.9059 82.2831 41.5886 82.2537 41.2916C82.2307 41.0517 82.2039 40.7801 82.2039 40.5198C82.2039 40.2698 82.2448 39.9791 82.3328 39.6047C82.4311 39.1845 82.5754 38.7327 82.772 38.2224C82.9954 37.6436 83.2661 37.0471 83.598 36.3997C83.9708 35.6724 84.3921 34.9388 84.8861 34.1594C84.89 34.1531 84.8912 34.1467 84.89 34.1404C84.8887 34.134 84.8849 34.1277 84.8785 34.1239C84.8721 34.1201 84.8657 34.1188 84.8593 34.1201C84.8529 34.1213 84.8466 34.1251 84.8427 34.1315C84.3487 34.9134 83.9261 35.647 83.552 36.3756C83.2188 37.0242 82.9482 37.622 82.7248 38.2034C82.5269 38.7149 82.3826 39.1693 82.2831 39.592C82.1937 39.9702 82.1528 40.2647 82.1528 40.5186C82.1528 40.7813 82.1809 41.0656 82.2039 41.2954C82.2333 41.5949 82.2703 41.9123 82.3226 42.3248C82.4082 42.9886 82.5026 43.6563 82.6048 44.3112L82.6099 44.343L82.0264 44.3557C82.0137 44.3557 82.0035 44.3645 82.0009 44.3772C81.8401 45.4434 81.6945 46.5249 81.5707 47.4565C81.2758 49.6715 80.9924 51.9841 80.7281 54.331L80.7179 54.4237L80.6758 54.3412C80.0196 53.0605 78.6957 51.7493 76.7386 50.4457C75.4338 49.575 73.9555 48.7677 72.2218 47.9757C71.6843 47.7307 71.1507 47.4997 70.6349 47.2915C70.4192 47.204 70.2379 47.1316 70.0541 47.0643L70.0285 47.0554L70.0375 47.0301L72.1516 40.7179C72.1529 40.7141 72.1529 40.709 72.1529 40.7052C72.1516 40.7014 72.1503 40.6976 72.1478 40.6937C71.955 40.4665 71.7686 40.2127 71.5975 39.9715C71.1596 39.3572 70.7332 38.6806 70.3324 37.9597C69.0532 35.6623 68.1799 33.2239 67.7382 30.7133C67.7344 30.7006 67.7229 30.6917 67.7101 30.6917Z" fill="#A7D1F3"/>
<path fill-rule="evenodd" clip-rule="evenodd" d="M87.2148 18.6626C87.2901 18.8606 87.3808 19.0599 87.4701 19.2516C87.6642 19.6653 87.885 20.0779 88.1404 20.4587C88.2923 20.6859 88.4595 20.908 88.6497 21.1047C88.6702 21.1263 88.6689 21.1606 88.6485 21.1809C88.6268 21.2012 88.5923 21.2012 88.5719 21.1796C88.3778 20.9778 88.2055 20.7506 88.051 20.5183C87.7931 20.1324 87.5697 19.7161 87.3731 19.2972C87.2825 19.103 87.1918 18.9012 87.1139 18.7007C87.1037 18.6728 87.1178 18.6423 87.1446 18.6309C87.1727 18.6207 87.2033 18.6347 87.2148 18.6626Z" fill="#3F4553"/>
<path d="M88.6101 21.2989C88.6089 21.2989 88.6076 21.2989 88.6063 21.2989C88.5642 21.2977 88.5246 21.2812 88.4952 21.2507C88.3165 21.0641 88.1416 20.8445 87.9629 20.5754C87.7229 20.2162 87.4982 19.8126 87.2773 19.3404C87.1624 19.0967 87.082 18.9101 87.0156 18.7362C87.0003 18.6969 87.0016 18.6537 87.0194 18.6156C87.0373 18.5776 87.068 18.5484 87.1075 18.5331C87.1471 18.5179 87.1905 18.5192 87.2288 18.5369C87.2671 18.5547 87.2965 18.5852 87.3118 18.6245C87.3756 18.7908 87.4535 18.971 87.5646 19.2071C87.779 19.6653 87.9961 20.055 88.2271 20.4003C88.3969 20.6529 88.5591 20.8598 88.725 21.0324C88.785 21.0958 88.7838 21.1961 88.7199 21.2558C88.6906 21.2837 88.6523 21.2989 88.6101 21.2989Z" fill="#3F4553"/>
<path fill-rule="evenodd" clip-rule="evenodd" d="M80.4741 16.4338C80.6656 16.4732 80.8584 16.5087 81.0512 16.543C81.4687 16.6179 81.8899 16.6852 82.31 16.7385C82.5844 16.7727 82.8615 16.8019 83.1385 16.8184C83.3555 16.8311 83.5904 16.8375 83.8062 16.8121C83.8356 16.8083 83.8624 16.8299 83.8662 16.8591C83.87 16.8882 83.8483 16.9149 83.819 16.9187C83.5968 16.9454 83.3555 16.9377 83.1321 16.9251C82.8525 16.9098 82.573 16.8794 82.2959 16.8451C81.8734 16.7918 81.4508 16.7245 81.0308 16.6496C80.838 16.6153 80.6439 16.5798 80.4512 16.5405C80.4218 16.5341 80.4027 16.5062 80.409 16.477C80.4167 16.4465 80.4461 16.4275 80.4741 16.4338Z" fill="#3F4553"/>
<path d="M83.4781 17.0405C83.3568 17.0405 83.2368 17.0354 83.1283 17.0291C82.878 17.0151 82.6099 16.9885 82.2844 16.9479C81.895 16.8984 81.4801 16.8349 81.0141 16.7511C80.8533 16.7219 80.6426 16.6838 80.432 16.6407C80.3465 16.6229 80.2916 16.5391 80.3082 16.4541C80.3171 16.4122 80.3414 16.3767 80.3771 16.3538C80.4128 16.331 80.455 16.3234 80.4958 16.331C80.695 16.3716 80.898 16.4084 81.0703 16.4401C81.5299 16.5226 81.9397 16.5861 82.324 16.6343C82.6431 16.675 82.9036 16.7003 83.1461 16.713C83.3478 16.7245 83.5828 16.7333 83.796 16.708C83.8381 16.7029 83.8789 16.7143 83.9134 16.741C83.9466 16.7676 83.9683 16.8044 83.9734 16.8463C83.9836 16.9326 83.9211 17.0113 83.8343 17.0215C83.7155 17.0354 83.5955 17.0405 83.4781 17.0405Z" fill="#3F4553"/>
<path fill-rule="evenodd" clip-rule="evenodd" d="M86.4563 24.0926C86.4601 24.2449 86.4767 24.4049 86.4959 24.5546C86.5367 24.877 86.6057 25.2058 86.7167 25.5117C86.8137 25.777 86.9542 26.0549 87.1623 26.2504C87.184 26.2707 87.1853 26.305 87.1648 26.3266C87.1444 26.3482 87.1099 26.3494 87.0882 26.3291C86.8661 26.1209 86.718 25.8315 86.6146 25.5485C86.501 25.2363 86.4307 24.8986 86.3886 24.5686C86.3682 24.415 86.3516 24.2513 86.3478 24.0952C86.3465 24.066 86.3707 24.0406 86.4001 24.0406C86.4307 24.0393 86.455 24.0634 86.4563 24.0926Z" fill="#3F4553"/>
<path d="M87.1253 26.4472C87.0857 26.4472 87.0474 26.4332 87.0168 26.404C86.8138 26.2136 86.6453 25.9369 86.5164 25.584C86.4104 25.2934 86.3325 24.9557 86.284 24.5826C86.2598 24.3909 86.2457 24.2373 86.2432 24.099C86.2419 24.0571 86.2572 24.0165 86.2866 23.986C86.3159 23.9555 86.3555 23.9378 86.3976 23.9378C86.4398 23.9352 86.4806 23.9517 86.5113 23.9809C86.5419 24.0101 86.5598 24.0495 86.5611 24.0913C86.5636 24.2183 86.5764 24.3617 86.5993 24.5432C86.644 24.8948 86.7168 25.2083 86.8151 25.4774C86.9262 25.7846 87.0679 26.0194 87.2338 26.1755C87.2977 26.2352 87.3002 26.3355 87.2402 26.3989C87.2096 26.4307 87.1674 26.4472 87.1253 26.4472Z" fill="#3F4553"/>
<path fill-rule="evenodd" clip-rule="evenodd" d="M77.6794 20.418C77.7841 20.4967 77.9028 20.5716 78.0151 20.6402C78.3037 20.8153 78.6088 20.9702 78.9203 21.1009C79.8574 21.4969 80.8864 21.695 81.9051 21.5807C81.9345 21.5769 81.9613 21.5985 81.9651 21.6277C81.969 21.6569 81.9472 21.6835 81.9179 21.6873C80.8812 21.8041 79.8344 21.6036 78.8794 21.1999C78.5628 21.0667 78.2539 20.9093 77.9603 20.7316C77.8454 20.6618 77.7228 20.5843 77.6156 20.5031C77.5913 20.4853 77.5875 20.451 77.6053 20.4282C77.6219 20.4041 77.6551 20.4003 77.6794 20.418Z" fill="#3F4553"/>
<path d="M81.3294 21.8232C80.5123 21.8232 79.6621 21.6442 78.8374 21.2952C78.5105 21.1568 78.1978 20.9969 77.9054 20.8192C77.7956 20.7519 77.6667 20.6719 77.5518 20.5856C77.4816 20.5323 77.4688 20.4333 77.5212 20.3648C77.5467 20.3318 77.5837 20.3102 77.6258 20.3038C77.668 20.2975 77.7101 20.3089 77.7433 20.3343C77.8467 20.413 77.9667 20.4879 78.0701 20.5501C78.3484 20.7189 78.6484 20.8725 78.9612 21.0045C79.9404 21.4183 80.954 21.582 81.8924 21.4767C81.9345 21.4716 81.9754 21.4843 82.0086 21.5097C82.0417 21.5363 82.0622 21.5731 82.0673 21.615C82.0775 21.7013 82.0149 21.78 81.9281 21.7902C81.7315 21.813 81.5311 21.8232 81.3294 21.8232Z" fill="#3F4553"/>
<path fill-rule="evenodd" clip-rule="evenodd" d="M76.2995 32.6375C76.5229 32.7416 76.7833 32.9878 76.9403 33.1693C77.4344 33.7392 77.714 34.4818 77.8518 35.2129C77.8569 35.2421 77.8378 35.27 77.8084 35.2751C77.7791 35.2802 77.751 35.2611 77.7459 35.2319C77.6106 34.5199 77.3399 33.7938 76.8586 33.2391C76.7335 33.0944 76.5905 32.9586 76.4348 32.8469C76.3812 32.8088 76.3148 32.7631 76.2548 32.7352C76.228 32.7225 76.2165 32.6908 76.2292 32.6641C76.2395 32.6362 76.2726 32.6248 76.2995 32.6375Z" fill="#3F4553"/>
<path d="M77.7994 35.3792C77.7241 35.3792 77.6577 35.3258 77.6437 35.251C77.493 34.4576 77.1943 33.7849 76.7794 33.3064C76.6492 33.1566 76.5126 33.0297 76.3734 32.9294C76.33 32.8977 76.2649 32.8532 76.21 32.8279C76.1717 32.8101 76.1424 32.7784 76.1283 32.739C76.1143 32.6997 76.1155 32.6565 76.1334 32.6184C76.1513 32.5803 76.1832 32.5512 76.2228 32.5372C76.2624 32.5232 76.3058 32.5245 76.3441 32.5423C76.5815 32.6527 76.8483 32.9027 77.0194 33.0995C77.4764 33.6275 77.7918 34.3307 77.9552 35.1913C77.9628 35.2332 77.9539 35.2751 77.9309 35.3093C77.9067 35.3436 77.8709 35.3677 77.8288 35.3753C77.8186 35.3792 77.8084 35.3792 77.7994 35.3792ZM76.2968 32.64C76.2968 32.64 76.2981 32.64 76.2968 32.64C76.2968 32.64 76.2981 32.64 76.2968 32.64Z" fill="#3F4553"/>
<path fill-rule="evenodd" clip-rule="evenodd" d="M84.0933 26.2288C83.838 27.0463 83.5699 27.8637 83.289 28.6735C83.1014 29.2155 82.906 29.7638 82.6865 30.2931C82.6111 30.4746 82.5307 30.6625 82.4362 30.8338C82.3979 30.9037 82.3111 31.0623 82.2205 31.0725C81.9626 31.1004 81.6983 30.9976 81.4826 30.8656C81.0664 30.6117 80.7026 30.189 80.4204 29.8006C80.4026 29.7765 80.4089 29.7435 80.4319 29.7258C80.4562 29.708 80.4894 29.7143 80.5072 29.7372C80.7804 30.1129 81.1366 30.5279 81.5388 30.7729C81.7341 30.891 81.9754 30.99 82.2077 30.9646C82.246 30.9519 82.3341 30.7945 82.3533 30.759C82.4452 30.5889 82.5231 30.4048 82.5971 30.2259C82.8128 29.7054 83.0031 29.1673 83.1882 28.6354C83.469 27.8269 83.7359 27.0107 83.9912 26.1946C84.0001 26.1666 84.0308 26.1501 84.0589 26.159C84.0869 26.1705 84.1023 26.2009 84.0933 26.2288Z" fill="#3F4553"/>
<path d="M82.135 31.1829C81.9154 31.1829 81.6728 31.1055 81.4277 30.957C81.069 30.7387 80.7115 30.3807 80.3349 29.8641C80.3106 29.8298 80.3004 29.788 80.3068 29.7473C80.3132 29.7055 80.3362 29.6686 80.3707 29.6445C80.4421 29.5938 80.5404 29.609 80.5928 29.6801C80.9388 30.1548 81.2758 30.4937 81.5937 30.6879C81.7405 30.7767 81.9562 30.8783 82.1643 30.8669C82.1873 30.8377 82.2282 30.7742 82.2601 30.7133C82.352 30.5432 82.4312 30.3541 82.5001 30.1903C82.7222 29.6521 82.9201 29.0898 83.0886 28.6062C83.3618 27.818 83.6325 26.998 83.8904 26.1679C83.9031 26.1273 83.9299 26.0943 83.9682 26.0753C84.0053 26.055 84.0487 26.0511 84.0895 26.0638C84.1291 26.0765 84.1623 26.1032 84.1827 26.1413C84.2031 26.1781 84.207 26.2212 84.1942 26.2619C83.935 27.0945 83.6631 27.9183 83.3886 28.7091C83.2163 29.2079 83.012 29.7854 82.7835 30.335C82.7082 30.5153 82.6265 30.7069 82.5282 30.8859C82.4478 31.0306 82.3584 31.1639 82.2333 31.1778C82.2001 31.1804 82.1682 31.1829 82.135 31.1829Z" fill="#3F4553"/>
</svg>
