<svg width="171" height="172" viewBox="0 0 171 172" fill="none" xmlns="http://www.w3.org/2000/svg">
<path d="M155.624 -3.63141C155.624 -3.63141 138.418 -15.0276 117.46 -9.01588C96.4988 -3.00606 82.1914 15.781 70.1966 30.6922C58.2 45.606 58.7238 63.9671 70.9447 75.3454C83.1656 86.7236 95.4757 77.5595 115.358 81.9507C135.241 86.3419 139.881 90.4995 158.912 83.4512C177.944 76.403 187.146 50.7889 178.837 28.0461C170.525 5.3015 155.624 -3.63141 155.624 -3.63141Z" fill="#F1B869"/>
<path d="M100.909 64.5631C100.078 64.8376 99.1791 64.384 98.905 63.5545L93.3592 46.7747C93.1212 46.0547 92.3446 45.6628 91.6262 45.9003C90.9078 46.1377 90.5176 46.9152 90.7556 47.6352L94.8954 60.161C95.1391 60.8983 94.7394 61.695 94.0037 61.9381C93.268 62.1812 92.4723 61.7797 92.2286 61.0424L89.9431 54.1272C89.767 53.5943 89.1931 53.3048 88.6615 53.4805C88.1298 53.6562 87.8416 54.2307 88.0177 54.7635L88.8677 57.3355L86.7469 58.0364L86.6517 57.7484L88.4852 57.1425L87.7303 54.8585C87.5018 54.1673 87.8766 53.4204 88.5663 53.1925C89.256 52.9645 90.002 53.341 90.2305 54.0322L92.516 60.9474C92.7073 61.5263 93.3309 61.841 93.9085 61.6501C94.4861 61.4592 94.7994 60.8349 94.608 60.256L90.4682 47.7302C90.1779 46.8518 90.6545 45.902 91.531 45.6123C92.4075 45.3226 93.3563 45.8013 93.6466 46.6798L99.1924 63.4595C99.4142 64.1306 100.141 64.4974 100.813 64.2751C101.483 64.0538 101.848 63.3261 101.626 62.6551L94.8603 42.183C94.5081 41.1173 95.0866 39.9645 96.1499 39.6131C97.2132 39.2616 98.3647 39.8427 98.7169 40.9083L105.452 61.2854C105.69 62.0054 106.466 62.3973 107.185 62.1599C107.903 61.9224 108.293 61.1449 108.055 60.4249L102.688 44.1866C102.351 43.167 102.905 42.064 103.922 41.7278C104.939 41.3916 106.041 41.9475 106.378 42.9671L110.337 54.9456C110.544 55.5706 111.221 55.9123 111.845 55.7062C112.468 55.5001 112.808 54.8222 112.602 54.1972L110.449 47.6852C110.201 46.9335 110.608 46.1215 111.358 45.8736C112.109 45.6257 112.922 46.034 113.171 46.7857L113.825 48.7644L115.946 48.0635L116.041 48.3515L113.633 49.1474L112.884 46.8807C112.687 46.2874 112.046 45.966 111.454 46.1616C110.862 46.3573 110.542 46.9998 110.737 47.5902L112.889 54.1022C113.148 54.8856 112.721 55.7359 111.94 55.9942C111.158 56.2526 110.309 55.824 110.05 55.0406L106.091 43.0621C105.806 42.2009 104.877 41.7318 104.017 42.0158C103.158 42.2998 102.691 43.2305 102.976 44.0916L108.343 60.3299C108.633 61.2084 108.156 62.1582 107.28 62.4479C106.403 62.7376 105.455 62.2588 105.164 61.3804L98.4295 41.0033C98.1297 40.0961 97.1503 39.6019 96.2451 39.9011C95.3398 40.2003 94.8478 41.1807 95.1477 42.088L101.914 62.5601C102.191 63.3886 101.739 64.2886 100.909 64.5631Z" fill="#FEDEA5"/>
<path d="M128.64 55.3968C127.809 55.6713 126.91 55.2176 126.636 54.3882L121.09 37.6084C120.852 36.8884 120.076 36.4965 119.357 36.7339C118.639 36.9714 118.249 37.7489 118.487 38.4689L122.627 50.9947C122.87 51.732 122.471 52.5286 121.735 52.7718C120.999 53.0149 120.203 52.6134 119.96 51.8761L117.674 44.9608C117.498 44.428 116.924 44.1385 116.393 44.3142C115.861 44.4899 115.573 45.0644 115.749 45.5972L116.599 48.1692L114.478 48.8701L114.383 48.5821L116.216 47.9761L115.462 45.6922C115.233 45.0009 115.608 44.2541 116.298 44.0261C116.987 43.7982 117.733 44.1746 117.962 44.8659L120.247 51.7811C120.439 52.36 121.062 52.6747 121.64 52.4837C122.217 52.2928 122.531 51.6686 122.339 51.0897L118.199 38.5639C117.909 37.6854 118.386 36.7356 119.262 36.4459C120.139 36.1563 121.087 36.635 121.378 37.5134L126.924 54.2932C127.145 54.9643 127.872 55.331 128.545 55.1088C129.214 54.8875 129.579 54.1598 129.358 53.4887L122.592 33.0166C122.239 31.951 122.818 30.7981 123.881 30.4467C124.944 30.0953 126.096 30.6764 126.448 31.742L133.183 52.1191C133.421 52.8391 134.197 53.231 134.916 52.9935C135.634 52.7561 136.024 51.9786 135.786 51.2586L130.42 35.0203C130.083 34.0007 130.636 32.8977 131.653 32.5615C132.671 32.2252 133.772 32.7812 134.109 33.8008L138.068 45.7793C138.275 46.4043 138.952 46.746 139.576 46.5399C140.199 46.3338 140.539 45.6559 140.333 45.0309L138.181 38.5188C137.932 37.7671 138.34 36.9552 139.093 36.7063C139.843 36.4584 140.654 36.8677 140.902 37.6194L141.556 39.5981L143.677 38.8971L143.772 39.1851L141.364 39.9811L140.615 37.7144C140.419 37.1211 139.78 36.7987 139.188 36.9944C138.596 37.19 138.273 37.8334 138.468 38.4239L140.62 44.9359C140.879 45.7193 140.453 46.5695 139.671 46.8279C138.889 47.0862 138.04 46.6577 137.781 45.8743L133.822 33.8957C133.537 33.0346 132.608 32.5655 131.749 32.8495C130.889 33.1335 130.422 34.0641 130.707 34.9253L136.074 51.1636C136.364 52.042 135.887 52.9918 135.011 53.2815C134.134 53.5712 133.186 53.0925 132.895 52.214L126.161 31.837C125.861 30.9297 124.881 30.4356 123.976 30.7347C123.071 31.0339 122.579 32.0144 122.879 32.9216L129.645 53.3937C129.922 54.2223 129.47 55.1223 128.64 55.3968Z" fill="#FEDEA5"/>
<path d="M156.372 46.2317C155.541 46.5062 154.642 46.0525 154.368 45.2231L148.822 28.4433C148.584 27.7233 147.807 27.3314 147.089 27.5689C146.371 27.8063 145.98 28.5838 146.218 29.3038L150.358 41.8296C150.602 42.5669 150.202 43.3635 149.467 43.6067C148.731 43.8498 147.935 43.4483 147.691 42.711L145.406 35.7957C145.23 35.2629 144.656 34.9734 144.124 35.1491C143.593 35.3248 143.304 35.8993 143.481 36.4321L144.331 39.0041L142.21 39.705L142.115 39.417L143.948 38.811L143.193 36.5271C142.965 35.8358 143.339 35.089 144.029 34.8611C144.719 34.6331 145.465 35.0095 145.693 35.7008L147.979 42.616C148.17 43.1949 148.794 43.5096 149.371 43.3187C149.949 43.1278 150.262 42.5035 150.071 41.9246L145.931 29.3988C145.641 28.5204 146.117 27.5705 146.994 27.2808C147.87 26.9912 148.819 27.4699 149.109 28.3483L154.655 45.1281C154.877 45.7992 155.604 46.1659 156.276 45.9437C156.949 45.7214 157.311 44.9947 157.089 44.3236L150.323 23.8515C149.971 22.7859 150.549 21.6331 151.613 21.2816C152.676 20.9302 153.828 21.5113 154.18 22.5769L160.914 42.954C161.152 43.674 161.929 44.0659 162.647 43.8284C163.366 43.591 163.756 42.8135 163.518 42.0935L158.151 25.8552C157.814 24.8356 158.368 23.7326 159.385 23.3964C160.402 23.0601 161.504 23.6161 161.841 24.6357L165.8 36.6142C166.007 37.2392 166.684 37.5809 167.307 37.3748C167.931 37.1687 168.271 36.4908 168.065 35.8658L165.912 29.3538C165.664 28.602 166.071 27.7901 166.824 27.5413C167.574 27.2934 168.385 27.7026 168.634 28.4543L169.288 30.433L171.409 29.732L171.504 30.0201L169.096 30.816L168.346 28.5493C168.15 27.956 167.511 27.6336 166.919 27.8293C166.327 28.0249 166.005 28.6683 166.2 29.2588L168.352 35.7708C168.611 36.5542 168.184 37.4044 167.403 37.6628C166.621 37.9211 165.772 37.4926 165.513 36.7092L161.554 24.7306C161.269 23.8695 160.339 23.4004 159.48 23.6844C158.621 23.9684 158.154 24.899 158.439 25.7602L163.805 41.9985C164.096 42.8769 163.619 43.8268 162.743 44.1164C161.866 44.4061 160.917 43.9274 160.627 43.0489L153.892 22.6719C153.592 21.7646 152.613 21.2705 151.708 21.5697C150.803 21.8688 150.311 22.8493 150.611 23.7565L157.377 44.2286C157.654 45.0572 157.202 45.9572 156.372 46.2317Z" fill="#FEDEA5"/>
<path d="M113.55 -0.222687L112.668 -2.89259L110.804 -0.79735L113.55 -0.222687Z" fill="#263238"/>
<path d="M109.994 -2.07962L109.575 -1.94095L110.476 0.786552L110.896 0.647885L109.994 -2.07962Z" fill="#263238"/>
<path d="M118.063 -7.49692C116.103 -6.84917 115.044 -4.73217 115.692 -2.77079C116.341 -0.806524 118.456 0.258088 120.413 -0.388713C122.372 -1.03647 123.432 -3.15347 122.784 -5.11485C122.135 -7.07911 120.023 -8.14467 118.063 -7.49692ZM119.354 -1.90451L118.299 -1.55594L117.061 -5.30301L118.115 -5.65158L119.354 -1.90451ZM121.414 -2.5855L120.36 -2.23693L119.121 -5.98401L120.176 -6.33258L121.414 -2.5855Z" fill="#263238"/>
<path d="M157.868 12.7161C157.63 12.7949 157.373 12.6656 157.294 12.4265L156.004 8.5239C155.925 8.28484 156.054 8.02824 156.293 7.94941C156.531 7.87057 156.787 7.99991 156.866 8.23896L158.156 12.1416C158.234 12.3777 158.107 12.6372 157.868 12.7161Z" fill="#FFDB9D"/>
<path d="M156.286 12.6667C156.048 12.7455 155.791 12.6162 155.712 12.3772L154.763 9.50565C154.684 9.26659 154.813 9.00999 155.052 8.93116C155.29 8.85232 155.546 8.98166 155.625 9.22071L156.574 12.0922C156.653 12.3313 156.525 12.5879 156.286 12.6667Z" fill="#FFDB9D"/>
<path d="M154.876 13.1328C154.637 13.2117 154.381 13.0823 154.302 12.8433L153.353 9.97177C153.274 9.73272 153.402 9.47611 153.641 9.39728C153.879 9.31845 154.136 9.44778 154.215 9.68684L155.164 12.5584C155.243 12.7974 155.114 13.054 154.876 13.1328Z" fill="#FFDB9D"/>
<path d="M171.802 7.53894C171.563 7.61777 171.307 7.48844 171.228 7.24938L170.279 4.37787C170.2 4.13882 170.329 3.88221 170.567 3.80338C170.806 3.72455 171.062 3.85388 171.141 4.09293L172.09 6.96445C172.169 7.2035 172.04 7.46011 171.802 7.53894Z" fill="#FFDB9D"/>
<path d="M170.391 8.00505C170.152 8.08388 169.896 7.95455 169.817 7.71549L168.868 4.84398C168.789 4.60493 168.917 4.34832 169.156 4.26949C169.395 4.19066 169.651 4.31999 169.73 4.55905L170.679 7.43056C170.758 7.66961 170.629 7.92622 170.391 8.00505Z" fill="#FFDB9D"/>
<path d="M159.279 12.2494C159.041 12.3283 158.784 12.1989 158.705 11.9599L157.415 8.05727C157.336 7.81821 157.465 7.56161 157.704 7.48278C157.942 7.40394 158.199 7.53328 158.278 7.77233L159.567 11.6749C159.645 11.9111 159.515 12.1715 159.279 12.2494Z" fill="#FFDB9D"/>
<path d="M160.914 12.4695C160.675 12.5483 160.419 12.419 160.34 12.1799L158.596 6.90347C158.517 6.66442 158.646 6.40782 158.884 6.32898C159.123 6.25015 159.379 6.37949 159.458 6.61854L161.202 11.895C161.281 12.134 161.152 12.3906 160.914 12.4695Z" fill="#FFDB9D"/>
<path d="M162.683 13.0865C162.444 13.1654 162.188 13.036 162.109 12.797L159.65 5.35757C159.571 5.11852 159.7 4.86192 159.938 4.78308C160.177 4.70425 160.433 4.83359 160.512 5.07264L162.971 12.5121C163.049 12.7482 162.921 13.0077 162.683 13.0865Z" fill="#FFDB9D"/>
<path d="M169.153 8.9861C168.915 9.06494 168.659 8.9356 168.58 8.69655L167.29 4.79395C167.211 4.55489 167.339 4.29829 167.578 4.21946C167.816 4.14062 168.073 4.26996 168.152 4.50901L169.442 8.41161C169.52 8.64779 169.389 8.90822 169.153 8.9861Z" fill="#FFDB9D"/>
<path d="M167.742 9.45273C167.503 9.53156 167.247 9.40223 167.168 9.16318L165.878 5.26057C165.799 5.02152 165.928 4.76492 166.166 4.68609C166.405 4.60725 166.661 4.73659 166.74 4.97564L168.03 8.87824C168.108 9.11441 167.98 9.3739 167.742 9.45273Z" fill="#FFDB9D"/>
<path d="M166.557 10.6045C166.319 10.6833 166.063 10.554 165.984 10.3149L164.24 5.0385C164.161 4.79945 164.29 4.54284 164.528 4.46401C164.767 4.38518 165.023 4.51451 165.102 4.75356L166.846 10.03C166.925 10.2691 166.796 10.5257 166.557 10.6045Z" fill="#FFDB9D"/>
<path d="M165.504 12.1538C165.266 12.2326 165.01 12.1033 164.931 11.8643L162.472 4.42484C162.393 4.18578 162.522 3.92918 162.76 3.85035C162.999 3.77151 163.255 3.90085 163.334 4.1399L165.793 11.5793C165.871 11.8155 165.743 12.075 165.504 12.1538Z" fill="#FFDB9D"/>
<path d="M164.547 13.9936C164.309 14.0724 164.053 13.9431 163.974 13.704L160.606 3.51404C160.527 3.27499 160.656 3.01838 160.894 2.93955C161.133 2.86072 161.389 2.99005 161.468 3.2291L164.836 13.4191C164.915 13.6581 164.786 13.9147 164.547 13.9936Z" fill="#FFDB9D"/>
<path d="M78.431 28.0737C77.5539 26.6448 75.7832 25.9745 74.1681 26.5082C72.5416 27.0458 71.5113 28.6642 71.6833 30.3517C70.0917 31.1589 69.2955 33.0418 69.8657 34.767C70.4644 36.5786 72.313 37.6193 74.1691 37.188L74.001 36.4672C72.5213 36.8125 71.0447 35.9811 70.5669 34.5352C70.0871 33.0836 70.8177 31.494 72.227 30.9164L72.502 30.8032L72.4489 30.5076C72.1883 29.0826 73.0267 27.665 74.4004 27.211C75.7769 26.7561 77.2959 27.3977 77.9349 28.7041L78.0932 29.0287L78.4199 28.8792C78.5195 28.8335 78.6201 28.7907 78.7236 28.7565C80.2524 28.2512 81.9061 29.088 82.4115 30.6174C82.9179 32.1496 82.0848 33.8051 80.5589 34.3094L80.7911 35.0122C82.705 34.3796 83.7467 32.3038 83.1127 30.3856C82.474 28.4434 80.3536 27.3807 78.431 28.0737Z" fill="#4A5161"/>
<path d="M78.2144 31.2666C78.1783 31.1572 78.0913 31.0677 77.9803 31.0309C77.8694 30.9941 77.7477 31.012 77.6519 31.0788L74.3324 33.3899C74.1972 33.4825 74.1423 33.654 74.1937 33.8095L75.5902 38.0347C75.4542 38.0285 75.3125 38.0434 75.1774 38.088C74.5797 38.2856 74.2549 38.9328 74.4529 39.5319C74.6509 40.131 75.2974 40.4572 75.8952 40.2597C76.4613 40.0726 76.7764 39.4828 76.6425 38.9137L76.654 38.9099L75.5888 35.687L78.2795 33.8169L78.8964 35.6832C78.7633 35.6761 78.6254 35.6929 78.4904 35.7376C77.8926 35.9351 77.5678 36.5824 77.7658 37.1815C77.9638 37.7805 78.6103 38.1068 79.2081 37.9092C79.8058 37.7116 80.1306 37.0644 79.9326 36.4653C79.9307 36.4596 79.9259 36.4547 79.924 36.449L78.2116 31.2676L78.2144 31.2666ZM78.0358 33.0796L75.3461 34.9526L74.9777 33.8379L77.6684 31.9679L78.0358 33.0796Z" fill="#4A5161"/>
<path d="M107.975 15.0273C107.843 14.627 108.246 14.0145 108.07 13.6447C107.888 13.2672 107.158 13.2016 106.93 12.8585C106.7 12.5096 106.931 11.8103 106.663 11.4996C106.39 11.1842 105.667 11.3113 105.359 11.0361C105.047 10.7589 105.092 10.0253 104.747 9.79118C104.402 9.55703 103.739 9.8685 103.368 9.68126C102.997 9.49401 102.852 8.77523 102.459 8.63682C102.07 8.50035 101.505 8.97133 101.097 8.88563C100.693 8.80185 100.364 8.14386 99.9489 8.11183C99.5373 8.08174 99.1178 8.68362 98.7013 8.70625C98.2916 8.72987 97.8034 8.17877 97.3926 8.25705C96.9903 8.33248 96.7411 9.02506 96.3417 9.15708C95.9422 9.28909 95.3303 8.88433 94.9614 9.06057C94.5848 9.24253 94.5203 9.9731 94.1781 10.2012C93.8301 10.4312 93.1317 10.1988 92.822 10.4673C92.5075 10.7406 92.6354 11.465 92.361 11.773C92.0847 12.0847 91.3524 12.0392 91.1192 12.3847C90.8859 12.7301 91.1977 13.3938 91.0113 13.7653C90.8248 14.1368 90.1075 14.2812 89.9699 14.675C89.8342 15.0649 90.3051 15.6312 90.2201 16.0395C90.137 16.4439 89.4806 16.7727 89.4492 17.1888C89.4197 17.6011 90.021 18.0221 90.0442 18.4394C90.0683 18.8499 89.5188 19.3382 89.5975 19.7499C89.6762 20.152 90.365 20.4036 90.4973 20.8039C90.6296 21.2042 90.2264 21.8167 90.4028 22.1865C90.585 22.564 91.3143 22.6296 91.5425 22.9727C91.7725 23.3216 91.5415 24.021 91.8099 24.3316C92.0831 24.647 92.8061 24.5199 93.1138 24.7952C93.4254 25.0724 93.3809 25.8059 93.7261 26.04C94.0712 26.2742 94.7333 25.9627 95.1044 26.15C95.4755 26.3372 95.6206 27.056 96.0138 27.1944C96.4032 27.3309 96.9679 26.8599 97.3756 26.9456C97.7794 27.0294 98.1085 27.6874 98.5239 27.7194C98.9355 27.7495 99.3549 27.1476 99.7714 27.125C100.181 27.1013 100.669 27.6524 101.08 27.5742C101.481 27.4958 101.732 26.8062 102.131 26.6741C102.531 26.5421 103.142 26.9469 103.511 26.7706C103.888 26.5887 103.952 25.8581 104.295 25.63C104.643 25.4 105.341 25.6324 105.651 25.3639C105.965 25.0906 105.837 24.3662 106.112 24.0582C106.388 23.7465 107.12 23.792 107.354 23.4465C107.587 23.1011 107.275 22.4374 107.462 22.0659C107.648 21.6944 108.365 21.55 108.503 21.1562C108.639 20.7664 108.168 20.2 108.253 19.7917C108.336 19.3873 108.992 19.0585 109.024 18.6424C109.053 18.2301 108.452 17.8091 108.429 17.3918C108.404 16.9813 108.954 16.493 108.875 16.0813C108.798 15.6754 108.108 15.4277 107.975 15.0273Z" fill="#4A5161"/>
<path d="M101.18 27.7035C101.157 27.7111 101.133 27.7159 101.109 27.7206C100.839 27.7715 100.574 27.6258 100.319 27.4831C100.128 27.377 99.9331 27.2689 99.7827 27.2771C99.6267 27.2871 99.4407 27.4189 99.2605 27.5487C99.0266 27.7187 98.7812 27.8924 98.5132 27.8724C98.2413 27.8504 98.0225 27.6416 97.8152 27.4386C97.6594 27.2856 97.496 27.1287 97.3448 27.0956C97.1936 27.0626 96.9809 27.1424 96.774 27.2204C96.5019 27.3231 96.2212 27.4286 95.9648 27.3377C95.7085 27.2467 95.5529 26.9882 95.404 26.7403C95.2905 26.551 95.175 26.356 95.0373 26.2865C94.8995 26.217 94.6745 26.2402 94.4553 26.2616C94.1651 26.2904 93.8655 26.3191 93.6398 26.1669C93.4142 26.0146 93.3314 25.7257 93.2515 25.4454C93.1907 25.2323 93.1279 25.0135 93.0113 24.9114C92.8976 24.8084 92.6727 24.7741 92.4564 24.737C92.1693 24.6881 91.8697 24.6402 91.693 24.4334C91.5173 24.2295 91.5102 23.9284 91.5069 23.6387C91.5035 23.4162 91.4981 23.188 91.4132 23.0563C91.3301 22.9304 91.1235 22.8358 90.9284 22.7469C90.6616 22.6242 90.3851 22.5016 90.2669 22.2499C90.1515 22.0069 90.2219 21.7185 90.2923 21.4396C90.3454 21.224 90.4023 21.0007 90.3528 20.851C90.3033 20.7012 90.1246 20.5558 89.9535 20.4143C89.7308 20.2323 89.4985 20.0407 89.4502 19.7787C89.399 19.5081 89.544 19.243 89.6862 18.9883C89.7919 18.7968 89.8994 18.6015 89.8911 18.451C89.8809 18.2946 89.7491 18.1081 89.6202 17.9303C89.4502 17.6957 89.2765 17.4497 89.2961 17.1812C89.3177 16.9089 89.5259 16.69 89.7282 16.4825C89.8807 16.3267 90.0371 16.1632 90.0699 16.0118C90.1028 15.8603 90.0227 15.6472 89.9446 15.4398C89.8418 15.1671 89.736 14.8857 89.8265 14.629C89.917 14.3723 90.1748 14.2168 90.422 14.068C90.6109 13.9545 90.8054 13.839 90.8746 13.7012C90.9438 13.5633 90.9203 13.3378 90.8987 13.1182C90.8695 12.8275 90.8404 12.5272 90.9931 12.3042C91.1447 12.0784 91.433 11.9959 91.7127 11.9162C91.9254 11.8555 92.1438 11.793 92.2455 11.6763C92.3481 11.5625 92.382 11.3372 92.4188 11.1206C92.4672 10.833 92.5147 10.533 92.7208 10.3563C92.9241 10.1805 93.2247 10.1738 93.5139 10.1708C93.736 10.1677 93.9638 10.1627 94.0951 10.0778C94.2207 9.99474 94.3149 9.7879 94.4033 9.59254C94.5254 9.32536 94.6475 9.0486 94.8957 8.93144C95.1381 8.81617 95.4261 8.88711 95.7046 8.95801C95.9199 9.01145 96.1428 9.06875 96.2922 9.01936C96.4417 8.96998 96.5866 8.7911 96.7276 8.61989C96.909 8.39702 97.0999 8.16459 97.3614 8.11652C97.6314 8.0656 97.8963 8.21127 98.1536 8.35307C98.3448 8.45918 98.5399 8.56722 98.6902 8.55908C98.8463 8.54903 99.0323 8.41728 99.2096 8.28838C99.4435 8.11843 99.6889 7.94467 99.9569 7.96471C100.229 7.98669 100.448 8.1955 100.655 8.39853C100.811 8.55151 100.974 8.70836 101.125 8.74145C101.277 8.77455 101.492 8.69372 101.696 8.6167C101.968 8.514 102.249 8.40845 102.505 8.49942C102.762 8.5904 102.917 8.84887 103.067 9.09966C103.181 9.28896 103.296 9.48401 103.434 9.55351C103.572 9.623 103.797 9.59975 104.016 9.57839C104.306 9.5496 104.606 9.52083 104.831 9.67309C105.057 9.82534 105.14 10.1143 105.22 10.3946C105.28 10.6077 105.343 10.8265 105.46 10.9286C105.573 11.0315 105.798 11.0658 106.015 11.103C106.302 11.1518 106.601 11.1998 106.778 11.4066C106.954 11.6104 106.961 11.9116 106.964 12.2012C106.968 12.4237 106.973 12.652 107.058 12.7837C107.141 12.9096 107.348 13.0042 107.543 13.0931C107.81 13.2157 108.086 13.3384 108.203 13.5872C108.319 13.8302 108.248 14.1186 108.178 14.3975C108.125 14.6131 108.068 14.8364 108.117 14.9861C108.167 15.1359 108.346 15.2813 108.517 15.4228C108.739 15.6048 108.972 15.7964 109.02 16.0584C109.071 16.329 108.926 16.5941 108.785 16.8517C108.679 17.0431 108.569 17.2394 108.58 17.389C108.59 17.5454 108.722 17.7319 108.852 17.9126C109.022 18.1471 109.196 18.3932 109.176 18.6617C109.154 18.9339 108.946 19.1529 108.744 19.3604C108.591 19.5162 108.435 19.6797 108.402 19.8311C108.369 19.9825 108.449 20.1957 108.527 20.4031C108.63 20.6758 108.736 20.9571 108.646 21.2138C108.555 21.4706 108.297 21.6261 108.047 21.7758C107.858 21.8893 107.664 22.0048 107.595 22.1426C107.525 22.2805 107.549 22.506 107.57 22.7256C107.6 23.0163 107.629 23.3166 107.477 23.5424C107.324 23.7654 107.037 23.8508 106.757 23.9304C106.545 23.9911 106.326 24.0537 106.225 24.1704C106.122 24.2842 106.088 24.5095 106.051 24.7261C106.003 25.0136 105.955 25.3137 105.749 25.4904C105.546 25.6662 105.245 25.6729 104.956 25.6758C104.734 25.679 104.509 25.683 104.375 25.7689C104.249 25.8519 104.155 26.0588 104.067 26.2541C103.945 26.5213 103.823 26.7981 103.572 26.9162C103.333 27.0334 103.041 26.9605 102.763 26.8896C102.547 26.8362 102.324 26.7789 102.175 26.8283C102.026 26.8777 101.881 27.0565 101.74 27.2277C101.576 27.419 101.407 27.6285 101.18 27.7035ZM99.5822 27.0079C99.6397 26.9889 99.6991 26.9757 99.7613 26.9711C99.9987 26.9565 100.237 27.0886 100.464 27.215C100.671 27.3317 100.889 27.4513 101.051 27.4202C101.206 27.3881 101.359 27.2035 101.508 27.0199C101.676 26.8142 101.852 26.6028 102.085 26.5259C102.317 26.449 102.585 26.517 102.842 26.5792C103.068 26.6355 103.304 26.6948 103.448 26.6281C103.596 26.5566 103.697 26.3316 103.797 26.1133C103.904 25.8767 104.016 25.6287 104.216 25.4989C104.42 25.3643 104.693 25.3604 104.956 25.3565C105.19 25.3524 105.435 25.3484 105.556 25.2443C105.68 25.1363 105.721 24.8929 105.758 24.6599C105.8 24.4002 105.843 24.1337 106.003 23.953C106.163 23.7722 106.425 23.6954 106.678 23.6243C106.905 23.5588 107.141 23.4905 107.231 23.3585C107.324 23.2226 107.297 22.9789 107.274 22.7439C107.247 22.481 107.222 22.2114 107.329 21.9941C107.435 21.7767 107.67 21.6384 107.896 21.503C108.099 21.3818 108.308 21.255 108.363 21.1026C108.415 20.9513 108.33 20.7208 108.247 20.499C108.152 20.2523 108.058 19.9959 108.107 19.7592C108.157 19.5225 108.345 19.3293 108.528 19.141C108.695 18.9708 108.865 18.793 108.875 18.63C108.886 18.4699 108.744 18.2709 108.607 18.0796C108.454 17.8653 108.294 17.6432 108.28 17.3986C108.265 17.1607 108.397 16.9223 108.523 16.6955C108.639 16.4877 108.758 16.2695 108.727 16.1073C108.698 15.9509 108.51 15.7987 108.327 15.6485C108.121 15.48 107.91 15.3039 107.833 15.0706C107.756 14.8373 107.823 14.569 107.885 14.3121C107.941 14.086 108 13.8493 107.933 13.7052C107.862 13.5564 107.637 13.4549 107.419 13.3545C107.182 13.2473 106.935 13.1343 106.805 12.9344C106.67 12.7297 106.666 12.4563 106.662 12.1926C106.657 11.9576 106.653 11.713 106.549 11.5909C106.441 11.4669 106.198 11.4258 105.965 11.3876C105.706 11.3456 105.44 11.3025 105.259 11.1418C105.079 10.981 105.002 10.719 104.93 10.4646C104.865 10.2371 104.796 10.001 104.664 9.91039C104.529 9.82076 104.285 9.84395 104.051 9.86717C103.788 9.89318 103.519 9.91821 103.302 9.81106C103.088 9.70296 102.947 9.4685 102.811 9.24174C102.69 9.03899 102.563 8.82855 102.411 8.7734C102.26 8.72113 102.03 8.8067 101.809 8.88942C101.561 8.98069 101.307 9.0777 101.07 9.02802C100.834 8.97835 100.641 8.78976 100.453 8.60598C100.282 8.43856 100.105 8.26729 99.942 8.25717C99.7822 8.24611 99.5837 8.38836 99.393 8.52489C99.1792 8.67861 98.9578 8.83805 98.7136 8.85165C98.4762 8.86623 98.2381 8.73408 98.0114 8.60772C97.8039 8.49101 97.5858 8.37139 97.424 8.40251C97.2679 8.43174 97.1163 8.61922 96.9666 8.80288C96.7987 9.00853 96.6241 9.22279 96.3913 9.29972C96.1585 9.37665 95.8906 9.30866 95.6332 9.24358C95.4074 9.18722 95.171 9.12796 95.0273 9.19463C94.8788 9.26608 94.7778 9.49113 94.6779 9.70946C94.5712 9.946 94.4587 10.194 94.2593 10.3238C94.0552 10.4584 93.7823 10.4623 93.519 10.4662C93.2845 10.4703 93.0404 10.4743 92.9186 10.5784C92.7949 10.6864 92.7542 10.9299 92.7165 11.1628C92.6748 11.4226 92.6322 11.689 92.472 11.8698C92.3118 12.0505 92.0493 12.1245 91.7964 12.1985C91.5694 12.2639 91.3338 12.3322 91.2436 12.4643C91.1543 12.5992 91.1778 12.8438 91.2013 13.0789C91.2276 13.3417 91.2529 13.6113 91.1462 13.8286C91.0396 14.046 90.8048 14.1843 90.5786 14.3198C90.3764 14.4409 90.1665 14.5678 90.1116 14.7201C90.0596 14.8714 90.1454 15.1019 90.2282 15.3237C90.3197 15.5714 90.4168 15.8268 90.3676 16.0635C90.3183 16.3003 90.1303 16.4934 89.9471 16.6817C89.7802 16.8519 89.6095 17.0297 89.5996 17.1927C89.5887 17.3529 89.731 17.5518 89.8675 17.7431C90.0213 17.9575 90.1807 18.1795 90.1946 18.4241C90.2095 18.662 90.0779 18.9004 89.9521 19.1273C89.8358 19.335 89.7167 19.5533 89.748 19.7155C89.7774 19.8719 89.9647 20.024 90.1483 20.1742C90.3538 20.3427 90.565 20.5189 90.6421 20.7522C90.7192 20.9855 90.6517 21.2538 90.5899 21.5106C90.534 21.7367 90.4751 21.9734 90.5419 22.1175C90.6134 22.2664 90.8391 22.3707 91.0563 22.4682C91.2925 22.5755 91.5403 22.6885 91.6701 22.8884C91.8047 23.0931 91.8089 23.3664 91.8132 23.6301C91.8176 23.8651 91.8219 24.1097 91.926 24.2318C92.034 24.3559 92.277 24.3969 92.5096 24.4351C92.769 24.4772 93.035 24.5202 93.2156 24.681C93.3963 24.8417 93.4733 25.1038 93.5446 25.3581C93.6103 25.5856 93.6788 25.8218 93.8107 25.9123C93.9465 26.0048 94.1897 25.9788 94.4243 25.9556C94.6866 25.9295 94.9557 25.9045 95.1728 26.0117C95.3899 26.1188 95.5282 26.3542 95.6638 26.581C95.785 26.7837 95.9119 26.9942 96.064 27.0493C96.2152 27.1016 96.4451 27.016 96.6664 26.9333C96.9126 26.8392 97.1684 26.745 97.4047 26.7947C97.6411 26.8444 97.8341 27.033 98.0224 27.2167C98.1924 27.3842 98.3702 27.5554 98.5329 27.5656C98.6928 27.5766 98.8883 27.4353 99.082 27.2978C99.242 27.1842 99.4069 27.0658 99.5822 27.0079Z" fill="#4A5161"/>
<path d="M95.3566 22.3147C95.2474 22.3508 95.1201 22.3226 95.038 22.2283C94.6654 21.8148 94.3408 21.3534 94.0746 20.8567C92.4396 17.7902 93.3962 14.078 96.203 12.5785C99.0098 11.079 102.622 12.3546 104.257 15.4211C104.351 15.5979 104.439 15.7794 104.516 15.9619C104.582 16.1155 104.51 16.2927 104.357 16.3593C104.2 16.4241 104.027 16.3535 103.96 16.1998C103.89 16.0346 103.809 15.8694 103.724 15.7061C102.247 12.9355 99.0028 11.7714 96.4882 13.1136C93.9766 14.4549 93.1317 17.8011 94.6084 20.5717C94.8507 21.0251 95.1467 21.448 95.4839 21.8222C95.5957 21.9482 95.5886 22.139 95.463 22.2508C95.4352 22.2824 95.3968 22.3014 95.3566 22.3147Z" fill="white"/>
<path d="M95.4045 22.459C95.235 22.515 95.0465 22.4655 94.9261 22.3328C94.544 21.9096 94.2127 21.4376 93.9427 20.9294C93.1357 19.4135 92.9149 17.6942 93.3296 16.094C93.7423 14.4879 94.7385 13.1907 96.1347 12.4481C97.5299 11.7026 99.1585 11.5957 100.722 12.1493C102.281 12.7009 103.585 13.8387 104.392 15.3547C104.486 15.5343 104.577 15.7216 104.657 15.906C104.755 16.1355 104.649 16.4037 104.417 16.5027C104.18 16.6036 103.921 16.4944 103.821 16.262C103.753 16.1026 103.677 15.9393 103.593 15.7817C102.157 13.087 99.0018 11.951 96.563 13.2522C94.1242 14.5534 93.3091 17.8067 94.7458 20.5043C94.9823 20.95 95.2707 21.3595 95.6022 21.726C95.7693 21.9135 95.7554 22.1993 95.5722 22.3684C95.5214 22.4076 95.4649 22.439 95.4045 22.459ZM97.0912 12.362C96.8124 12.4541 96.5384 12.5703 96.2758 12.7113C94.9563 13.4158 94.0139 14.6442 93.6214 16.1668C93.2279 17.6962 93.4383 19.3358 94.2101 20.7836C94.4696 21.2697 94.7856 21.7243 95.1515 22.1273C95.2059 22.186 95.3045 22.1949 95.3649 22.1366C95.4263 22.0812 95.4322 21.9834 95.374 21.9228C95.0272 21.539 94.7245 21.1055 94.4755 20.6415C92.9587 17.7979 93.8306 14.3597 96.4151 12.9784C99.0005 11.6 102.339 12.7903 103.853 15.6349C103.943 15.8001 104.022 15.972 104.094 16.1401C104.126 16.2188 104.213 16.2508 104.295 16.2203C104.332 16.2051 104.361 16.1764 104.373 16.1372C104.389 16.0998 104.389 16.0586 104.373 16.0221C104.299 15.8454 104.211 15.6667 104.12 15.4957C103.347 14.0451 102.102 12.9583 100.615 12.4338C99.4334 12.0128 98.2091 11.9925 97.0912 12.362Z" fill="#263238"/>
<path d="M128.329 57.4C128.329 57.4 139.057 50.6724 141.553 46.0138C141.553 46.0138 142.307 51.8347 145.175 54.0813C148.044 56.328 158.207 61.4224 160.056 62.514C161.906 63.6056 165.608 66.3881 166.341 66.0404C167.077 65.6918 168.041 61.5394 168.393 60.3562C168.746 59.1758 169.711 58.1796 169.364 56.4858C169.017 54.7891 168.026 55.0113 167.803 55.6186C167.579 56.2259 166.095 58.3808 164.978 59.1752C163.86 59.9695 162.661 60.8642 162.661 60.8642C162.661 60.8642 158.278 57.7314 154.392 53.69C150.507 49.6486 145.135 41.4211 143.767 39.8477C142.397 38.2782 141.058 38.082 139.621 38.5569C138.184 39.0318 133.586 40.5515 126.713 46.7621C119.84 52.9727 121.27 56.3339 122.45 57.3303C123.629 58.3305 125.895 58.754 128.329 57.4Z" fill="#4592D0"/>
<path d="M166.365 66.1986C165.767 66.3961 164.195 65.4013 161.886 63.8739C161.176 63.4026 160.502 62.9574 159.98 62.6507C159.458 62.3441 158.271 61.714 156.768 60.917C152.939 58.8888 147.151 55.8243 145.086 54.2065C142.626 52.2815 141.709 47.8756 141.47 46.4689C138.649 51.0785 128.836 57.2643 128.411 57.5325C128.408 57.5334 128.405 57.5344 128.403 57.5382C125.922 58.9141 123.578 58.4875 122.354 57.4545C122.049 57.1974 121.339 56.4481 121.313 55.0382C121.285 53.4279 122.182 50.665 126.614 46.6571C133.511 40.4225 138.075 38.9143 139.575 38.4185C141.239 37.8686 142.61 38.294 143.883 39.7549C144.344 40.2829 145.243 41.5449 146.383 43.1425C148.718 46.4184 151.918 50.9007 154.503 53.5923C158.031 57.2633 162.018 60.2137 162.661 60.6818C162.96 60.4584 163.959 59.7193 164.89 59.0567C165.987 58.2758 167.453 56.1332 167.662 55.569C167.79 55.2232 168.115 55.0008 168.455 55.0259C168.69 55.0439 169.261 55.2193 169.515 56.4611C169.769 57.7001 169.359 58.5638 168.961 59.3949C168.798 59.7397 168.643 60.0624 168.54 60.4063C168.474 60.6296 168.383 60.963 168.277 61.3559C167.639 63.736 167.013 65.8947 166.407 66.1814C166.393 66.1891 166.379 66.1938 166.365 66.1986ZM141.506 45.8725C141.529 45.8649 141.557 45.8621 141.581 45.867C141.645 45.8778 141.694 45.9316 141.703 45.9959C141.71 46.0544 142.484 51.7823 145.267 53.9644C147.311 55.5668 153.084 58.6236 156.905 60.648C158.413 61.4469 159.606 62.0779 160.133 62.3894C160.66 62.7009 161.337 63.148 162.051 63.6212C163.556 64.6158 165.835 66.1182 166.278 65.9077C166.81 65.6553 167.604 62.6963 167.986 61.2763C168.094 60.8796 168.184 60.5433 168.25 60.32C168.359 59.955 168.527 59.6055 168.687 59.2684C169.064 58.4794 169.451 57.6645 169.218 56.5244C169.069 55.8037 168.775 55.3578 168.431 55.3308C168.228 55.3148 168.027 55.458 167.946 55.6764C167.722 56.2808 166.226 58.4779 165.068 59.3047C163.964 60.0914 162.766 60.9823 162.754 60.9928C162.7 61.033 162.63 61.0337 162.576 60.9942C162.531 60.9643 158.137 57.8065 154.286 53.8017C151.683 51.0965 148.479 46.5999 146.136 43.3201C145.001 41.7302 144.105 40.4739 143.653 39.9555C142.452 38.5793 141.225 38.1927 139.667 38.7075C138.181 39.1985 133.664 40.6916 126.813 46.8821C122.463 50.8116 121.583 53.4826 121.611 55.0325C121.633 56.3157 122.271 56.99 122.545 57.222C123.69 58.1886 125.894 58.5783 128.249 57.273C128.491 57.1194 138.983 50.4888 141.419 45.9461C141.439 45.9107 141.472 45.8839 141.506 45.8725ZM128.33 57.4027L128.333 57.4018L128.33 57.4027Z" fill="#263238"/>
<path d="M169.366 56.4882C169.019 54.7915 168.028 55.0137 167.805 55.621C167.581 56.2283 166.097 58.3833 164.979 59.1776C163.862 59.9719 162.662 60.8667 162.662 60.8667C162.662 60.8667 159.248 58.4264 155.776 55.0759C155.281 57.0125 154.247 58.2617 153.45 58.9755C156.416 60.5704 159.179 61.9957 160.058 62.5164C161.908 63.608 165.61 66.3906 166.343 66.0429C167.079 65.6942 168.043 61.5419 168.395 60.3586C168.75 59.1773 169.716 58.1839 169.366 56.4882Z" fill="#FEDEA5"/>
<path d="M166.365 66.1983C165.767 66.3958 164.195 65.401 161.886 63.8735C161.176 63.4023 160.503 62.9571 159.981 62.6504C159.458 62.3438 158.268 61.7118 156.761 60.9128C155.74 60.3715 154.574 59.7569 153.379 59.1105C153.336 59.0864 153.306 59.045 153.3 58.9961C153.293 58.9472 153.312 58.8993 153.349 58.8649C154.118 58.173 155.141 56.9497 155.629 55.0409C155.644 54.9882 155.685 54.949 155.734 54.9329C155.787 54.9186 155.842 54.9322 155.88 54.9707C158.997 57.9758 162.099 60.2731 162.658 60.6825C162.957 60.459 163.956 59.7199 164.888 59.0574C165.984 58.2764 167.45 56.1339 167.659 55.5697C167.787 55.2239 168.112 55.0015 168.452 55.0265C168.687 55.0445 169.259 55.22 169.513 56.4618C169.766 57.7007 169.357 58.5644 168.959 59.3956C168.795 59.7403 168.641 60.063 168.537 60.407C168.471 60.6302 168.38 60.9636 168.274 61.3565C167.636 63.7367 167.011 65.8954 166.404 66.1821C166.394 66.1888 166.379 66.1935 166.365 66.1983ZM153.709 58.9437C154.841 59.5506 155.935 60.1314 156.904 60.6419C158.415 61.4427 159.608 62.0738 160.135 62.3852C160.662 62.6967 161.339 63.1439 162.053 63.6171C163.558 64.6116 165.837 66.1141 166.28 65.9036C166.812 65.6511 167.606 62.6922 167.988 61.2721C168.096 60.8755 168.186 60.5391 168.252 60.3159C168.361 59.9509 168.529 59.6013 168.689 59.2643C169.066 58.4753 169.453 57.6604 169.22 56.5203C169.071 55.7996 168.777 55.3536 168.433 55.3266C168.23 55.3106 168.029 55.4538 167.948 55.6722C167.724 56.2767 166.228 58.4738 165.07 59.3006C163.966 60.0873 162.769 60.9782 162.756 60.9887C162.702 61.0288 162.633 61.0295 162.578 60.99C162.545 60.966 159.239 58.5923 155.86 55.361C155.36 57.0818 154.452 58.2383 153.709 58.9437Z" fill="#263238"/>
<path d="M101.539 25.547C101.539 25.547 103.66 27.7308 104.08 28.5281C104.499 29.3255 103.679 30.1428 102.766 30.6779C101.853 31.213 100.124 31.1614 99.1614 33.4283C98.1988 35.6952 96.9442 44.6111 96.776 45.9925C96.6107 47.373 97.4966 48.1728 98.9465 47.3805C100.396 46.5882 102.722 39.7367 102.722 39.7367C102.722 39.7367 109.912 44.3028 110.985 45.4273C112.059 46.5548 112.589 48.8744 113.219 51.2414C113.845 53.6094 114.609 57.0979 117.619 59.1446C120.629 61.1912 125.305 60.5052 128.326 57.3981C131.345 54.2948 133.119 46.4374 130.481 44.3479C127.844 42.2544 123.468 42.2375 121.439 40.1C119.41 37.9625 119.361 36.426 118.501 33.8252C117.642 31.2244 115.959 28.0619 115.959 28.0619C115.959 28.0619 121.518 24.6273 128.193 21.3574C130.513 20.2198 128.081 17.963 126.493 17.8649C124.501 17.7405 116.981 21.1333 114.791 21.6336C111.629 22.359 110.276 23.5122 109.738 24.2365C109.199 24.9607 108.521 25.9645 107.725 26.1509C106.929 26.3373 104.834 22.8157 104.834 22.8157C104.834 22.8157 103.361 25.1778 101.539 25.547Z" fill="#F37630"/>
<path d="M124.478 59.9822C122.067 60.7791 119.473 60.5885 117.536 59.2703C114.645 57.3056 113.799 54.0585 113.18 51.6848L112.912 50.6616C112.357 48.5384 111.83 46.5305 110.879 45.5319C109.92 44.5228 103.878 40.651 102.807 39.9666C102.418 41.0855 100.388 46.766 99.0213 47.5116C98.2997 47.9034 97.6486 47.9493 97.1916 47.6371C96.7432 47.3316 96.5366 46.7258 96.628 45.9704C96.7729 44.7596 98.0403 35.6798 99.022 33.3649C99.7673 31.6075 100.948 31.198 101.895 30.8692C102.193 30.7675 102.47 30.6697 102.689 30.5428C103.097 30.3025 104.395 29.455 103.945 28.5943C103.541 27.8267 101.451 25.6679 101.428 25.6468C101.39 25.6083 101.376 25.5488 101.391 25.4961C101.408 25.4424 101.449 25.4032 101.506 25.3909C103.244 25.0369 104.692 22.7533 104.707 22.7323C104.734 22.6882 104.786 22.6616 104.837 22.6608C104.889 22.6628 104.938 22.6879 104.966 22.7331C105.968 24.4146 107.263 26.0952 107.693 25.9978C108.365 25.8427 108.983 25.0026 109.481 24.33L109.62 24.1406C110.117 23.4747 111.443 22.2409 114.759 21.4805C115.58 21.2923 117.211 20.6732 118.938 20.0161C121.89 18.8968 125.235 17.6282 126.504 17.7042C127.571 17.77 129.059 18.7827 129.275 19.8681C129.368 20.3325 129.267 20.992 128.26 21.4846C122.202 24.4515 117.006 27.5938 116.159 28.1099C116.481 28.7257 117.888 31.4779 118.645 33.7705C118.834 34.3407 118.98 34.8514 119.124 35.3438C119.626 37.0851 119.988 38.3455 121.552 39.9886C122.583 41.0756 124.242 41.6007 125.998 42.1578C127.619 42.6732 129.292 43.2032 130.576 44.2229C131.344 44.8315 131.802 45.9455 131.899 47.4438C132.115 50.8001 130.563 55.3131 128.435 57.4986C127.308 58.6698 125.926 59.5035 124.478 59.9822ZM102.678 39.5941C102.721 39.5798 102.768 39.5867 102.807 39.6089C103.102 39.7959 110.023 44.198 111.097 45.3255C112.103 46.3827 112.638 48.4262 113.204 50.5906L113.472 51.6138C114.078 53.9404 114.91 57.1223 117.706 59.0225C120.687 61.0499 125.306 60.2898 128.219 57.2984C130.261 55.2018 131.806 50.7042 131.597 47.4764C131.504 46.0663 131.087 45.0282 130.388 44.4736C129.148 43.4904 127.5 42.9682 125.907 42.4625C124.113 41.8928 122.417 41.3541 121.332 40.2113C119.719 38.5144 119.328 37.158 118.834 35.4398C118.691 34.9502 118.545 34.4424 118.359 33.8779C117.513 31.3175 115.844 28.1693 115.828 28.1396C115.792 28.0685 115.814 27.9813 115.883 27.9393C115.939 27.905 121.524 24.4647 128.13 21.2272C128.8 20.9004 129.087 20.4668 128.984 19.9419C128.795 18.9948 127.431 18.0812 126.491 18.0216C125.286 17.9468 121.828 19.2591 119.05 20.3147C117.237 21.0032 115.671 21.5975 114.829 21.7895C111.605 22.5291 110.336 23.7027 109.862 24.3351L109.723 24.5216C109.197 25.2354 108.544 26.1223 107.762 26.3039C106.978 26.4865 105.373 23.9946 104.83 23.1038C104.444 23.6626 103.279 25.201 101.825 25.6336C102.353 26.1877 103.856 27.7836 104.21 28.4618C104.599 29.2025 104.089 30.0803 102.839 30.8128C102.595 30.9539 102.301 31.0575 101.993 31.1659C101.1 31.4737 99.9908 31.8595 99.2975 33.4943C98.3282 35.7795 97.0705 44.8114 96.9237 46.0164C96.8469 46.652 97.0039 47.156 97.3567 47.394C97.7181 47.6388 98.2562 47.5887 98.8724 47.2541C99.9802 46.6515 101.779 42.0444 102.577 39.6945C102.598 39.6427 102.632 39.6093 102.678 39.5941Z" fill="#263238"/>
<path d="M118.088 20.5081C117.892 20.5822 117.7 20.6555 117.512 20.7239C117.875 21.9584 118.698 23.9165 120.462 25.4355C120.645 25.3335 120.836 25.2257 121.026 25.118C119.258 23.6737 118.44 21.7013 118.088 20.5081Z" fill="#263238"/>
<path d="M120.644 39.1512C120.518 38.9849 120.403 38.8186 120.298 38.6552C116.27 41.06 113.524 45.0982 112.145 47.5125C112.236 47.7602 112.321 48.0165 112.407 48.2853C113.645 46.0135 116.431 41.6455 120.644 39.1512Z" fill="#263238"/>
<path d="M110.167 44.7385C110.354 44.881 110.522 45.0139 110.659 45.1285C111.532 43.4184 113.918 39.5948 119.16 36.0028C119.1 35.8022 119.04 35.592 118.98 35.3818C113.582 39.0125 111.116 42.8848 110.167 44.7385Z" fill="#263238"/>
<path d="M102.721 36.551C103.716 36.0977 108.388 33.7229 114.01 26.7372C114.933 27.6493 115.712 28.2512 115.781 28.3051C115.862 28.3677 115.97 28.3834 116.062 28.353C116.076 28.3483 116.092 28.3397 116.106 28.3321C116.018 28.163 115.966 28.065 115.966 28.065C115.966 28.065 116.056 28.0097 116.223 27.9066C116.203 27.8749 116.181 27.847 116.151 27.822C116.116 27.795 112.874 25.295 111.767 22.68C111.576 22.7752 111.394 22.8734 111.232 22.9717C111.455 23.4797 111.745 23.9813 112.074 24.4571C107.975 30.1885 102.904 32.7625 101.51 33.389C101.119 32.6877 100.725 32.1407 100.414 31.758C100.258 31.8765 100.105 32.0102 99.9571 32.1709C100.224 32.5074 100.562 32.9803 100.903 33.577C100.426 33.281 99.9008 33.0904 99.3879 32.966C99.311 33.1096 99.2332 33.2599 99.1639 33.4266C99.1495 33.4601 99.136 33.4965 99.1216 33.53C100.078 33.7412 101.088 34.2029 101.657 35.1743C101.857 35.6928 102.033 36.264 102.165 36.8849C101.502 36.2287 100.332 35.4174 98.583 35.3821C98.5376 35.5728 98.4923 35.7731 98.4479 35.9762C101.103 35.955 102.248 37.896 102.314 38.0113C102.328 38.0324 102.343 38.0497 102.361 38.0661C102.398 38.399 102.421 38.7395 102.427 39.0953C101.659 38.5347 100.08 37.6444 98.0633 37.8604C98.0256 38.0646 97.985 38.2697 97.9482 38.4767C100.315 38.1257 102.017 39.493 102.422 39.8606C102.416 40.1215 102.413 40.3746 102.41 40.6249C102.609 40.0799 102.727 39.7312 102.727 39.7312C102.727 39.7312 102.836 39.8006 103.025 39.9201C103.027 39.8587 103.027 39.8012 103.029 39.7398C103.066 38.568 102.94 37.5012 102.721 36.551ZM112.443 24.9742C112.807 25.4511 113.197 25.8973 113.582 26.3004C108.239 32.9542 103.676 35.4176 102.564 35.9511C102.485 35.6737 102.398 35.4087 102.307 35.1543C102.305 35.1169 102.294 35.0756 102.276 35.0401C102.268 35.0266 102.261 35.0132 102.252 34.9968C102.106 34.6137 101.95 34.2565 101.788 33.9299C103.278 33.249 108.326 30.6509 112.443 24.9742Z" fill="#263238"/>
<path d="M122.964 41.1857C122.76 41.0805 122.565 40.9724 122.379 40.852C117.851 43.9331 114.843 48.0866 113.147 50.9602C113.172 51.0542 113.197 51.1483 113.222 51.2424C113.267 51.419 113.316 51.6042 113.364 51.7895C114.985 48.9281 118.094 44.4086 122.964 41.1857Z" fill="#263238"/>
<path d="M118.295 33.2216C118.227 33.0334 118.154 32.8433 118.082 32.6532C110.837 35.482 108.454 40.4709 107.688 42.9859C107.865 43.1063 108.038 43.2248 108.21 43.3405C108.865 41.0313 111.075 36.0457 118.295 33.2216Z" fill="#263238"/>
<path d="M121.872 19.0909C121.675 19.1622 121.479 19.2335 121.28 19.3058C121.515 20.5859 122.075 22.2727 123.368 23.8391C123.549 23.7409 123.734 23.6446 123.921 23.5445C122.63 22.0127 122.092 20.3278 121.872 19.0909Z" fill="#263238"/>
<path d="M114.027 21.831C114.723 23.2238 115.953 25.2868 117.777 26.9777C117.951 26.8756 118.135 26.7669 118.327 26.6553C116.56 25.0605 115.339 23.0522 114.631 21.6727C114.425 21.7248 114.222 21.776 114.027 21.831Z" fill="#263238"/>
<path d="M117.006 30.1686C116.916 29.9746 116.827 29.7931 116.744 29.6192C108.726 33.3874 105.707 38.3243 104.621 40.9581C104.792 41.0709 104.97 41.1846 105.153 41.3061C106.182 38.8159 109.122 33.8892 117.006 30.1686Z" fill="#263238"/>
<path d="M128.33 57.3999C130.828 54.833 132.471 49.0121 131.47 45.8959C131.256 45.315 130.944 44.8335 130.523 44.4965C130.168 44.2115 129.782 43.9235 129.38 43.6316C128.085 42.9351 126.57 42.5188 125.154 42.0539C119.606 46.5425 116.12 53.0364 114.663 55.5942C115.305 56.9188 116.216 58.1895 117.623 59.1464C120.632 61.193 125.308 60.507 128.33 57.3999Z" fill="#4592D0"/>
<path d="M124.478 59.9824C122.067 60.7792 119.473 60.5887 117.536 59.2705C116.27 58.411 115.283 57.2291 114.525 55.6587C114.504 55.6145 114.505 55.5598 114.529 55.5168L114.801 55.0372C116.426 52.1615 119.805 46.1823 125.057 41.9353C125.098 41.9028 125.148 41.8925 125.199 41.9108C125.46 41.997 125.723 42.0794 125.99 42.1637C127.166 42.5386 128.384 42.9252 129.45 43.4992C129.911 43.8325 130.288 44.1138 130.615 44.3795C131.04 44.7214 131.375 45.2144 131.608 45.8433C132.615 48.9768 131.011 54.8582 128.435 57.5083C127.308 58.6699 125.926 59.5037 124.478 59.9824ZM114.833 55.5983C115.563 57.0824 116.504 58.2026 117.707 59.0188C120.688 61.0462 125.308 60.2862 128.221 57.2947C130.736 54.7096 132.301 48.9816 131.325 45.9402C131.113 45.368 130.81 44.922 130.428 44.6139C130.103 44.3539 129.733 44.0736 129.292 43.7529C128.265 43.201 127.064 42.8183 125.9 42.4492C125.66 42.3717 125.422 42.2971 125.186 42.2186C120.016 46.4256 116.675 52.3378 115.069 55.1819L114.833 55.5983Z" fill="#4592D0"/>
<path d="M95.3745 21.1332C95.2529 21.1798 95.1398 21.2427 95.0362 21.3248C94.1964 21.9762 94.2854 23.4994 95.2366 24.7281C96.1849 25.9578 97.6344 26.4276 98.4752 25.7791C98.6525 25.6406 98.7859 25.4655 98.8811 25.2616L95.3745 21.1332Z" fill="white"/>
<path d="M98.1127 26.1392C97.742 26.2618 97.3084 26.2517 96.8482 26.1035C96.2091 25.8962 95.5934 25.4416 95.114 24.8205C94.6356 24.2023 94.3526 23.4908 94.3117 22.8174C94.2699 22.122 94.495 21.5492 94.9418 21.2035C95.0559 21.1146 95.1824 21.0441 95.3184 20.9927C95.3788 20.9728 95.4467 20.9855 95.4887 21.0355L98.9915 25.1619C99.0287 25.2071 99.0372 25.2714 99.0132 25.3241C98.9026 25.5587 98.7529 25.7519 98.565 25.8971C98.4279 26.0031 98.2765 26.0851 98.1127 26.1392ZM95.3331 21.3169C95.2593 21.3541 95.1932 21.3951 95.1299 21.4448C94.7647 21.7284 94.5828 22.2102 94.6181 22.7992C94.6543 23.4102 94.9182 24.0642 95.3585 24.6343C95.7987 25.2044 96.3647 25.6244 96.9464 25.8123C97.5099 25.9934 98.0212 25.9395 98.3836 25.6568C98.5101 25.5574 98.6186 25.4321 98.7021 25.2799L95.3331 21.3169Z" fill="#263238"/>
<path d="M95.3745 21.1336C95.2529 21.1802 95.1398 21.2431 95.0363 21.3253C94.9394 21.3988 94.8569 21.4868 94.7869 21.5834L98.4234 25.8158C98.4416 25.8034 98.4608 25.7939 98.478 25.7786C98.6554 25.6401 98.7888 25.465 98.884 25.2611L95.3745 21.1336Z" fill="white"/>
<path d="M98.482 25.9461C98.4216 25.966 98.3432 25.96 98.3049 25.9119L94.6684 21.6795C94.6216 21.6247 94.6179 21.5461 94.663 21.4896C94.7475 21.3787 94.8395 21.2811 94.9412 21.2028C95.0553 21.114 95.1818 21.0434 95.3178 20.9921C95.3781 20.9721 95.4461 20.9848 95.4881 21.0348L98.9908 25.1613C99.0281 25.2065 99.0366 25.2708 99.0126 25.3235C98.902 25.5581 98.7523 25.7513 98.5644 25.8965C98.5491 25.9079 98.5357 25.9156 98.5203 25.927C98.5069 25.9346 98.4964 25.9413 98.482 25.9461ZM94.9826 21.5789L98.4395 25.6055C98.545 25.5099 98.6285 25.4057 98.6958 25.2812L95.3296 21.3172C95.2558 21.3544 95.1897 21.3954 95.1264 21.4451C95.0756 21.4843 95.0267 21.5292 94.9826 21.5789Z" fill="#263238"/>
<path d="M103.077 15.3775C103.154 15.2723 103.243 15.1757 103.348 15.0964C104.188 14.4451 105.637 14.9149 106.585 16.1445C107.537 17.3732 107.626 18.8964 106.789 19.5469C106.611 19.6853 106.406 19.7691 106.187 19.8096L103.077 15.3775Z" fill="white"/>
<path d="M106.434 19.9032C106.362 19.9269 106.288 19.9449 106.211 19.9609C106.153 19.9704 106.095 19.9481 106.06 19.8991L102.95 15.467C102.914 15.4151 102.913 15.3451 102.949 15.2915C103.034 15.1709 103.137 15.0667 103.251 14.9779C104.155 14.2798 105.703 14.7585 106.702 16.0545C107.18 16.6727 107.466 17.3833 107.504 18.0576C107.546 18.753 107.323 19.3249 106.877 19.6706C106.747 19.7709 106.601 19.8481 106.434 19.9032ZM106.249 19.6417C106.416 19.5991 106.565 19.5276 106.691 19.4283C107.057 19.1447 107.239 18.6629 107.203 18.0739C107.166 17.46 106.903 16.8089 106.463 16.2388C105.566 15.0784 104.207 14.6204 103.435 15.2173C103.372 15.267 103.313 15.3214 103.26 15.3836L106.249 19.6417Z" fill="#263238"/>
<path d="M106.434 19.9035C106.362 19.9273 106.289 19.9453 106.211 19.9613C106.154 19.9707 106.095 19.9485 106.06 19.8995L102.95 15.4674C102.914 15.4155 102.913 15.3455 102.95 15.2919C103.034 15.1713 103.137 15.0671 103.251 14.9783C103.352 14.9 103.467 14.8332 103.597 14.7809C103.664 14.7523 103.738 14.7756 103.78 14.8352L106.957 19.4209C107.001 19.4863 106.991 19.5725 106.931 19.6213C106.904 19.6461 106.892 19.6595 106.876 19.6681C106.747 19.7712 106.601 19.8484 106.434 19.9035ZM106.249 19.6421C106.391 19.608 106.515 19.5509 106.627 19.4755L103.604 15.1108C103.544 15.1432 103.486 15.1785 103.435 15.2177C103.372 15.2673 103.313 15.3218 103.261 15.384L106.249 19.6421Z" fill="#263238"/>
<path d="M109.052 25.1435C108.658 25.6189 108.216 26.0366 107.73 26.1491C106.934 26.3355 104.84 22.8139 104.84 22.8139C104.84 22.8139 103.363 25.1741 101.54 25.5432C101.54 25.5432 103.662 27.7271 104.081 28.5244C104.422 29.169 103.948 29.8273 103.272 30.3382C103.993 31.2948 105.997 33.367 108.845 31.5856C111.334 30.0314 110.073 26.921 109.052 25.1435Z" fill="#FEDEA5"/>
<path d="M107.817 32.2471C105.457 33.0269 103.804 31.3049 103.146 30.4329C103.123 30.3993 103.113 30.3609 103.116 30.3216C103.122 30.2813 103.142 30.2459 103.176 30.222C103.609 29.8935 104.285 29.2484 103.943 28.598C103.539 27.8304 101.449 25.6717 101.426 25.6505C101.387 25.612 101.374 25.5525 101.389 25.4998C101.406 25.4461 101.447 25.407 101.504 25.3947C103.242 25.0406 104.69 22.757 104.705 22.736C104.732 22.692 104.784 22.6653 104.834 22.6645C104.886 22.6666 104.936 22.6917 104.964 22.7368C105.966 24.4183 107.261 26.0989 107.691 26.0015C108.066 25.9126 108.463 25.6089 108.93 25.0455C108.962 25.0063 109.01 24.9873 109.059 24.9903C109.107 24.9933 109.152 25.0232 109.176 25.0664C110.199 26.8497 111.528 30.0811 108.916 31.7145C108.537 31.9579 108.17 32.1303 107.817 32.2471ZM103.482 30.3669C104.251 31.3361 106.138 33.0991 108.761 31.4589C111.073 30.0144 109.977 27.1242 109.027 25.4064C108.71 25.7669 108.269 26.1808 107.763 26.2971C106.978 26.4797 105.374 23.9878 104.831 23.097C104.445 23.6558 103.28 25.1942 101.826 25.6268C102.353 26.1809 103.856 27.7768 104.211 28.455C104.528 29.0564 104.266 29.7307 103.482 30.3669Z" fill="#FEDEA5"/>
<path d="M106.168 24.7993C105.839 24.3619 105.523 23.8977 105.282 23.5267C105.116 23.3229 104.952 23.1056 104.79 22.8874C104.537 23.2683 103.181 25.2117 101.534 25.5449C101.534 25.5449 102.251 26.2857 102.934 27.0599C103.679 27.0374 104.684 26.8776 105.306 26.2409C105.699 25.8393 105.974 25.3108 106.168 24.7993Z" fill="#263238"/>
<path d="M104.343 26.9834C103.866 27.1411 103.361 27.196 102.942 27.21C102.898 27.2118 102.853 27.1915 102.823 27.1598C102.15 26.3952 101.434 25.6573 101.428 25.6496C101.39 25.6111 101.377 25.5516 101.391 25.4989C101.409 25.4453 101.45 25.4061 101.506 25.3938C103.09 25.0747 104.414 23.1772 104.666 22.8002C104.693 22.759 104.739 22.7343 104.79 22.7335C104.841 22.7327 104.887 22.7558 104.915 22.7943C105.084 23.0259 105.248 23.2403 105.402 23.4259C105.713 23.9045 106.016 24.3409 106.288 24.7014C106.321 24.7418 106.327 24.7974 106.311 24.8473C106.073 25.4756 105.773 25.9772 105.421 26.3395C105.119 26.6502 104.739 26.8523 104.343 26.9834ZM103.004 26.9052C103.708 26.8768 104.633 26.7148 105.2 26.1345C105.509 25.8152 105.778 25.3749 105.994 24.8242C105.664 24.3839 105.356 23.9235 105.153 23.6102C105.042 23.4775 104.92 23.3198 104.794 23.1506C104.379 23.7382 103.238 25.2114 101.824 25.6307C102.075 25.8895 102.546 26.3888 103.004 26.9052Z" fill="#263238"/>
<path d="M95.2373 20.1403C95.2373 20.1403 97.6147 24.0349 98.6871 24.9264C99.7605 25.8208 102.727 26.3194 103.966 26.0664C105.206 25.8133 105.559 24.0575 105.866 22.6305C106.172 21.2035 106.056 20.1492 105.266 18.6947C104.473 17.2411 102.749 15.0825 101.606 13.9779C100.866 13.261 98.4308 13.0787 96.628 14.2208C94.8251 15.363 94.1433 18.0067 95.2373 20.1403Z" fill="#FEDEA5"/>
<path d="M104.176 26.1696C104.119 26.1886 104.06 26.2048 103.997 26.2161C102.656 26.4899 99.6819 25.949 98.5923 25.044C97.5112 24.1457 95.2083 20.3799 95.111 20.2204C95.11 20.2175 95.1062 20.2156 95.1043 20.2098C93.994 18.0465 94.6425 15.3019 96.5479 14.0939C98.438 12.8974 100.944 13.1299 101.712 13.8727C102.831 14.9533 104.581 17.1225 105.4 18.6279C106.177 20.0517 106.341 21.1475 106.015 22.6674L105.997 22.747C105.706 24.105 105.346 25.7831 104.176 26.1696ZM95.3688 20.0649C95.4652 20.2215 97.7576 23.9557 98.7823 24.8087C99.7897 25.6482 102.667 26.1763 103.933 25.9176C105.051 25.692 105.41 24.0206 105.7 22.6789L105.718 22.5993C106.033 21.1407 105.88 20.1371 105.134 18.7671C104.329 17.2857 102.604 15.153 101.502 14.0859C100.819 13.4268 98.4527 13.2408 96.7112 14.3467C94.9323 15.4745 94.332 18.0371 95.3688 20.0649Z" fill="#263238"/>
<path d="M100.494 21.2142C100.486 21.2171 100.477 21.2199 100.467 21.2199C100.385 21.2311 100.31 21.1762 100.295 21.0947C100.293 21.0793 100.239 20.7109 100.497 20.4019C100.71 20.1494 101.061 20.0173 101.54 20.0092C101.622 20.0076 101.692 20.074 101.695 20.1593C101.697 20.2418 101.628 20.3126 101.545 20.3142C101.158 20.3206 100.883 20.4147 100.73 20.5964C100.56 20.7963 100.592 21.0477 100.593 21.0506C100.607 21.1225 100.563 21.1914 100.494 21.2142Z" fill="#263238"/>
<path d="M101.476 22.7454C100.792 22.9714 100.194 22.8592 100.179 22.8544C100.097 22.8369 100.045 22.7581 100.06 22.6766C100.077 22.5942 100.156 22.5426 100.237 22.5573C100.326 22.5758 102.437 22.9643 103.032 20.3653C103.049 20.2829 103.132 20.2333 103.214 20.2508C103.296 20.2683 103.346 20.351 103.328 20.4334C102.994 21.9083 102.188 22.5099 101.476 22.7454Z" fill="#263238"/>
<path d="M98.3386 21.789C98.0139 21.8964 97.7708 21.8553 97.7507 21.8524C97.588 21.8231 97.4782 21.6645 97.5063 21.4987C97.5353 21.3357 97.6906 21.2269 97.8524 21.2533C97.8897 21.2601 98.5597 21.3294 99.0739 20.2138C99.1451 20.0625 99.3233 19.994 99.4744 20.0655C99.6255 20.1369 99.6941 20.3155 99.623 20.4668C99.2308 21.3249 98.7266 21.6608 98.3386 21.789Z" fill="#263238"/>
<path d="M102.066 18.9472C101.77 19.0451 101.473 19.0825 101.243 19.0817C101.078 19.0822 100.94 18.9455 100.941 18.7758C100.941 18.6099 101.077 18.4722 101.244 18.4747C101.298 18.4758 102.588 18.4617 102.626 17.5067C102.631 17.3388 102.773 17.2089 102.94 17.2142C103.108 17.2195 103.238 17.3619 103.233 17.5297C103.202 18.3419 102.638 18.7582 102.066 18.9472Z" fill="#263238"/>
<path d="M96.919 20.5232C96.8443 20.5479 96.762 20.5112 96.7315 20.4382C96.7172 20.4046 96.3808 19.5893 96.745 18.8971C96.9669 18.4787 97.3886 18.2019 98.0044 18.0783C98.0849 18.0613 98.1661 18.1143 98.1842 18.1978C98.2013 18.2784 98.1513 18.3588 98.0651 18.3777C97.5422 18.4834 97.1886 18.7057 97.0127 19.0418C96.7149 19.6066 97.0065 20.3153 97.0094 20.324C97.0418 20.4027 97.0071 20.4909 96.9286 20.5232C96.9276 20.5203 96.9219 20.5222 96.919 20.5232Z" fill="#263238"/>
<path d="M99.8253 17.0675C99.7908 17.0789 99.7525 17.0788 99.7152 17.0624C99.6396 17.0266 99.6044 16.9393 99.639 16.8607C99.6448 16.8492 100.248 15.5603 101.868 15.9386C101.951 15.9561 102 16.0388 101.983 16.1212C101.966 16.2036 101.883 16.2532 101.801 16.2357C100.419 15.9128 99.9193 16.9758 99.9135 16.9872C99.8952 17.0284 99.8626 17.0552 99.8253 17.0675Z" fill="#263238"/>
<path d="M93.4358 22.9228C93.4358 22.9228 93.9466 25.1724 94.342 25.6647C94.7374 26.157 97.329 27.6422 97.8423 28.0188C98.3557 28.3955 98.4475 28.4418 98.188 30.0099C97.9285 31.5781 94.9639 42.1485 95.4718 44.3991C95.9826 46.6487 96.7736 48.5693 98.948 47.3842C101.125 46.1982 100.526 39.9204 100.417 36.292C100.308 32.6637 99.9427 28.0275 99.64 27.1116C99.3382 26.1986 95.6368 24.8949 95.2322 24.7315C94.8304 24.5672 94.2946 23.4185 94.0861 22.7877C93.8786 22.1503 93.528 22.2661 93.4358 22.9228Z" fill="#FEDEA5"/>
<path d="M98.4348 47.773C97.9348 47.9383 97.4868 47.933 97.0965 47.7553C96.0989 47.3023 95.6412 45.821 95.327 44.4265C94.9406 42.7173 96.4908 36.4128 97.417 32.6468C97.7276 31.3781 97.9765 30.3757 98.0404 29.9808C98.2825 28.5239 98.2241 28.4824 97.7729 28.1492C97.5922 28.0172 97.1992 27.7733 96.7422 27.4899C95.7477 26.8729 94.5066 26.1074 94.2248 25.7565C93.8189 25.2517 93.3403 23.1863 93.289 22.9541C93.2862 22.9358 93.2834 22.9176 93.2863 22.8975C93.3464 22.4814 93.5096 22.2326 93.7318 22.2103C93.8524 22.1992 94.0773 22.2527 94.2353 22.7308C94.4866 23.4911 95.0027 24.4643 95.2935 24.5822C95.3346 24.6006 95.414 24.6286 95.5231 24.6693C98.2332 25.6936 99.5893 26.4498 99.7892 27.0547C100.108 28.0195 100.466 32.719 100.574 36.2773C100.589 36.7386 100.609 37.2403 100.633 37.7688C100.792 41.4222 101.008 46.4243 99.0251 47.5045C98.819 47.6237 98.6216 47.7113 98.4348 47.773ZM93.5859 22.9166C93.7331 23.5549 94.1531 25.1923 94.4559 25.5683C94.7052 25.8788 96.0238 26.6954 96.8968 27.2343C97.3778 27.5322 97.7545 27.7655 97.9275 27.8936C98.5241 28.329 98.5908 28.4922 98.3342 30.0307C98.2674 30.4361 98.0175 31.4452 97.7059 32.7206C96.7875 36.4617 95.2479 42.7211 95.6181 44.3623C95.9011 45.6042 96.3348 47.0805 97.2186 47.4785C97.672 47.6833 98.214 47.6064 98.8762 47.247C100.694 46.2564 100.479 41.3627 100.325 37.7908C100.302 37.2585 100.279 36.7549 100.267 36.2926C100.15 32.4398 99.7759 27.9983 99.497 27.1544C99.3847 26.8146 98.5837 26.156 95.4115 24.9585C95.3015 24.915 95.2182 24.885 95.1742 24.8676C94.6845 24.6685 94.1316 23.4104 93.9393 22.8286C93.8546 22.5723 93.7685 22.5144 93.7494 22.5144C93.7312 22.5172 93.6372 22.5994 93.5859 22.9166Z" fill="#263238"/>
<path d="M100.418 36.2879C100.408 35.9273 100.394 35.558 100.378 35.183L96.9974 34.9937C96.1281 38.6132 95.1625 43.0312 95.4729 44.395C95.9837 46.6446 96.7747 48.5652 98.9491 47.3801C101.126 46.1941 100.528 39.9191 100.418 36.2879Z" fill="#F26F1F"/>
<path d="M98.4351 47.7734C97.9351 47.9386 97.4871 47.9333 97.0968 47.7556C96.0992 47.3026 95.6415 45.8214 95.3273 44.4269C95.0045 42.9969 96.0433 38.3374 96.8548 34.9576C96.8731 34.8876 96.9364 34.8379 97.011 34.842L100.391 35.0284C100.469 35.0315 100.531 35.0941 100.534 35.1727C100.55 35.5477 100.564 35.9199 100.575 36.2805C100.591 36.7419 100.61 37.2435 100.635 37.772C100.793 41.4255 101.009 46.4275 99.0263 47.5077C98.8193 47.624 98.6219 47.7116 98.4351 47.7734ZM97.1167 35.1521C96.3178 38.4927 95.3146 43.0094 95.6213 44.3617C95.9042 45.6036 96.338 47.0799 97.2218 47.4779C97.6752 47.6827 98.2172 47.6058 98.8794 47.2464C100.697 46.2558 100.482 41.3621 100.328 37.7902C100.305 37.2579 100.282 36.7543 100.27 36.292C100.261 35.9755 100.25 35.6532 100.234 35.3262L97.1167 35.1521Z" fill="#263238"/>
<path d="M96.3853 37.6464C96.3804 37.6704 96.3756 37.6943 96.3708 37.7183C96.3582 37.7767 96.3447 37.8323 96.3322 37.8908C96.3041 38.0182 96.279 38.1447 96.2501 38.2693C97.0764 38.1943 98.5134 38.1251 100.497 38.2331C100.489 38.025 100.479 37.8236 100.471 37.625C98.6237 37.5232 97.2479 37.5753 96.3853 37.6464Z" fill="#263238"/>
<path d="M100.129 45.5973C100.193 45.3779 100.249 45.1421 100.298 44.8958C98.3912 45.5677 96.8554 45.6855 95.8082 45.6419C95.8806 45.8608 95.9587 46.0682 96.0425 46.2641C97.0649 46.2808 98.4485 46.1462 100.129 45.5973Z" fill="#263238"/>
<path d="M95.6389 41.4746C95.6292 41.5321 95.6196 41.5896 95.6127 41.6462C95.604 41.7066 95.5934 41.7708 95.5846 41.8312C95.5701 41.9318 95.5594 42.0248 95.5468 42.1217C96.7161 41.8598 98.5346 41.6038 100.571 41.8539C100.575 41.6516 100.577 41.4464 100.576 41.2421C98.6008 41.0037 96.8427 41.2205 95.6389 41.4746Z" fill="#263238"/>
<path d="M104.833 13.6576C104.833 13.6576 107.037 14.3284 107.498 14.7576C107.959 15.1897 109.251 17.8839 109.589 18.424C109.927 18.964 109.968 19.0591 111.549 18.9136C113.129 18.7653 123.868 16.5576 126.07 17.2293C128.274 17.9 130.13 18.8267 128.793 20.9169C127.457 23.0071 121.249 21.9629 117.643 21.5926C114.036 21.2224 109.446 20.5286 108.557 20.1613C107.667 19.794 106.634 16.0016 106.5 15.5887C106.367 15.1759 105.261 14.5576 104.645 14.3044C104.034 14.0492 104.176 13.7054 104.833 13.6576Z" fill="#FEDEA5"/>
<path d="M127.521 21.9592C125.458 22.6412 121.891 22.2288 119.114 21.9072C118.587 21.848 118.09 21.7889 117.631 21.7423C114.095 21.3809 109.44 20.686 108.503 20.2993C107.916 20.0558 107.256 18.6477 106.432 15.8658C106.399 15.7554 106.375 15.6738 106.361 15.6306C106.265 15.3301 105.331 14.744 104.593 14.4386C104.128 14.2472 104.09 14.0169 104.109 13.899C104.143 13.6766 104.405 13.5327 104.822 13.5033C104.842 13.5034 104.861 13.5035 104.879 13.5102C105.109 13.5781 107.129 14.2041 107.603 14.6449C107.935 14.9538 108.607 16.2459 109.151 17.2834C109.4 17.757 109.613 18.1691 109.721 18.3411C110.031 18.836 110.067 18.8975 111.536 18.7603C111.934 18.7213 112.951 18.5481 114.236 18.3278C118.051 17.6707 124.44 16.572 126.116 17.0819C127.478 17.4977 128.922 18.0586 129.304 19.0888C129.509 19.6409 129.38 20.284 128.924 20.997C128.638 21.443 128.15 21.7512 127.521 21.9592ZM104.558 13.8592C104.446 13.8963 104.409 13.9403 104.406 13.9508C104.405 13.9671 104.458 14.0584 104.705 14.1618C105.27 14.3938 106.483 15.0374 106.646 15.5395C106.66 15.5827 106.685 15.6671 106.719 15.7804C107.687 19.0356 108.286 19.8824 108.615 20.0197C109.434 20.3589 113.829 21.0501 117.659 21.4394C118.117 21.4859 118.618 21.5441 119.145 21.6062C122.691 22.0156 127.549 22.576 128.666 20.8332C129.074 20.1967 129.187 19.661 129.017 19.1934C128.68 18.2822 127.243 17.7415 126.027 17.3731C124.422 16.8846 118.079 17.9748 114.287 18.6272C112.994 18.8503 111.974 19.0245 111.563 19.0644C110.011 19.2099 109.854 19.1308 109.475 18.5244C109.348 18.3236 109.144 17.9278 108.88 17.4273C108.404 16.5176 107.688 15.141 107.394 14.8705C107.04 14.5405 105.44 14.0021 104.816 13.8121C104.704 13.8204 104.621 13.8383 104.558 13.8592Z" fill="#263238"/>
<path d="M117.645 21.5914C117.289 21.5557 116.918 21.5152 116.547 21.4718L116.602 18.0799C120.268 17.4722 124.739 16.822 126.072 17.2281C128.276 17.8988 130.132 18.8255 128.795 20.9157C127.459 23.0059 121.251 21.9617 117.645 21.5914Z" fill="#F26F1F"/>
<path d="M127.521 21.9596C125.458 22.6416 121.891 22.2292 119.114 21.9076C118.587 21.8484 118.09 21.7893 117.631 21.7427C117.271 21.7051 116.905 21.6665 116.531 21.6241C116.454 21.6143 116.394 21.5479 116.397 21.4702L116.452 18.0783C116.453 18.0045 116.503 17.9432 116.579 17.931C120.002 17.3618 124.716 16.6568 126.119 17.0813C127.48 17.4971 128.925 18.058 129.307 19.0883C129.512 19.6404 129.383 20.2835 128.927 20.9965C128.638 21.4434 128.147 21.7526 127.521 21.9596ZM117.66 21.4426C118.118 21.4892 118.619 21.5474 119.146 21.6095C122.692 22.0189 127.55 22.5793 128.667 20.8365C129.075 20.2 129.188 19.6643 129.018 19.1967C128.681 18.2855 127.244 17.7448 126.028 17.3764C124.703 16.9742 120.134 17.6538 116.751 18.2126L116.701 21.3408C117.025 21.3744 117.346 21.409 117.66 21.4426Z" fill="#263238"/>
<path d="M123.156 22.14C123.36 22.1522 123.561 22.1596 123.761 22.1669L124.035 17.1243C123.903 17.1296 123.769 17.1388 123.629 17.1498C123.602 17.1526 123.57 17.1535 123.542 17.1563C123.505 17.159 123.465 17.1627 123.427 17.1655L123.156 22.14Z" fill="#263238"/>
<path d="M120.416 17.4963C120.364 17.5038 120.31 17.5123 120.257 17.5169C120.117 17.5376 119.977 17.5553 119.837 17.576L119.558 21.8054C119.713 21.8212 119.869 21.8399 120.025 21.8587C120.068 21.8636 120.114 21.8676 120.161 21.8744L120.45 17.4917C120.438 17.4954 120.429 17.4954 120.416 17.4963Z" fill="#263238"/>
<path d="M127.197 17.6162C127.1 18.6229 126.913 20.4511 126.694 22.0156C126.916 21.9741 127.13 21.9258 127.327 21.867C127.522 20.4416 127.685 18.8607 127.78 17.8741C127.596 17.7815 127.399 17.6964 127.197 17.6162Z" fill="#263238"/>
<path d="M163.173 61.7655C163.843 61.8636 164.513 62.281 164.513 62.281C164.513 62.281 164.486 63.0664 163.335 64.7822C164.703 65.4675 165.972 66.2235 166.347 66.0453C167.083 65.6967 168.047 61.5444 168.399 60.3611C168.751 59.1807 169.716 58.1845 169.37 56.4907C169.023 54.794 168.032 55.0162 167.808 55.6235C167.585 56.2308 165.757 58.5793 164.64 59.3765C163.523 60.1708 162.664 60.873 162.664 60.873C162.664 60.873 162.503 61.6675 163.173 61.7655Z" fill="#F37630"/>
<path d="M166.365 66.1985C166.003 66.3182 165.285 65.9611 164.082 65.3396C163.817 65.2035 163.54 65.0587 163.261 64.9178C163.222 64.8985 163.192 64.8639 163.181 64.8226C163.171 64.7814 163.178 64.7344 163.201 64.698C164.096 63.364 164.297 62.6042 164.342 62.3626C164.146 62.2517 163.641 61.9902 163.146 61.9176C162.925 61.8853 162.758 61.7869 162.644 61.6235C162.42 61.3044 162.505 60.8578 162.512 60.8396C162.52 60.8051 162.538 60.7735 162.566 60.7515C162.574 60.7458 163.439 60.0379 164.549 59.2493C165.657 58.4617 167.45 56.1437 167.665 55.568C167.793 55.2223 168.118 54.9998 168.457 55.0249C168.693 55.0429 169.264 55.2184 169.518 56.4602C169.772 57.6991 169.362 58.5628 168.964 59.394C168.801 59.7387 168.646 60.0614 168.543 60.4053C168.477 60.6286 168.386 60.962 168.28 61.3549C167.642 63.7351 167.016 65.8937 166.41 66.1805C166.395 66.1852 166.379 66.1938 166.365 66.1985ZM163.55 64.7231C163.78 64.8389 164.004 64.9567 164.223 65.0696C165.078 65.5154 166.046 66.0162 166.278 65.9077C166.81 65.6552 167.604 62.6963 167.986 61.2763C168.094 60.8796 168.184 60.5432 168.25 60.32C168.359 59.955 168.527 59.6055 168.687 59.2684C169.064 58.4794 169.451 57.6645 169.218 56.5244C169.069 55.8037 168.775 55.3578 168.431 55.3308C168.228 55.3148 168.027 55.458 167.946 55.6764C167.717 56.2952 165.894 58.6677 164.724 59.4983C163.766 60.179 162.995 60.7951 162.804 60.9508C162.793 61.0534 162.782 61.2902 162.896 61.4507C162.962 61.544 163.059 61.598 163.193 61.6176C163.887 61.7205 164.563 62.136 164.592 62.1553C164.64 62.1842 164.666 62.2361 164.661 62.2888C164.659 62.3186 164.621 63.0914 163.55 64.7231Z" fill="#263238"/>
<path d="M168.675 55.2478C169.08 57.3023 168.668 58.1478 167.193 61.3827C166.042 63.907 165.747 65.3302 165.677 66.0051C165.981 66.0867 166.214 66.1056 166.344 66.0466C167.08 65.698 168.044 61.5456 168.396 60.3623C168.748 59.1819 169.713 58.1857 169.367 56.4919C169.218 55.7616 168.952 55.3896 168.675 55.2478Z" fill="white"/>
<path d="M166.356 66.2016C166.198 66.2538 165.967 66.2377 165.638 66.1513C165.566 66.1338 165.517 66.0636 165.528 65.9898C165.609 65.2123 165.939 63.771 167.057 61.3185L167.142 61.1337C168.542 58.0674 168.917 57.2438 168.528 55.2766C168.516 55.22 168.541 55.1606 168.587 55.1262C168.633 55.0918 168.695 55.0872 168.748 55.1143C168.999 55.2455 169.338 55.587 169.518 56.4603C169.772 57.6993 169.362 58.563 168.964 59.3941C168.801 59.7389 168.646 60.0616 168.543 60.4055C168.477 60.6288 168.386 60.9622 168.28 61.3551C167.642 63.7352 167.016 65.8939 166.41 66.1806C166.394 66.1892 166.376 66.1949 166.356 66.2016ZM165.845 65.8882C166.137 65.9515 166.246 65.925 166.278 65.9078C166.81 65.6554 167.605 62.6965 167.986 61.2764C168.094 60.8798 168.184 60.5434 168.25 60.3202C168.359 59.9551 168.527 59.6056 168.687 59.2686C169.064 58.4795 169.451 57.6647 169.218 56.5246C169.134 56.1177 169.017 55.8497 168.902 55.6767C169.161 57.4412 168.704 58.4419 167.415 61.2641L167.329 61.4489C166.248 63.819 165.933 65.2105 165.845 65.8882Z" fill="#263238"/>
<path d="M119.792 52.4224C119.749 52.4366 119.697 52.4317 119.657 52.3999C119.591 52.3517 119.574 52.2548 119.622 52.1878C119.622 52.1878 119.86 51.8568 120.255 51.3143C120.303 51.2473 120.4 51.2313 120.468 51.2824C120.534 51.3305 120.551 51.4274 120.5 51.4954C120.104 52.035 119.87 52.368 119.87 52.368C119.847 52.3948 119.821 52.4129 119.792 52.4224Z" fill="white"/>
<path d="M118.885 53.2946C118.885 53.2946 125.957 42.8649 132.445 37.7367C138.934 32.6114 142.025 33.6121 142.405 36.3619C142.781 39.1126 142.191 48.5725 141.128 54.0355C140.065 59.4986 138.165 68.538 138.165 68.538C138.165 68.538 144.316 73 144.921 73.5477C145.525 74.0924 142.782 75.1078 141.409 74.8138C140.319 74.5801 140.372 74.6839 137.965 74.0355C133.885 72.9367 133.407 72.1363 133.629 71.2097C134.347 68.2409 135.514 65.5709 135.274 62.3564C134.836 56.5174 135.022 48.7057 135.554 49.3797C135.554 49.3797 133.342 53.9443 128.838 57.3497C124.332 60.7561 120.876 61.4028 117.629 59.1406" fill="#73B4EA"/>
<path d="M143.801 74.691C142.994 74.9579 142.007 75.0985 141.374 74.9661C141.055 74.8989 140.835 74.8598 140.622 74.8217C140.111 74.7318 139.626 74.6459 137.922 74.1868C133.863 73.0939 133.22 72.2555 133.479 71.1794C133.662 70.4194 133.877 69.6711 134.088 68.9497C134.711 66.7852 135.299 64.7444 135.121 62.375C134.851 58.7394 134.779 53.1596 135.051 50.5874C134.092 52.1724 132.05 55.1158 128.925 57.4775C124.294 60.9793 120.781 61.53 117.536 59.2706C117.466 59.2234 117.451 59.1294 117.498 59.0595C117.545 58.9897 117.641 58.9737 117.708 59.0218C120.827 61.1954 124.231 60.6454 128.74 57.2352C132.331 54.5212 134.471 51.0314 135.162 49.7869C135.23 49.4515 135.312 49.2456 135.411 49.2094C135.446 49.198 135.562 49.1629 135.666 49.2946C135.703 49.3398 135.708 49.4022 135.684 49.4549C135.68 49.4625 135.589 49.6492 135.41 49.9671C135.143 51.6685 135.041 57.3283 135.418 62.3568C135.6 64.7789 135.003 66.8485 134.375 69.0369C134.166 69.7574 133.954 70.5019 133.772 71.2551C133.6 71.97 133.783 72.7627 137.999 73.8964C139.689 74.3536 140.166 74.4357 140.671 74.5275C140.887 74.5646 141.111 74.6056 141.437 74.6738C142.578 74.9162 144.605 74.2304 144.839 73.7698C144.86 73.7277 144.859 73.7056 144.818 73.6681C144.227 73.1349 138.137 68.7133 138.075 68.67C138.026 68.6353 138.003 68.5758 138.015 68.5173C138.034 68.4282 139.926 59.4165 140.978 54.0148C142.053 48.4904 142.626 39.1034 142.254 36.3891C142.122 35.4201 141.651 34.7453 140.897 34.4417C139.903 34.0386 137.495 33.9494 132.538 37.8626C126.143 42.9152 119.081 53.2807 119.01 53.3841C118.963 53.4539 118.87 53.4718 118.801 53.4246C118.731 53.3774 118.713 53.2843 118.76 53.2145C118.831 53.1111 125.92 42.7045 132.351 37.6241C136.112 34.6527 139.186 33.4225 141.007 34.1592C141.868 34.5072 142.402 35.2637 142.553 36.3479C142.928 39.0833 142.353 48.5221 141.273 54.0704C140.282 59.1712 138.537 67.4919 138.331 68.48C139.086 69.0262 144.445 72.9255 145.02 73.4414C145.162 73.5704 145.195 73.7383 145.11 73.9069C144.96 74.1931 144.436 74.4811 143.801 74.691Z" fill="#73B4EA"/>
<path d="M121.381 50.2549C121.335 50.2701 121.284 50.2613 121.243 50.2334C121.175 50.1823 121.163 50.0874 121.211 50.0204C122.695 48.0381 124.803 45.3222 126.434 43.6491C126.49 43.5889 126.589 43.5882 126.646 43.646C126.707 43.7056 126.707 43.8015 126.65 43.8589C125.031 45.5214 122.932 48.2249 121.453 50.2024C121.435 50.2273 121.41 50.2454 121.381 50.2549Z" fill="white"/>
<path d="M133.003 53.168C132.963 53.1813 132.917 53.1773 132.876 53.1522C132.805 53.1089 132.783 53.0138 132.826 52.9421L134.603 50.0515C134.575 49.4472 134.381 43.3616 137.056 39.2761C137.103 39.2062 137.195 39.1854 137.265 39.2326C137.335 39.2799 137.356 39.372 137.309 39.4419C134.561 43.6374 134.903 50.016 134.908 50.0784C134.909 50.11 134.903 50.1407 134.886 50.1656L133.087 53.0954C133.065 53.1346 133.037 53.1566 133.003 53.168Z" fill="white"/>
<path d="M142.069 47.98C142.052 47.9857 142.031 47.9894 142.011 47.9865C141.926 47.9824 141.864 47.9103 141.868 47.8259L141.959 46.3358C141.963 46.2515 142.035 46.1894 142.119 46.1935C142.204 46.1976 142.266 46.2697 142.262 46.3541L142.171 47.8441C142.17 47.9084 142.127 47.961 142.069 47.98Z" fill="white"/>
<path d="M142.24 45.1789C142.223 45.1846 142.202 45.1884 142.181 45.1854C142.097 45.1813 142.035 45.1092 142.039 45.0248L142.366 39.6294C142.37 39.5451 142.442 39.4829 142.526 39.4871C142.611 39.4912 142.673 39.5633 142.669 39.6477L142.342 45.0431C142.338 45.1083 142.297 45.1599 142.24 45.1789Z" fill="white"/>
<path d="M141.405 74.8186C142.776 75.1098 145.523 74.0963 144.917 73.5525C144.313 73.0077 138.161 68.5428 138.161 68.5428C138.161 68.5428 138.664 66.1498 139.298 63.081C137.368 63.4536 136.068 63.0111 135.277 62.5185C135.468 65.6628 134.333 68.2936 133.625 71.2145C133.402 72.1411 133.88 72.9415 137.96 74.0403C140.367 74.6887 140.314 74.5849 141.405 74.8186Z" fill="#FEDEA5"/>
<path d="M143.801 74.6911C142.994 74.958 142.007 75.0986 141.374 74.9662C141.055 74.899 140.835 74.8599 140.622 74.8218C140.111 74.7319 139.627 74.646 137.922 74.1869C133.863 73.094 133.22 72.2556 133.479 71.1795C133.663 70.4224 133.876 69.6779 134.084 68.9574C134.694 66.839 135.269 64.8374 135.128 62.5295C135.125 62.4729 135.152 62.4193 135.203 62.3898C135.251 62.3611 135.311 62.3604 135.36 62.3922C136.087 62.8453 137.354 63.3049 139.271 62.9332C139.322 62.9228 139.372 62.9383 139.406 62.9749C139.441 63.0114 139.458 63.0633 139.445 63.1121C138.887 65.8205 138.428 68.0009 138.33 68.4772C139.085 69.0234 144.444 72.9228 145.019 73.4387C145.161 73.5676 145.194 73.7356 145.109 73.9041C144.96 74.1932 144.436 74.4812 143.801 74.6911ZM135.443 62.7895C135.527 65.03 134.967 66.9818 134.376 69.0399C134.169 69.7566 133.956 70.501 133.774 71.2514C133.602 71.9663 133.785 72.759 138 73.8927C139.691 74.3499 140.168 74.4319 140.673 74.5237C140.889 74.5609 141.113 74.6019 141.439 74.67C142.58 74.9125 144.607 74.2266 144.841 73.7661C144.862 73.7239 144.861 73.7019 144.82 73.6643C144.229 73.1311 138.139 68.7096 138.077 68.6663C138.028 68.6316 138.005 68.572 138.017 68.5136C138.017 68.5136 138.497 66.2336 139.106 63.2722C137.406 63.5496 136.206 63.1986 135.443 62.7895Z" fill="#263238"/>
<path d="M138.161 68.5429C138.161 68.5429 137.684 68.3812 137.458 69.3088C137.232 70.2364 137.198 71.0975 137.198 71.0975L134.141 69.3029C133.96 69.9315 133.78 70.5658 133.625 71.2145C133.402 72.1412 133.88 72.9416 137.96 74.0404C140.368 74.6887 140.314 74.585 141.405 74.8187C142.776 75.1098 145.524 74.0963 144.917 73.5525C144.312 73.0049 138.161 68.5429 138.161 68.5429Z" fill="#F37630"/>
<path d="M143.801 74.6909C142.994 74.9578 142.008 75.0985 141.374 74.966C141.055 74.8988 140.835 74.8598 140.622 74.8217C140.111 74.7318 139.627 74.6459 137.922 74.1867C133.864 73.0938 133.22 72.2555 133.479 71.1793C133.643 70.5056 133.832 69.8359 133.996 69.261C134.01 69.215 134.042 69.1787 134.084 69.1615C134.129 69.1435 134.175 69.1475 134.218 69.1716L137.065 70.8408C137.092 70.5158 137.156 69.9099 137.311 69.2707C137.413 68.8539 137.58 68.5782 137.809 68.4514C138.014 68.3389 138.191 68.3922 138.209 68.399C138.223 68.4038 138.239 68.4115 138.251 68.4202C138.503 68.6023 144.416 72.8938 145.02 73.4385C145.161 73.5675 145.194 73.7354 145.11 73.9039C144.96 74.1931 144.436 74.481 143.801 74.6909ZM134.232 69.5312C134.082 70.0601 133.914 70.6523 133.77 71.2493C133.599 71.9642 133.781 72.7569 137.997 73.8906C139.687 74.3478 140.164 74.4299 140.669 74.5217C140.886 74.5588 141.11 74.5998 141.435 74.668C142.577 74.9104 144.604 74.2245 144.837 73.764C144.858 73.7219 144.857 73.6998 144.816 73.6623C144.244 73.1454 138.539 69.0023 138.098 68.6815C138.072 68.6776 138.012 68.6813 137.945 68.7194C137.844 68.7785 137.701 68.9344 137.602 69.3407C137.383 70.2405 137.349 71.092 137.348 71.0987C137.346 71.1505 137.314 71.1993 137.269 71.227C137.223 71.2518 137.166 71.2516 137.119 71.2256L134.232 69.5312Z" fill="#F37630"/>
<path d="M137.962 74.0403C140.369 74.6886 140.316 74.5849 141.406 74.8186C142.641 75.0815 144.986 74.2873 145.005 73.7282C140.567 74.9396 135.801 72.6523 133.599 71.364C133.464 72.2267 134.102 72.9998 137.962 74.0403Z" fill="white"/>
<path d="M143.778 74.7049C142.993 74.9642 142.034 75.1088 141.374 74.9657C141.056 74.8985 140.836 74.8594 140.622 74.8213C140.111 74.7314 139.627 74.6455 137.923 74.1864C133.996 73.1265 133.3 72.312 133.447 71.34C133.456 71.2892 133.486 71.2471 133.531 71.2261C133.577 71.2042 133.629 71.2063 133.673 71.2333C136.036 72.6152 140.643 74.76 144.962 73.5818C145.009 73.5695 145.057 73.5793 145.095 73.6081C145.133 73.637 145.155 73.6841 145.152 73.733C145.147 73.8816 145.05 74.0319 144.865 74.1761C144.62 74.369 144.226 74.5567 143.778 74.7049ZM133.733 71.6161C133.761 72.2041 134.376 72.9177 138.001 73.8922C139.692 74.3494 140.168 74.4315 140.674 74.5232C140.89 74.5604 141.114 74.6014 141.439 74.6695C142.351 74.8633 143.968 74.4504 144.627 73.9768C140.45 74.9167 136.111 72.977 133.733 71.6161Z" fill="#263238"/>
</svg>
