<svg width="374" height="180" viewBox="0 0 374 180" fill="none" xmlns="http://www.w3.org/2000/svg">
<path d="M94.1819 85.6847V83.5247C95.4299 83.5407 96.4859 83.3327 97.3499 82.9007C98.3099 82.4047 98.8859 81.6847 99.0779 80.7407H101.31V97.5407H98.3099V85.6847H94.1819ZM107.518 85.6847V83.5247C108.766 83.5407 109.822 83.3327 110.686 82.9007C111.646 82.4047 112.222 81.6847 112.414 80.7407H114.646V97.5407H111.646V85.6847H107.518Z" fill="#263238"/>
<path d="M90.1819 51.0058V48.8458C91.4299 48.8618 92.4859 48.6538 93.3499 48.2218C94.3099 47.7258 94.8859 47.0058 95.0779 46.0618H97.3099V62.8618H94.3099V51.0058H90.1819ZM108.918 60.9178C110.966 60.9178 111.99 58.7658 111.99 54.4618C111.99 50.1578 110.966 48.0058 108.918 48.0058C106.87 48.0058 105.846 50.1578 105.846 54.4618C105.846 58.7658 106.87 60.9178 108.918 60.9178ZM108.918 45.7258C111.094 45.7258 112.662 46.7018 113.622 48.6538C114.358 50.1258 114.726 52.0618 114.726 54.4618C114.726 56.8618 114.358 58.7978 113.622 60.2698C112.662 62.2218 111.094 63.1978 108.918 63.1978C106.742 63.1978 105.174 62.2218 104.214 60.2698C103.478 58.7978 103.11 56.8618 103.11 54.4618C103.11 52.0618 103.478 50.1258 104.214 48.6538C105.174 46.7018 106.742 45.7258 108.918 45.7258Z" fill="#A1A4B2"/>
<path d="M90.1819 120.605V118.445C91.4299 118.461 92.4859 118.253 93.3499 117.821C94.3099 117.325 94.8859 116.605 95.0779 115.661H97.3099V132.461H94.3099V120.605H90.1819ZM114.654 130.013V132.461H103.182C103.198 129.917 104.43 127.797 106.878 126.101C107.646 125.589 108.406 125.077 109.158 124.565C110.022 123.957 110.67 123.381 111.102 122.837C111.646 122.133 111.926 121.381 111.942 120.581C111.958 119.813 111.782 119.165 111.414 118.637C110.934 117.949 110.166 117.605 109.11 117.605C107.27 117.605 106.31 119.005 106.23 121.805H103.494C103.494 119.885 103.99 118.341 104.982 117.173C106.022 115.941 107.454 115.325 109.278 115.325C111.134 115.325 112.55 115.917 113.526 117.101C114.294 118.045 114.678 119.173 114.678 120.485C114.678 122.517 113.43 124.405 110.934 126.149C110.006 126.773 109.078 127.397 108.15 128.021C107.238 128.725 106.678 129.389 106.47 130.013H114.654Z" fill="#A1A4B2"/>
<path d="M115.548 178.079V179.127H106.598C106.611 178.038 107.572 177.13 109.482 176.404C110.081 176.185 110.674 175.965 111.26 175.746C111.934 175.486 112.44 175.239 112.777 175.006C113.201 174.705 113.419 174.383 113.432 174.04C113.444 173.712 113.307 173.434 113.02 173.208C112.646 172.913 112.047 172.766 111.223 172.766C109.787 172.766 109.038 173.366 108.976 174.564H106.842C106.842 173.742 107.229 173.081 108.003 172.581C108.814 172.054 109.931 171.79 111.354 171.79C112.802 171.79 113.906 172.043 114.668 172.55C115.267 172.955 115.566 173.437 115.566 173.999C115.566 174.869 114.593 175.678 112.646 176.424C111.922 176.691 111.198 176.959 110.474 177.226C109.762 177.527 109.326 177.811 109.163 178.079H115.548Z" fill="#A1A4B2"/>
<path d="M106.598 151.644V150.066C107.638 150.078 108.518 149.926 109.238 149.61C110.038 149.248 110.518 148.722 110.678 148.033H112.538V160.304H110.038V151.644H106.598Z" fill="#A1A4B2"/>
<path d="M108.992 20.7133C108.055 20.7133 107.325 20.9779 106.8 21.507C106.324 21.9869 106.086 22.6021 106.086 23.3527C106.086 24.1156 106.324 24.7432 106.8 25.2354C107.325 25.7891 108.055 26.066 108.992 26.066C109.961 26.066 110.716 25.7891 111.256 25.2354C111.764 24.7432 112.019 24.1156 112.019 23.3527C112.019 22.6145 111.757 21.9931 111.232 21.4886C110.708 20.9717 109.961 20.7133 108.992 20.7133ZM103.679 28.8715H106.395C106.459 29.4006 106.705 29.8313 107.134 30.1635C107.563 30.4834 108.127 30.6434 108.826 30.6434C110.112 30.6434 111.034 30.1143 111.59 29.0561C111.923 28.4408 112.154 27.4933 112.281 26.2136L112.233 26.1767C111.486 27.2103 110.287 27.7271 108.635 27.7271C107.062 27.7271 105.792 27.3334 104.823 26.5459C103.854 25.746 103.369 24.6878 103.369 23.3712C103.369 22.0792 103.877 21.021 104.894 20.1965C105.927 19.3721 107.332 18.9599 109.112 18.9599C111.304 18.9599 112.876 19.6121 113.83 20.9164C114.608 21.9992 114.997 23.5988 114.997 25.7153C114.997 27.5118 114.536 29.013 113.615 30.2189C112.503 31.6709 110.867 32.3968 108.707 32.3968C107.356 32.3968 106.197 32.0708 105.228 31.4186C104.259 30.7541 103.742 29.9051 103.679 28.8715Z" fill="#A4A7B5"/>
<path d="M177.512 60.4138V62.8618H166.04C166.056 60.3178 167.288 58.1978 169.736 56.5018C170.504 55.9898 171.264 55.4778 172.016 54.9658C172.88 54.3578 173.528 53.7818 173.96 53.2378C174.504 52.5338 174.784 51.7818 174.8 50.9818C174.816 50.2138 174.64 49.5658 174.272 49.0378C173.792 48.3498 173.024 48.0058 171.968 48.0058C170.128 48.0058 169.168 49.4058 169.088 52.2058H166.352C166.352 50.2858 166.848 48.7418 167.84 47.5738C168.88 46.3418 170.312 45.7258 172.136 45.7258C173.992 45.7258 175.408 46.3178 176.384 47.5018C177.152 48.4458 177.536 49.5738 177.536 50.8858C177.536 52.9178 176.288 54.8058 173.792 56.5498C172.864 57.1738 171.936 57.7978 171.008 58.4218C170.096 59.1258 169.536 59.7898 169.328 60.4138H177.512ZM184.92 48.0058C183.976 48.0058 183.24 48.3498 182.712 49.0378C182.232 49.6618 181.992 50.4618 181.992 51.4378C181.992 52.4298 182.232 53.2458 182.712 53.8858C183.24 54.6058 183.976 54.9658 184.92 54.9658C185.896 54.9658 186.656 54.6058 187.2 53.8858C187.712 53.2458 187.968 52.4298 187.968 51.4378C187.968 50.4778 187.704 49.6698 187.176 49.0138C186.648 48.3418 185.896 48.0058 184.92 48.0058ZM179.568 58.6138H182.304C182.368 59.3018 182.616 59.8618 183.048 60.2938C183.48 60.7098 184.048 60.9178 184.752 60.9178C186.048 60.9178 186.976 60.2298 187.536 58.8538C187.872 58.0538 188.104 56.8218 188.232 55.1578L188.184 55.1098C187.432 56.4538 186.224 57.1258 184.56 57.1258C182.976 57.1258 181.696 56.6138 180.72 55.5898C179.744 54.5498 179.256 53.1738 179.256 51.4618C179.256 49.7818 179.768 48.4058 180.792 47.3338C181.832 46.2618 183.248 45.7258 185.04 45.7258C187.248 45.7258 188.832 46.5738 189.792 48.2698C190.576 49.6778 190.968 51.7578 190.968 54.5098C190.968 56.8458 190.504 58.7978 189.576 60.3658C188.456 62.2538 186.808 63.1978 184.632 63.1978C183.272 63.1978 182.104 62.7738 181.128 61.9258C180.152 61.0618 179.632 59.9578 179.568 58.6138Z" fill="#A1A4B2"/>
<path d="M171.724 126.048V124.008C172.764 124.056 173.612 123.88 174.268 123.48C175.052 123.032 175.444 122.328 175.444 121.368C175.444 120.664 175.196 120.096 174.7 119.664C174.22 119.216 173.596 118.992 172.828 118.992C171.932 118.992 171.236 119.336 170.74 120.024C170.244 120.696 170.012 121.496 170.044 122.424H167.308C167.388 120.744 167.908 119.384 168.868 118.344C169.892 117.256 171.228 116.712 172.876 116.712C174.3 116.712 175.508 117.088 176.5 117.84C177.62 118.672 178.18 119.792 178.18 121.2C178.18 123.04 177.388 124.24 175.804 124.8V124.848C176.748 125.04 177.492 125.52 178.036 126.288C178.58 127.04 178.852 127.96 178.852 129.048C178.852 130.584 178.26 131.832 177.076 132.792C175.956 133.72 174.564 134.184 172.9 134.184C171.012 134.184 169.548 133.648 168.508 132.576C167.532 131.552 167.028 130.136 166.996 128.328H169.732C169.7 129.384 169.956 130.232 170.5 130.872C171.06 131.56 171.86 131.904 172.9 131.904C173.844 131.904 174.612 131.64 175.204 131.112C175.812 130.568 176.116 129.832 176.116 128.904C176.116 126.872 174.652 125.92 171.724 126.048ZM180.86 121.992V119.832C182.108 119.848 183.164 119.64 184.028 119.208C184.988 118.712 185.564 117.992 185.756 117.048H187.988V133.848H184.988V121.992H180.86Z" fill="#A1A4B2"/>
<path d="M171.724 176.2V175.262C172.764 175.284 173.612 175.203 174.268 175.019C175.052 174.813 175.444 174.489 175.444 174.048C175.444 173.724 175.196 173.463 174.7 173.264C174.22 173.058 173.596 172.955 172.828 172.955C171.932 172.955 171.236 173.113 170.74 173.43C170.244 173.739 170.012 174.107 170.044 174.533H167.308C167.388 173.761 167.908 173.135 168.868 172.657C169.892 172.157 171.228 171.906 172.876 171.906C174.3 171.906 175.508 172.079 176.5 172.425C177.62 172.808 178.18 173.323 178.18 173.97C178.18 174.817 177.388 175.369 175.804 175.626V175.648C176.748 175.737 177.492 175.957 178.036 176.311C178.58 176.656 178.852 177.079 178.852 177.58C178.852 178.286 178.26 178.86 177.076 179.302C175.956 179.729 174.564 179.942 172.9 179.942C171.012 179.942 169.548 179.695 168.508 179.202C167.532 178.731 167.028 178.08 166.996 177.249H169.732C169.7 177.734 169.956 178.124 170.5 178.419C171.06 178.735 171.86 178.893 172.9 178.893C173.844 178.893 174.612 178.772 175.204 178.529C175.812 178.279 176.116 177.94 176.116 177.514C176.116 176.579 174.652 176.141 171.724 176.2Z" fill="#A1A4B2"/>
<path d="M185.06 176.2V175.262C186.1 175.284 186.948 175.203 187.604 175.019C188.388 174.813 188.78 174.489 188.78 174.048C188.78 173.724 188.532 173.463 188.036 173.264C187.556 173.058 186.932 172.955 186.164 172.955C185.268 172.955 184.572 173.113 184.076 173.43C183.58 173.739 183.348 174.107 183.38 174.533H180.644C180.724 173.761 181.244 173.135 182.204 172.657C183.228 172.157 184.564 171.906 186.212 171.906C187.636 171.906 188.844 172.079 189.836 172.425C190.956 172.808 191.516 173.323 191.516 173.97C191.516 174.817 190.724 175.369 189.14 175.626V175.648C190.084 175.737 190.828 175.957 191.372 176.311C191.916 176.656 192.188 177.079 192.188 177.58C192.188 178.286 191.596 178.86 190.412 179.302C189.292 179.729 187.9 179.942 186.236 179.942C184.348 179.942 182.884 179.695 181.844 179.202C180.868 178.731 180.364 178.08 180.332 177.249H183.068C183.036 177.734 183.292 178.124 183.836 178.419C184.396 178.735 185.196 178.893 186.236 178.893C187.18 178.893 187.948 178.772 188.54 178.529C189.148 178.279 189.452 177.94 189.452 177.514C189.452 176.579 187.988 176.141 185.06 176.2Z" fill="#A1A4B2"/>
<path d="M172.688 154.874V153.328C173.64 153.364 174.416 153.231 175.017 152.928C175.735 152.588 176.094 152.055 176.094 151.328C176.094 150.794 175.867 150.364 175.413 150.036C174.973 149.697 174.402 149.527 173.699 149.527C172.878 149.527 172.241 149.788 171.787 150.309C171.332 150.818 171.12 151.425 171.149 152.128H168.644C168.717 150.855 169.193 149.824 170.073 149.036C171.01 148.212 172.234 147.8 173.743 147.8C175.046 147.8 176.153 148.085 177.061 148.654C178.086 149.285 178.599 150.133 178.599 151.2C178.599 152.594 177.874 153.504 176.424 153.928V153.964C177.288 154.11 177.969 154.474 178.467 155.056C178.965 155.625 179.215 156.322 179.215 157.147C179.215 158.311 178.672 159.256 177.588 159.984C176.563 160.687 175.288 161.038 173.765 161.038C172.036 161.038 170.695 160.632 169.743 159.82C168.849 159.044 168.388 157.971 168.358 156.601H170.864C170.834 157.401 171.069 158.044 171.567 158.529C172.08 159.05 172.812 159.311 173.765 159.311C174.629 159.311 175.332 159.111 175.874 158.711C176.431 158.298 176.709 157.741 176.709 157.038C176.709 155.498 175.369 154.777 172.688 154.874Z" fill="#A1A4B2"/>
<path d="M191.25 158.929V160.784H180.746C180.76 158.856 181.888 157.25 184.13 155.965C184.833 155.577 185.529 155.189 186.218 154.801C187.009 154.34 187.602 153.904 187.998 153.492C188.496 152.958 188.752 152.388 188.767 151.782C188.781 151.2 188.62 150.709 188.283 150.309C187.844 149.788 187.141 149.527 186.174 149.527C184.489 149.527 183.61 150.588 183.536 152.71H181.031C181.031 151.255 181.485 150.085 182.394 149.2C183.346 148.266 184.657 147.8 186.327 147.8C188.027 147.8 189.323 148.248 190.217 149.145C190.92 149.861 191.272 150.715 191.272 151.709C191.272 153.249 190.129 154.68 187.844 156.001C186.994 156.474 186.144 156.947 185.295 157.42C184.459 157.953 183.947 158.456 183.756 158.929H191.25Z" fill="#A1A4B2"/>
<path d="M178.608 30.1323V31.8773H167.672C167.687 30.0638 168.861 28.5526 171.195 27.3436C171.927 26.9786 172.652 26.6136 173.369 26.2486C174.192 25.8152 174.81 25.4046 175.222 25.0168C175.741 24.5149 176.008 23.9789 176.023 23.4086C176.038 22.8611 175.87 22.3992 175.519 22.0228C175.062 21.5323 174.33 21.2871 173.323 21.2871C171.569 21.2871 170.654 22.2851 170.577 24.2811H167.969C167.969 22.9124 168.442 21.8118 169.388 20.9792C170.379 20.1009 171.744 19.6618 173.483 19.6618C175.253 19.6618 176.602 20.0838 177.533 20.9278C178.265 21.6008 178.631 22.4049 178.631 23.3401C178.631 24.7887 177.441 26.1346 175.062 27.3778C174.177 27.8226 173.292 28.2674 172.408 28.7122C171.538 29.2141 171.004 29.6874 170.806 30.1323H178.608Z" fill="#A4A7B5"/>
<path d="M185.854 30.5771C186.738 30.5771 187.463 30.3775 188.027 29.9783C188.607 29.5791 188.897 29.0373 188.897 28.353C188.897 27.7028 188.607 27.1896 188.027 26.8132C187.463 26.4368 186.738 26.2486 185.854 26.2486C184.969 26.2486 184.237 26.4368 183.657 26.8132C183.093 27.1896 182.811 27.7028 182.811 28.353C182.811 29.0373 183.093 29.5791 183.657 29.9783C184.237 30.3775 184.969 30.5771 185.854 30.5771ZM185.854 32.1169C184.191 32.1169 182.833 31.7804 181.781 31.1074C180.728 30.4231 180.202 29.5049 180.202 28.353C180.202 27.6116 180.462 26.9843 180.98 26.471C181.514 25.9464 182.231 25.5985 183.131 25.4274V25.4103C181.621 24.9655 180.866 24.1386 180.866 22.9295C180.866 21.903 181.3 21.1046 182.17 20.5343C183.039 19.9526 184.267 19.6618 185.854 19.6618C187.44 19.6618 188.668 19.9526 189.537 20.5343C190.407 21.1046 190.841 21.903 190.841 22.9295C190.841 24.1386 190.086 24.9655 188.576 25.4103V25.4274C189.476 25.5985 190.186 25.9464 190.704 26.471C191.238 26.9843 191.505 27.6116 191.505 28.353C191.505 29.5049 190.979 30.4231 189.926 31.1074C188.874 31.7804 187.516 32.1169 185.854 32.1169ZM185.854 21.2016C185.121 21.2016 184.519 21.367 184.046 21.6977C183.573 22.0171 183.337 22.4619 183.337 23.0322C183.337 23.5797 183.566 24.0131 184.023 24.3324C184.496 24.6404 185.106 24.7944 185.854 24.7944C186.601 24.7944 187.203 24.6404 187.661 24.3324C188.134 24.0131 188.37 23.5797 188.37 23.0322C188.37 22.4619 188.134 22.0171 187.661 21.6977C187.188 21.367 186.586 21.2016 185.854 21.2016Z" fill="#A4A7B5"/>
<path d="M170.412 89.7407V87.7007C171.452 87.7487 172.3 87.5727 172.956 87.1727C173.74 86.7247 174.132 86.0207 174.132 85.0607C174.132 84.3567 173.884 83.7887 173.388 83.3567C172.908 82.9087 172.284 82.6847 171.516 82.6847C170.62 82.6847 169.924 83.0287 169.428 83.7167C168.932 84.3887 168.7 85.1887 168.732 86.1167H165.996C166.076 84.4367 166.596 83.0767 167.556 82.0367C168.58 80.9487 169.916 80.4047 171.564 80.4047C172.988 80.4047 174.196 80.7807 175.188 81.5327C176.308 82.3647 176.868 83.4847 176.868 84.8927C176.868 86.7327 176.076 87.9327 174.492 88.4927V88.5407C175.436 88.7327 176.18 89.2127 176.724 89.9807C177.268 90.7327 177.54 91.6527 177.54 92.7407C177.54 94.2767 176.948 95.5247 175.764 96.4847C174.644 97.4127 173.252 97.8767 171.588 97.8767C169.7 97.8767 168.236 97.3407 167.196 96.2687C166.22 95.2447 165.716 93.8287 165.684 92.0207H168.42C168.388 93.0767 168.644 93.9247 169.188 94.5647C169.748 95.2527 170.548 95.5967 171.588 95.5967C172.532 95.5967 173.3 95.3327 173.892 94.8047C174.5 94.2607 174.804 93.5247 174.804 92.5967C174.804 90.5647 173.34 89.6127 170.412 89.7407ZM184.948 95.5967C186.996 95.5967 188.02 93.4447 188.02 89.1407C188.02 84.8367 186.996 82.6847 184.948 82.6847C182.9 82.6847 181.876 84.8367 181.876 89.1407C181.876 93.4447 182.9 95.5967 184.948 95.5967ZM184.948 80.4047C187.124 80.4047 188.692 81.3807 189.652 83.3327C190.388 84.8047 190.756 86.7407 190.756 89.1407C190.756 91.5407 190.388 93.4767 189.652 94.9487C188.692 96.9007 187.124 97.8767 184.948 97.8767C182.772 97.8767 181.204 96.9007 180.244 94.9487C179.508 93.4767 179.14 91.5407 179.14 89.1407C179.14 86.7407 179.508 84.8047 180.244 83.3327C181.204 81.3807 182.772 80.4047 184.948 80.4047Z" fill="#263238"/>
<path d="M180.442 6.81944V7.83684H170.875C170.888 6.77954 171.915 5.89846 173.957 5.19359C174.598 4.9808 175.231 4.76801 175.859 4.55522C176.579 4.30253 177.12 4.06314 177.48 3.83705C177.934 3.54447 178.167 3.23193 178.181 2.89945C178.194 2.58026 178.047 2.31095 177.74 2.09151C177.34 1.80558 176.699 1.66261 175.819 1.66261C174.284 1.66261 173.483 2.24445 173.417 3.40815H171.135C171.135 2.61019 171.548 1.96849 172.376 1.48307C173.243 0.97104 174.437 0.715027 175.959 0.715027C177.507 0.715027 178.688 0.961065 179.502 1.45314C180.142 1.84547 180.462 2.31428 180.462 2.85955C180.462 3.70406 179.422 4.48872 177.34 5.21354C176.566 5.47288 175.792 5.73221 175.018 5.99155C174.257 6.28414 173.79 6.5601 173.617 6.81944H180.442Z" fill="#A1A4B2"/>
<path d="M181.917 1.87207V0.85467H191.505V1.80225C188.342 3.58437 186.601 5.59589 186.281 7.83684H183.779C183.925 6.77954 184.506 5.71227 185.52 4.63502C186.454 3.64421 187.675 2.72323 189.183 1.87207H181.917Z" fill="#A1A4B2"/>
<path d="M245.083 83.3567L242.491 90.7247H247.723L245.155 83.3567H245.083ZM236.971 97.5407L243.547 80.4047H246.739L253.339 97.5407H250.123L248.515 93.0047H241.675L240.067 97.5407H236.971ZM254.923 97.5407V80.4047H259.147L263.875 93.8207H263.923L268.531 80.4047H272.707V97.5407H269.851V84.3167H269.803L265.051 97.5407H262.579L257.827 84.3167H257.779V97.5407H254.923Z" fill="#263238"/>
<path d="M241.963 119.16V124.824H246.355C247.155 124.824 247.827 124.624 248.371 124.224C249.027 123.728 249.355 122.984 249.355 121.992C249.355 120.104 248.371 119.16 246.403 119.16H241.963ZM238.963 133.848V116.712H246.523C248.699 116.712 250.283 117.328 251.275 118.56C251.995 119.456 252.355 120.608 252.355 122.016C252.355 123.408 251.995 124.544 251.275 125.424C250.283 126.656 248.699 127.272 246.523 127.272H241.963V133.848H238.963ZM254.923 133.848V116.712H259.147L263.875 130.128H263.923L268.531 116.712H272.707V133.848H269.851V120.624H269.803L265.051 133.848H262.579L257.827 120.624H257.779V133.848H254.923Z" fill="#A1A4B2"/>
<path d="M0.196777 70.614H373.803M0.196777 109.602H373.803" stroke="#E1E1E6" stroke-width="0.5"/>
<path d="M111.117 7.58561C111.953 7.58561 112.637 7.45418 113.171 7.19132C113.718 6.92847 113.992 6.57173 113.992 6.12112C113.992 5.69304 113.718 5.35509 113.171 5.10725C112.637 4.85942 111.953 4.7355 111.117 4.7355C110.281 4.7355 109.589 4.85942 109.041 5.10725C108.508 5.35509 108.241 5.69304 108.241 6.12112C108.241 6.57173 108.508 6.92847 109.041 7.19132C109.589 7.45418 110.281 7.58561 111.117 7.58561ZM111.117 8.59948C109.546 8.59948 108.263 8.37793 107.268 7.93483C106.274 7.48422 105.776 6.87965 105.776 6.12112C105.776 5.63296 106.021 5.2199 106.511 4.88195C107.016 4.53648 107.693 4.30742 108.544 4.19477V4.1835C107.117 3.8906 106.403 3.34612 106.403 2.55004C106.403 1.87412 106.814 1.34841 107.636 0.972904C108.457 0.589886 109.618 0.398376 111.117 0.398376C112.616 0.398376 113.776 0.589886 114.597 0.972904C115.419 1.34841 115.83 1.87412 115.83 2.55004C115.83 3.34612 115.116 3.8906 113.689 4.1835V4.19477C114.54 4.30742 115.21 4.53648 115.7 4.88195C116.205 5.2199 116.457 5.63296 116.457 6.12112C116.457 6.87965 115.96 7.48422 114.965 7.93483C113.97 8.37793 112.688 8.59948 111.117 8.59948ZM111.117 1.41225C110.425 1.41225 109.855 1.52115 109.409 1.73894C108.962 1.94923 108.738 2.24212 108.738 2.61763C108.738 2.97812 108.955 3.2635 109.387 3.47379C109.834 3.67656 110.41 3.77795 111.117 3.77795C111.823 3.77795 112.392 3.67656 112.825 3.47379C113.271 3.2635 113.495 2.97812 113.495 2.61763C113.495 2.24212 113.271 1.94923 112.825 1.73894C112.378 1.52115 111.808 1.41225 111.117 1.41225Z" fill="#A1A4B2"/>
</svg>
