<svg width="414" height="755" viewBox="0 0 414 755" fill="none" xmlns="http://www.w3.org/2000/svg">
<path fill-rule="evenodd" clip-rule="evenodd" d="M414 149.339C439.53 136.247 457 109.664 457 79C457 35.3695 421.63 0 378 0C351.485 0 328.02 13.0631 313.691 33.1047C308.863 31.7338 303.767 31 298.5 31C279.219 31 262.235 40.8316 252.287 55.755C244.984 47.9081 234.565 43 223 43C207.366 43 193.826 51.9696 187.247 65.0435C176.307 58.6584 163.581 55 150 55C125.225 55 103.294 67.175 89.8628 85.8683C85.4494 84.6505 80.8007 84 76 84C67.8397 84 60.1184 85.8797 53.2455 89.2297C45.671 75.9515 31.3808 67 15 67C-9.30053 67 -29 86.6995 -29 111C-29 130.033 -16.9151 146.244 0 152.377V755H414V149.339ZM249.458 113H249.723C249.694 112.947 249.666 112.894 249.637 112.841C249.578 112.894 249.518 112.947 249.458 113Z" fill="url(#paint0_linear_1_1609)"/>
<defs>
<linearGradient id="paint0_linear_1_1609" x1="207" y1="32" x2="207" y2="545.5" gradientUnits="userSpaceOnUse">
<stop stop-color="#FAF8F5"/>
<stop offset="1" stop-color="white" stop-opacity="0"/>
</linearGradient>
</defs>
</svg>
