<svg width="177" height="211" viewBox="0 0 177 211" fill="none" xmlns="http://www.w3.org/2000/svg">
<path d="M177.82 -21.1206H0.159668V230.145H177.82V-21.1206Z" fill="#F6EECA"/>
<path d="M177.82 -71.1206H0.159668V180.145H177.82V-71.1206Z" fill="url(#paint0_linear_1_1197)"/>
<path d="M136.368 26.8587C137.81 17.9705 131.774 9.59584 122.886 8.15335C113.998 6.71085 105.623 12.7468 104.181 21.635C102.738 30.5232 108.774 38.8979 117.662 40.3404C126.55 41.7829 134.925 35.7469 136.368 26.8587Z" fill="#FBAD82"/>
<path d="M89.8527 36.4638C90.5366 36.3987 91.2204 36.3987 91.8826 36.453C92.5881 31.1667 96.8324 26.8465 102.368 26.2821C107.285 25.7828 111.79 28.3879 113.972 32.5019C114.254 32.4584 114.547 32.415 114.84 32.3825C121.842 31.6769 128.083 36.7786 128.789 43.7691C129.44 50.2494 125.12 56.0784 118.922 57.4678L118.911 57.5655H118.444C118.097 57.6306 117.749 57.6849 117.402 57.7175C116.176 57.8369 91.9911 57.5981 91.9911 57.5981C86.1513 58.1842 80.941 53.9292 80.3548 48.1001C79.7578 42.2711 84.0129 37.05 89.8527 36.4638Z" fill="url(#paint1_linear_1_1197)"/>
<path d="M181.521 19.2482C170.275 20.312 161.135 29.2454 159.757 40.4584C159.355 43.7799 159.638 46.9821 160.473 49.9672C149.662 50.3471 141.011 59.2046 141.011 70.1136C141.011 72.5993 141.478 74.9657 142.302 77.1583C136.951 77.7553 132.794 82.2926 132.794 87.796C132.794 89.4242 133.174 90.9656 133.814 92.3441C131.545 91.91 129.081 91.9968 126.509 93.028C122.341 94.6996 119.138 98.3251 118.227 102.721C117.716 105.185 117.934 107.541 118.65 109.657C116.62 108.984 114.46 108.615 112.213 108.615C104.908 108.615 98.5144 112.436 94.8563 118.168C92.3055 115.997 88.9948 114.683 85.3801 114.683C84.0558 114.683 82.775 114.879 81.5592 115.204C80.4412 107.563 73.8741 101.679 65.9175 101.679C64.8104 101.679 63.7357 101.788 62.7045 102.005C63.0193 100.887 63.193 99.7037 63.193 98.4879C63.193 91.606 57.8742 85.9724 51.1334 85.4405C54.1076 82.9439 56.0071 79.199 56.0071 75.0091C56.0071 68.3117 51.1768 62.7541 44.805 61.6143C52.8593 57.0445 58.3301 48.4149 58.4061 38.5154C58.5255 23.818 46.4224 11.5413 31.7142 11.4653C26.3954 11.4436 21.4456 12.9741 17.2774 15.6119C12.7726 6.483 3.39413 0.187243 -7.47148 0.154678C-22.7441 0.111259 -35.2379 13.2998 -35.2379 28.5724V189.733H208.169V43.4326C208.18 29.2346 196.001 17.8914 181.521 19.2482Z" fill="url(#paint2_linear_1_1197)"/>
<path d="M186.557 97.066C184.614 92.7023 181.607 88.8923 177.819 85.9832C173.249 86.2112 169.255 89.1963 167.757 93.5599L155.382 129.76C153.949 133.961 148.272 134.613 145.917 130.846C143.279 126.623 138.601 124.116 133.629 124.268C128.473 124.42 123.827 127.405 121.526 132.018L111.8 155.128L88.593 131.921C84.5767 127.904 79.1276 125.647 73.4506 125.647C70.2376 125.647 67.1657 126.927 64.8862 129.196C60.1535 133.929 52.4901 133.929 47.7682 129.196L36.2188 117.647C32.691 114.119 27.8932 112.132 22.9 112.132C16.6151 112.132 10.7535 115.259 7.25827 120.48L-66.3478 224.805L242.372 219.67L186.557 97.066Z" fill="#F6E6A4"/>
<path d="M51.7629 146.043C51.5784 146.043 51.3939 146.043 51.2093 146.043C25.9286 146.162 1.7225 156.279 -16.5135 173.777L-101.159 254.959H170.362C165.228 193.956 114.091 146.043 51.7629 146.043Z" fill="#ADB010"/>
<path d="M51.7629 146.043C51.5784 146.043 51.3939 146.043 51.2093 146.043C25.9286 146.162 1.7225 156.279 -16.5135 173.777L-101.159 254.959H170.362C165.228 193.956 114.091 146.043 51.7629 146.043Z" fill="url(#paint3_linear_1_1197)"/>
<path d="M151.019 61.0064C152.561 58.4447 153.158 55.4705 152.919 52.4854C152.886 52.073 152.865 51.6496 152.865 51.2263C152.865 43.1938 158.715 36.6809 165.934 36.6809C173.152 36.6809 179.003 43.1938 179.003 51.2263C179.003 51.6496 178.981 52.073 178.949 52.4854C178.71 55.4705 179.307 58.4339 180.848 61.0064C182.748 64.176 183.855 67.9752 183.855 72.0674C183.855 83.085 175.822 92.0185 165.923 92.0185C156.012 92.0185 147.991 83.085 147.991 72.0674C148.012 67.9752 149.12 64.176 151.019 61.0064Z" fill="#CACB68"/>
<path d="M151.019 61.0064C152.561 58.4447 153.158 55.4705 152.919 52.4854C152.886 52.073 152.865 51.6496 152.865 51.2263C152.865 43.1938 158.715 36.6809 165.934 36.6809C173.152 36.6809 179.003 43.1938 179.003 51.2263C179.003 51.6496 178.981 52.073 178.949 52.4854C178.71 55.4705 179.307 58.4339 180.848 61.0064C182.748 64.176 183.855 67.9752 183.855 72.0674C183.855 83.085 175.822 92.0185 165.923 92.0185C156.012 92.0185 147.991 83.085 147.991 72.0674C148.012 67.9752 149.12 64.176 151.019 61.0064Z" fill="url(#paint4_linear_1_1197)"/>
<path d="M174.118 70.8626C173.988 70.7866 173.847 70.7432 173.695 70.7432C173.412 70.7432 173.152 70.8843 173 71.134L168.126 79.134L166.748 81.3918V78.7432V50.0324C166.748 49.5873 166.389 49.2291 165.944 49.2291C165.499 49.2291 165.141 49.5873 165.141 50.0324V60.4095V63.0581L163.763 60.8003L162.265 58.3362C162.113 58.0974 161.863 57.9455 161.57 57.9455C161.418 57.9455 161.277 57.9889 161.147 58.0649C160.767 58.2928 160.647 58.7921 160.875 59.1721L164.968 65.8912L165.011 65.9563L165.13 66.1408V66.3579V78.5261V81.1746L163.752 78.9169L159.008 71.1231C158.856 70.8843 158.607 70.7324 158.314 70.7324C158.162 70.7324 158.02 70.7758 157.89 70.8518C157.51 71.0797 157.391 71.579 157.619 71.959L164.761 83.6712C164.794 83.7255 164.837 83.7906 164.892 83.8341L165.119 84.0512V84.366V121.196H166.737V84.4854V84.1163L167.03 83.8883C167.128 83.8124 167.193 83.7472 167.236 83.6821L174.379 71.9698C174.617 71.5899 174.498 71.0906 174.118 70.8626Z" fill="#4B766F"/>
<path d="M84.4362 139.693C84.9029 138.911 85.0875 137.999 85.0223 137.088C85.0115 136.957 85.0115 136.838 85.0115 136.708C85.0115 134.254 86.8025 132.268 89.006 132.268C91.2096 132.268 93.0006 134.254 93.0006 136.708C93.0006 136.838 93.0006 136.968 92.9897 137.088C92.9137 137.999 93.0983 138.9 93.5759 139.693C94.162 140.659 94.4985 141.82 94.4985 143.069C94.4985 146.433 92.0454 149.158 89.0169 149.158C85.9884 149.158 83.5352 146.433 83.5352 143.069C83.5135 141.82 83.85 140.659 84.4362 139.693Z" fill="#CACB68"/>
<path d="M91.4917 142.699C91.4483 142.678 91.4049 142.667 91.3615 142.667C91.2746 142.667 91.1987 142.71 91.1552 142.786L89.6681 145.229L89.2448 145.923V145.12V136.349C89.2448 136.208 89.1363 136.1 88.9951 136.1C88.854 136.1 88.7455 136.208 88.7455 136.349V139.519V140.322L88.3222 139.628L87.8663 138.879C87.8228 138.803 87.7468 138.759 87.66 138.759C87.6166 138.759 87.5732 138.77 87.5298 138.792C87.4104 138.868 87.3778 139.02 87.4429 139.128L88.6912 141.18L88.7021 141.202L88.7346 141.256V141.321V145.033V145.837L88.3113 145.142L86.8568 142.765C86.8133 142.689 86.7374 142.645 86.6505 142.645C86.6071 142.645 86.5637 142.656 86.5203 142.678C86.4009 142.754 86.3683 142.906 86.4334 143.014L88.6152 146.596C88.6261 146.618 88.6369 146.629 88.6586 146.651L88.7238 146.716V146.813V158.059H89.2122V146.846V146.737L89.2991 146.672C89.3317 146.651 89.3534 146.629 89.3642 146.607L91.546 143.025C91.6437 142.927 91.6003 142.775 91.4917 142.699Z" fill="#4B766F"/>
<path d="M-2.89057 149.147C-1.7074 147.182 -1.2515 144.914 -1.43603 142.634C-1.45774 142.319 -1.4686 141.994 -1.4686 141.668C-1.4686 135.524 3.00357 130.542 8.52864 130.542C14.0537 130.542 18.5259 135.524 18.5259 141.668C18.5259 141.994 18.515 142.309 18.4933 142.634C18.3088 144.914 18.7647 147.182 19.9478 149.147C21.4024 151.568 22.2491 154.477 22.2491 157.614C22.2491 166.037 16.1053 172.876 8.52864 172.876C0.95202 172.876 -5.19177 166.048 -5.19177 157.614C-5.19177 154.488 -4.34511 151.578 -2.89057 149.147Z" fill="#CACB68"/>
<path d="M-2.89057 149.147C-1.7074 147.182 -1.2515 144.914 -1.43603 142.634C-1.45774 142.319 -1.4686 141.994 -1.4686 141.668C-1.4686 135.524 3.00357 130.542 8.52864 130.542C14.0537 130.542 18.5259 135.524 18.5259 141.668C18.5259 141.994 18.515 142.309 18.4933 142.634C18.3088 144.914 18.7647 147.182 19.9478 149.147C21.4024 151.568 22.2491 154.477 22.2491 157.614C22.2491 166.037 16.1053 172.876 8.52864 172.876C0.95202 172.876 -5.19177 166.048 -5.19177 157.614C-5.19177 154.488 -4.34511 151.578 -2.89057 149.147Z" fill="url(#paint5_linear_1_1197)"/>
<path d="M14.7808 156.691C14.6831 156.637 14.5746 156.604 14.4552 156.604C14.2381 156.604 14.0427 156.713 13.9233 156.897L10.1893 163.02L9.13636 164.745V162.726V140.767C9.13636 140.431 8.85414 140.149 8.51764 140.149C8.18114 140.149 7.89892 140.431 7.89892 140.767V148.702V150.721L6.846 148.995L5.6954 147.106C5.58686 146.922 5.38061 146.813 5.16351 146.813C5.05497 146.813 4.93557 146.846 4.83788 146.9C4.5448 147.074 4.45796 147.454 4.63163 147.747L7.76866 152.881L7.80122 152.935L7.88806 153.077V153.239V162.553V164.572L6.83515 162.846L3.19881 156.887C3.09026 156.702 2.88402 156.594 2.66692 156.594C2.55838 156.594 2.43897 156.626 2.34128 156.68C2.0482 156.854 1.96137 157.234 2.13504 157.527L7.59499 166.493C7.62755 166.536 7.66011 166.58 7.69267 166.623L7.86635 166.786V167.025V195.193H9.1038V167.101V166.819L9.32089 166.645C9.39687 166.591 9.44029 166.537 9.47285 166.482L14.9328 157.516C15.1607 157.245 15.0739 156.865 14.7808 156.691Z" fill="#146357"/>
<path d="M186.894 104.512C179.252 104.512 171.817 107.378 166.389 112.762C166.357 112.795 166.324 112.827 166.292 112.86L149.695 129.457C141.174 137.978 129.613 142.689 117.565 142.721C105.603 142.754 94.1292 147.519 85.6625 155.986L68.5771 173.071C60.0887 181.559 48.5718 186.335 36.5664 186.335H15.2585C5.35899 186.335 -4.35602 188.941 -12.9204 193.901L-118.526 254.959H329.504L220.099 115.942C214.422 108.724 205.738 104.512 196.555 104.512H186.894Z" fill="#D3D265"/>
<path d="M186.894 104.512C179.252 104.512 171.817 107.378 166.389 112.762C166.357 112.795 166.324 112.827 166.292 112.86L149.695 129.457C141.174 137.978 129.613 142.689 117.565 142.721C105.603 142.754 94.1292 147.519 85.6625 155.986L68.5771 173.071C60.0887 181.559 48.5718 186.335 36.5664 186.335H15.2585C5.35899 186.335 -4.35602 188.941 -12.9204 193.901L-118.526 254.959H329.504L220.099 115.942C214.422 108.724 205.738 104.512 196.555 104.512H186.894Z" fill="#D3D265"/>
<path d="M-7.37362 231.413C-7.37362 231.413 -12.8227 220.514 -3.80241 216.769C-3.80241 216.769 1.75523 214.49 7.04149 219.19V215.011C6.83525 198.989 23.9098 185.92 34.656 192.032C45.4131 198.143 38.2381 213.6 38.2381 213.6C44.9897 206.924 52.3601 209.953 52.3601 209.953C63.5297 214.588 56.7888 228.08 56.7888 228.08C76.3925 222.175 74.9163 245.372 74.9163 245.372H32.789H7.01979H-22.0058C-22.0058 245.383 -23.1999 226.647 -7.37362 231.413Z" fill="#6E700A"/>
<path d="M172.49 186.428C172.457 185.006 172.153 183.508 171.165 182.498C170.438 181.749 169.418 181.348 168.408 181.12C165.532 180.468 162.384 181.076 159.953 182.748C158.498 183.747 157.109 185.179 155.339 185.147C153.027 185.114 151.627 182.705 150.422 180.729C148.067 176.886 144.094 173.402 139.611 173.858C136.886 174.129 134.422 175.899 133 178.232C131.578 180.566 131.133 183.421 131.426 186.146C131.654 188.208 132.284 190.238 132.316 192.311C132.371 196.175 130.373 199.736 129.353 203.47C128.333 207.204 128.723 211.969 132.088 213.879C135.182 215.638 139.285 214.097 142.509 215.605C143.041 215.855 143.594 216.3 143.54 216.886C143.475 217.613 142.585 217.874 141.879 218.059C136.702 219.361 133.38 225.592 135.193 230.617C136.767 234.992 141.185 237.586 145.364 239.638C151.149 242.493 157.174 245.054 163.545 246.042C169.917 247.041 176.734 246.368 182.292 243.09C187.752 239.866 191.572 234.438 194.416 228.772C196.164 225.288 197.64 221.499 197.401 217.613C197.163 213.727 194.818 209.733 191.073 208.658C187.013 207.486 182.878 209.885 178.71 210.525C179.762 208.333 179.372 205.532 177.765 203.709C176.278 202.015 173.89 201.31 171.708 201.755C170.08 202.08 167.442 203.882 167.214 201.136C167.041 199.008 169.472 196.566 170.362 194.797C171.665 192.202 172.566 189.369 172.49 186.428Z" fill="#6E700A"/>
<path d="M179.437 240.495L179.415 240.473C177.385 238.357 175.388 236.142 173.445 233.895C172.11 232.343 170.786 230.78 169.494 229.206C169.592 229.13 169.679 229.043 169.776 228.956C170.015 228.729 170.243 228.479 170.438 228.218C170.851 227.697 171.187 227.133 171.48 226.525C172.056 225.331 172.566 224.094 173.011 222.824C173.445 221.554 173.792 220.229 173.999 218.872C174.216 217.526 174.292 216.115 174.107 214.726C174.053 214.313 173.749 213.955 173.315 213.858C172.761 213.727 172.208 214.075 172.077 214.628L172.067 214.661C171.784 215.844 171.437 216.984 171.035 218.134C170.829 218.699 170.612 219.274 170.384 219.838C170.145 220.403 169.906 220.967 169.668 221.532C169.179 222.661 168.658 223.779 168.105 224.897C167.833 225.461 167.594 226.037 167.421 226.655C163.817 222.151 160.289 217.592 156.989 212.859C155.654 210.959 154.33 209.049 153.027 207.138C153.049 207.106 153.082 207.073 153.103 207.041C153.342 206.748 153.527 206.455 153.711 206.161C154.059 205.564 154.33 204.946 154.547 204.316C154.959 203.046 155.307 201.776 155.567 200.474C155.839 199.182 156.045 197.868 156.164 196.555C156.295 195.242 156.327 193.906 156.229 192.582C156.208 192.235 155.958 191.931 155.611 191.844C155.166 191.736 154.721 191.996 154.612 192.441V192.452L153.679 196.143C153.364 197.358 153.027 198.574 152.691 199.79C152.333 200.995 151.985 202.2 151.605 203.383C151.486 203.773 151.388 204.175 151.291 204.577C150.042 202.699 148.816 200.799 147.622 198.889C147.578 198.585 147.415 198.324 147.166 198.162C147.144 198.129 147.122 198.096 147.101 198.064C143.909 193.06 140.968 187.893 138.026 182.726L138.015 182.704C137.798 182.324 137.331 182.183 136.941 182.39C136.539 182.596 136.387 183.084 136.593 183.486L138.645 187.48C139.339 188.805 140.002 190.151 140.751 191.442C141.945 193.537 143.106 195.654 144.344 197.727C144.018 197.662 143.703 197.586 143.377 197.499C142.824 197.358 142.27 197.195 141.717 197.033C141.163 196.859 140.61 196.685 140.078 196.49H140.067C139.611 196.327 139.101 196.555 138.927 197.011C138.742 197.478 138.97 197.999 139.437 198.183C140.012 198.411 140.566 198.607 141.141 198.802C141.717 198.997 142.292 199.182 142.878 199.356C143.464 199.529 144.061 199.681 144.669 199.811C145.006 199.877 145.342 199.942 145.7 199.985C146.319 201.016 146.938 202.048 147.589 203.057L150.031 206.824C150.835 208.094 151.692 209.32 152.528 210.558C153.386 211.784 154.189 213.043 155.09 214.248L156.197 215.779C155.567 215.703 154.949 215.67 154.319 215.605L153.092 215.529L151.855 215.475C151.03 215.453 150.205 215.431 149.369 215.464H149.348C148.957 215.486 148.588 215.725 148.425 216.115C148.208 216.647 148.468 217.255 149 217.472C149.803 217.798 150.628 218.037 151.443 218.243C152.268 218.449 153.103 218.612 153.928 218.742C154.764 218.851 155.6 219.003 156.436 219.024C157.109 219.046 157.782 219.014 158.476 218.894L160.43 221.456C161.331 222.661 162.276 223.811 163.209 224.984C164.132 226.167 165.098 227.307 166.064 228.457C169.928 233.049 173.912 237.499 178.297 241.646C178.612 241.939 179.111 241.939 179.415 241.646C179.73 241.342 179.741 240.821 179.437 240.495Z" fill="#CACB68"/>
<path d="M9.58169 58.8463C13.7716 63.7201 22.6617 62.9386 22.6617 62.9386C22.6617 62.9386 24.7566 54.2656 20.5667 49.3918C16.3768 44.518 7.48672 45.2996 7.48672 45.2996C7.48672 45.2996 5.39176 53.9725 9.58169 58.8463Z" fill="#CACB68"/>
<defs>
<linearGradient id="paint0_linear_1_1197" x1="88.9896" y1="-55.6192" x2="88.9896" y2="123.254" gradientUnits="userSpaceOnUse">
<stop offset="0.33755" stop-color="#D6F7DE"/>
<stop offset="0.596419" stop-color="#E0F4D7"/>
<stop offset="0.9596" stop-color="#B9FFEF" stop-opacity="0"/>
</linearGradient>
<linearGradient id="paint1_linear_1_1197" x1="105.696" y1="20.4808" x2="103.284" y2="75.4783" gradientUnits="userSpaceOnUse">
<stop stop-color="white"/>
<stop offset="1" stop-color="white" stop-opacity="0"/>
</linearGradient>
<linearGradient id="paint2_linear_1_1197" x1="80.2717" y1="-4.39043" x2="90.5664" y2="195.788" gradientUnits="userSpaceOnUse">
<stop stop-color="white"/>
<stop offset="1" stop-color="white" stop-opacity="0"/>
</linearGradient>
<linearGradient id="paint3_linear_1_1197" x1="29.1644" y1="127.195" x2="31.7373" y2="187.66" gradientUnits="userSpaceOnUse">
<stop offset="0.4372" stop-color="#FFF459" stop-opacity="0.53"/>
<stop offset="0.9596" stop-color="#FFF459" stop-opacity="0"/>
</linearGradient>
<linearGradient id="paint4_linear_1_1197" x1="165.051" y1="36.2884" x2="166.015" y2="74.8832" gradientUnits="userSpaceOnUse">
<stop offset="0.4372" stop-color="#FFF459" stop-opacity="0.53"/>
<stop offset="0.9596" stop-color="#FFF459" stop-opacity="0"/>
</linearGradient>
<linearGradient id="paint5_linear_1_1197" x1="8.52821" y1="125.436" x2="8.52821" y2="159.689" gradientUnits="userSpaceOnUse">
<stop offset="0.4372" stop-color="#FFF459" stop-opacity="0.53"/>
<stop offset="0.9596" stop-color="#FFF459" stop-opacity="0"/>
</linearGradient>
</defs>
</svg>
