<svg width="176" height="97" viewBox="0 0 176 97" fill="none" xmlns="http://www.w3.org/2000/svg">
<path fill-rule="evenodd" clip-rule="evenodd" d="M0.595169 48.7978C5.09644 57.4866 12.1005 71.0066 36.5 66.8157C56.1432 63.4418 61.9405 73.9292 67.3765 83.7629C68.2514 85.3457 69.117 86.9115 70.0294 88.3999C71.4713 90.7518 74.1102 92 76.8689 92H88H99.1311C101.89 92 104.529 90.7518 105.971 88.3999C106.883 86.9115 107.749 85.3457 108.624 83.7629C114.06 73.9292 119.857 63.4418 139.5 66.8157C163.899 71.0066 170.904 57.4866 175.405 48.7978C175.794 48.0456 176 47.2111 176 46.364V7.47645C176 1.06048 169.478 -3.29492 163.552 -0.836805L91.4481 29.0699C89.2406 29.9855 86.7594 29.9855 84.5519 29.0699L12.4481 -0.836805C6.5217 -3.29492 0 1.06048 0 7.47645V46.364C0 47.2111 0.205497 48.0456 0.595169 48.7978Z" fill="#F4A17C"/>
<path d="M104.252 10.2928C104.252 10.2928 105.314 10.4108 106.223 11.2242C107.132 12.0376 107.971 9.96435 106.466 9.54098C104.964 9.1176 104.252 10.2928 104.252 10.2928Z" fill="#F5E2D5"/>
<path d="M103.242 10.1978C103.242 10.1978 103.936 9.39214 105.125 9.1022C106.313 8.81225 105.049 6.96224 103.853 7.95781C102.659 8.95594 103.242 10.1978 103.242 10.1978Z" fill="#F5E2D5"/>
<path d="M89.3798 15.0139C89.3798 15.0139 88.6418 15.7786 88.4709 16.982C88.2999 18.1828 86.3138 17.1257 87.1942 15.8453C88.0721 14.5649 89.3798 15.0139 89.3798 15.0139Z" fill="#F5E2D5"/>
<path d="M90.095 14.3006C90.095 14.3006 89.0411 14.1235 87.9405 14.6572C86.8399 15.1909 86.6121 12.9689 88.1762 12.9714C89.7377 12.974 90.095 14.3006 90.095 14.3006Z" fill="#F5E2D5"/>
<path d="M105.403 21.318C107.707 17.558 106.499 12.6592 102.704 10.3763C98.9096 8.09341 93.9657 9.29082 91.6617 13.0508C89.3577 16.8108 90.5662 21.7096 94.3609 23.9925C98.1556 26.2754 103.1 25.078 105.403 21.318Z" fill="#F5E2D5"/>
<path d="M92.3035 15.8273C92.1663 15.8632 92.0187 15.8042 91.9488 15.6759C91.8685 15.527 91.9229 15.3397 92.0757 15.2602L94.0774 14.1902L92.736 14.144C92.5651 14.1389 92.4304 13.9952 92.4356 13.8259C92.4408 13.6565 92.5858 13.5231 92.7567 13.5282L95.2427 13.6129C95.3825 13.618 95.5017 13.7155 95.5353 13.8515C95.5664 13.9875 95.5042 14.1261 95.3799 14.1928L92.3683 15.8016C92.3476 15.8119 92.3269 15.8196 92.3035 15.8273Z" fill="#3F4553"/>
<path d="M103.019 12.9072C102.996 12.9123 102.973 12.9174 102.947 12.9174L99.6762 13.0201C99.5363 13.0252 99.4095 12.9354 99.368 12.802C99.3266 12.6685 99.381 12.5249 99.5001 12.4504L101.709 11.0854C101.854 10.9956 102.046 11.0392 102.136 11.1829C102.227 11.3266 102.183 11.5165 102.038 11.6063L100.808 12.3658L102.926 12.2991C103.097 12.2939 103.242 12.4273 103.247 12.5967C103.25 12.7455 103.154 12.8687 103.019 12.9072Z" fill="#3F4553"/>
<path d="M92.1687 17.213C93.8726 20.3254 96.8972 22.0985 99.6836 21.3389C102.467 20.5794 104.153 17.5209 104.011 13.9851L102.936 14.0954C99.4946 14.447 96.1463 15.3681 93.0155 16.8204L92.1687 17.213Z" fill="#3F4553"/>
<path d="M103.092 17.9802C101.885 17.5876 100.36 17.5542 98.8035 17.9802C97.2161 18.4138 95.9031 19.2375 95.0719 20.2125C96.4832 21.1182 98.0784 21.4672 99.6036 21.0515C101.147 20.6282 102.349 19.5017 103.092 17.9802Z" fill="#4E5567"/>
<path d="M49.6748 48.2889C50.9058 44.0626 48.4461 39.6477 44.1808 38.428C39.9156 37.2082 35.46 39.6455 34.2289 43.8717C32.9979 48.098 35.4577 52.5129 39.7229 53.7326C43.9882 54.9524 48.4438 52.5151 49.6748 48.2889Z" fill="#F5E2D5"/>
<path d="M37.8447 41.245C37.7127 41.1911 37.6324 41.0551 37.6557 40.9114C37.6842 40.7447 37.8421 40.6292 38.013 40.6574L40.2582 41.0166L39.2224 40.1725C39.0903 40.0647 39.0722 39.8697 39.1809 39.7388C39.2897 39.608 39.4865 39.59 39.6186 39.6978L41.54 41.2655C41.6488 41.3528 41.6825 41.5042 41.6255 41.6299C41.5685 41.7556 41.4313 41.83 41.294 41.8069L37.9146 41.2681C37.8887 41.2604 37.8654 41.2553 37.8447 41.245Z" fill="#3F4553"/>
<path d="M48.141 45.3889C48.1177 45.3787 48.097 45.3684 48.0763 45.353L45.4194 43.462C45.3055 43.3799 45.2614 43.2336 45.3106 43.1027C45.3598 42.9719 45.4919 42.8923 45.6317 42.9052L48.2213 43.154C48.3922 43.1694 48.5165 43.3208 48.501 43.4902C48.4854 43.6595 48.3327 43.7827 48.1617 43.7673L46.7194 43.6287L48.4414 44.8527C48.5813 44.9527 48.6123 45.1426 48.5113 45.2812C48.4233 45.4018 48.2705 45.4428 48.141 45.3889Z" fill="#3F4553"/>
<path d="M42.9646 49.4275C41.7915 49.4275 40.7453 49.1658 39.8338 48.6449C37.4332 47.2722 36.8791 44.6088 36.8558 44.4959C36.8143 44.2881 36.9516 44.0854 37.1613 44.0443C37.3711 44.0032 37.5757 44.1392 37.6171 44.3471C37.6223 44.3702 38.1324 46.7872 40.23 47.9829C41.7578 48.8553 43.757 48.8836 46.173 48.0676C46.3776 47.9983 46.5977 48.1061 46.665 48.3088C46.735 48.509 46.6262 48.7296 46.4216 48.7963C45.1709 49.2146 44.0159 49.4275 42.9646 49.4275Z" fill="#3F4553"/>
<path d="M90.447 70.8078C93.8985 67.3879 93.8985 61.8431 90.447 58.4231C86.9955 55.0032 81.3996 55.0032 77.9481 58.4231C74.4966 61.8431 74.4966 67.3879 77.9481 70.8078C81.3996 74.2278 86.9955 74.2278 90.447 70.8078Z" fill="#F5E2D5"/>
<path d="M79.2186 67.4808C79.2186 67.4808 84.9027 64.2657 90.3796 63.4883C90.3796 63.4883 91.9515 68.6201 86.7154 70.6061C82.1759 72.3278 79.2186 67.4808 79.2186 67.4808Z" fill="#3F4553"/>
<path d="M80.3401 65.0075C80.1536 65.0075 79.9724 64.9074 79.8791 64.7303L78.5895 62.262C78.4575 62.0105 78.5585 61.7 78.8122 61.5692C79.066 61.4383 79.3794 61.5384 79.5114 61.7898L80.801 64.2582C80.9331 64.5097 80.8321 64.8201 80.5783 64.951C80.5006 64.9895 80.4204 65.0075 80.3401 65.0075Z" fill="#3F4553"/>
<path d="M87.2127 62.5364C86.9744 62.5364 86.7595 62.3722 86.7077 62.131L86.1069 59.3214C86.0474 59.0442 86.226 58.7723 86.5057 58.7133C86.7854 58.6542 87.0599 58.8313 87.1194 59.1084L87.7202 61.918C87.7798 62.1952 87.6011 62.4671 87.3214 62.5262C87.2826 62.5338 87.2463 62.5364 87.2127 62.5364Z" fill="#3F4553"/>
<path d="M88.1059 69.5824C87.6295 68.42 85.9644 67.9453 84.3381 68.5252C83.437 68.8485 82.7378 69.4284 82.3571 70.0827C83.5354 70.6703 85.0011 70.9346 86.6843 70.2957C87.2307 70.0904 87.6968 69.8492 88.1059 69.5824Z" fill="#4E5567"/>
<path d="M135.328 41.9172C139.813 40.0082 141.887 34.8582 139.961 30.4143C138.034 25.9705 132.836 23.9156 128.352 25.8246C123.867 27.7336 121.793 32.8836 123.72 37.3274C125.646 41.7713 130.844 43.8262 135.328 41.9172Z" fill="#F5E2D5"/>
<path d="M132.967 35.8207C129.914 35.8207 127.596 34.0605 127.563 34.0348C127.451 33.9476 127.431 33.7859 127.519 33.6756C127.607 33.5653 127.77 33.5447 127.881 33.632C128.068 33.7757 132.499 37.1293 137.113 33.9989C137.232 33.9194 137.393 33.9502 137.473 34.0656C137.553 34.1836 137.525 34.3427 137.406 34.4223C135.873 35.4615 134.345 35.8207 132.967 35.8207Z" fill="#3F4553"/>
<path d="M135.487 31.1713C135.487 31.7102 135.275 32.1489 135.01 32.1489C134.746 32.1489 134.534 31.7127 134.534 31.1713C134.534 30.6299 134.746 30.1937 135.01 30.1937C135.275 30.1937 135.487 30.6325 135.487 31.1713Z" fill="#3F4553"/>
<path d="M130.911 30.9841C130.911 31.5229 130.699 31.9617 130.435 31.9617C130.171 31.9617 129.958 31.5255 129.958 30.9841C129.958 30.4452 130.171 30.0065 130.435 30.0065C130.699 30.0065 130.911 30.4427 130.911 30.9841Z" fill="#3F4553"/>
<path d="M109.489 94.8773C121.4 94.8773 131.056 92.7152 131.056 90.0482C131.056 87.3813 121.4 85.2192 109.489 85.2192C97.5781 85.2192 87.9221 87.3813 87.9221 90.0482C87.9221 92.7152 97.5781 94.8773 109.489 94.8773Z" fill="#F4A17C"/>
<path opacity="0.5" d="M109.489 94.8773C121.4 94.8773 131.056 92.7152 131.056 90.0482C131.056 87.3813 121.4 85.2192 109.489 85.2192C97.5781 85.2192 87.9221 87.3813 87.9221 90.0482C87.9221 92.7152 97.5781 94.8773 109.489 94.8773Z" fill="#F4A17C"/>
<path d="M107.82 26.2114C107.82 26.2114 106.168 26.0625 106.018 24.5743C105.868 23.0861 109.775 21.2233 112.253 21.1489C114.734 21.0744 117.137 23.7558 117.137 25.9137C117.137 28.0716 117.513 31.125 119.39 31.7203C121.268 32.3156 122.547 35.9643 121.418 37.3037C120.291 38.6431 120.366 38.6431 121.493 39.8362C122.619 41.0268 121.643 43.1129 120.892 43.5593C120.141 44.0058 117.886 44.6755 112.852 44.229C107.817 43.7826 104.811 39.2409 104.586 37.3781C104.36 35.5178 106.088 34.2503 106.688 33.4318C107.289 32.6133 106.238 31.9436 106.313 31.0481C106.388 30.1551 107.514 29.411 107.815 28.6643C108.12 27.9228 107.82 26.2114 107.82 26.2114Z" fill="#3F4553"/>
<path d="M115.928 44.5036C115.045 44.5036 114.024 44.46 112.844 44.3548C107.566 43.8852 104.671 39.1229 104.461 37.3935C104.277 35.8848 105.313 34.7712 106.067 33.9578C106.279 33.7294 106.46 33.5318 106.59 33.3574C106.893 32.9417 106.709 32.5696 106.497 32.136C106.328 31.7973 106.157 31.4483 106.191 31.0404C106.238 30.4733 106.657 29.9858 107.064 29.5162C107.333 29.2032 107.587 28.9081 107.703 28.6207C107.949 28.0126 107.765 26.6861 107.711 26.3243C107.333 26.2601 106.028 25.9394 105.891 24.5846C105.854 24.2331 106.012 23.8584 106.354 23.471C107.439 22.2471 110.249 21.077 112.251 21.018C113.382 20.9872 114.591 21.5132 115.586 22.4703C116.624 23.4684 117.269 24.7873 117.269 25.9137C117.269 27.7817 117.551 31.0019 119.434 31.5997C120.421 31.9128 121.335 33.0597 121.765 34.5197C122.117 35.718 122.026 36.7905 121.524 37.3884C120.503 38.5995 120.503 38.5995 121.495 39.6438L121.596 39.749C122.158 40.3417 122.187 41.0858 122.114 41.6041C121.982 42.5484 121.425 43.3951 120.967 43.6697C120.579 43.8955 119.242 44.5036 115.928 44.5036ZM112.352 21.2746C112.32 21.2746 112.289 21.2746 112.256 21.2772C110.347 21.3336 107.571 22.4831 106.546 23.6429C106.251 23.9739 106.116 24.2844 106.144 24.5615C106.282 25.9291 107.815 26.0831 107.83 26.0856C107.89 26.0908 107.936 26.1344 107.947 26.1908C107.96 26.2627 108.25 27.9485 107.939 28.7182C107.807 29.0441 107.54 29.3546 107.258 29.683C106.88 30.1243 106.486 30.5785 106.447 31.0635C106.419 31.4022 106.577 31.7178 106.727 32.0257C106.957 32.4901 107.193 32.9699 106.799 33.5113C106.662 33.6986 106.476 33.9013 106.258 34.1348C105.538 34.9123 104.552 35.9771 104.72 37.3679C104.922 39.0434 107.737 43.6492 112.869 44.1059C118.411 44.5985 120.364 43.7313 120.832 43.4542C121.231 43.2181 121.736 42.4304 121.858 41.5734C121.923 41.1089 121.897 40.4469 121.407 39.9286L121.309 39.8234C120.242 38.6996 120.19 38.5815 121.33 37.2267C121.778 36.693 121.85 35.7103 121.521 34.5941C121.19 33.4626 120.392 32.1745 119.361 31.8486C117.321 31.202 117.018 27.8561 117.018 25.9189C117.018 24.8591 116.404 23.6121 115.415 22.6602C114.488 21.7749 113.38 21.2746 112.352 21.2746Z" fill="#3F4553"/>
<path d="M119.804 38.1788C119.758 38.1788 119.729 38.1737 119.721 38.1711C119.651 38.1557 119.607 38.0864 119.623 38.0171C119.639 37.9479 119.708 37.9042 119.778 37.9196C119.781 37.9196 119.905 37.9402 120.061 37.8273C120.26 37.6836 120.524 37.3218 120.656 36.4006C120.827 35.2152 118.932 33.6603 116.927 32.0155C116.036 31.2843 115.115 30.5273 114.307 29.7524C111.629 27.184 111.251 24.1459 111.246 24.1152C111.238 24.0459 111.29 23.9817 111.36 23.974C111.424 23.9663 111.494 24.0177 111.502 24.0869C111.505 24.1152 111.875 27.0685 114.485 29.5677C115.285 30.3349 116.202 31.0892 117.09 31.8154C119.242 33.5807 121.102 35.1074 120.91 36.434C120.791 37.2576 120.55 37.799 120.193 38.0428C120.035 38.1583 119.89 38.1788 119.804 38.1788Z" fill="#AC9B8F"/>
<path d="M107.033 24.9926C106.194 24.9926 105.927 24.6693 105.914 24.6513C105.87 24.5949 105.88 24.5153 105.937 24.4717C105.992 24.4281 106.074 24.4384 106.119 24.4948C106.121 24.4974 106.554 24.9772 108.151 24.5795C109.829 24.1638 111.538 22.8218 111.554 22.8065C111.611 22.7628 111.691 22.7705 111.735 22.827C111.779 22.8834 111.772 22.963 111.715 23.0066C111.642 23.063 109.946 24.3973 108.213 24.8258C107.732 24.949 107.343 24.9926 107.033 24.9926Z" fill="#AC9B8F"/>
<path d="M99.9296 87.4388C99.9296 87.4388 101.048 88.8936 102.299 89.5787C103.55 90.2638 105.795 89.7917 105.148 88.1675C104.5 86.5433 103.464 85.6863 102.687 85.3886C101.911 85.0884 99.8907 85.8556 99.9296 87.4388Z" fill="#E49621"/>
<path d="M103.57 90.0123C103.11 90.0123 102.633 89.9071 102.237 89.6915C100.976 89.0013 99.8726 87.5772 99.826 87.5182C99.8104 87.4977 99.8001 87.4695 99.8001 87.4438C99.7845 86.769 100.121 86.1557 100.753 85.7144C101.39 85.2705 102.242 85.0781 102.734 85.2679C103.122 85.4168 104.448 86.0634 105.267 88.1212C105.497 88.6985 105.401 89.2117 104.997 89.5632C104.658 89.8609 104.125 90.0123 103.57 90.0123ZM100.059 87.3951C100.233 87.6132 101.253 88.8602 102.361 89.4683C103.133 89.8891 104.285 89.8429 104.829 89.3708C105.15 89.0911 105.217 88.6934 105.028 88.2161C104.249 86.2558 103.003 85.6477 102.641 85.5091C102.281 85.3706 101.532 85.4886 100.903 85.9274C100.585 86.1455 100.059 86.6279 100.059 87.3951Z" fill="#3F4553"/>
<path d="M101.522 89.0218L101.535 89.0602C101.778 89.2527 102.035 89.4323 102.299 89.576C103.55 90.2611 105.795 89.789 105.147 88.1648C103.12 86.928 101.522 89.0218 101.522 89.0218Z" fill="#F1BD54"/>
<path d="M103.57 90.0123C103.11 90.0123 102.633 89.9071 102.237 89.6915C101.988 89.5555 101.727 89.3785 101.455 89.163C101.434 89.1476 101.419 89.1245 101.411 89.0988L101.398 89.0578C101.385 89.0193 101.393 88.9757 101.419 88.9423C101.437 88.9218 103.11 86.769 105.215 88.0545C105.238 88.0699 105.256 88.0904 105.267 88.1161C105.497 88.6934 105.401 89.2066 104.997 89.5581C104.658 89.8609 104.125 90.0123 103.57 90.0123ZM101.69 89.0218C101.923 89.2015 102.149 89.3503 102.361 89.4683C103.133 89.8891 104.285 89.8429 104.829 89.3708C105.14 89.0988 105.215 88.7165 105.044 88.2572C103.353 87.2539 101.999 88.6575 101.69 89.0218Z" fill="#3F4553"/>
<path d="M102.299 89.5788C103.472 90.2203 105.518 89.8482 105.235 88.4601C104.816 88.904 103.979 89.448 102.817 89.022C101.569 88.5679 100.499 87.3234 100.056 86.7512C99.9734 86.9591 99.9216 87.1874 99.9294 87.4389C99.9294 87.4389 101.048 88.8937 102.299 89.5788Z" fill="#F1BD54"/>
<path d="M103.57 90.0098C103.107 90.0098 102.628 89.9046 102.237 89.6891C100.976 88.9988 99.8724 87.5748 99.8257 87.5158C99.8102 87.4952 99.7998 87.467 99.7998 87.4413C99.7947 87.1925 99.8387 86.9436 99.9371 86.7024C99.9552 86.6587 99.9941 86.628 100.041 86.6228C100.085 86.6151 100.131 86.6357 100.16 86.6716C100.564 87.1925 101.633 88.4523 102.861 88.9013C104.055 89.3375 104.852 88.6755 105.14 88.3702C105.173 88.3343 105.222 88.3214 105.269 88.3343C105.316 88.3471 105.352 88.3856 105.36 88.4318C105.458 88.9193 105.295 89.3478 104.899 89.6352C104.562 89.8866 104.075 90.0098 103.57 90.0098ZM100.059 87.3952C100.232 87.6133 101.253 88.8603 102.361 89.4684C103.083 89.8635 104.179 89.8481 104.749 89.4325C104.997 89.2529 105.127 89.0194 105.132 88.7371C104.71 89.0963 103.897 89.5556 102.77 89.1451C101.613 88.7217 100.6 87.6312 100.103 87.0205C100.074 87.1437 100.059 87.2669 100.059 87.3952Z" fill="#3F4553"/>
<path d="M118.688 87.3848C118.688 87.3848 117.57 88.8397 116.319 89.5248C115.068 90.2098 112.823 89.7377 113.47 88.1135C114.118 86.4893 115.154 85.6323 115.931 85.3347C116.707 85.0345 118.727 85.8017 118.688 87.3848Z" fill="#E49621"/>
<path d="M115.048 89.9584C114.494 89.9584 113.96 89.8045 113.618 89.5068C113.214 89.1553 113.119 88.6447 113.349 88.0648C114.167 86.0095 115.496 85.3629 115.882 85.2115C116.374 85.0217 117.226 85.2141 117.863 85.658C118.494 86.0968 118.834 86.7126 118.816 87.3874C118.816 87.4131 118.805 87.4413 118.79 87.4618C118.743 87.5234 117.64 88.9475 116.379 89.6351C115.985 89.8507 115.509 89.9584 115.048 89.9584ZM116.33 85.3963C116.19 85.3963 116.071 85.4142 115.975 85.4502C115.612 85.5887 114.369 86.1994 113.587 88.1572C113.398 88.6344 113.466 89.0322 113.787 89.3118C114.33 89.7865 115.483 89.8301 116.254 89.4093C117.363 88.8038 118.383 87.5568 118.557 87.3387C118.557 86.5715 118.031 86.0891 117.712 85.8684C117.249 85.5451 116.721 85.3963 116.33 85.3963Z" fill="#3F4553"/>
<path d="M117.095 88.9678L117.083 89.0062C116.839 89.1987 116.583 89.3783 116.319 89.522C115.068 90.2071 112.823 89.735 113.47 88.1108C115.498 86.8714 117.095 88.9678 117.095 88.9678Z" fill="#F1BD54"/>
<path d="M115.047 89.9584C114.493 89.9584 113.96 89.8045 113.618 89.5068C113.214 89.1553 113.118 88.6447 113.349 88.0648C113.359 88.0391 113.377 88.016 113.4 88.0032C115.506 86.7177 117.181 88.8679 117.197 88.891C117.223 88.9243 117.23 88.968 117.217 89.0065L117.205 89.0449C117.197 89.0706 117.181 89.0911 117.16 89.1065C116.889 89.3221 116.624 89.4991 116.378 89.6351C115.985 89.8506 115.508 89.9584 115.047 89.9584ZM113.574 88.1982C113.403 88.6575 113.478 89.0424 113.789 89.3118C114.333 89.7865 115.485 89.8301 116.257 89.4093C116.469 89.2938 116.694 89.145 116.927 88.9628C116.617 88.601 115.262 87.2001 113.574 88.1982Z" fill="#3F4553"/>
<path d="M116.319 89.5247C115.146 90.1662 113.1 89.7942 113.382 88.406C113.802 88.8499 114.638 89.3939 115.801 88.968C117.049 88.5138 118.119 87.2693 118.562 86.6971C118.644 86.905 118.696 87.1333 118.688 87.3848C118.688 87.3848 117.57 88.8397 116.319 89.5247Z" fill="#F1BD54"/>
<path d="M115.048 89.956C114.543 89.956 114.056 89.8302 113.714 89.5839C113.318 89.2965 113.155 88.868 113.253 88.3805C113.263 88.3343 113.297 88.2958 113.344 88.283C113.39 88.2702 113.442 88.283 113.473 88.3189C113.76 88.6243 114.558 89.2837 115.752 88.8501C116.979 88.401 118.051 87.1412 118.453 86.6203C118.481 86.5844 118.528 86.5664 118.572 86.5715C118.619 86.5767 118.657 86.6075 118.675 86.6511C118.771 86.8923 118.818 87.1412 118.813 87.3901C118.813 87.4183 118.802 87.4439 118.787 87.4645C118.74 87.5261 117.637 88.9501 116.376 89.6378C115.99 89.8508 115.511 89.956 115.048 89.956ZM113.483 88.6807C113.491 88.963 113.618 89.1965 113.867 89.3761C114.436 89.7917 115.532 89.8071 116.254 89.412C117.363 88.8064 118.383 87.5594 118.556 87.3413C118.556 87.2156 118.541 87.0898 118.51 86.9667C118.013 87.5748 117 88.6679 115.843 89.0912C114.719 89.4992 113.906 89.0399 113.483 88.6807Z" fill="#3F4553"/>
<path d="M109.923 31.6178C109.923 31.6178 109.622 34.0759 109.397 34.5968C109.172 35.1177 106.391 35.2665 105.189 35.713C103.987 36.1594 101.432 38.3199 99.8545 39.8081C98.2775 41.2963 96.848 45.2427 96.848 45.7636C96.848 46.2844 98.4251 44.2753 99.8545 42.859C101.281 41.4452 104.438 39.6567 104.438 39.6567C104.438 39.6567 105.567 45.1965 105.717 45.7943C105.867 46.3896 105.715 47.3826 105.715 47.6059C105.715 47.8291 102.558 53.2637 102.032 57.8053C101.507 62.3469 102.483 70.9837 102.483 70.9837C102.483 70.9837 100.756 74.3348 100.605 78.0579C100.455 81.781 99.6292 86.1738 99.7043 86.4714C99.7794 86.7691 99.5541 87.3643 99.9296 87.4388C100.305 87.5132 100.605 86.4714 101.507 86.2482C102.408 86.025 103.609 86.6202 103.762 86.025C103.912 85.4297 103.762 84.2391 103.912 82.6739C104.063 81.1113 106.543 74.7068 106.694 72.5489C106.844 70.391 108.646 59.8169 109.024 59.2961C109.4 58.7752 109.4 58.7752 109.4 58.7752C109.4 58.7752 109.775 57.8823 110 58.8496C110.226 59.8169 110 69.4211 110.451 70.8374C110.902 72.2513 114.452 81.7502 114.902 82.8663C115.353 83.9825 114.377 85.3245 114.677 85.9198C114.978 86.515 115.804 86.2918 116.555 86.2918C117.306 86.2918 118.088 87.3849 118.688 87.3849C119.289 87.3849 119.486 86.515 119.486 85.5477C119.486 84.5804 116.837 75.1558 116.687 72.8465C116.536 70.5372 116.011 68.7514 116.011 68.7514C116.011 68.7514 116.987 58.1055 116.762 55.7962C116.536 53.4869 114.584 47.6059 114.584 47.6059L115.936 40.2546C115.936 40.2546 120.069 42.5639 121.495 44.4242C122.922 46.2844 123.901 46.21 123.748 44.7218C123.598 43.2336 120.066 38.8408 118.189 36.9035C116.311 34.9688 113.755 35.3409 113.004 34.82C112.253 34.2991 112.704 29.1622 112.704 29.1622L109.923 31.6178Z" fill="#FED9CE"/>
<path d="M99.9711 87.5721C99.9503 87.5721 99.927 87.5696 99.9063 87.5644C99.5438 87.4926 99.5671 87.1077 99.5852 86.828C99.593 86.7074 99.6008 86.5817 99.58 86.5021C99.549 86.3815 99.6007 85.9813 99.7717 84.7702C100.015 83.0433 100.383 80.4338 100.479 78.0527C100.621 74.5477 102.17 71.33 102.353 70.9605C102.284 70.3319 101.403 62.1416 101.905 57.7924C102.328 54.1463 104.459 49.8792 105.262 48.2729C105.43 47.9368 105.575 47.6469 105.588 47.5904C105.585 47.5519 105.596 47.4518 105.606 47.321C105.642 46.9233 105.702 46.2613 105.593 45.8276C105.458 45.2888 104.544 40.8242 104.347 39.8619C103.697 40.2417 101.165 41.7453 99.9452 42.9538C99.448 43.4465 98.9301 44.0161 98.4717 44.519C97.3349 45.7661 97.0474 46.0483 96.8377 45.9688C96.7937 45.9508 96.7186 45.9046 96.7186 45.7686C96.7186 45.1836 98.161 41.2321 99.7639 39.7182C101.048 38.5071 103.824 36.0849 105.142 35.5974C105.65 35.4101 106.419 35.2741 107.165 35.1433C108.058 34.9867 109.172 34.7917 109.275 34.5505C109.49 34.0528 109.788 31.6331 109.791 31.6075C109.793 31.5767 109.809 31.5485 109.832 31.5279L112.613 29.0698C112.652 29.0339 112.712 29.0287 112.758 29.0518C112.805 29.0749 112.833 29.1263 112.828 29.1776C112.657 31.1353 112.572 34.3709 113.074 34.7199C113.3 34.8764 113.748 34.9508 114.268 35.0381C115.418 35.2305 116.99 35.4948 118.277 36.8214C120.146 38.7483 123.715 43.1565 123.873 44.714C123.961 45.5941 123.655 45.8507 123.464 45.9251C122.974 46.1176 122.236 45.6121 121.387 44.5062C120.149 42.8923 116.793 40.9037 116.024 40.4624L114.711 47.6032C114.882 48.1164 116.669 53.5561 116.886 55.791C117.106 58.0515 116.2 68.0508 116.138 68.7462C116.2 68.9668 116.671 70.6911 116.811 72.8439C116.896 74.1474 117.811 77.8474 118.546 80.8213C119.139 83.2229 119.61 85.1217 119.61 85.5528C119.61 86.8203 119.281 87.5182 118.683 87.5182C118.357 87.5182 118.015 87.2616 117.655 86.9922C117.285 86.7151 116.902 86.4252 116.549 86.4252C116.389 86.4252 116.223 86.4354 116.063 86.4457C115.457 86.4842 114.83 86.5227 114.555 85.9813C114.4 85.6759 114.522 85.25 114.662 84.7573C114.827 84.1697 115.014 83.5052 114.778 82.9202C114.322 81.7912 110.782 72.3179 110.324 70.881C110.055 70.0317 110.024 66.4497 109.995 63.2885C109.977 61.2204 109.962 59.2703 109.871 58.8829C109.796 58.5647 109.723 58.5314 109.723 58.5314C109.682 58.5391 109.576 58.6879 109.516 58.829C109.514 58.8393 109.508 58.847 109.503 58.8547L109.128 59.3755C108.796 59.8348 106.989 70.1856 106.823 72.5617C106.738 73.7728 105.93 76.3078 105.215 78.5453C104.645 80.326 104.109 82.0093 104.042 82.6918C103.967 83.4667 103.967 84.1595 103.967 84.7188C103.967 85.2936 103.967 85.7503 103.889 86.0634C103.775 86.5175 103.252 86.4534 102.698 86.3867C102.322 86.3405 101.898 86.2892 101.54 86.379C101.077 86.4944 100.779 86.8537 100.538 87.1436C100.347 87.3694 100.181 87.5721 99.9711 87.5721ZM104.438 39.5309C104.456 39.5309 104.474 39.5335 104.492 39.5412C104.531 39.5592 104.557 39.5925 104.565 39.6336C104.575 39.69 105.697 45.1785 105.844 45.7635C105.963 46.2382 105.901 46.9284 105.865 47.3415C105.855 47.4621 105.844 47.5545 105.844 47.6058C105.844 47.6751 105.795 47.7777 105.492 48.3858C104.694 49.9818 102.579 54.2181 102.162 57.8206C101.644 62.2955 102.602 70.8836 102.612 70.9708C102.615 70.9965 102.61 71.0221 102.599 71.0426C102.581 71.076 100.883 74.4117 100.735 78.0629C100.639 80.4569 100.271 83.0741 100.028 84.8061C99.9115 85.6272 99.8131 86.3354 99.8312 86.4431C99.8597 86.5586 99.8519 86.7048 99.8416 86.8434C99.8235 87.1539 99.8338 87.2899 99.9555 87.313C100.046 87.3284 100.194 87.1487 100.339 86.9743C100.587 86.6715 100.929 86.2584 101.478 86.1224C101.885 86.0223 102.333 86.0762 102.729 86.125C103.257 86.1891 103.581 86.2148 103.638 85.9941C103.71 85.7118 103.71 85.2705 103.71 84.7137C103.71 84.1518 103.71 83.4513 103.785 82.6636C103.853 81.9528 104.371 80.3363 104.969 78.4632C105.678 76.2411 106.484 73.7214 106.567 72.5411C106.696 70.6732 108.486 59.8246 108.921 59.2216L109.288 58.711C109.343 58.5852 109.508 58.2542 109.752 58.2696C109.98 58.2876 110.076 58.5929 110.127 58.8187C110.223 59.2318 110.239 61.0177 110.259 63.2783C110.285 66.265 110.316 69.9829 110.575 70.7938C111.034 72.2281 114.568 81.6885 115.024 82.815C115.294 83.4821 115.084 84.2211 114.918 84.8163C114.799 85.2397 114.685 85.64 114.796 85.8581C114.993 86.2481 115.485 86.2173 116.055 86.1814C116.223 86.1711 116.391 86.1609 116.56 86.1609C117 86.1609 117.417 86.4765 117.821 86.7793C118.145 87.023 118.453 87.2539 118.691 87.2539C119.294 87.2539 119.359 86.0582 119.359 85.5451C119.359 85.1448 118.846 83.069 118.303 80.8751C117.526 77.7371 116.648 74.1807 116.56 72.8542C116.412 70.5885 115.894 68.8052 115.889 68.7872C115.884 68.7718 115.884 68.7564 115.884 68.741C115.894 68.6333 116.858 58.0798 116.635 55.809C116.415 53.5407 114.48 47.7059 114.462 47.6469C114.454 47.6263 114.454 47.6058 114.457 47.5827L115.809 40.2314C115.817 40.1904 115.842 40.157 115.881 40.1391C115.92 40.1211 115.964 40.1237 116 40.1442C116.171 40.2391 120.172 42.4868 121.602 44.3471C122.485 45.4992 123.109 45.7866 123.376 45.6814C123.585 45.5993 123.676 45.2554 123.624 44.7346C123.474 43.2566 119.895 38.8458 118.101 36.9933C116.873 35.7283 115.348 35.4717 114.234 35.2844C113.659 35.1869 113.206 35.1125 112.934 34.9226C112.233 34.4351 112.461 30.6735 112.554 29.4675L110.052 31.6793C110.008 32.036 109.739 34.1477 109.524 34.6455C109.371 34.997 108.548 35.1587 107.219 35.3896C106.486 35.5179 105.725 35.6513 105.241 35.8309C104.13 36.244 101.719 38.23 99.9503 39.8979C98.4458 41.3168 97.1251 44.9219 96.9956 45.666C97.2391 45.4864 97.7906 44.8834 98.2853 44.3394C98.7462 43.8339 99.2667 43.2617 99.7691 42.7665C101.193 41.3553 104.252 39.6182 104.381 39.5438C104.394 39.5361 104.417 39.5309 104.438 39.5309Z" fill="#3F4553"/>
<path d="M114.674 85.9198C114.974 86.5151 115.801 86.2919 116.551 86.2919C117.302 86.2919 118.085 87.3849 118.685 87.3849C119.286 87.3849 119.483 86.5151 119.483 85.5478C119.483 84.5804 116.834 75.1559 116.684 72.8466C116.533 70.5373 116.008 68.7515 116.008 68.7515C116.008 68.7515 116.984 58.1056 116.759 55.7963C116.722 55.4294 116.642 54.9701 116.533 54.462L103.226 53.1791C102.677 54.6699 102.208 56.2889 102.032 57.8079C101.506 62.3496 102.482 70.9863 102.482 70.9863C102.482 70.9863 100.755 74.3374 100.605 78.0605C100.455 81.7836 99.6287 86.1764 99.7038 86.4741C99.7789 86.7717 99.5536 87.367 99.9291 87.4414C100.305 87.5158 100.605 86.4741 101.506 86.2508C102.407 86.0276 103.609 86.6229 103.762 86.0276C103.912 85.4323 103.762 84.2417 103.912 82.6765C104.062 81.1139 106.543 74.7095 106.693 72.5515C106.843 70.3936 108.646 59.8196 109.024 59.2987C109.399 58.7779 109.399 58.7779 109.399 58.7779C109.399 58.7779 109.775 57.8849 110 58.8523C110.225 59.8196 110 69.4237 110.45 70.8401C110.901 72.2539 114.451 81.7528 114.902 82.869C115.353 83.9826 114.374 85.3245 114.674 85.9198Z" fill="#3F4553"/>
<path d="M99.9708 87.5722C99.9501 87.5722 99.9268 87.5696 99.9061 87.5645C99.5435 87.4926 99.5669 87.1077 99.585 86.8281C99.5927 86.7075 99.6005 86.5817 99.5798 86.5022C99.5487 86.3816 99.6005 85.9813 99.7714 84.7702C100.015 83.0434 100.383 80.4339 100.478 78.0527C100.621 74.5477 102.169 71.3301 102.353 70.9606C102.283 70.3319 101.403 62.1416 101.905 57.7924C102.061 56.4453 102.465 54.8776 103.107 53.1328C103.128 53.0789 103.179 53.0455 103.241 53.0481L116.549 54.3311C116.606 54.3362 116.653 54.3772 116.663 54.4311C116.78 54.9751 116.855 55.4293 116.891 55.7808C117.111 58.0413 116.205 68.0406 116.143 68.736C116.205 68.9566 116.676 70.6809 116.816 72.8337C116.901 74.1372 117.815 77.8372 118.551 80.8111C119.144 83.2127 119.615 85.1115 119.615 85.5426C119.615 86.8101 119.286 87.508 118.688 87.508C118.362 87.508 118.02 87.2514 117.66 86.982C117.29 86.7049 116.907 86.415 116.554 86.415C116.394 86.415 116.228 86.4252 116.068 86.4355C115.462 86.474 114.835 86.5125 114.56 85.9711C114.405 85.6657 114.527 85.2398 114.667 84.7471C114.832 84.1595 115.019 83.495 114.783 82.9099C114.327 81.781 110.787 72.3077 110.329 70.8708C110.06 70.0215 110.029 66.4395 110 63.2783C109.982 61.2102 109.967 59.2601 109.876 58.8727C109.801 58.5545 109.728 58.5212 109.728 58.5212C109.687 58.5289 109.581 58.6777 109.521 58.8188C109.519 58.8291 109.513 58.8368 109.508 58.8445L109.133 59.3653C108.801 59.8246 106.994 70.1754 106.828 72.5514C106.743 73.7625 105.935 76.2976 105.22 78.5351C104.65 80.3158 104.114 81.9991 104.047 82.6816C103.972 83.4565 103.972 84.1493 103.972 84.7086C103.972 85.2834 103.972 85.7376 103.894 86.0532C103.78 86.5073 103.257 86.4432 102.703 86.3765C102.327 86.3303 101.903 86.279 101.545 86.3688C101.082 86.4842 100.784 86.8435 100.543 87.1334C100.346 87.3695 100.181 87.5722 99.9708 87.5722ZM103.317 53.315C102.703 55.0033 102.314 56.5198 102.162 57.8207C101.644 62.2956 102.602 70.8836 102.612 70.9709C102.615 70.9965 102.61 71.0222 102.599 71.0427C102.581 71.0761 100.882 74.4117 100.735 78.063C100.639 80.457 100.271 83.0742 100.028 84.8061C99.9113 85.6272 99.8129 86.3354 99.831 86.4432C99.8595 86.5586 99.8517 86.7049 99.8413 86.8435C99.8232 87.1539 99.8336 87.2899 99.9553 87.313C100.046 87.3284 100.194 87.1488 100.339 86.9743C100.587 86.6715 100.929 86.2584 101.478 86.1224C101.885 86.0224 102.333 86.0763 102.729 86.125C103.257 86.1892 103.581 86.2148 103.638 85.9942C103.71 85.7119 103.71 85.2706 103.71 84.7138C103.71 84.1518 103.71 83.4514 103.785 82.6636C103.853 81.9529 104.37 80.3364 104.969 78.4633C105.678 76.2412 106.484 73.7215 106.566 72.5412C106.696 70.6732 108.485 59.8246 108.92 59.2216L109.288 58.711C109.342 58.5853 109.508 58.2543 109.752 58.2697C109.979 58.2877 110.075 58.593 110.127 58.8188C110.223 59.2319 110.238 61.0178 110.259 63.2783C110.285 66.265 110.316 69.983 110.575 70.7938C111.033 72.2281 114.568 81.6886 115.024 82.815C115.293 83.4821 115.084 84.2211 114.918 84.8164C114.799 85.2398 114.685 85.6401 114.796 85.8582C114.993 86.2482 115.485 86.2174 116.055 86.1815C116.223 86.1712 116.391 86.1609 116.56 86.1609C117 86.1609 117.417 86.4765 117.821 86.7793C118.144 87.0231 118.453 87.254 118.691 87.254C119.294 87.254 119.359 86.0583 119.359 85.5451C119.359 85.1448 118.846 83.069 118.302 80.8752C117.525 77.7371 116.648 74.1808 116.56 72.8542C116.412 70.586 115.894 68.8052 115.889 68.7873C115.884 68.7719 115.884 68.7565 115.884 68.7411C115.894 68.6333 116.857 58.0798 116.635 55.809C116.604 55.4857 116.536 55.0726 116.433 54.5799L103.317 53.315Z" fill="#3F4553"/>
<path d="M118.189 36.9061C116.311 34.9714 113.755 35.3435 113.004 34.8226C112.455 34.4429 112.548 31.6076 112.637 30.1014L112.152 29.6498L109.923 31.6204C109.923 31.6204 109.622 34.0785 109.397 34.5994C109.172 35.1203 106.39 35.2691 105.189 35.7155C104.005 36.1543 101.517 38.2506 99.9347 39.7337L101.491 41.535C102.902 40.5292 104.438 39.6619 104.438 39.6619C104.438 39.6619 105.567 45.2016 105.717 45.7995C105.867 46.3948 105.715 47.3878 105.715 47.611C105.715 47.7752 103.993 50.785 102.882 54.1746C105.036 55.1573 109.278 56.2735 116.707 55.3857C116.324 52.8608 114.581 47.6084 114.581 47.6084L115.933 40.2572C115.933 40.2572 117.233 40.9833 118.626 41.9481L120.776 39.8903C119.859 38.7356 118.903 37.6425 118.189 36.9061Z" fill="#9776A5"/>
<path d="M111.588 55.8373C107.289 55.8373 104.521 55.0598 102.83 54.2875C102.77 54.2593 102.742 54.1926 102.76 54.131C103.57 51.66 104.712 49.3712 105.261 48.273C105.43 47.9369 105.575 47.6444 105.588 47.588C105.585 47.5495 105.595 47.4494 105.606 47.3185C105.642 46.9208 105.702 46.2588 105.593 45.8252C105.458 45.2863 104.544 40.8217 104.347 39.8595C103.923 40.1058 102.7 40.832 101.569 41.6351C101.514 41.6736 101.439 41.6659 101.395 41.6146L99.8388 39.8159C99.7948 39.7645 99.7974 39.6876 99.8492 39.6388C101.211 38.361 103.858 36.0697 105.147 35.5924C105.655 35.4051 106.424 35.2691 107.17 35.1382C108.063 34.9817 109.177 34.7867 109.28 34.5455C109.495 34.0477 109.793 31.6255 109.796 31.6024C109.798 31.5717 109.814 31.5434 109.837 31.5229L112.067 29.5523C112.116 29.5087 112.194 29.5087 112.243 29.5549L112.727 30.0065C112.756 30.0321 112.771 30.0706 112.769 30.1065C112.582 33.2164 112.807 34.5276 113.082 34.7149C113.307 34.8714 113.755 34.9458 114.276 35.033C115.425 35.2255 116.997 35.4898 118.284 36.8163C119.033 37.5861 120.001 38.7048 120.879 39.8107C120.92 39.862 120.915 39.9365 120.869 39.9826L118.719 42.0405C118.675 42.0841 118.605 42.0892 118.556 42.0533C117.463 41.2964 116.42 40.6831 116.031 40.4599L114.718 47.6008C114.863 48.0395 116.477 52.9609 116.839 55.3677C116.845 55.4011 116.837 55.437 116.813 55.4652C116.79 55.4935 116.762 55.5114 116.725 55.514C114.809 55.7398 113.103 55.8373 111.588 55.8373ZM103.042 54.1027C105.308 55.1086 109.469 56.1016 116.56 55.2728C116.145 52.7403 114.478 47.6983 114.46 47.647C114.452 47.6264 114.452 47.6059 114.454 47.5828L115.806 40.2315C115.814 40.1905 115.84 40.1571 115.879 40.1392C115.917 40.1212 115.961 40.1238 115.998 40.1443C116.011 40.152 117.264 40.8525 118.613 41.7813L120.602 39.8774C119.75 38.81 118.818 37.7375 118.095 36.9934C116.868 35.7284 115.343 35.4718 114.229 35.2845C113.654 35.187 113.201 35.1126 112.929 34.9227C112.481 34.6122 112.336 33.006 112.504 30.1476L112.152 29.8166L110.047 31.6769C110.003 32.0335 109.734 34.1452 109.519 34.643C109.366 34.9946 108.542 35.1562 107.214 35.3871C106.481 35.5154 105.72 35.6489 105.235 35.8285C104.166 36.2262 101.854 38.1147 100.113 39.7363L101.514 41.3554C102.889 40.3855 104.36 39.5516 104.373 39.5439C104.409 39.5234 104.453 39.5208 104.492 39.5387C104.531 39.5567 104.557 39.5901 104.565 39.6311C104.575 39.6876 105.696 45.176 105.844 45.761C105.963 46.2357 105.901 46.926 105.865 47.3391C105.854 47.4597 105.844 47.552 105.844 47.6033C105.844 47.6726 105.795 47.7753 105.492 48.3834C104.956 49.4662 103.845 51.6908 103.042 54.1027Z" fill="#3F4553"/>
<path d="M114.53 35.2074C113.849 35.0893 113.294 35.0201 113.004 34.8199C112.455 34.4402 112.549 31.6049 112.637 30.0987L112.152 29.6471L109.923 31.6177C109.923 31.6177 109.622 34.0758 109.397 34.5967C109.309 34.7968 108.84 34.9431 108.232 35.0714C108.732 36.5596 109.83 39.223 111.272 39.223C112.676 39.2256 113.913 36.7161 114.53 35.2074Z" fill="#FED9CE"/>
<path d="M111.272 39.354C109.757 39.354 108.641 36.6983 108.108 35.1126C108.097 35.0767 108.1 35.0407 108.118 35.0074C108.136 34.9766 108.167 34.9535 108.203 34.9458C109.024 34.7739 109.239 34.6328 109.278 34.5455C109.493 34.0477 109.791 31.6255 109.793 31.6024C109.796 31.5717 109.811 31.5434 109.835 31.5229L112.064 29.5523C112.114 29.5087 112.191 29.5087 112.24 29.5549L112.725 30.0065C112.753 30.0321 112.769 30.0706 112.766 30.1065C112.58 33.2164 112.805 34.5276 113.08 34.7149C113.305 34.8714 113.755 34.9458 114.276 35.033L114.55 35.0792C114.589 35.0869 114.623 35.11 114.641 35.1434C114.659 35.1767 114.662 35.2178 114.649 35.2537C113.885 37.1242 112.678 39.354 111.272 39.354ZM108.4 35.1665C108.843 36.4494 109.92 39.0948 111.272 39.0948C112.554 39.0948 113.727 36.7855 114.348 35.305L114.234 35.2845C113.66 35.187 113.204 35.1126 112.932 34.9227C112.484 34.6122 112.339 33.006 112.507 30.1476L112.155 29.8166L110.05 31.6769C110.006 32.0335 109.736 34.1452 109.521 34.643C109.426 34.856 109.099 35.0099 108.4 35.1665Z" fill="#3F4553"/>
<path d="M112.621 30.3706C112.344 30.3886 112.038 30.4578 111.823 30.5117C111.513 30.5887 110.912 30.9146 110.34 31.2507L109.925 31.6176C109.925 31.6176 109.803 32.6183 109.656 33.4779C110.174 33.2932 111.678 32.7107 112.574 31.864C112.577 31.3354 112.598 30.8145 112.621 30.3706Z" fill="#C6FF00"/>
<path d="M112.621 30.3706C112.344 30.3886 112.038 30.4578 111.823 30.5117C111.513 30.5887 110.912 30.9146 110.34 31.2507L109.925 31.6176C109.925 31.6176 109.803 32.6183 109.656 33.4779C110.174 33.2932 111.678 32.7107 112.574 31.864C112.577 31.3354 112.598 30.8145 112.621 30.3706Z" fill="#BFB2AA"/>
<path d="M109.695 68.5717C117.92 68.5717 124.588 61.965 124.588 53.8153C124.588 45.6655 117.92 39.0588 109.695 39.0588C101.47 39.0588 94.8023 45.6655 94.8023 53.8153C94.8023 61.965 101.47 68.5717 109.695 68.5717Z" fill="#FA6E5A"/>
<path d="M114.591 66.0828C106.367 66.0828 99.6989 59.4757 99.6989 51.3264C99.6989 46.5821 101.962 42.3637 105.474 39.6644C99.3053 41.4682 94.802 47.1183 94.802 53.8153C94.802 61.9646 101.47 68.5717 109.695 68.5717C113.131 68.5717 116.293 67.4145 118.812 65.4798C117.474 65.8699 116.057 66.0828 114.591 66.0828Z" fill="#E3604D"/>
<path d="M99.2456 48.3552C98.9841 48.3552 98.7458 48.1755 98.6863 47.9138C98.6138 47.6059 98.808 47.3006 99.1187 47.2313L103.226 46.2947L100.854 45.5609C100.551 45.466 100.382 45.1478 100.476 44.8476C100.569 44.5474 100.893 44.3806 101.196 44.473L105.595 45.8355C105.844 45.9124 106.01 46.1434 105.999 46.4025C105.989 46.6591 105.808 46.8772 105.554 46.9362L99.3751 48.3449C99.3311 48.3526 99.287 48.3552 99.2456 48.3552Z" fill="#3F4553"/>
<path d="M119.833 48.3552C119.789 48.3552 119.742 48.3501 119.698 48.3398L113.807 46.9312C113.553 46.8696 113.374 46.6489 113.367 46.3923C113.359 46.1357 113.527 45.9048 113.778 45.8304L118.401 44.4679C118.706 44.3781 119.025 44.55 119.115 44.8528C119.206 45.1556 119.033 45.4712 118.73 45.561L116.156 46.3205L119.97 47.2314C120.278 47.3058 120.47 47.6137 120.395 47.919C120.327 48.1808 120.092 48.3552 119.833 48.3552Z" fill="#3F4553"/>
<path d="M98.3186 50.7672C99.8205 57.1563 104.345 61.798 109.695 61.798C115.045 61.798 119.571 57.1563 121.07 50.7672L119.095 50.4413C112.774 49.3944 106.336 49.4073 100.02 50.4798L98.3186 50.7672Z" fill="#3F4553"/>
<path d="M117.45 57.4537C115.487 56.1631 112.781 55.3651 109.788 55.3651C106.737 55.3651 103.985 56.199 102.014 57.5333C104.088 59.84 106.766 61.2384 109.695 61.2384C112.66 61.2384 115.366 59.8092 117.45 57.4537Z" fill="#4E5567"/>
<path d="M107.745 25.3903C107.745 25.3903 107.219 26.953 106.769 27.8484C106.318 28.7414 106.994 31.4971 107.52 32.3157C108.045 33.1342 109.022 32.9854 109.397 32.911C109.773 32.8365 111.425 31.7948 112.028 31.1995C112.629 30.6042 112.929 30.3066 112.929 30.3066C112.929 30.3066 113.23 30.3066 113.53 29.7113C113.83 29.116 112.629 27.7766 111.577 26.137C110.526 24.5 110.076 24.5744 110.076 24.5744L107.745 25.3903Z" fill="#FED9CE"/>
<path d="M108.833 33.0982C108.053 33.0982 107.634 32.7288 107.411 32.3824C106.87 31.5382 106.173 28.7414 106.652 27.7894C107.095 26.9144 107.618 25.3646 107.623 25.3492C107.636 25.3108 107.665 25.2825 107.704 25.2697L110.034 24.4512C110.143 24.4332 110.645 24.4409 111.689 26.0677C111.969 26.5039 112.256 26.9119 112.533 27.307C113.331 28.4437 113.906 29.2648 113.649 29.7677C113.39 30.2809 113.116 30.3989 112.994 30.4271L112.121 31.2919C111.505 31.9025 109.827 32.9597 109.426 33.0392C109.206 33.0803 109.009 33.0982 108.833 33.0982ZM107.849 25.4904C107.748 25.788 107.289 27.1018 106.885 27.9049C106.455 28.7542 107.139 31.4843 107.631 32.2464C107.965 32.7672 108.553 32.9469 109.376 32.7852C109.7 32.7211 111.337 31.705 111.94 31.1071L112.841 30.2142C112.865 30.1911 112.898 30.1757 112.932 30.1757C112.929 30.1757 113.165 30.15 113.416 29.6522C113.603 29.2853 113.007 28.436 112.318 27.4533C112.041 27.0556 111.754 26.645 111.469 26.2063C110.599 24.8515 110.166 24.7155 110.096 24.7026L107.849 25.4904Z" fill="#3F4553"/>
<path d="M108.273 29.1032C108.257 29.1032 108.242 29.1007 108.226 29.0955C107.442 28.7953 107.512 28.5926 107.532 28.5285C107.584 28.3719 108.188 27.4893 108.371 27.2224C108.413 27.1634 108.493 27.148 108.55 27.1891C108.61 27.2301 108.625 27.3097 108.584 27.3661C108.239 27.8665 107.869 28.4258 107.789 28.5798C107.853 28.6465 108.084 28.7671 108.317 28.8569C108.384 28.8826 108.418 28.957 108.392 29.0237C108.374 29.0699 108.325 29.1032 108.273 29.1032Z" fill="#3F4553"/>
<path d="M110.896 27.9305C110.847 27.9305 110.8 27.9023 110.78 27.8561C110.661 27.6046 110.505 27.4456 110.316 27.3814C110.062 27.2967 109.827 27.4071 109.824 27.4071C109.759 27.4379 109.682 27.4122 109.651 27.3506C109.62 27.2865 109.646 27.2095 109.708 27.1787C109.721 27.171 110.042 27.0171 110.402 27.1402C110.658 27.2275 110.865 27.4327 111.015 27.7483C111.046 27.8125 111.018 27.8895 110.953 27.9202C110.932 27.9254 110.914 27.9305 110.896 27.9305Z" fill="#3F4553"/>
<path d="M108.118 27.2173C108.076 27.2173 108.037 27.1993 108.012 27.1634C108.009 27.1582 107.887 26.9966 107.706 26.9761C107.589 26.9632 107.46 27.0171 107.328 27.1326C107.274 27.1788 107.193 27.1762 107.144 27.1223C107.097 27.0684 107.1 26.9889 107.154 26.9401C107.343 26.7708 107.538 26.699 107.737 26.7195C108.035 26.7528 108.216 27.0017 108.221 27.012C108.263 27.071 108.247 27.1505 108.19 27.1916C108.17 27.2096 108.144 27.2173 108.118 27.2173Z" fill="#3F4553"/>
<path d="M111.308 27.1146C111.254 27.1146 111.205 27.0812 111.187 27.0273C110.824 25.9907 110.184 26.1344 110.159 26.1421C110.089 26.1575 110.019 26.119 110.001 26.0497C109.982 25.9804 110.024 25.9112 110.091 25.8932C110.099 25.8906 110.985 25.6725 111.43 26.9427C111.453 27.0094 111.417 27.0838 111.35 27.1069C111.337 27.112 111.321 27.1146 111.308 27.1146Z" fill="#3F4553"/>
<path d="M107.501 26.6039C107.48 26.6039 107.462 26.5987 107.444 26.5911C107.379 26.5603 107.354 26.4833 107.387 26.4191C107.532 26.1292 107.726 25.9573 107.965 25.9034C108.327 25.8213 108.648 26.0599 108.661 26.0702C108.718 26.1138 108.729 26.1933 108.685 26.2498C108.641 26.3062 108.56 26.3165 108.503 26.2729C108.501 26.2703 108.262 26.0958 108.019 26.1523C107.861 26.1882 107.726 26.3165 107.618 26.532C107.594 26.5782 107.548 26.6039 107.501 26.6039Z" fill="#3F4553"/>
<path d="M107.81 29.6882C107.81 29.6882 108.734 30.0448 109.918 29.3828C109.918 29.3828 109.301 30.2988 108.581 30.4015C107.861 30.5015 107.81 29.6882 107.81 29.6882Z" fill="#3F4553"/>
<path d="M99.4428 40.2827C99.4428 40.2827 96.1877 42.9897 95.6672 44.732C95.1467 46.4742 95.5378 50.4719 95.473 51.6958C95.4083 52.9197 96.2551 54.2745 96.6435 54.5337C97.0345 54.7928 97.0993 54.3412 97.0345 53.8896C96.9698 53.438 96.9698 51.1159 96.9698 51.1159C96.9698 51.1159 97.555 52.7914 97.6198 52.4707C97.6845 52.1474 97.6845 51.5675 97.4256 50.6643C97.1666 49.7611 96.514 48.473 96.5788 48.2139C96.6435 47.9547 98.7255 44.0879 99.0518 42.8614" fill="#FED9CE"/>
<path d="M96.8428 54.7365C96.7703 54.7365 96.6797 54.7109 96.5709 54.639C96.1618 54.3696 95.2735 52.9738 95.3409 51.6882C95.359 51.3239 95.3383 50.7004 95.3124 49.9768C95.2528 48.2705 95.1699 45.9329 95.5403 44.6962C96.0659 42.9386 99.22 40.2957 99.3547 40.1854C99.4091 40.1392 99.4919 40.1469 99.536 40.2008C99.5826 40.2546 99.5748 40.3367 99.5204 40.3804C99.4894 40.406 96.2912 43.0848 95.7863 44.768C95.4289 45.9663 95.5092 48.2782 95.5687 49.9691C95.5946 50.6978 95.6154 51.329 95.5972 51.7036C95.5351 52.8788 96.3508 54.19 96.7107 54.4286C96.7858 54.4774 96.8376 54.4876 96.8532 54.4799C96.9024 54.4491 96.9516 54.2516 96.9024 53.9103C96.8376 53.4561 96.835 51.2161 96.835 51.1186C96.835 51.057 96.8817 51.0031 96.9438 50.9929C97.006 50.9826 97.0681 51.0185 97.0888 51.0776C97.2261 51.4727 97.3996 51.9166 97.5213 52.1783C97.5342 51.8781 97.498 51.4009 97.2986 50.7029C97.1872 50.3129 96.9956 49.8408 96.8273 49.4251C96.5476 48.7323 96.4052 48.3628 96.4492 48.1858C96.4725 48.0934 96.6408 47.7573 97.0189 47.0081C97.6508 45.7533 98.7047 43.6544 98.9248 42.8334C98.943 42.7641 99.0155 42.723 99.0828 42.741C99.1527 42.7589 99.1941 42.8282 99.176 42.8975C98.9507 43.7442 97.9278 45.7764 97.252 47.121C96.9801 47.6624 96.7237 48.1704 96.703 48.2474C96.6797 48.3603 96.8972 48.8966 97.0707 49.3276C97.2416 49.751 97.4332 50.2282 97.5498 50.6311C97.8424 51.6498 97.801 52.2373 97.7466 52.4965C97.7207 52.6222 97.63 52.6376 97.6016 52.6402C97.5239 52.6453 97.4177 52.653 97.1018 51.8499C97.1069 52.5683 97.1225 53.5921 97.1613 53.8692C97.1976 54.1156 97.2235 54.5518 96.993 54.6929C96.9593 54.7186 96.9076 54.7365 96.8428 54.7365Z" fill="#3F4553"/>
<path d="M96.8195 54.6389C96.7677 54.6389 96.7159 54.6055 96.6978 54.5542C96.6926 54.544 96.2783 53.4021 96.0737 51.9755C96.0633 51.9062 96.1125 51.8395 96.1825 51.8292C96.2524 51.819 96.3197 51.8677 96.3301 51.937C96.5321 53.3354 96.9386 54.4516 96.9412 54.4644C96.9645 54.5311 96.9308 54.6055 96.8635 54.6286C96.848 54.6363 96.8324 54.6389 96.8195 54.6389Z" fill="#3F4553"/>
<path d="M96.356 54.3311C96.3094 54.3311 96.2628 54.3055 96.2395 54.2593C96.2213 54.2259 95.8174 53.4126 95.5584 52.0809C95.5455 52.0116 95.5921 51.9449 95.662 51.9295C95.7319 51.9166 95.7993 51.9603 95.8148 52.0321C96.066 53.3279 96.4699 54.1361 96.4725 54.1438C96.5036 54.208 96.4777 54.2849 96.4156 54.3157C96.3948 54.3286 96.3741 54.3311 96.356 54.3311Z" fill="#3F4553"/>
<path d="M120.903 40.2827C120.903 40.2827 124.158 42.9897 124.678 44.732C125.199 46.4742 124.808 50.4719 124.872 51.6958C124.937 52.9197 124.09 54.2745 123.702 54.5337C123.314 54.7928 123.246 54.3412 123.311 53.8896C123.376 53.438 123.376 51.1159 123.376 51.1159C123.376 51.1159 122.79 52.7914 122.726 52.4707C122.661 52.15 122.661 51.5675 122.92 50.6643C123.181 49.7611 123.831 48.473 123.767 48.2139C123.702 47.9547 121.62 44.0879 121.294 42.8614" fill="#FED9CE"/>
<path d="M123.503 54.7365C123.438 54.7365 123.389 54.716 123.35 54.6929C123.122 54.5518 123.148 54.1156 123.182 53.8692C123.22 53.5921 123.236 52.5658 123.241 51.8499C122.925 52.6504 122.824 52.6453 122.741 52.6402C122.713 52.6376 122.622 52.6222 122.596 52.4965C122.545 52.2373 122.501 51.6498 122.793 50.6311C122.91 50.2282 123.101 49.751 123.272 49.3276C123.446 48.8966 123.661 48.3603 123.637 48.2474C123.617 48.173 123.36 47.6598 123.088 47.1184C122.412 45.7739 121.39 43.7417 121.167 42.8975C121.149 42.8282 121.19 42.7589 121.26 42.741C121.327 42.723 121.4 42.7641 121.418 42.8334C121.636 43.6519 122.692 45.7533 123.321 47.0055C123.699 47.7573 123.868 48.0934 123.891 48.1858C123.935 48.3628 123.793 48.7323 123.513 49.4251C123.345 49.8408 123.156 50.3129 123.042 50.7029C122.84 51.4009 122.803 51.8781 122.819 52.1783C122.941 51.914 123.112 51.4727 123.251 51.0776C123.272 51.0185 123.332 50.9826 123.397 50.9929C123.459 51.0031 123.505 51.057 123.505 51.1186C123.505 51.2135 123.505 53.4536 123.438 53.9103C123.389 54.2516 123.438 54.4491 123.487 54.4799C123.503 54.4902 123.554 54.4799 123.63 54.4286C123.99 54.19 124.805 52.8788 124.743 51.7036C124.722 51.329 124.746 50.6978 124.772 49.9691C124.831 48.2807 124.911 45.9663 124.554 44.768C124.049 43.0848 120.854 40.4086 120.82 40.3804C120.766 40.3342 120.758 40.2546 120.804 40.2008C120.851 40.1469 120.931 40.1392 120.986 40.1854C121.12 40.2957 124.274 42.9386 124.8 44.6962C125.17 45.9329 125.087 48.2705 125.028 49.9768C125.002 50.7004 124.981 51.3264 124.999 51.6882C125.067 52.9738 124.179 54.3696 123.769 54.639C123.663 54.7134 123.575 54.7365 123.503 54.7365Z" fill="#3F4553"/>
<path d="M123.508 54.5363C123.497 54.5363 123.487 54.5363 123.474 54.5312C123.404 54.5132 123.363 54.4439 123.381 54.3746C123.386 54.3592 123.79 52.7941 123.79 51.7523C123.79 51.6805 123.847 51.624 123.919 51.624C123.992 51.624 124.049 51.6805 124.049 51.7523C124.049 52.8274 123.65 54.3746 123.632 54.4388C123.619 54.4978 123.565 54.5363 123.508 54.5363Z" fill="#3F4553"/>
<path d="M123.971 54.485C123.956 54.485 123.943 54.4824 123.927 54.4773C123.86 54.4542 123.826 54.3798 123.849 54.3131C123.855 54.2977 124.461 52.6427 124.461 52.0089C124.461 51.9371 124.518 51.8806 124.59 51.8806C124.663 51.8806 124.72 51.9371 124.72 52.0089C124.72 52.6863 124.119 54.331 124.093 54.4003C124.075 54.4542 124.023 54.485 123.971 54.485Z" fill="#3F4553"/>
<path d="M64.219 94.9976C75.9465 94.9976 85.4535 92.7816 85.4535 90.048C85.4535 87.3144 75.9465 85.0984 64.219 85.0984C52.4916 85.0984 42.9846 87.3144 42.9846 90.048C42.9846 92.7816 52.4916 94.9976 64.219 94.9976Z" fill="#F4A17C"/>
<path d="M65.4436 94.9993C77.8581 94.9993 87.922 92.7902 87.922 90.065C87.922 87.3399 77.8581 85.1307 65.4436 85.1307C53.029 85.1307 42.9651 87.3399 42.9651 90.065C42.9651 92.7902 53.029 94.9993 65.4436 94.9993Z" fill="#F4A17C"/>
<path d="M55.296 86.6073C55.296 86.6073 52.1471 88.2469 51.5541 89.0962C50.9611 89.9455 51.7509 90.6203 52.9343 90.7024C54.1178 90.7845 58.9887 89.1603 59.429 88.9499C59.8718 88.7395 59.5507 87.4643 59.2296 86.8074C58.9111 86.148 55.296 86.6073 55.296 86.6073Z" fill="#E49621"/>
<path d="M53.025 90.8332C52.9888 90.8332 52.9551 90.8332 52.9241 90.8307C52.1394 90.7768 51.5205 90.4663 51.3056 90.025C51.202 89.8094 51.1398 89.4605 51.4454 89.0243C52.0514 88.1596 55.1045 86.5636 55.2339 86.4943C55.2469 86.4866 55.2624 86.4815 55.278 86.4815C55.8969 86.402 59.0018 86.0479 59.3436 86.7509C59.5223 87.1178 59.6776 87.6182 59.7398 88.0262C59.8252 88.5932 59.7398 88.9422 59.4808 89.0653C59.0458 89.2732 54.3949 90.8332 53.025 90.8332ZM55.3349 86.7304C55.063 86.8741 52.2042 88.3879 51.6578 89.168C51.4687 89.4374 51.4299 89.6888 51.5386 89.9121C51.7121 90.2713 52.2508 90.5253 52.9422 90.5741C54.1075 90.6587 58.9344 89.0422 59.3721 88.8344C59.5067 88.7703 59.5507 88.4829 59.486 88.0646C59.429 87.6798 59.2814 87.2076 59.1131 86.8612C58.9215 86.4661 56.798 86.5482 55.3349 86.7304Z" fill="#3F4553"/>
<path d="M59.5918 87.9081C58.3436 88.4495 54.8995 89.9095 53.7109 90.0609C52.7424 90.184 51.8516 89.8222 51.3595 89.5631C51.2793 90.1815 51.9785 90.6356 52.934 90.7023C54.1174 90.7844 58.9884 89.1602 59.4286 88.9498C59.6721 88.8318 59.6824 88.3905 59.5918 87.9081Z" fill="#F1BD54"/>
<path d="M53.0247 90.8333C52.9885 90.8333 52.9548 90.8333 52.9237 90.8307C52.2608 90.7845 51.717 90.5613 51.4322 90.2175C51.269 90.0199 51.1991 89.789 51.2276 89.5478C51.2328 89.5067 51.2587 89.4682 51.2975 89.4503C51.3337 89.4297 51.3804 89.4297 51.4166 89.4503C51.8594 89.6838 52.7451 90.0558 53.6928 89.9352C54.8789 89.7838 58.4654 88.2571 59.5375 87.7927C59.5737 87.7773 59.6152 87.7773 59.6488 87.7978C59.6825 87.8158 59.7084 87.8492 59.7162 87.8876C59.8379 88.5266 59.7576 88.9345 59.4831 89.0654C59.0455 89.2732 54.3946 90.8333 53.0247 90.8333ZM51.4917 89.7736C51.5124 89.8736 51.559 89.966 51.6315 90.0558C51.8672 90.3406 52.3566 90.5331 52.9393 90.5741C54.1046 90.6588 58.9315 89.0423 59.3692 88.8345C59.5012 88.7703 59.5427 88.4932 59.4883 88.0929C58.0252 88.7241 54.8685 90.043 53.7239 90.1893C52.8357 90.2996 52.0019 90.0122 51.4917 89.7736Z" fill="#3F4553"/>
<path d="M70.5463 86.6073C70.5463 86.6073 73.6952 88.2469 74.2882 89.0962C74.8813 89.9455 74.0914 90.6203 72.908 90.7024C71.7246 90.7846 66.8536 89.1604 66.4134 88.95C65.9706 88.7395 66.2917 87.4643 66.6128 86.8074C66.9339 86.148 70.5463 86.6073 70.5463 86.6073Z" fill="#E49621"/>
<path d="M72.8199 90.8333C71.4475 90.8333 66.7992 89.2732 66.359 89.0654C66.1026 88.9422 66.0145 88.5933 66.1 88.0262C66.1622 87.6182 66.3175 87.1179 66.4962 86.7509C66.838 86.0453 69.9429 86.402 70.5618 86.4815C70.5774 86.4841 70.5929 86.4892 70.6059 86.4944C70.7353 86.5611 73.791 88.1571 74.3944 89.0243C74.7 89.4605 74.6404 89.8095 74.5342 90.025C74.3193 90.4689 73.7004 90.7768 72.9157 90.8307C72.8873 90.8307 72.8536 90.8333 72.8199 90.8333ZM68.239 86.579C67.4544 86.579 66.8303 86.656 66.7293 86.8613C66.5609 87.2077 66.4133 87.6798 66.3564 88.0647C66.2916 88.4829 66.3357 88.7703 66.4703 88.8344C66.8976 89.0397 71.5096 90.5793 72.8096 90.5793C72.8432 90.5793 72.8717 90.5792 72.9002 90.5767C73.5916 90.5279 74.1277 90.2739 74.3038 89.9147C74.4125 89.6915 74.3711 89.44 74.1846 89.1706C73.6408 88.3905 70.7794 86.8767 70.5074 86.733C69.8083 86.6432 68.9563 86.579 68.239 86.579Z" fill="#3F4553"/>
<path d="M66.2523 87.9082C67.5005 88.4496 70.9446 89.9096 72.1332 90.061C73.1017 90.1841 73.9925 89.8224 74.4845 89.5632C74.5648 90.1816 73.8656 90.6357 72.9101 90.7025C71.7267 90.7846 66.8557 89.1604 66.4155 88.95C66.1695 88.8319 66.1591 88.3906 66.2523 87.9082Z" fill="#F1BD54"/>
<path d="M72.8195 90.8333C71.4471 90.8333 66.7988 89.2732 66.3586 89.0654C66.0841 88.9345 66.0038 88.5265 66.1255 87.8876C66.1333 87.8491 66.1566 87.8158 66.1929 87.7978C66.2291 87.7799 66.268 87.7773 66.3042 87.7927C67.3763 88.2571 70.9654 89.7838 72.1489 89.9352C73.0966 90.0558 73.9823 89.6838 74.4251 89.4503C74.4639 89.4297 74.5079 89.4297 74.5442 89.4503C74.583 89.4708 74.6089 89.5067 74.6141 89.5478C74.6452 89.789 74.5753 90.0199 74.4095 90.2175C74.1247 90.5613 73.5809 90.7845 72.918 90.8307C72.8869 90.8307 72.8532 90.8333 72.8195 90.8333ZM66.3534 88.0929C66.2964 88.4932 66.3405 88.7703 66.4725 88.8344C66.8998 89.0397 71.5118 90.5767 72.8118 90.5793C72.8454 90.5793 72.8739 90.5793 72.9024 90.5767C73.4851 90.5356 73.9745 90.3406 74.2101 90.0584C74.2827 89.9711 74.3293 89.8762 74.35 89.7761C73.8424 90.0148 73.0112 90.3047 72.1152 90.1918C70.9706 90.043 67.8165 88.7241 66.3534 88.0929Z" fill="#3F4553"/>
<path d="M56.8547 54.5001C56.8547 54.5001 53.9881 66.7908 53.5893 68.5458C53.1905 70.3009 52.8979 72.2741 53.364 73.4544C53.8301 74.6347 55.3243 86.2171 55.3243 86.2171L59.6178 87.3769C59.6178 87.3769 59.6722 79.9358 59.5298 77.0107C59.3873 74.0856 59.2216 70.3881 59.2216 70.3881L63.7844 59.1213L64.538 60.1092L67.9536 70.2085L65.9441 87.1357L70.0279 86.076C70.0279 86.076 73.5367 75.3095 74.109 73.0695C74.6787 70.8295 74.9532 69.3233 74.5078 68.2944C74.0624 67.2654 71.1725 55.7831 71.1725 55.7831L56.8547 54.5001Z" fill="#3F4553"/>
<path d="M59.6152 87.5027C59.6049 87.5027 59.5919 87.5001 59.5816 87.4975L55.2881 86.3377C55.2389 86.3249 55.2 86.2813 55.1949 86.23C55.1793 86.1145 53.6955 74.6501 53.2423 73.498C52.8539 72.5102 52.9238 70.8808 53.4624 68.5151C53.856 66.7805 56.6994 54.5925 56.7279 54.4694C56.7434 54.4078 56.8004 54.3642 56.8651 54.3693L71.1777 55.6523C71.232 55.6574 71.2786 55.6959 71.2916 55.7498C71.3201 55.8652 74.1841 67.2347 74.6218 68.2405C75.0698 69.272 74.8289 70.7423 74.2282 73.0977C73.6636 75.3172 70.1807 86.0042 70.147 86.1119C70.1341 86.153 70.1004 86.1864 70.0564 86.1966L65.9726 87.2563C65.9312 87.2666 65.8872 87.2563 65.8535 87.2281C65.8198 87.1999 65.8043 87.1588 65.8095 87.1152L67.8164 70.2188L64.4163 60.1657L63.8129 59.3754L59.3511 70.4087C59.3666 70.7525 59.522 74.2242 59.6593 77.003C59.8017 79.8974 59.7473 87.3025 59.7473 87.3769C59.7473 87.418 59.7292 87.4539 59.6955 87.477C59.6722 87.495 59.6437 87.5027 59.6152 87.5027ZM55.4409 86.1145L59.4884 87.2076C59.4961 86.0889 59.5298 79.6587 59.4003 77.0133C59.2579 74.0882 59.0921 70.3907 59.0921 70.3907C59.0921 70.3728 59.0947 70.3548 59.1025 70.3368L63.6653 59.07C63.6835 59.0264 63.7223 58.9956 63.7689 58.9905C63.8181 58.9853 63.8621 59.0033 63.8906 59.0418L64.6442 60.0297C64.6519 60.0399 64.6597 60.0528 64.6623 60.0656L68.0779 70.1649C68.0831 70.1829 68.0857 70.2009 68.0831 70.2214L66.0943 86.9613L69.9269 85.9657C70.2247 85.0522 73.4435 75.153 73.9822 73.0336C74.5674 70.7346 74.8056 69.3028 74.3887 68.3406C73.9589 67.3527 71.3589 57.0481 71.0689 55.8986L56.9583 54.6336C56.6735 55.8575 54.0917 66.9242 53.7188 68.569C53.1931 70.8834 53.118 72.464 53.4883 73.4031C53.9337 74.5475 55.2933 84.9778 55.4409 86.1145Z" fill="#3F4553"/>
<path d="M67.3188 84.5647C67.3136 84.5647 67.3085 84.5647 67.3033 84.5647C67.2334 84.557 67.1816 84.4928 67.1893 84.421C67.2049 84.2978 68.6835 72.0791 68.7612 71.3965C68.8026 71.0476 68.813 70.9424 69.0538 70.9295C69.1678 70.9244 69.4086 70.9116 69.9369 70.56C70.0638 70.4754 70.1466 70.4138 70.1984 70.3727C70.1285 70.3727 70.0405 70.3753 69.9654 70.3779C69.6442 70.3881 69.204 70.4035 68.8907 70.2675C68.163 69.9519 66.2416 63.5885 65.8635 62.3133C65.8428 62.2466 65.8816 62.1747 65.9515 62.1542C66.0188 62.1337 66.0914 62.1722 66.1121 62.2414C67.1919 65.8799 68.5696 69.8467 68.9943 70.0315C69.2558 70.1444 69.6624 70.1315 69.9576 70.1213C70.2968 70.111 70.4859 70.1033 70.5376 70.2573C70.5817 70.3907 70.4755 70.5113 70.0845 70.773C69.4966 71.1656 69.2092 71.181 69.0694 71.1861C69.0642 71.1861 69.059 71.1861 69.0538 71.1861C69.0435 71.2323 69.0331 71.3221 69.0228 71.4247C68.9451 72.1098 67.4638 84.3286 67.4483 84.4518C67.4405 84.5159 67.3836 84.5647 67.3188 84.5647Z" fill="#4E5567"/>
<path d="M59.3663 81.8809C59.3016 81.8809 59.2446 81.8322 59.2369 81.768L59.1281 80.852C59.1203 80.7827 59.1721 80.7185 59.242 80.7108C59.3119 80.7032 59.3767 80.7545 59.3845 80.8237L59.4932 81.7398C59.501 81.8091 59.4492 81.8732 59.3793 81.8809C59.3767 81.8809 59.3715 81.8809 59.3663 81.8809Z" fill="#4E5567"/>
<path d="M59.0997 79.5973C59.035 79.5973 58.978 79.5485 58.9702 79.4844L58.0043 71.2658C57.8334 71.2299 57.4372 71.1427 56.9167 70.999C56.8235 70.9733 56.6267 70.9195 56.6189 70.7655C56.6085 70.5936 56.8131 70.5115 57.2637 70.3319C57.6133 70.1933 58.0509 70.0188 58.4497 69.7699C58.9262 69.4749 60.0578 67.0219 61.552 63.0422C61.5779 62.9755 61.6504 62.9421 61.7178 62.9678C61.7851 62.9934 61.8188 63.0653 61.7929 63.132C60.7052 66.0263 59.2654 69.5647 58.5844 69.988C58.1649 70.2472 57.6988 70.4345 57.3569 70.5705C57.2093 70.6295 57.0488 70.6937 56.9478 70.7424C56.9581 70.745 56.9685 70.7475 56.9814 70.7527C57.6729 70.9425 58.139 71.0323 58.1442 71.0349C58.1985 71.0452 58.2426 71.0914 58.2477 71.1452L59.224 79.4562C59.2318 79.5254 59.18 79.5896 59.1101 79.5973C59.1101 79.5973 59.1049 79.5973 59.0997 79.5973Z" fill="#4E5567"/>
<path d="M62.1683 61.8744C62.1528 61.8744 62.1398 61.8719 62.1243 61.8667C62.057 61.8436 62.0233 61.7692 62.0466 61.7025C62.2227 61.2201 62.3263 60.925 62.3263 60.925C62.3496 60.8583 62.4247 60.8224 62.492 60.8455C62.5594 60.8686 62.5956 60.943 62.5723 61.0097C62.5723 61.0097 62.4687 61.3048 62.2926 61.7898C62.2719 61.8411 62.2227 61.8744 62.1683 61.8744Z" fill="#4E5567"/>
<path d="M65.527 34.5016C65.527 34.5016 58.5792 33.37 55.7799 32.8722C52.9806 32.3745 50.5748 31.9049 50.5748 31.9049L49.3552 35.7768C49.3552 35.7768 54.9098 37.6294 56.3729 38.063C57.836 38.4967 58.4135 38.7327 58.4135 38.7327C58.4135 38.7327 58.6051 48.0803 58.0043 50.0919C57.4035 52.1036 56.0518 56.1474 56.0518 56.1474L63.2093 60.1194L64.6465 57.923L64.7579 59.9988C64.7579 59.9988 67.0082 59.868 69.0359 59.2239C71.0635 58.5799 72.2909 57.805 72.2909 57.805L70.6828 50.8053L72.8762 41.7759C72.8762 41.7759 83.9285 39.6 83.9932 38.8944C84.0579 38.1888 82.4731 35.6024 82.4731 35.6024L67.4977 34.635L65.527 34.5016Z" fill="#FFF9F1"/>
<path d="M63.2099 60.2504C63.1892 60.2504 63.1659 60.2452 63.1478 60.235L55.9902 56.263C55.9358 56.2322 55.9099 56.168 55.9306 56.1116C55.9436 56.0705 57.2902 52.0472 57.8832 50.0586C58.4399 48.1907 58.3053 39.7669 58.2871 38.8226C58.0852 38.7456 57.4818 38.525 56.3372 38.1863C54.8896 37.7578 49.3713 35.918 49.3169 35.9001C49.2496 35.877 49.2133 35.8077 49.234 35.741L50.4537 31.8691C50.4744 31.8075 50.5366 31.7664 50.6013 31.7818C50.6246 31.7869 53.0381 32.2565 55.8038 32.7466C58.5357 33.2315 65.3049 34.3349 65.5431 34.3759L67.5086 34.5119L82.484 35.4793C82.5255 35.4818 82.5643 35.5049 82.5876 35.5408C82.7508 35.8103 84.1932 38.1863 84.1258 38.9124C84.1077 39.0997 84.0766 39.4461 78.4417 40.7316C75.9635 41.2961 73.462 41.799 72.9855 41.894L70.8181 50.8156L72.4184 57.7845C72.4314 57.8384 72.408 57.8923 72.3614 57.9205C72.3485 57.9282 71.0951 58.7134 69.0753 59.3549C67.0554 59.9963 64.7895 60.1349 64.7662 60.1349C64.7326 60.1375 64.6989 60.1246 64.673 60.1015C64.6471 60.0784 64.6316 60.0477 64.629 60.0117L64.5384 58.3285L63.3187 60.1939C63.2928 60.2298 63.2513 60.2504 63.2099 60.2504ZM56.2077 56.0911L63.1659 59.9527L64.5358 57.859C64.5668 57.8128 64.6238 57.7922 64.6782 57.8051C64.7326 57.8205 64.7714 57.8667 64.774 57.9231L64.8802 59.868C65.3877 59.8296 67.2833 59.6525 68.995 59.1085C70.6989 58.5671 71.8435 57.9257 72.1439 57.7486L70.5565 50.8412C70.5513 50.8207 70.5513 50.8028 70.5565 50.7822L72.7499 41.7529C72.7628 41.7041 72.8017 41.6682 72.8509 41.6579C78.0093 40.6418 83.6234 39.323 83.8695 38.8765C83.9135 38.3608 82.8543 36.4851 82.3986 35.7333L67.4905 34.7711L65.5172 34.6351C65.512 34.6351 65.5094 34.6351 65.5043 34.6325C65.4343 34.6223 58.5254 33.4933 55.7571 33.0032C53.3281 32.5721 51.1736 32.1564 50.6635 32.0589L49.5163 35.7025C50.3346 35.9745 55.0839 37.5525 56.4097 37.9476C57.8625 38.3787 58.4399 38.6122 58.4632 38.6225C58.5098 38.643 58.5409 38.6866 58.5435 38.7379C58.5513 39.1203 58.7274 48.1291 58.1292 50.1356C57.588 51.9446 56.4227 55.4522 56.2077 56.0911Z" fill="#3F4553"/>
<path d="M63.0954 34.0193L62.7924 38.4506L66.4618 37.0265L70.3617 40.0081L70.2374 34.1835L63.0954 34.0193Z" fill="white"/>
<path d="M70.362 40.1364C70.3335 40.1364 70.305 40.1261 70.2817 40.1107L66.4414 37.1753L62.8393 38.5737C62.7979 38.5891 62.7513 38.584 62.715 38.5583C62.6787 38.5327 62.6606 38.4891 62.6632 38.4454L62.9662 34.0142C62.9714 33.9449 63.0361 33.8961 63.0983 33.8936L70.2377 34.0578C70.3076 34.0603 70.362 34.1142 70.3646 34.1835L70.4889 40.0081C70.4889 40.0568 70.463 40.103 70.419 40.1261C70.4008 40.1312 70.3827 40.1364 70.362 40.1364ZM66.4621 36.8982C66.4906 36.8982 66.5191 36.9085 66.5424 36.9239L70.2273 39.7412L70.1108 34.3092L63.2174 34.1501L62.9351 38.2581L66.4155 36.9085C66.431 36.9008 66.4466 36.8982 66.4621 36.8982Z" fill="#3F4553"/>
<path d="M64.7891 57.6306C64.7865 57.6306 64.7814 57.6306 64.7788 57.6306C64.7063 57.6254 64.6545 57.5639 64.6597 57.492L66.0994 40.5212C66.1046 40.4494 66.1694 40.4006 66.2393 40.4032C66.3118 40.4083 66.3636 40.4699 66.3584 40.5417L64.9186 57.5125C64.9108 57.5818 64.8539 57.6306 64.7891 57.6306Z" fill="#3F4553"/>
<path d="M72.8766 41.9066C72.8507 41.9066 72.8248 41.8989 72.8041 41.8835C72.7523 41.8476 72.7316 41.7809 72.7601 41.7219L74.4925 38.0988C74.5236 38.0347 74.6013 38.009 74.666 38.0372C74.7308 38.068 74.7593 38.145 74.7282 38.2092L73.3505 41.0881L76.4943 37.755C76.5435 37.7037 76.6237 37.7011 76.6781 37.7499C76.7299 37.7986 76.7325 37.8782 76.6833 37.932L72.9724 41.8681C72.9466 41.8938 72.9103 41.9066 72.8766 41.9066Z" fill="#3F4553"/>
<path d="M58.4139 38.8636C58.375 38.8636 58.3362 38.8456 58.3103 38.8123L55.467 35.1123C55.4229 35.0558 55.4333 34.9763 55.4903 34.9327C55.5472 34.889 55.6275 34.8993 55.6715 34.9557L57.9193 37.8783L57.1346 35.9847C57.1087 35.9205 57.1398 35.8435 57.2046 35.8179C57.2693 35.7922 57.347 35.823 57.3729 35.8872L58.5304 38.684C58.5537 38.743 58.5304 38.8123 58.476 38.8431C58.4579 38.8559 58.4346 38.8636 58.4139 38.8636Z" fill="#3F4553"/>
<path d="M64.7789 34.3784L66.2264 40.5314L68.8212 34.7248L67.4953 34.6401L65.5247 34.5041C65.5273 34.5016 65.245 34.4554 64.7789 34.3784Z" fill="white"/>
<path d="M66.2267 40.6597C66.2215 40.6597 66.2189 40.6597 66.2137 40.6597C66.1593 40.6546 66.1127 40.6161 66.0998 40.5622L64.6522 34.4092C64.6419 34.3681 64.6548 34.3245 64.6833 34.2911C64.7118 34.2578 64.7558 34.245 64.7998 34.2527L65.5482 34.3758L68.8318 34.5965C68.8732 34.599 68.912 34.6221 68.9353 34.6581C68.9561 34.694 68.9612 34.7376 68.9431 34.7761L66.3484 40.5827C66.3251 40.6289 66.2785 40.6597 66.2267 40.6597ZM64.95 34.5375L66.2655 40.1286L68.6298 34.8402L65.5171 34.6298L64.95 34.5375Z" fill="#3F4553"/>
<path d="M64.7789 34.3784L66.2264 40.5314L68.8212 34.7248L67.4953 34.6401L65.5247 34.5041C65.5273 34.5016 65.245 34.4554 64.7789 34.3784Z" fill="#C6FF00"/>
<path d="M64.7789 34.3784L66.2264 40.5314L68.8212 34.7248L67.4953 34.6401L65.5247 34.5041C65.5273 34.5016 65.245 34.4554 64.7789 34.3784Z" fill="#FED9CE"/>
<path d="M86.7338 37.4908C86.7338 37.4908 86.8607 38.5146 86.2858 38.9636C85.7135 39.4127 83.2922 40.1901 82.6138 39.7873C81.9353 39.3844 80.9746 37.2522 81.3501 35.7511C81.7256 34.2527 83.994 34.8095 83.994 34.8095C83.994 34.8095 86.2107 35.5125 86.7338 37.4908Z" fill="white"/>
<path d="M83.1805 40.026C82.9189 40.026 82.6988 39.9875 82.5486 39.8977C81.7925 39.4487 80.8524 37.2138 81.2253 35.7205C81.3937 35.0482 81.9375 34.6582 82.8024 34.5889C83.4316 34.5401 84.0013 34.6761 84.0247 34.6838C84.1256 34.7146 86.3242 35.4331 86.8576 37.455C86.8602 37.4601 86.8602 37.4653 86.8602 37.473C86.8654 37.5166 86.9871 38.5737 86.3656 39.0613C85.915 39.4179 84.2241 40.026 83.1805 40.026ZM83.0846 34.8378C82.4502 34.8378 81.6682 35.0046 81.4739 35.782C81.1088 37.2395 82.0721 39.3153 82.6807 39.6771C83.2944 40.0414 85.6405 39.305 86.2051 38.8637C86.6893 38.4839 86.6142 37.6064 86.6065 37.514C86.1041 35.6358 83.9755 34.9404 83.9547 34.9327C83.947 34.9302 83.5559 34.8378 83.0846 34.8378Z" fill="#575C69"/>
<path d="M84.6825 38.5763C83.6208 38.6354 82.6859 37.881 82.4166 36.8623C81.7407 34.2862 80.0938 28.223 79.4671 27.8073C78.6695 27.2813 78.0584 27.1479 78.0687 26.6604C78.0791 26.1754 78.1205 24.2305 78.1205 24.2305C78.1205 24.2305 78.4753 23.7019 78.7109 24.1945C78.9466 24.6846 78.8896 25.0721 78.8896 25.0721C78.8896 25.0721 79.2807 23.9867 79.2392 23.6454C79.1978 23.3042 79.1175 22.3805 79.1227 22.1367C79.1279 21.8929 79.4516 21.6825 79.9306 22.1778C80.4097 22.673 81.3445 23.7378 81.1633 24.2433C80.982 24.7488 80.6583 27.2454 80.6583 27.2454C80.6583 27.2454 86.6557 35.9694 86.5418 36.7443C86.4589 37.3011 85.9747 38.5045 84.6825 38.5763Z" fill="#FED9CE"/>
<path d="M84.5659 38.7071C83.5171 38.7071 82.572 37.9605 82.2923 36.893C80.9095 31.6201 79.7985 28.1793 79.3972 27.9124C79.1667 27.761 78.9517 27.643 78.7627 27.5378C78.281 27.271 77.9315 27.0785 77.9418 26.6577L77.9936 24.2278C77.9936 24.2047 78.0014 24.1791 78.0143 24.1585C78.035 24.1252 78.2344 23.8378 78.4908 23.8558C78.6306 23.866 78.7446 23.961 78.83 24.138C78.8844 24.2509 78.9233 24.3612 78.9543 24.4613C79.0501 24.1303 79.1278 23.7993 79.1123 23.6608C79.0709 23.3298 78.9906 22.3932 78.9958 22.134C78.9984 21.975 79.0968 21.8338 79.2444 21.7774C79.3738 21.7261 79.6509 21.7004 80.0264 22.0904C80.5858 22.6678 81.4921 23.7198 81.2875 24.2894C81.1244 24.7384 80.8421 26.8681 80.7955 27.2171C81.8624 28.7694 86.7878 35.9899 86.6738 36.7673C86.5806 37.4037 86.0446 38.6302 84.6954 38.7046C84.6462 38.7071 84.6048 38.7071 84.5659 38.7071ZM78.2474 24.274L78.1982 26.6628C78.193 26.9169 78.4183 27.0529 78.887 27.3146C79.0812 27.4223 79.3013 27.5429 79.5396 27.6995C80.1481 28.0997 81.5076 32.8851 82.5435 36.8289C82.8024 37.8219 83.6984 38.5019 84.6747 38.448C85.8581 38.3813 86.3294 37.2959 86.4123 36.7288C86.49 36.2003 82.8568 30.6785 80.5495 27.3197C80.5314 27.2941 80.5236 27.2633 80.5288 27.2325C80.5417 27.1298 80.8551 24.7179 81.0389 24.2022C81.1477 23.8968 80.6764 23.1373 79.8348 22.2675C79.6043 22.0288 79.4256 21.9801 79.3324 22.016C79.2729 22.0391 79.2495 22.0956 79.2495 22.1392C79.2444 22.3701 79.3195 23.2733 79.3635 23.63C79.4075 23.9918 79.0501 25.0001 79.0087 25.1156C78.9854 25.1772 78.9207 25.2131 78.8559 25.1977C78.7912 25.1823 78.7498 25.1207 78.7601 25.054C78.7601 25.0515 78.8067 24.6948 78.5944 24.2483C78.5555 24.1662 78.5089 24.1149 78.4701 24.1123C78.4157 24.1047 78.3095 24.197 78.2474 24.274Z" fill="#3F4553"/>
<path d="M80.174 25.1619C80.161 25.1619 80.1481 25.1593 80.1377 25.1568C80.0704 25.1362 80.0289 25.0644 80.0523 24.9977L80.3319 24.0714C80.2724 23.938 80.1066 23.5479 80.0885 23.1913C80.0782 22.9937 80.1584 22.9039 80.2258 22.8629C80.3993 22.7577 80.6427 22.8911 80.6893 22.9167C80.7514 22.9527 80.7696 23.0322 80.7333 23.0912C80.6971 23.1528 80.6168 23.1733 80.5572 23.1374C80.4795 23.0912 80.3811 23.0681 80.3578 23.081C80.3578 23.081 80.3397 23.1015 80.3449 23.1785C80.3656 23.5582 80.5831 24.0021 80.5857 24.0072C80.6013 24.0355 80.6038 24.0688 80.5935 24.0996L80.2983 25.0747C80.2801 25.126 80.2283 25.1619 80.174 25.1619Z" fill="#263238"/>
<path d="M79.7311 25.0463C79.7207 25.0463 79.7104 25.0463 79.7 25.0437C79.6301 25.0258 79.5887 24.9565 79.6042 24.8898L79.8217 24.0097C79.757 23.8711 79.5861 23.4324 79.6871 22.9705C79.7337 22.7627 79.8269 22.6241 79.9667 22.5625C80.1584 22.4753 80.3474 22.5754 80.3681 22.5856C80.4303 22.619 80.4536 22.6985 80.4199 22.7601C80.3863 22.8217 80.3086 22.8448 80.2438 22.8114C80.2412 22.8089 80.1454 22.7627 80.0729 22.796C79.9978 22.8294 79.959 22.9397 79.9408 23.0244C79.8399 23.4811 80.0703 23.9301 80.0729 23.9353C80.0885 23.9635 80.091 23.9943 80.0833 24.0251L79.8554 24.9514C79.8424 25.0078 79.7881 25.0463 79.7311 25.0463Z" fill="#263238"/>
<path d="M79.3609 25.0206C79.3531 25.0206 79.3454 25.0206 79.3376 25.0181C79.2677 25.0052 79.2211 24.9385 79.2314 24.8692L79.4412 23.6966C79.4075 23.5632 79.2677 22.9833 79.247 22.5676C79.2366 22.3726 79.3169 22.2572 79.3868 22.193C79.5836 22.0108 79.9073 22.0468 79.9435 22.0519C80.0135 22.0622 80.0653 22.1237 80.0549 22.1956C80.0471 22.2649 79.9824 22.3162 79.9099 22.3059C79.8426 22.2982 79.6535 22.2957 79.5603 22.3803C79.5189 22.4188 79.5007 22.4753 79.5033 22.5548C79.5266 22.991 79.6949 23.6556 79.6975 23.6607C79.7027 23.6787 79.7027 23.6966 79.7001 23.7146L79.4852 24.9129C79.4774 24.977 79.423 25.0206 79.3609 25.0206Z" fill="#263238"/>
<path d="M68.5826 35.823C77.4511 35.823 84.6404 28.6994 84.6404 19.9119C84.6404 11.1245 77.4511 4.00085 68.5826 4.00085C59.714 4.00085 52.5247 11.1245 52.5247 19.9119C52.5247 28.6994 59.714 35.823 68.5826 35.823Z" fill="#FA6E5A"/>
<path opacity="0.3" d="M57.4996 19.2654C57.8207 11.5369 63.6576 5.32748 71.0922 4.19849C70.4863 4.10355 69.87 4.03941 69.2433 4.01375C60.3818 3.65196 52.9031 10.4747 52.5354 19.2526C52.1703 28.0331 59.0559 35.4433 67.9148 35.8077C68.9766 35.8513 70.015 35.7897 71.0275 35.6358C63.0827 34.399 57.1604 27.4249 57.4996 19.2654Z" fill="#AC3E2F"/>
<path d="M58.8514 21.3412C58.8514 21.3412 70.6365 19.8042 80.3888 22.2239C80.3888 22.2239 79.4747 31.9229 69.2926 31.6997C60.4647 31.5073 58.8514 21.3412 58.8514 21.3412Z" fill="#3F4553"/>
<path d="M69.7818 16.302C69.396 16.302 69.0619 16.0197 69.0127 15.6297C68.7667 13.7335 67.0265 12.3043 64.9627 12.3043C63.1241 12.3043 61.5056 13.4538 61.0265 15.096C60.9074 15.504 60.4749 15.74 60.0632 15.622C59.6515 15.504 59.4132 15.078 59.5323 14.6675C60.203 12.3685 62.4352 10.7648 64.9627 10.7648C67.8034 10.7648 70.2065 12.7713 70.5535 15.4347C70.6079 15.8555 70.3075 16.2429 69.8828 16.2968C69.8492 16.2994 69.8155 16.302 69.7818 16.302Z" fill="#3F4553"/>
<path d="M81.0959 18.1287C80.6764 18.1287 80.332 17.7977 80.319 17.3795C80.2724 15.6886 78.8663 14.2773 77.0484 14.0977C75.4299 13.9386 73.8995 14.8059 73.3298 16.2094C73.1692 16.6046 72.7161 16.7945 72.3198 16.6379C71.9211 16.4789 71.7294 16.0324 71.8874 15.6372C72.7135 13.5999 74.8965 12.3375 77.2012 12.5659C79.7933 12.8225 81.8002 14.8752 81.8702 17.3359C81.8831 17.7618 81.5439 18.1159 81.114 18.1262C81.1114 18.1287 81.1036 18.1287 81.0959 18.1287Z" fill="#3F4553"/>
<path d="M60.3846 21.6389C60.4804 22.0238 61.1925 24.1304 65.3514 24.3023C69.9297 24.4897 74.5029 24.8463 76.8827 24.7745C78.307 24.7309 78.988 23.5172 79.3065 22.5473C72.0972 20.9128 63.9841 21.3285 60.3846 21.6389Z" fill="white"/>
<path d="M72.338 30.9223C72.3406 28.6412 69.8701 26.7117 66.7342 26.5834C64.9966 26.5115 63.4195 27.0119 62.3215 27.856C63.896 29.6445 66.1774 31.0891 69.4506 31.1609C70.5123 31.184 71.4705 31.0942 72.338 30.9223Z" fill="#4E5567"/>
<path d="M54.8347 86.6636L59.9647 88.2596L60.0061 86.1633L54.6276 85.0651L54.8347 86.6636Z" fill="#4E5567"/>
<path d="M59.965 88.3878C59.952 88.3878 59.9391 88.3853 59.9262 88.3827L54.7962 86.7867C54.747 86.7713 54.7134 86.7303 54.7056 86.6815L54.4984 85.0804C54.4932 85.0394 54.5088 84.9983 54.5399 84.9701C54.5709 84.9419 54.6124 84.929 54.6538 84.9393L60.0323 86.0375C60.0945 86.0503 60.1359 86.1042 60.1359 86.1658L60.0945 88.2621C60.0945 88.3032 60.0738 88.3391 60.0401 88.3647C60.0194 88.3801 59.9935 88.3878 59.965 88.3878ZM54.9516 86.5661L59.8381 88.0851L59.8744 86.2659L54.7781 85.2241L54.9516 86.5661Z" fill="#3F4553"/>
<path d="M65.3718 86.9741L66.0037 88.8318L71.0559 86.7945L70.6753 85.0625L65.3718 86.9741Z" fill="#4E5567"/>
<path d="M66.0037 88.9576C65.9855 88.9576 65.9674 88.9525 65.9493 88.9448C65.9156 88.9294 65.8923 88.9037 65.8794 88.8704L65.2475 87.0152C65.2242 86.9485 65.2605 86.8767 65.3252 86.8536L70.6286 84.942C70.6649 84.9291 70.7037 84.9317 70.7348 84.9497C70.7685 84.9676 70.7918 84.9984 70.7995 85.0343L71.1802 86.7663C71.1931 86.8279 71.1595 86.8895 71.1025 86.9126L66.0503 88.9473C66.0373 88.955 66.0192 88.9576 66.0037 88.9576ZM65.535 87.0511L66.0813 88.66L70.9057 86.7176L70.5794 85.2345L65.535 87.0511Z" fill="#3F4553"/>
<path d="M46.5411 33.3474C46.5411 33.3474 46.1967 34.3199 46.6602 34.8818C47.1237 35.4437 49.3197 36.7138 50.0681 36.4624C50.8165 36.2135 52.2148 34.3301 52.1734 32.788C52.1294 31.2434 49.7936 31.3075 49.7936 31.3075C49.7936 31.3075 47.4785 31.5256 46.5411 33.3474Z" fill="white"/>
<path d="M49.8475 36.6211C48.879 36.6211 46.9731 35.4613 46.5588 34.961C46.0564 34.3529 46.4008 33.347 46.4164 33.3034C46.4189 33.2983 46.4215 33.2931 46.4241 33.288C47.3823 31.4226 49.6844 31.1891 49.7802 31.1788C50.6451 31.1609 52.2636 31.4611 52.3024 32.7825C52.3465 34.3195 50.9455 36.3029 50.1091 36.5826C50.034 36.6083 49.9459 36.6211 49.8475 36.6211ZM46.6598 33.3958C46.6313 33.4856 46.3697 34.3246 46.7608 34.7993C47.2165 35.351 49.3503 36.5646 50.0288 36.3414C50.7021 36.1156 52.0875 34.2938 52.0461 32.7928C52.0072 31.3944 49.8216 31.438 49.7983 31.438C49.7828 31.438 47.5558 31.6689 46.6598 33.3958Z" fill="#3F4553"/>
<path d="M47.7759 34.6967C48.8014 34.979 49.876 34.4402 50.3577 33.501C51.5722 31.1276 54.4881 25.5519 55.1898 25.2799C56.0832 24.9335 56.7073 24.9335 56.8031 24.4563C56.8989 23.979 57.277 22.0726 57.277 22.0726C57.277 22.0726 57.044 21.4824 56.7099 21.9135C56.3758 22.342 56.3474 22.7346 56.3474 22.7346C56.3474 22.7346 56.1998 21.5928 56.3137 21.2669C56.4276 20.9436 56.7047 20.0558 56.7513 19.8172C56.7979 19.5785 56.5286 19.304 55.9537 19.6863C55.3789 20.0686 54.2369 20.9102 54.3042 21.4439C54.3741 21.9776 54.1488 24.4845 54.1488 24.4845C54.1488 24.4845 46.4086 31.7383 46.3542 32.5209C46.3154 33.0777 46.5277 34.3529 47.7759 34.6967Z" fill="#FED9CE"/>
<path d="M48.3326 34.902C48.1358 34.902 47.939 34.8764 47.7422 34.8225C46.4396 34.4633 46.1807 33.1547 46.2247 32.5106C46.2791 31.7255 52.6468 25.7136 54.0245 24.4229C54.0555 24.0714 54.2368 21.9314 54.1747 21.4593C54.097 20.8615 55.2105 20.025 55.8786 19.5785C56.3318 19.2783 56.5933 19.363 56.7098 19.44C56.8419 19.5272 56.9067 19.6837 56.8756 19.8428C56.8264 20.0968 56.5441 20.9949 56.4328 21.3105C56.3862 21.4439 56.3913 21.7826 56.4146 22.1265C56.4638 22.0341 56.526 21.9366 56.6037 21.8365C56.7228 21.6826 56.8549 21.6133 56.9947 21.6338C57.2459 21.6697 57.3805 21.993 57.3935 22.029C57.4013 22.052 57.4039 22.0751 57.3987 22.1008L56.93 24.4794C56.8471 24.8925 56.4664 25.0054 55.9382 25.1645C55.731 25.2261 55.4953 25.2979 55.2364 25.398C54.7858 25.5724 52.9602 28.7003 50.4742 33.5575C50.0469 34.394 49.2027 34.902 48.3326 34.902ZM47.8121 34.5736C48.7521 34.8327 49.775 34.3581 50.2437 33.442C52.103 29.8087 54.4621 25.4211 55.1432 25.1593C55.4099 25.0567 55.6507 24.9849 55.8631 24.9207C56.3784 24.7668 56.627 24.6821 56.6762 24.4306L57.1423 22.0854C57.1009 21.9982 57.0232 21.8904 56.961 21.8827C56.9196 21.875 56.8678 21.9161 56.8108 21.9879C56.5053 22.3779 56.4742 22.7371 56.4742 22.7397C56.469 22.8064 56.4146 22.8577 56.3473 22.8577C56.2722 22.8603 56.223 22.8116 56.2152 22.7448C56.1997 22.6242 56.0676 21.562 56.1893 21.2181C56.3085 20.8794 56.5778 20.0122 56.6218 19.7864C56.6296 19.7427 56.6218 19.6837 56.5674 19.6478C56.4846 19.5939 56.3007 19.6016 56.0236 19.7864C55.0137 20.4586 54.3896 21.1001 54.431 21.4208C54.5009 21.9622 54.286 24.3844 54.2782 24.4896C54.2757 24.5204 54.2601 24.5512 54.2394 24.5718C51.2614 27.3634 46.5225 31.9923 46.4862 32.5234C46.4422 33.0982 46.6701 34.2606 47.8121 34.5736Z" fill="#3F4553"/>
<path d="M55.3478 22.6832C55.3452 22.6832 55.3426 22.6832 55.3426 22.6832C55.2701 22.6806 55.2157 22.619 55.2209 22.5498C55.2209 22.5421 55.2546 21.8441 55.2365 21.5029C55.2157 21.1334 55.7699 19.7889 55.8346 19.6375C55.8605 19.5708 55.9382 19.54 56.003 19.5682C56.0677 19.5939 56.1014 19.6708 56.0729 19.735C55.8424 20.2892 55.4825 21.254 55.4954 21.4901C55.5135 21.8441 55.4799 22.5344 55.4799 22.5626C55.4747 22.6293 55.4177 22.6832 55.3478 22.6832Z" fill="#263238"/>
<path d="M54.9177 22.5395L54.6588 22.5344C54.6588 22.5344 54.6769 21.7851 54.6898 21.5054C54.7028 21.2206 54.9902 20.338 55.0213 20.2405C55.042 20.1737 55.1171 20.1353 55.1844 20.1583C55.2518 20.1789 55.2906 20.2533 55.2673 20.32C55.1818 20.5817 54.9566 21.3053 54.9462 21.5183C54.9358 21.7954 54.9177 22.5395 54.9177 22.5395Z" fill="#263238"/>
</svg>
